<?xml version="1.0" encoding="utf-8"?>
<!-- Generator: Adobe Illustrator 25.4.1, SVG Export Plug-In . SVG Version: 6.00 Build 0)  -->
<svg version="1.1" id="Layer_1" xmlns="http://www.w3.org/2000/svg" xmlns:xlink="http://www.w3.org/1999/xlink" x="0px" y="0px"
	 viewBox="0 0 133 48" style="enable-background:new 0 0 133 48;" xml:space="preserve">
<style type="text/css">
	.st0{fill:#FFFFFF;}
	.st1{fill:#FFFFFF;stroke:#FFFFFF;stroke-width:0.25;stroke-linecap:round;stroke-linejoin:round;stroke-miterlimit:10;}
</style>
<g>
	<g>
		<g>
			<g>
				<g>
					<path class="st0" d="M20.8,0c5.8,0,10.6,1.9,14.4,5.8c3.9,3.8,5.8,8.6,5.8,14.2c0,5.6-1.9,10.3-5.8,14.2
						c-3.9,3.9-8.6,5.8-14.1,5.8c-5.6,0-10.4-1.9-14.3-5.8C3,30.3,1,25.6,1,20.1c0-3.6,0.9-7,2.6-10.1c1.8-3.1,4.2-5.6,7.2-7.3
						C14,0.9,17.3,0,20.8,0z M21,3.7c-2.8,0-5.5,0.7-8,2.2c-2.5,1.5-4.5,3.4-5.9,5.9C5.7,14.3,5,17.1,5,20.1c0,4.5,1.6,8.3,4.7,11.4
						c3.1,3.1,6.9,4.7,11.3,4.7c2.9,0,5.7-0.7,8.2-2.1c2.5-1.4,4.5-3.4,5.9-5.9c1.4-2.5,2.1-5.2,2.1-8.3c0-3-0.7-5.7-2.1-8.2
						c-1.4-2.4-3.4-4.4-5.9-5.9C26.5,4.4,23.8,3.7,21,3.7z"/>
				</g>
			</g>
			<g>
				<g>
					<path class="st0" d="M60.7,0c5.8,0,10.6,1.9,14.4,5.8c3.9,3.8,5.8,8.6,5.8,14.2c0,5.6-1.9,10.3-5.8,14.2
						c-3.9,3.9-8.6,5.8-14.1,5.8c-5.6,0-10.4-1.9-14.3-5.8c-3.9-3.9-5.8-8.5-5.8-14c0-3.6,0.9-7,2.6-10.1c1.8-3.1,4.2-5.6,7.2-7.3
						C53.9,0.9,57.2,0,60.7,0z M60.9,3.7c-2.8,0-5.5,0.7-8,2.2c-2.5,1.5-4.5,3.4-5.9,5.9c-1.4,2.5-2.1,5.2-2.1,8.3
						c0,4.5,1.6,8.3,4.7,11.4c3.1,3.1,6.9,4.7,11.3,4.7c2.9,0,5.7-0.7,8.2-2.1c2.5-1.4,4.5-3.4,5.9-5.9c1.4-2.5,2.1-5.2,2.1-8.3
						c0-3-0.7-5.7-2.1-8.2c-1.4-2.4-3.4-4.4-5.9-5.9C66.5,4.4,63.8,3.7,60.9,3.7z"/>
				</g>
			</g>
			<g>
				<g>
					<path class="st0" d="M82,10.8h3.6v4.9c1.3-1.8,2.6-3.1,3.9-3.9c1.8-1.1,3.7-1.7,5.8-1.7c1.4,0,2.7,0.3,3.9,0.8
						c1.2,0.5,2.2,1.2,3,2.1c0.8,0.9,1.4,2.2,2,3.8c1.2-2.2,2.7-3.9,4.5-5c1.8-1.1,3.7-1.7,5.8-1.7c1.9,0,3.7,0.5,5.1,1.5
						c1.5,1,2.6,2.3,3.3,4.1c0.7,1.8,1.1,4.4,1.1,7.9v15.3h-3.7V23.6c0-3-0.2-5.1-0.6-6.2c-0.4-1.1-1.2-2-2.2-2.7
						c-1-0.7-2.3-1-3.7-1c-1.8,0-3.3,0.5-4.8,1.5c-1.5,1-2.5,2.4-3.2,4.1c-0.7,1.7-1,4.6-1,8.6v11h-3.6V24.6c0-3.4-0.2-5.7-0.6-6.9
						c-0.4-1.2-1.2-2.2-2.2-2.9c-1.1-0.7-2.3-1.1-3.7-1.1c-1.7,0-3.2,0.5-4.7,1.5c-1.5,1-2.5,2.4-3.2,4.1c-0.7,1.7-1,4.3-1,7.8v11.9
						H82V10.8z"/>
				</g>
			</g>
			<g>
				<g>
					<g>
						<path class="st0" d="M2,45.7l0.4-0.2c0.3,0.5,0.6,0.8,1,0.8c0.2,0,0.3,0,0.4-0.1C4,46,4.1,45.9,4.1,45.8
							c0.1-0.1,0.1-0.3,0.1-0.4c0-0.2-0.1-0.3-0.2-0.5c-0.1-0.2-0.4-0.5-0.8-0.7c-0.4-0.3-0.6-0.5-0.7-0.6c-0.2-0.2-0.2-0.5-0.2-0.7
							c0-0.2,0-0.4,0.1-0.5c0.1-0.2,0.2-0.3,0.4-0.4c0.2-0.1,0.4-0.1,0.6-0.1c0.2,0,0.4,0.1,0.6,0.2c0.2,0.1,0.4,0.3,0.6,0.6
							l-0.4,0.3c-0.2-0.2-0.3-0.4-0.4-0.5c-0.1-0.1-0.3-0.1-0.4-0.1c-0.2,0-0.3,0.1-0.5,0.2c-0.1,0.1-0.2,0.3-0.2,0.4
							c0,0.1,0,0.2,0.1,0.3c0,0.1,0.1,0.2,0.2,0.3c0.1,0.1,0.3,0.2,0.6,0.5c0.4,0.3,0.7,0.6,0.8,0.8c0.1,0.2,0.2,0.5,0.2,0.7
							c0,0.3-0.1,0.6-0.4,0.9c-0.3,0.2-0.6,0.4-0.9,0.4c-0.3,0-0.5-0.1-0.8-0.2C2.4,46.3,2.2,46,2,45.7z"/>
						<path class="st0" d="M3.4,46.8c-0.3,0-0.6-0.1-0.8-0.2c-0.2-0.2-0.5-0.4-0.7-0.8l-0.1-0.1l0.6-0.4l0.1,0.1
							c0.3,0.5,0.5,0.7,0.8,0.7c0.1,0,0.3,0,0.4-0.1C3.9,45.9,4,45.8,4,45.7c0.1-0.1,0.1-0.2,0.1-0.3c0-0.1,0-0.3-0.1-0.4
							c-0.1-0.2-0.4-0.4-0.8-0.7c-0.4-0.3-0.6-0.5-0.7-0.7c-0.2-0.2-0.3-0.5-0.3-0.8c0-0.2,0.1-0.4,0.2-0.6c0.1-0.2,0.3-0.3,0.5-0.4
							c0.4-0.2,0.9-0.2,1.3,0c0.2,0.1,0.4,0.3,0.6,0.6l0.1,0.1L4.3,43l-0.1-0.1c-0.2-0.2-0.3-0.4-0.4-0.4c-0.2-0.1-0.5-0.1-0.7,0
							c-0.1,0.1-0.1,0.2-0.1,0.3c0,0.1,0,0.2,0.1,0.2c0,0.1,0.1,0.2,0.2,0.3c0,0,0.2,0.1,0.6,0.5c0.4,0.3,0.7,0.6,0.9,0.8
							c0.2,0.2,0.2,0.5,0.2,0.8c0,0.4-0.1,0.7-0.4,1C4.2,46.6,3.8,46.8,3.4,46.8z M2.2,45.7c0.2,0.3,0.3,0.5,0.5,0.6
							c0.2,0.1,0.4,0.2,0.7,0.2c0.3,0,0.6-0.1,0.8-0.3c0.2-0.2,0.3-0.5,0.3-0.8c0-0.2-0.1-0.4-0.2-0.6C4.3,44.6,4,44.3,3.6,44
							c-0.3-0.3-0.5-0.4-0.6-0.5c-0.1-0.1-0.2-0.2-0.3-0.3c0-0.1-0.1-0.2-0.1-0.3c0-0.2,0.1-0.4,0.2-0.5c0.1-0.1,0.3-0.2,0.5-0.2
							c0.2,0,0.3,0,0.5,0.1c0.1,0.1,0.3,0.2,0.4,0.4l0.2-0.1c-0.2-0.2-0.3-0.4-0.5-0.5c-0.3-0.2-0.7-0.2-1.1,0
							c-0.2,0.1-0.3,0.2-0.4,0.3c-0.1,0.1-0.1,0.3-0.1,0.5c0,0.2,0.1,0.4,0.2,0.6c0.1,0.1,0.2,0.3,0.7,0.6c0.4,0.3,0.7,0.6,0.8,0.8
							c0.1,0.2,0.2,0.3,0.2,0.5c0,0.2,0,0.3-0.1,0.5C4.2,46,4,46.1,3.9,46.2c-0.2,0.1-0.3,0.1-0.5,0.1c-0.4,0-0.7-0.2-1-0.7
							L2.2,45.7z"/>
					</g>
					<g>
						<path class="st0" d="M8.4,41.8h0.4v1.9c0.2-0.2,0.4-0.4,0.6-0.5c0.2-0.1,0.4-0.2,0.7-0.2c0.3,0,0.5,0.1,0.7,0.2
							c0.2,0.1,0.3,0.3,0.4,0.5c0.1,0.2,0.1,0.6,0.1,1v1.8h-0.4v-1.6c0-0.4,0-0.7,0-0.8c-0.1-0.2-0.2-0.4-0.3-0.5
							c-0.1-0.1-0.3-0.2-0.6-0.2c-0.3,0-0.5,0.1-0.7,0.3c-0.2,0.2-0.3,0.4-0.4,0.7c0,0.2-0.1,0.5-0.1,0.9v1.3H8.4V41.8z"/>
						<path class="st0" d="M11.5,46.7h-0.7v-1.8c0-0.4,0-0.6,0-0.8c0-0.2-0.1-0.3-0.3-0.4c-0.1-0.1-0.3-0.1-0.5-0.1
							c-0.2,0-0.4,0.1-0.6,0.2C9.2,44,9,44.1,9,44.4c0,0.2-0.1,0.5-0.1,0.9v1.4H8.2v-5h0.7v1.7c0.1-0.1,0.3-0.2,0.4-0.3
							c0.5-0.3,1.1-0.3,1.5,0c0.2,0.1,0.4,0.3,0.5,0.6c0.1,0.2,0.2,0.6,0.2,1.1V46.7z M11,46.4h0.2v-1.6c0-0.4,0-0.8-0.1-1
							c-0.1-0.2-0.2-0.4-0.4-0.5c-0.4-0.2-0.9-0.2-1.2,0c-0.2,0.1-0.4,0.3-0.5,0.5l-0.2,0.3v-2.2H8.5v4.5h0.2v-1.1
							c0-0.5,0-0.8,0.1-1C8.8,44,9,43.8,9.2,43.6c0.2-0.2,0.5-0.3,0.8-0.3c0.3,0,0.5,0.1,0.6,0.2c0.2,0.1,0.3,0.3,0.3,0.6
							c0,0.1,0.1,0.4,0.1,0.8V46.4z"/>
					</g>
					<g>
						<path class="st0" d="M18.4,43.1v3.4H18v-0.6c-0.2,0.2-0.4,0.4-0.6,0.5c-0.2,0.1-0.5,0.2-0.8,0.2c-0.5,0-0.9-0.2-1.2-0.5
							c-0.3-0.4-0.5-0.8-0.5-1.3c0-0.5,0.2-0.9,0.5-1.3c0.3-0.3,0.8-0.5,1.2-0.5c0.3,0,0.5,0.1,0.8,0.2c0.2,0.1,0.4,0.3,0.6,0.5
							v-0.6H18.4z M16.6,43.5c-0.2,0-0.5,0.1-0.7,0.2c-0.2,0.1-0.4,0.3-0.5,0.5c-0.1,0.2-0.2,0.4-0.2,0.7c0,0.2,0.1,0.5,0.2,0.7
							c0.1,0.2,0.3,0.4,0.5,0.5c0.2,0.1,0.4,0.2,0.7,0.2c0.2,0,0.5-0.1,0.7-0.2c0.2-0.1,0.4-0.3,0.5-0.5c0.1-0.2,0.2-0.4,0.2-0.7
							c0-0.4-0.1-0.7-0.4-1C17.3,43.6,17,43.5,16.6,43.5z"/>
						<path class="st0" d="M16.6,46.8c-0.5,0-1-0.2-1.3-0.6c-0.4-0.4-0.5-0.8-0.5-1.4c0-0.5,0.2-1,0.6-1.4c0.4-0.4,0.8-0.6,1.3-0.6
							c0.3,0,0.6,0.1,0.8,0.2c0.1,0.1,0.3,0.2,0.4,0.3V43h0.7v3.7h-0.7v-0.4c-0.1,0.1-0.3,0.2-0.4,0.3
							C17.2,46.7,16.9,46.8,16.6,46.8z M16.6,43.2c-0.5,0-0.8,0.2-1.2,0.5C15.1,44,15,44.4,15,44.8c0,0.5,0.2,0.9,0.5,1.2
							c0.3,0.3,0.7,0.5,1.2,0.5c0.3,0,0.5-0.1,0.7-0.2c0.2-0.1,0.4-0.3,0.6-0.5l0.2-0.3v0.8h0.2v-3.2h-0.2v0.9l-0.2-0.3
							c-0.2-0.2-0.3-0.4-0.6-0.5C17.1,43.2,16.9,43.2,16.6,43.2z M16.6,46.3c-0.3,0-0.5-0.1-0.7-0.2c-0.2-0.1-0.4-0.3-0.5-0.6
							c-0.1-0.2-0.2-0.5-0.2-0.8c0-0.3,0.1-0.5,0.2-0.8c0.1-0.2,0.3-0.4,0.5-0.6c0.2-0.1,0.5-0.2,0.7-0.2c0.4,0,0.8,0.1,1.1,0.4
							c0.3,0.3,0.4,0.7,0.4,1.1c0,0.3-0.1,0.5-0.2,0.8c-0.1,0.2-0.3,0.4-0.5,0.5C17.1,46.3,16.9,46.3,16.6,46.3z M16.6,43.6
							c-0.2,0-0.4,0.1-0.6,0.2c-0.2,0.1-0.3,0.3-0.4,0.5c-0.1,0.2-0.2,0.4-0.2,0.6c0,0.2,0.1,0.4,0.2,0.6c0.1,0.2,0.3,0.4,0.5,0.5
							c0.4,0.2,0.8,0.2,1.2,0c0.2-0.1,0.3-0.3,0.4-0.4c0.1-0.2,0.2-0.4,0.2-0.6c0-0.4-0.1-0.7-0.4-0.9C17.3,43.7,17,43.6,16.6,43.6z
							"/>
					</g>
					<g>
						<path class="st0" d="M22.1,43.1h0.4v0.6c0.2-0.2,0.4-0.4,0.6-0.5c0.2-0.1,0.5-0.2,0.8-0.2c0.5,0,0.9,0.2,1.2,0.5
							c0.3,0.3,0.5,0.8,0.5,1.3c0,0.5-0.2,0.9-0.5,1.3c-0.3,0.4-0.8,0.5-1.2,0.5c-0.3,0-0.5-0.1-0.8-0.2c-0.2-0.1-0.4-0.3-0.6-0.5
							v1.8h-0.4V43.1z M23.9,43.5c-0.4,0-0.7,0.1-1,0.4c-0.3,0.3-0.4,0.6-0.4,1c0,0.3,0.1,0.5,0.2,0.7c0.1,0.2,0.3,0.4,0.5,0.5
							c0.2,0.1,0.4,0.2,0.7,0.2c0.2,0,0.5-0.1,0.7-0.2c0.2-0.1,0.4-0.3,0.5-0.5c0.1-0.2,0.2-0.4,0.2-0.7c0-0.2-0.1-0.5-0.2-0.7
							c-0.1-0.2-0.3-0.4-0.5-0.5C24.3,43.5,24.1,43.5,23.9,43.5z"/>
						<path class="st0" d="M22.7,47.9H22V43h0.7v0.4c0.1-0.1,0.3-0.2,0.4-0.3c0.2-0.1,0.5-0.2,0.8-0.2c0.5,0,1,0.2,1.3,0.6
							c0.4,0.4,0.6,0.8,0.6,1.4c0,0.5-0.2,1-0.5,1.4c-0.4,0.4-0.8,0.6-1.3,0.6c-0.3,0-0.6-0.1-0.8-0.2c-0.2-0.1-0.3-0.2-0.4-0.3
							V47.9z M22.2,47.7h0.2v-2.1l0.2,0.3c0.2,0.2,0.4,0.4,0.6,0.5c0.2,0.1,0.4,0.2,0.7,0.2c0.5,0,0.8-0.2,1.1-0.5
							c0.3-0.3,0.5-0.7,0.5-1.2c0-0.5-0.2-0.8-0.5-1.2c-0.3-0.3-0.7-0.5-1.2-0.5c-0.3,0-0.5,0.1-0.7,0.2c-0.2,0.1-0.4,0.3-0.6,0.5
							l-0.2,0.3v-0.9h-0.2V47.7z M23.9,46.3c-0.3,0-0.5-0.1-0.7-0.2c-0.2-0.1-0.4-0.3-0.5-0.5c-0.1-0.2-0.2-0.5-0.2-0.8
							c0-0.4,0.1-0.8,0.4-1.1c0.3-0.3,0.6-0.4,1-0.4c0.3,0,0.5,0.1,0.7,0.2c0.2,0.1,0.4,0.3,0.5,0.6c0.1,0.2,0.2,0.5,0.2,0.8
							c0,0.3-0.1,0.5-0.2,0.8c-0.1,0.2-0.3,0.4-0.5,0.6C24.4,46.3,24.1,46.3,23.9,46.3z M23.9,43.6c-0.3,0-0.6,0.1-0.9,0.4
							c-0.2,0.2-0.4,0.5-0.4,0.9c0,0.2,0.1,0.5,0.2,0.6c0.1,0.2,0.3,0.3,0.5,0.4c0.4,0.2,0.8,0.2,1.2,0c0.2-0.1,0.3-0.3,0.5-0.5
							c0.1-0.2,0.2-0.4,0.2-0.6c0-0.2-0.1-0.4-0.2-0.6c-0.1-0.2-0.3-0.4-0.4-0.5C24.3,43.6,24.1,43.6,23.9,43.6z"/>
					</g>
					<g>
						<path class="st0" d="M29.4,41.7c0.1,0,0.2,0,0.3,0.1c0.1,0.1,0.1,0.2,0.1,0.3c0,0.1,0,0.2-0.1,0.3c-0.1,0.1-0.2,0.1-0.3,0.1
							c-0.1,0-0.2,0-0.3-0.1C29,42.3,29,42.2,29,42.1c0-0.1,0-0.2,0.1-0.3C29.2,41.7,29.3,41.7,29.4,41.7z M29.1,43.1h0.4v3.4h-0.4
							V43.1z"/>
						<path class="st0" d="M29.7,46.7H29V43h0.7V46.7z M29.3,46.4h0.2v-3.2h-0.2V46.4z M29.4,42.6c-0.1,0-0.2,0-0.3-0.1
							c-0.1-0.1-0.1-0.2-0.1-0.3c0-0.1,0-0.3,0.1-0.3c0.2-0.2,0.5-0.2,0.7,0c0.1,0.1,0.1,0.2,0.1,0.3c0,0.1,0,0.2-0.1,0.3
							C29.6,42.5,29.5,42.6,29.4,42.6z M29.4,41.8c-0.1,0-0.1,0-0.2,0.1c0,0-0.1,0.1-0.1,0.2c0,0.1,0,0.1,0.1,0.2
							c0.1,0.1,0.2,0.1,0.3,0c0,0,0.1-0.1,0.1-0.2c0-0.1,0-0.1-0.1-0.2C29.5,41.9,29.4,41.8,29.4,41.8z"/>
					</g>
					<g>
						<path class="st0" d="M33.2,43.1h0.4v0.6c0.2-0.2,0.4-0.4,0.6-0.5c0.2-0.1,0.4-0.2,0.7-0.2c0.3,0,0.5,0.1,0.7,0.2
							c0.2,0.1,0.3,0.3,0.4,0.5c0.1,0.2,0.1,0.6,0.1,1v1.8h-0.4v-1.6c0-0.4,0-0.7,0-0.8c-0.1-0.2-0.1-0.4-0.3-0.5
							c-0.1-0.1-0.3-0.2-0.6-0.2c-0.3,0-0.5,0.1-0.7,0.3c-0.2,0.2-0.3,0.4-0.4,0.7c0,0.2-0.1,0.5-0.1,0.9v1.3h-0.4V43.1z"/>
						<path class="st0" d="M36.3,46.7h-0.7v-1.8c0-0.5,0-0.7,0-0.8c0-0.2-0.1-0.3-0.2-0.4c-0.1-0.1-0.3-0.1-0.5-0.1
							c-0.2,0-0.4,0.1-0.6,0.2c-0.2,0.2-0.3,0.4-0.4,0.6c0,0.2-0.1,0.5-0.1,0.9v1.4h-0.7V43h0.7v0.4c0.1-0.1,0.3-0.2,0.4-0.3
							c0.5-0.3,1.1-0.3,1.5,0c0.2,0.1,0.4,0.3,0.5,0.6c0.1,0.2,0.2,0.6,0.2,1.1V46.7z M35.9,46.4h0.2v-1.6c0-0.4,0-0.8-0.1-1
							c-0.1-0.2-0.2-0.4-0.4-0.5c-0.4-0.2-0.9-0.2-1.2,0c-0.2,0.1-0.4,0.3-0.5,0.5l-0.2,0.3v-0.9h-0.2v3.2h0.2v-1.1
							c0-0.5,0-0.8,0.1-1c0.1-0.3,0.2-0.5,0.5-0.7c0.2-0.2,0.5-0.3,0.8-0.3c0.3,0,0.5,0.1,0.6,0.2c0.2,0.1,0.3,0.3,0.3,0.6
							c0,0.1,0.1,0.4,0.1,0.8V46.4z"/>
					</g>
					<g>
						<path class="st0" d="M42.8,43.1h0.4v2.7c0,0.5,0,0.8-0.1,1.1c-0.1,0.3-0.3,0.6-0.6,0.7c-0.3,0.2-0.6,0.3-1,0.3
							c-0.3,0-0.6,0-0.8-0.1c-0.2-0.1-0.4-0.2-0.6-0.3c-0.1-0.1-0.3-0.3-0.4-0.6h0.5c0.1,0.2,0.3,0.4,0.5,0.5
							c0.2,0.1,0.5,0.2,0.8,0.2c0.3,0,0.6-0.1,0.8-0.2c0.2-0.1,0.4-0.3,0.4-0.4c0.1-0.2,0.1-0.4,0.1-0.8v-0.2
							c-0.2,0.2-0.4,0.4-0.6,0.5c-0.2,0.1-0.5,0.2-0.8,0.2c-0.3,0-0.6-0.1-0.9-0.2c-0.3-0.2-0.5-0.4-0.6-0.6
							c-0.2-0.3-0.2-0.6-0.2-0.9c0-0.3,0.1-0.6,0.2-0.9c0.2-0.3,0.4-0.5,0.7-0.6c0.3-0.2,0.6-0.2,0.9-0.2c0.3,0,0.5,0.1,0.7,0.2
							c0.2,0.1,0.4,0.3,0.6,0.5V43.1z M41.5,43.5c-0.2,0-0.5,0.1-0.7,0.2c-0.2,0.1-0.4,0.3-0.5,0.5c-0.1,0.2-0.2,0.4-0.2,0.7
							c0,0.4,0.1,0.7,0.4,0.9c0.3,0.2,0.6,0.4,1,0.4c0.4,0,0.7-0.1,1-0.4c0.2-0.2,0.4-0.6,0.4-1c0-0.3-0.1-0.5-0.2-0.7
							c-0.1-0.2-0.3-0.4-0.5-0.5C42,43.5,41.7,43.5,41.5,43.5z"/>
						<path class="st0" d="M41.5,48c-0.3,0-0.6,0-0.8-0.1c-0.2-0.1-0.5-0.2-0.6-0.4c-0.2-0.2-0.3-0.4-0.4-0.7l-0.1-0.2h0.7l0,0.1
							c0.1,0.2,0.3,0.4,0.5,0.5c0.2,0.1,0.4,0.1,0.7,0.1c0.3,0,0.5-0.1,0.7-0.2c0.2-0.1,0.3-0.2,0.4-0.4c0.1-0.1,0.1-0.3,0.1-0.6
							c-0.1,0.1-0.3,0.2-0.4,0.3c-0.6,0.3-1.2,0.2-1.8-0.1c-0.3-0.2-0.5-0.4-0.7-0.7c-0.2-0.3-0.2-0.6-0.2-0.9s0.1-0.7,0.3-0.9
							c0.2-0.3,0.4-0.5,0.7-0.7c0.5-0.3,1.2-0.3,1.7-0.1c0.2,0.1,0.3,0.2,0.5,0.3V43h0.7v2.8c0,0.5,0,0.9-0.1,1.1
							c-0.1,0.3-0.3,0.6-0.7,0.8C42.3,47.9,41.9,48,41.5,48z M39.9,46.9c0.1,0.2,0.2,0.3,0.3,0.4c0.1,0.1,0.3,0.2,0.5,0.3
							c0.2,0.1,0.5,0.1,0.7,0.1c0.4,0,0.7-0.1,1-0.2c0.3-0.2,0.4-0.4,0.5-0.7c0.1-0.2,0.1-0.5,0.1-1v-2.6h-0.2v0.8l-0.2-0.3
							c-0.2-0.2-0.4-0.4-0.6-0.5c-0.4-0.2-1-0.2-1.5,0.1c-0.3,0.1-0.5,0.4-0.6,0.6c-0.1,0.3-0.2,0.5-0.2,0.8c0,0.3,0.1,0.6,0.2,0.8
							c0.1,0.2,0.3,0.4,0.6,0.6c0.5,0.3,1.1,0.3,1.5,0.1c0.2-0.1,0.4-0.3,0.6-0.4l0.2-0.3v0.5c0,0.4,0,0.7-0.1,0.9
							c-0.1,0.2-0.3,0.4-0.5,0.5c-0.2,0.1-0.5,0.2-0.8,0.2c-0.3,0-0.6-0.1-0.8-0.2c-0.2-0.1-0.4-0.3-0.5-0.5H39.9z M41.5,46.2
							c-0.4,0-0.8-0.1-1.1-0.4c-0.3-0.3-0.4-0.6-0.4-1c0-0.3,0.1-0.5,0.2-0.8c0.1-0.2,0.3-0.4,0.5-0.5c0.4-0.3,1-0.3,1.5,0
							c0.2,0.1,0.4,0.3,0.5,0.5c0.1,0.2,0.2,0.5,0.2,0.8c0,0.4-0.1,0.8-0.4,1C42.3,46.1,41.9,46.2,41.5,46.2z M41.5,43.6
							c-0.2,0-0.4,0.1-0.6,0.2c-0.2,0.1-0.3,0.3-0.5,0.5c-0.1,0.2-0.2,0.4-0.2,0.6c0,0.3,0.1,0.6,0.3,0.8c0.2,0.2,0.5,0.3,0.9,0.3
							c0.4,0,0.7-0.1,0.9-0.3c0.2-0.2,0.3-0.5,0.3-0.9c0-0.2-0.1-0.4-0.2-0.6c-0.1-0.2-0.2-0.3-0.4-0.4
							C41.9,43.6,41.7,43.6,41.5,43.6z"/>
					</g>
					<g>
						<path class="st0" d="M53.7,41.8c0.7,0,1.3,0.2,1.8,0.7c0.5,0.5,0.7,1,0.7,1.7c0,0.7-0.2,1.3-0.7,1.7c-0.5,0.5-1,0.7-1.7,0.7
							c-0.7,0-1.3-0.2-1.7-0.7c-0.5-0.5-0.7-1-0.7-1.7c0-0.4,0.1-0.9,0.3-1.2c0.2-0.4,0.5-0.7,0.9-0.9
							C52.8,41.9,53.2,41.8,53.7,41.8z M53.7,42.2c-0.3,0-0.7,0.1-1,0.3c-0.3,0.2-0.5,0.4-0.7,0.7c-0.2,0.3-0.3,0.6-0.3,1
							c0,0.5,0.2,1,0.6,1.4c0.4,0.4,0.8,0.6,1.4,0.6c0.4,0,0.7-0.1,1-0.3c0.3-0.2,0.5-0.4,0.7-0.7c0.2-0.3,0.3-0.6,0.3-1
							c0-0.4-0.1-0.7-0.3-1c-0.2-0.3-0.4-0.5-0.7-0.7C54.4,42.3,54,42.2,53.7,42.2z"/>
						<path class="st0" d="M53.7,46.8c-0.7,0-1.3-0.2-1.8-0.7c-0.5-0.5-0.7-1.1-0.7-1.8c0-0.5,0.1-0.9,0.3-1.3
							c0.2-0.4,0.5-0.7,0.9-0.9c0.4-0.2,0.8-0.3,1.3-0.3c0.7,0,1.4,0.2,1.8,0.7c0.5,0.5,0.7,1.1,0.7,1.8c0,0.7-0.2,1.3-0.7,1.8
							C55,46.5,54.4,46.8,53.7,46.8z M53.7,41.9c-0.4,0-0.8,0.1-1.1,0.3c-0.3,0.2-0.6,0.5-0.8,0.8c-0.2,0.4-0.3,0.8-0.3,1.2
							c0,0.6,0.2,1.2,0.7,1.6c0.4,0.4,1,0.7,1.6,0.7c0.6,0,1.2-0.2,1.6-0.7c0.4-0.4,0.7-1,0.7-1.6c0-0.7-0.2-1.2-0.7-1.6
							C54.9,42.1,54.3,41.9,53.7,41.9z M53.7,46.3c-0.6,0-1.1-0.2-1.5-0.6c-0.4-0.4-0.6-0.9-0.6-1.5c0-0.4,0.1-0.8,0.3-1.1
							c0.2-0.3,0.4-0.6,0.8-0.8c0.7-0.4,1.4-0.4,2.1,0c0.3,0.2,0.6,0.4,0.8,0.8c0.2,0.3,0.3,0.7,0.3,1.1c0,0.4-0.1,0.7-0.3,1.1
							c-0.2,0.3-0.4,0.6-0.8,0.8C54.4,46.2,54.1,46.3,53.7,46.3z M53.7,42.4c-0.3,0-0.6,0.1-0.9,0.3c-0.3,0.2-0.5,0.4-0.7,0.7
							c-0.2,0.3-0.2,0.6-0.2,0.9c0,0.5,0.2,0.9,0.5,1.3s0.8,0.5,1.3,0.5c0.3,0,0.6-0.1,0.9-0.2c0.3-0.2,0.5-0.4,0.7-0.7
							c0.2-0.3,0.2-0.6,0.2-0.9c0-0.3-0.1-0.7-0.2-0.9c-0.2-0.3-0.4-0.5-0.7-0.7C54.3,42.5,54,42.4,53.7,42.4z"/>
					</g>
					<g>
						<path class="st0" d="M59.7,43.1h0.4v0.6c0.2-0.2,0.4-0.4,0.6-0.5c0.2-0.1,0.4-0.2,0.7-0.2c0.3,0,0.5,0.1,0.7,0.2
							c0.2,0.1,0.3,0.3,0.4,0.5c0.1,0.2,0.1,0.6,0.1,1v1.8h-0.4v-1.6c0-0.4,0-0.7,0-0.8c-0.1-0.2-0.1-0.4-0.3-0.5
							c-0.1-0.1-0.3-0.2-0.6-0.2c-0.3,0-0.5,0.1-0.7,0.3c-0.2,0.2-0.3,0.4-0.4,0.7c0,0.2-0.1,0.5-0.1,0.9v1.3h-0.4V43.1z"/>
						<path class="st0" d="M62.8,46.7h-0.7v-1.8c0-0.4,0-0.6,0-0.8c0-0.2-0.1-0.3-0.2-0.4c-0.1-0.1-0.3-0.1-0.5-0.1
							c-0.2,0-0.4,0.1-0.6,0.2c-0.2,0.2-0.3,0.4-0.4,0.6c0,0.2-0.1,0.5-0.1,0.9v1.4h-0.7V43h0.7v0.4c0.1-0.1,0.3-0.2,0.4-0.3
							c0.5-0.3,1.1-0.3,1.5,0c0.2,0.1,0.4,0.3,0.5,0.6c0.1,0.2,0.2,0.6,0.2,1.1V46.7z M62.4,46.4h0.2v-1.6c0-0.4,0-0.8-0.1-1
							c-0.1-0.2-0.2-0.4-0.4-0.5c-0.4-0.2-0.9-0.2-1.2,0c-0.2,0.1-0.4,0.3-0.5,0.5L60,44.1v-0.9h-0.2v3.2H60v-1.1c0-0.5,0-0.8,0.1-1
							c0.1-0.3,0.2-0.5,0.5-0.7c0.2-0.2,0.5-0.3,0.8-0.3c0.3,0,0.5,0.1,0.6,0.2c0.2,0.1,0.3,0.3,0.3,0.6c0,0.1,0.1,0.4,0.1,0.8V46.4
							z"/>
					</g>
					<g>
						<path class="st0" d="M66.3,41.8h0.4v4.7h-0.4V41.8z"/>
						<path class="st0" d="M66.8,46.7h-0.7v-5h0.7V46.7z M66.4,46.4h0.2v-4.5h-0.2V46.4z"/>
					</g>
					<g>
						<path class="st0" d="M70.5,41.7c0.1,0,0.2,0,0.3,0.1c0.1,0.1,0.1,0.2,0.1,0.3c0,0.1,0,0.2-0.1,0.3c-0.1,0.1-0.2,0.1-0.3,0.1
							c-0.1,0-0.2,0-0.3-0.1c-0.1-0.1-0.1-0.2-0.1-0.3c0-0.1,0-0.2,0.1-0.3C70.3,41.7,70.4,41.7,70.5,41.7z M70.3,43.1h0.4v3.4h-0.4
							V43.1z"/>
						<path class="st0" d="M70.8,46.7h-0.7V43h0.7V46.7z M70.4,46.4h0.2v-3.2h-0.2V46.4z M70.5,42.6c-0.1,0-0.2,0-0.3-0.1
							C70,42.3,70,42.2,70,42.1c0-0.1,0-0.3,0.1-0.3c0.2-0.2,0.5-0.2,0.7,0c0.1,0.1,0.1,0.2,0.1,0.3c0,0.1,0,0.2-0.1,0.3
							C70.7,42.5,70.6,42.6,70.5,42.6z M70.5,41.8c-0.1,0-0.1,0-0.2,0.1c0,0-0.1,0.1-0.1,0.2c0,0.1,0,0.1,0.1,0.2
							c0.1,0.1,0.2,0.1,0.3,0c0,0,0.1-0.1,0.1-0.2c0-0.1,0-0.1-0.1-0.2C70.6,41.9,70.6,41.8,70.5,41.8z"/>
					</g>
					<g>
						<path class="st0" d="M74.3,43.1h0.4v0.6c0.2-0.2,0.4-0.4,0.6-0.5c0.2-0.1,0.4-0.2,0.7-0.2c0.3,0,0.5,0.1,0.7,0.2
							c0.2,0.1,0.3,0.3,0.4,0.5c0.1,0.2,0.1,0.6,0.1,1v1.8h-0.4v-1.6c0-0.4,0-0.7,0-0.8c-0.1-0.2-0.1-0.4-0.3-0.5
							c-0.1-0.1-0.3-0.2-0.6-0.2c-0.3,0-0.5,0.1-0.7,0.3c-0.2,0.2-0.3,0.4-0.4,0.7c0,0.2-0.1,0.5-0.1,0.9v1.3h-0.4V43.1z"/>
						<path class="st0" d="M77.4,46.7h-0.7v-1.8c0-0.5,0-0.7,0-0.8c0-0.2-0.1-0.3-0.2-0.4c-0.1-0.1-0.3-0.1-0.5-0.1
							c-0.2,0-0.4,0.1-0.6,0.2C75.1,44,75,44.1,75,44.4c0,0.2-0.1,0.5-0.1,0.9v1.4h-0.7V43h0.7v0.4c0.1-0.1,0.3-0.2,0.4-0.3
							c0.5-0.3,1.1-0.3,1.5,0c0.2,0.1,0.4,0.3,0.5,0.6c0.1,0.2,0.2,0.6,0.2,1.1V46.7z M77,46.4h0.2v-1.6c0-0.4,0-0.8-0.1-1
							c-0.1-0.2-0.2-0.4-0.4-0.5c-0.4-0.2-0.9-0.2-1.2,0c-0.2,0.1-0.4,0.3-0.5,0.5l-0.2,0.3v-0.9h-0.2v3.2h0.2v-1.1
							c0-0.5,0-0.8,0.1-1c0.1-0.3,0.2-0.5,0.5-0.7c0.2-0.2,0.5-0.3,0.8-0.3c0.3,0,0.5,0.1,0.6,0.2c0.2,0.1,0.3,0.3,0.3,0.6
							c0,0.1,0.1,0.4,0.1,0.8V46.4z"/>
					</g>
					<g>
						<path class="st0" d="M83.9,45.4l0.4,0.2c-0.1,0.2-0.3,0.4-0.4,0.6c-0.2,0.1-0.3,0.3-0.5,0.3c-0.2,0.1-0.4,0.1-0.7,0.1
							c-0.6,0-1-0.2-1.3-0.5c-0.3-0.4-0.5-0.8-0.5-1.2c0-0.4,0.1-0.8,0.4-1.2c0.3-0.4,0.8-0.6,1.4-0.6c0.6,0,1,0.2,1.4,0.7
							c0.2,0.3,0.4,0.7,0.4,1.2h-3.1c0,0.4,0.1,0.7,0.4,1c0.2,0.3,0.5,0.4,0.9,0.4c0.2,0,0.3,0,0.5-0.1c0.2-0.1,0.3-0.1,0.4-0.2
							C83.6,45.8,83.7,45.6,83.9,45.4z M83.9,44.5c-0.1-0.2-0.1-0.4-0.3-0.6c-0.1-0.1-0.3-0.3-0.4-0.3c-0.2-0.1-0.4-0.1-0.6-0.1
							c-0.3,0-0.6,0.1-0.9,0.3c-0.2,0.2-0.3,0.4-0.4,0.7H83.9z"/>
						<path class="st0" d="M82.6,46.8c-0.6,0-1.1-0.2-1.4-0.6c-0.3-0.4-0.5-0.8-0.5-1.3c0-0.5,0.1-0.9,0.4-1.2
							c0.4-0.5,0.8-0.7,1.5-0.7c0.6,0,1.1,0.2,1.5,0.7c0.3,0.3,0.4,0.8,0.4,1.2l0,0.1h-3.1c0,0.3,0.1,0.6,0.3,0.8
							c0.2,0.2,0.5,0.3,0.8,0.3c0.2,0,0.3,0,0.5-0.1c0.2-0.1,0.3-0.1,0.4-0.2c0.1-0.1,0.2-0.2,0.3-0.5l0.1-0.1l0.6,0.3l-0.1,0.1
							c-0.1,0.2-0.3,0.5-0.4,0.6c-0.2,0.2-0.4,0.3-0.6,0.4C83.1,46.7,82.9,46.8,82.6,46.8z M82.6,43.2c-0.5,0-0.9,0.2-1.3,0.6
							c-0.2,0.3-0.4,0.7-0.4,1.1c0,0.4,0.1,0.8,0.4,1.2c0.3,0.3,0.7,0.5,1.2,0.5c0.2,0,0.4,0,0.6-0.1c0.2-0.1,0.4-0.2,0.5-0.3
							c0.1-0.1,0.2-0.3,0.3-0.4l-0.2-0.1c-0.1,0.2-0.2,0.3-0.3,0.4c-0.1,0.1-0.3,0.2-0.5,0.3c-0.2,0.1-0.4,0.1-0.6,0.1
							c-0.4,0-0.7-0.1-1-0.4c-0.3-0.3-0.4-0.6-0.4-1.1l0-0.1h3.1c0-0.4-0.1-0.7-0.3-1C83.5,43.4,83.1,43.2,82.6,43.2z M84,44.6h-2.9
							l0-0.2c0.1-0.3,0.2-0.6,0.4-0.8c0.3-0.2,0.6-0.4,0.9-0.4c0.2,0,0.4,0,0.6,0.1c0.2,0.1,0.4,0.2,0.5,0.4
							c0.1,0.2,0.2,0.4,0.3,0.6L84,44.6z M81.5,44.4h2.2c0-0.1-0.1-0.3-0.2-0.4c-0.1-0.1-0.2-0.2-0.4-0.3c-0.2-0.1-0.3-0.1-0.5-0.1
							c-0.3,0-0.6,0.1-0.8,0.3C81.7,44,81.6,44.1,81.5,44.4z"/>
					</g>
					<g>
						<path class="st0" d="M92.4,41.9h2.3v0.5h-1.9v1.4h1.9v0.5h-1.9v2.3h-0.5V41.9z"/>
						<path class="st0" d="M93,46.7h-0.7v-4.9h2.6v0.7H93v1.2h1.9v0.7H93V46.7z M92.6,46.4h0.2v-2.3h1.9v-0.2h-1.9v-1.7h1.9V42h-2.1
							V46.4z"/>
					</g>
					<g>
						<path class="st0" d="M98.1,43.1h0.4v1.6c0,0.4,0,0.7,0.1,0.8c0.1,0.2,0.2,0.4,0.4,0.5c0.2,0.1,0.4,0.2,0.6,0.2
							c0.2,0,0.5-0.1,0.6-0.2c0.2-0.1,0.3-0.3,0.4-0.5c0-0.1,0.1-0.4,0.1-0.8v-1.6h0.4v1.7c0,0.5-0.1,0.8-0.2,1.1
							c-0.1,0.2-0.3,0.4-0.5,0.6c-0.2,0.1-0.5,0.2-0.8,0.2c-0.3,0-0.6-0.1-0.8-0.2c-0.2-0.1-0.4-0.3-0.5-0.6
							c-0.1-0.2-0.2-0.6-0.2-1.1V43.1z"/>
						<path class="st0" d="M99.6,46.8c-0.4,0-0.7-0.1-0.9-0.2c-0.2-0.1-0.4-0.4-0.5-0.6c-0.1-0.3-0.2-0.6-0.2-1.1V43h0.7v1.7
							c0,0.4,0,0.6,0.1,0.8c0.1,0.2,0.2,0.3,0.3,0.4c0.2,0.1,0.3,0.2,0.6,0.2c0.2,0,0.4-0.1,0.6-0.2c0.2-0.1,0.3-0.2,0.3-0.4
							c0-0.1,0.1-0.3,0.1-0.8V43h0.7v1.8c0,0.5-0.1,0.9-0.2,1.1c-0.1,0.3-0.3,0.5-0.5,0.6C100.3,46.7,100,46.8,99.6,46.8z
							 M98.3,43.2v1.5c0,0.5,0.1,0.8,0.2,1c0.1,0.2,0.3,0.4,0.4,0.5c0.2,0.1,0.5,0.2,0.8,0.2c0.3,0,0.6-0.1,0.8-0.2
							c0.2-0.1,0.3-0.3,0.4-0.5c0.1-0.2,0.2-0.6,0.2-1v-1.6h-0.2v1.5c0,0.5,0,0.7-0.1,0.9c-0.1,0.2-0.2,0.4-0.4,0.5
							c-0.2,0.1-0.4,0.2-0.7,0.2c-0.3,0-0.5-0.1-0.7-0.2c-0.2-0.1-0.3-0.3-0.4-0.6c0-0.2-0.1-0.4-0.1-0.8v-1.5H98.3z"/>
					</g>
					<g>
						<path class="st0" d="M105.2,41.9h0.4v1.3h0.7v0.4h-0.7v3h-0.4v-3h-0.6v-0.4h0.6V41.9z"/>
						<path class="st0" d="M105.8,46.7h-0.7v-3h-0.6V43h0.6v-1.3h0.7V43h0.7v0.6h-0.7V46.7z M105.3,46.4h0.2v-3h0.7v-0.1h-0.7V42
							h-0.2v1.3h-0.6v0.1h0.6V46.4z"/>
					</g>
					<g>
						<path class="st0" d="M109.7,43.1h0.4v1.6c0,0.4,0,0.7,0.1,0.8c0.1,0.2,0.2,0.4,0.4,0.5c0.2,0.1,0.4,0.2,0.6,0.2
							c0.2,0,0.5-0.1,0.6-0.2c0.2-0.1,0.3-0.3,0.4-0.5c0-0.1,0.1-0.4,0.1-0.8v-1.6h0.4v1.7c0,0.5-0.1,0.8-0.2,1.1
							c-0.1,0.2-0.3,0.4-0.5,0.6c-0.2,0.1-0.5,0.2-0.8,0.2c-0.3,0-0.6-0.1-0.8-0.2c-0.2-0.1-0.4-0.3-0.5-0.6
							c-0.1-0.2-0.2-0.6-0.2-1.1V43.1z"/>
						<path class="st0" d="M111.2,46.8c-0.4,0-0.7-0.1-0.9-0.2c-0.2-0.1-0.4-0.4-0.5-0.6c-0.1-0.3-0.2-0.6-0.2-1.1V43h0.7v1.7
							c0,0.4,0,0.6,0.1,0.8c0.1,0.2,0.2,0.3,0.3,0.4c0.2,0.1,0.3,0.2,0.6,0.2c0.2,0,0.4-0.1,0.6-0.2c0.1-0.1,0.3-0.2,0.3-0.4
							c0-0.1,0.1-0.3,0.1-0.8V43h0.7v1.8c0,0.5-0.1,0.9-0.2,1.1c-0.1,0.3-0.3,0.5-0.5,0.6C111.8,46.7,111.5,46.8,111.2,46.8z
							 M109.8,43.2v1.5c0,0.5,0.1,0.8,0.2,1c0.1,0.2,0.3,0.4,0.5,0.5c0.2,0.1,0.5,0.2,0.8,0.2c0.3,0,0.6-0.1,0.8-0.2
							c0.2-0.1,0.3-0.3,0.4-0.5c0.1-0.2,0.2-0.6,0.2-1v-1.6h-0.2v1.5c0,0.5,0,0.7-0.1,0.9c-0.1,0.2-0.2,0.4-0.4,0.5
							c-0.2,0.1-0.4,0.2-0.7,0.2c-0.3,0-0.5-0.1-0.7-0.2c-0.2-0.1-0.3-0.3-0.4-0.6c0-0.2-0.1-0.4-0.1-0.8v-1.5H109.8z"/>
					</g>
					<g>
						<path class="st0" d="M116.2,43.1h0.4v0.5c0.1-0.2,0.3-0.3,0.4-0.4c0.1-0.1,0.3-0.1,0.5-0.1c0.1,0,0.3,0,0.4,0.1l-0.2,0.4
							c-0.1,0-0.2-0.1-0.2-0.1c-0.1,0-0.3,0.1-0.4,0.2s-0.2,0.3-0.3,0.6c-0.1,0.2-0.1,0.6-0.1,1.2v1.2h-0.4V43.1z"/>
						<path class="st0" d="M116.8,46.7h-0.7V43h0.7v0.3c0.1-0.1,0.2-0.1,0.2-0.2c0.3-0.2,0.6-0.2,1,0l0.1,0.1l-0.4,0.6l-0.1,0
							c-0.1,0-0.2,0-0.2,0c-0.1,0-0.2,0-0.3,0.1c-0.1,0.1-0.2,0.3-0.3,0.5c-0.1,0.2-0.1,0.6-0.1,1.1V46.7z M116.3,46.4h0.2v-1
							c0-0.6,0-1,0.1-1.2c0.1-0.3,0.2-0.5,0.3-0.6c0.2-0.1,0.3-0.2,0.5-0.2c0.1,0,0.1,0,0.2,0l0.1-0.2c-0.2-0.1-0.4,0-0.6,0.1
							c-0.1,0.1-0.3,0.2-0.4,0.4l-0.2,0.3v-0.8h-0.2V46.4z"/>
					</g>
					<g>
						<path class="st0" d="M123.9,45.4l0.4,0.2c-0.1,0.2-0.3,0.4-0.4,0.6c-0.2,0.1-0.3,0.3-0.5,0.3c-0.2,0.1-0.4,0.1-0.7,0.1
							c-0.6,0-1-0.2-1.3-0.5c-0.3-0.4-0.5-0.8-0.5-1.2c0-0.4,0.1-0.8,0.4-1.2c0.3-0.4,0.8-0.6,1.4-0.6c0.6,0,1,0.2,1.4,0.7
							c0.2,0.3,0.4,0.7,0.4,1.2h-3.1c0,0.4,0.1,0.7,0.4,1c0.2,0.3,0.5,0.4,0.9,0.4c0.2,0,0.3,0,0.5-0.1c0.2-0.1,0.3-0.1,0.4-0.2
							C123.6,45.8,123.7,45.6,123.9,45.4z M123.9,44.5c-0.1-0.2-0.1-0.4-0.3-0.6c-0.1-0.1-0.3-0.3-0.4-0.3c-0.2-0.1-0.4-0.1-0.6-0.1
							c-0.3,0-0.6,0.1-0.9,0.3c-0.2,0.2-0.3,0.4-0.4,0.7H123.9z"/>
						<path class="st0" d="M122.6,46.8c-0.6,0-1.1-0.2-1.4-0.6c-0.3-0.4-0.5-0.8-0.5-1.3c0-0.5,0.1-0.9,0.4-1.2
							c0.4-0.5,0.8-0.7,1.5-0.7c0.6,0,1.1,0.2,1.5,0.7c0.3,0.3,0.4,0.8,0.4,1.2l0,0.1h-3.1c0,0.3,0.1,0.6,0.3,0.8
							c0.2,0.2,0.5,0.3,0.8,0.3c0.2,0,0.3,0,0.5-0.1c0.2-0.1,0.3-0.1,0.4-0.2c0.1-0.1,0.2-0.2,0.3-0.5l0.1-0.1l0.6,0.3l-0.1,0.1
							c-0.1,0.2-0.3,0.5-0.4,0.6c-0.2,0.2-0.4,0.3-0.6,0.4C123.1,46.7,122.9,46.8,122.6,46.8z M122.6,43.2c-0.5,0-0.9,0.2-1.3,0.6
							c-0.2,0.3-0.4,0.7-0.4,1.1c0,0.4,0.1,0.8,0.4,1.2c0.3,0.3,0.7,0.5,1.2,0.5c0.2,0,0.4,0,0.6-0.1c0.2-0.1,0.4-0.2,0.5-0.3
							c0.1-0.1,0.2-0.3,0.3-0.4l-0.2-0.1c-0.1,0.2-0.2,0.3-0.3,0.4c-0.1,0.1-0.3,0.2-0.5,0.3c-0.2,0.1-0.4,0.1-0.6,0.1
							c-0.4,0-0.7-0.1-1-0.4c-0.3-0.3-0.4-0.6-0.4-1.1l0-0.1h3.1c0-0.4-0.1-0.7-0.3-1C123.6,43.4,123.1,43.2,122.6,43.2z M124,44.6
							h-2.9l0-0.2c0.1-0.3,0.2-0.6,0.4-0.8c0.3-0.2,0.6-0.4,0.9-0.4c0.2,0,0.4,0,0.6,0.1c0.2,0.1,0.4,0.2,0.5,0.4
							c0.1,0.2,0.2,0.4,0.3,0.6L124,44.6z M121.5,44.4h2.2c0-0.1-0.1-0.3-0.2-0.4c-0.1-0.1-0.2-0.2-0.4-0.3
							c-0.2-0.1-0.3-0.1-0.5-0.1c-0.3,0-0.6,0.1-0.8,0.3C121.7,44,121.6,44.1,121.5,44.4z"/>
					</g>
				</g>
			</g>
		</g>
		<g id="j9NFJK_00000116199489699955803370000005390290987807987129_">
			<g>
				<g>
					<path class="st0" d="M128.4,16.4c-1.7,0.1-3.6-1.4-3.6-3.5c0-2,1.6-3.6,3.6-3.6c2,0,3.6,1.6,3.6,3.6
						C132,14.9,130.1,16.5,128.4,16.4z M131.2,12.9c0-1.5-1.3-2.8-2.8-2.8c-1.6,0-2.8,1.2-2.8,2.8c0,1.6,1.2,2.8,2.8,2.8
						C130,15.7,131.2,14.4,131.2,12.9z"/>
					<path class="st0" d="M126.8,10.9c0.7,0,1.4,0,2.1,0.1c0.5,0.1,0.8,0.3,0.8,0.8c0,0.4-0.1,0.8-0.6,1c0,0,0,0,0,0
						c0.3,0.1,0.5,0.4,0.6,0.6c0.2,0.3,0.3,0.7,0.5,1c0,0,0,0,0,0.1c-0.3,0-0.6,0-1,0c0,0-0.1-0.1-0.1-0.1c-0.1-0.3-0.3-0.6-0.4-0.8
						c-0.2-0.3-0.4-0.4-0.8-0.4c-0.1,0-0.1,0-0.1,0.1c0,0.3,0,0.7,0,1c0,0.1,0,0.1,0,0.2c-0.3,0-0.6,0-0.9,0
						C126.8,13.4,126.8,12.2,126.8,10.9z M127.8,12.6c0.2,0,0.3,0,0.4,0c0.1,0,0.1,0,0.2,0c0.2,0,0.3-0.2,0.3-0.4
						c0-0.3-0.1-0.4-0.3-0.4c-0.2,0-0.4,0-0.6,0C127.8,11.9,127.8,12.2,127.8,12.6z"/>
				</g>
			</g>
		</g>
	</g>
</g>
</svg>
