<svg xmlns="http://www.w3.org/2000/svg" xmlns:xlink="http://www.w3.org/1999/xlink" width="61.84" height="59.004" viewBox="0 0 61.84 59.004">
  <defs>
    <clipPath id="clip-path">
      <rect id="Rectangle_51" data-name="Rectangle 51" width="61.84" height="59.004" fill="none"/>
    </clipPath>
  </defs>
  <g id="PremierPartner-CMYK61x59" transform="translate(-4.36 -4.36)">
    <g id="Group_58" data-name="Group 58" transform="translate(4.36 4.36)">
      <path id="Path_41" data-name="Path 41" d="M64.918,63.413H6.194A1.364,1.364,0,0,1,4.83,62.049V6.114A1.364,1.364,0,0,1,6.194,4.75H64.918a1.364,1.364,0,0,1,1.364,1.364V62.049a1.364,1.364,0,0,1-1.364,1.364Z" transform="translate(-4.627 -4.582)" fill="#fff"/>
      <g id="Group_55" data-name="Group 55" transform="translate(0)" clip-path="url(#clip-path)">
        <path id="Path_42" data-name="Path 42" d="M64.918,63.413H6.194A1.364,1.364,0,0,1,4.83,62.049V6.114A1.364,1.364,0,0,1,6.194,4.75H64.918a1.364,1.364,0,0,1,1.364,1.364V62.049a1.364,1.364,0,0,1-1.364,1.364Z" transform="translate(-4.627 -4.582)" fill="none" stroke="#5f6469" stroke-miterlimit="10" stroke-width="0.79"/>
        <path id="Path_43" data-name="Path 43" d="M64.889,63.413H6.114A1.364,1.364,0,0,1,4.75,62.049V6.114A1.364,1.364,0,0,1,6.114,4.75H64.889a1.364,1.364,0,0,1,1.364,1.364V62.049a1.364,1.364,0,0,1-1.364,1.364Z" transform="translate(-4.582 -4.582)" fill="#fff"/>
        <path id="Path_44" data-name="Path 44" d="M4.75,112.92v9.866c0,1.493.54,2.111,2.111,2.111H64.143c1.662,0,2.464,0,2.111-2.111V112.92Z" transform="translate(-4.582 -66.065)" fill="#666c71"/>
      </g>
      <g id="Group_56" data-name="Group 56" transform="translate(15.27 50.899)">
        <path id="Path_45" data-name="Path 45" d="M39.74,122.29h1.23a1.256,1.256,0,0,1,.578.138,1.049,1.049,0,0,1,.423.388,1.091,1.091,0,0,1,0,1.122,1.113,1.113,0,0,1-.423.388,1.256,1.256,0,0,1-.578.138H40.3v1.381H39.74v-3.552Zm1.243,1.649a.6.6,0,0,0,.319-.082.559.559,0,0,0,.2-.211.553.553,0,0,0,0-.535.52.52,0,0,0-.2-.207.625.625,0,0,0-.319-.078H40.3v1.118h.686Z" transform="translate(-39.74 -122.29)" fill="#fff"/>
        <path id="Path_46" data-name="Path 46" d="M46.35,122.29H47.6a1.261,1.261,0,0,1,.583.138,1,1,0,0,1,.414.388,1.071,1.071,0,0,1,.151.561.98.98,0,0,1-.229.634,1.1,1.1,0,0,1-.578.371v.026l.967,1.4v.03h-.647l-.937-1.39h-.419v1.39H46.35V122.29Zm1.234,1.649a.6.6,0,0,0,.423-.16.526.526,0,0,0,.173-.406.55.55,0,0,0-.069-.268.581.581,0,0,0-.2-.211.552.552,0,0,0-.306-.082h-.7v1.126h.682Z" transform="translate(-43.497 -122.29)" fill="#fff"/>
        <path id="Path_47" data-name="Path 47" d="M53.16,122.29h2.158v.531h-1.6v.984h1.446v.527H53.717v.984h1.6v.531H53.16v-3.552Z" transform="translate(-47.368 -122.29)" fill="#fff"/>
        <path id="Path_48" data-name="Path 48" d="M59.53,122.29h.755l1.023,2.7h.03l1.023-2.7h.755v3.552h-.552v-1.99l.03-.639h-.03l-1.019,2.628H61.1l-1.019-2.628h-.03l.03.639v1.99H59.53Z" transform="translate(-50.989 -122.29)" fill="#fff"/>
        <path id="Path_49" data-name="Path 49" d="M69.49,122.29h.557v3.552H69.49Z" transform="translate(-56.65 -122.29)" fill="#fff"/>
        <path id="Path_50" data-name="Path 50" d="M72.42,122.29h2.158v.531h-1.6v.984h1.446v.527H72.977v.984h1.6v.531H72.42v-3.552Z" transform="translate(-58.315 -122.29)" fill="#fff"/>
        <path id="Path_51" data-name="Path 51" d="M78.79,122.29h1.252a1.261,1.261,0,0,1,.583.138,1,1,0,0,1,.414.388,1.071,1.071,0,0,1,.151.561.98.98,0,0,1-.229.634,1.1,1.1,0,0,1-.578.371v.026l.967,1.4v.03H80.7l-.937-1.39h-.419v1.39H78.79V122.29Zm1.234,1.649a.6.6,0,0,0,.423-.16.526.526,0,0,0,.173-.406.55.55,0,0,0-.069-.268.582.582,0,0,0-.2-.211.552.552,0,0,0-.306-.082h-.7v1.126h.682Z" transform="translate(-61.936 -122.29)" fill="#fff"/>
        <path id="Path_52" data-name="Path 52" d="M87.659,125.426l.626-.626c.311-.311.518-.527.622-.639a1.936,1.936,0,0,0,.285-.363.664.664,0,0,0,.078-.332.453.453,0,0,0-.151-.337.556.556,0,0,0-.4-.142.54.54,0,0,0-.38.138.617.617,0,0,0-.19.315l-.5-.2a1.037,1.037,0,0,1,.186-.354,1.1,1.1,0,0,1,.367-.293,1.141,1.141,0,0,1,.527-.121,1.236,1.236,0,0,1,.574.129.953.953,0,0,1,.527.859,1.169,1.169,0,0,1-.151.565,2.235,2.235,0,0,1-.384.5c-.065.065-.233.229-.5.5l-.406.406.009.022h1.48v.5h-2.21v-.518Z" transform="translate(-66.972 -122.392)" fill="#fff"/>
        <path id="Path_53" data-name="Path 53" d="M94.36,125.789a1.491,1.491,0,0,1-.488-.639,2.318,2.318,0,0,1-.173-.9,2.278,2.278,0,0,1,.173-.906,1.491,1.491,0,0,1,.488-.639,1.271,1.271,0,0,1,1.467,0,1.5,1.5,0,0,1,.488.639,2.34,2.34,0,0,1,.173.906,2.256,2.256,0,0,1-.173.9,1.5,1.5,0,0,1-.488.639,1.2,1.2,0,0,1-.729.237,1.185,1.185,0,0,1-.734-.237Zm1.178-.449a1.1,1.1,0,0,0,.293-.453,1.879,1.879,0,0,0,.1-.643,1.922,1.922,0,0,0-.1-.647,1.061,1.061,0,0,0-.293-.453.674.674,0,0,0-.445-.164.685.685,0,0,0-.449.164.97.97,0,0,0-.289.453,2.016,2.016,0,0,0-.1.647,1.861,1.861,0,0,0,.1.643,1.1,1.1,0,0,0,.289.453.677.677,0,0,0,.893,0Z" transform="translate(-70.411 -122.392)" fill="#fff"/>
        <path id="Path_54" data-name="Path 54" d="M100.939,125.426l.626-.626c.311-.311.518-.527.622-.639a1.936,1.936,0,0,0,.285-.363.675.675,0,0,0,.078-.332.453.453,0,0,0-.151-.337.556.556,0,0,0-.4-.142.54.54,0,0,0-.38.138.617.617,0,0,0-.19.315l-.5-.2a1.038,1.038,0,0,1,.186-.354,1.1,1.1,0,0,1,.367-.293,1.141,1.141,0,0,1,.527-.121,1.236,1.236,0,0,1,.574.129.953.953,0,0,1,.527.859,1.169,1.169,0,0,1-.151.565,2.235,2.235,0,0,1-.384.5c-.065.065-.233.229-.5.5l-.406.406.009.022h1.48v.5h-2.21v-.518Z" transform="translate(-74.52 -122.392)" fill="#fff"/>
        <path id="Path_55" data-name="Path 55" d="M107.323,125.813a1.117,1.117,0,0,1-.453-.647l.5-.207a.751.751,0,0,0,.242.406.619.619,0,0,0,.414.142.654.654,0,0,0,.427-.151.472.472,0,0,0,.177-.384.48.48,0,0,0-.19-.388.74.74,0,0,0-.47-.151h-.293v-.5h.263a.647.647,0,0,0,.41-.129.425.425,0,0,0,.164-.358.392.392,0,0,0-.147-.324A.569.569,0,0,0,108,123a.49.49,0,0,0-.354.121.679.679,0,0,0-.19.293l-.5-.207a1.127,1.127,0,0,1,.367-.5,1.061,1.061,0,0,1,.686-.216,1.209,1.209,0,0,1,.552.121.9.9,0,0,1,.384.332.861.861,0,0,1,.138.475.779.779,0,0,1-.129.453.841.841,0,0,1-.319.285v.03a.953.953,0,0,1,.406.319.815.815,0,0,1,.16.509.966.966,0,0,1-.151.531,1.052,1.052,0,0,1-.419.367,1.292,1.292,0,0,1-.6.134,1.236,1.236,0,0,1-.708-.22Z" transform="translate(-77.897 -122.404)" fill="#fff"/>
      </g>
      <g id="Group_57" data-name="Group 57" transform="translate(0)" clip-path="url(#clip-path)">
        <path id="Path_56" data-name="Path 56" d="M64.889,63.413H6.114A1.364,1.364,0,0,1,4.75,62.049V6.114A1.364,1.364,0,0,1,6.114,4.75H64.889a1.364,1.364,0,0,1,1.364,1.364V62.049a1.364,1.364,0,0,1-1.364,1.364Z" transform="translate(-4.582 -4.582)" fill="none" stroke="#666c71" stroke-miterlimit="10" stroke-width="0.79"/>
      </g>
    </g>
    <path id="Path_57" data-name="Path 57" d="M28.7,85.752a2.282,2.282,0,0,1-1.139-2.007,2.324,2.324,0,0,1,.306-1.174,2.266,2.266,0,0,1,1.981-1.135,2.4,2.4,0,0,1,.915.173,1.855,1.855,0,0,1,.708.488l-.375.375a1.341,1.341,0,0,0-.535-.4,1.826,1.826,0,0,0-.7-.138,1.746,1.746,0,0,0-1.519.859,1.807,1.807,0,0,0-.242.95,1.86,1.86,0,0,0,.242.95,1.673,1.673,0,0,0,.652.634,1.761,1.761,0,0,0,.872.224,1.739,1.739,0,0,0,.742-.138,1.639,1.639,0,0,0,.514-.367,1.32,1.32,0,0,0,.259-.419,1.9,1.9,0,0,0,.125-.54H29.861V83.6h2.123a1.728,1.728,0,0,1,.03.319,2.489,2.489,0,0,1-.129.794,1.745,1.745,0,0,1-.414.678,2.1,2.1,0,0,1-1.623.66,2.249,2.249,0,0,1-1.148-.3Zm1.148.358A2.3,2.3,0,0,1,28.67,85.8h0a2.344,2.344,0,0,1-1.17-2.054,2.383,2.383,0,0,1,.315-1.2,2.327,2.327,0,0,1,2.029-1.165,2.494,2.494,0,0,1,.937.177,1.866,1.866,0,0,1,.725.5l.035.039-.453.453-.039-.047a1.337,1.337,0,0,0-.518-.384,1.716,1.716,0,0,0-.682-.134A1.7,1.7,0,0,0,29,82.2a1.727,1.727,0,0,0-.63.617,1.788,1.788,0,0,0-.237.919,1.747,1.747,0,0,0,.237.919,1.694,1.694,0,0,0,.63.617,1.718,1.718,0,0,0,.846.22,1.571,1.571,0,0,0,1.221-.488,1.294,1.294,0,0,0,.25-.4,1.756,1.756,0,0,0,.112-.466H29.8v-.6h2.223l.009.043a1.829,1.829,0,0,1,.03.332,2.48,2.48,0,0,1-.134.811,1.839,1.839,0,0,1-.427.695,2.166,2.166,0,0,1-1.662.678Zm0-4.618a2.233,2.233,0,0,0-1.122.293A2.228,2.228,0,0,0,27.6,83.741a2.211,2.211,0,0,0,.3,1.144,2.165,2.165,0,0,0,.816.811h0a2.234,2.234,0,0,0,1.122.293,2.065,2.065,0,0,0,1.584-.643,1.7,1.7,0,0,0,.4-.656,2.363,2.363,0,0,0,.125-.777,2.024,2.024,0,0,0-.022-.268H29.908v.38h1.64v.06a2.024,2.024,0,0,1-.134.557,1.435,1.435,0,0,1-.268.432,1.751,1.751,0,0,1-.531.38,1.85,1.85,0,0,1-.768.142,1.869,1.869,0,0,1-.9-.233,1.785,1.785,0,0,1-.673-.656,1.865,1.865,0,0,1-.25-.975,1.907,1.907,0,0,1,.25-.975,1.808,1.808,0,0,1,1.567-.889,1.857,1.857,0,0,1,.725.142,1.412,1.412,0,0,1,.518.367l.3-.3a1.785,1.785,0,0,0-.652-.436,2.373,2.373,0,0,0-.9-.168Zm3.466,4.342a1.557,1.557,0,0,1-.578-.6,1.831,1.831,0,0,1,0-1.692,1.557,1.557,0,0,1,.578-.6,1.686,1.686,0,0,1,1.666,0,1.557,1.557,0,0,1,.578.6,1.831,1.831,0,0,1,0,1.692,1.557,1.557,0,0,1-.578.6,1.686,1.686,0,0,1-1.666,0Zm1.372-.4a1.043,1.043,0,0,0,.4-.419,1.408,1.408,0,0,0,0-1.269,1.032,1.032,0,0,0-.4-.414,1.077,1.077,0,0,0-.539-.147,1.05,1.05,0,0,0-.544.147,1.1,1.1,0,0,0-.406.414,1.408,1.408,0,0,0,0,1.269,1.082,1.082,0,0,0,.406.419,1.093,1.093,0,0,0,.544.147A1.024,1.024,0,0,0,34.682,85.437Zm-.539.673a1.665,1.665,0,0,1-.863-.229,1.6,1.6,0,0,1-.6-.626,1.809,1.809,0,0,1-.211-.872,1.859,1.859,0,0,1,.211-.872,1.6,1.6,0,0,1,.6-.626,1.665,1.665,0,0,1,.863-.229,1.638,1.638,0,0,1,.859.229,1.6,1.6,0,0,1,.6.626,1.809,1.809,0,0,1,.211.872,1.859,1.859,0,0,1-.211.872,1.6,1.6,0,0,1-.6.626A1.66,1.66,0,0,1,34.142,86.11Zm0-3.345a1.52,1.52,0,0,0-1.364.8,1.7,1.7,0,0,0-.2.82,1.744,1.744,0,0,0,.2.82,1.506,1.506,0,0,0,.557.583h0a1.617,1.617,0,0,0,1.614,0,1.506,1.506,0,0,0,.557-.583,1.7,1.7,0,0,0,.2-.82,1.744,1.744,0,0,0-.2-.82,1.506,1.506,0,0,0-.557-.583A1.547,1.547,0,0,0,34.142,82.765Zm0,2.87a1.119,1.119,0,0,1-.993-.587,1.359,1.359,0,0,1-.16-.66,1.3,1.3,0,0,1,.16-.66,1.112,1.112,0,0,1,.423-.436,1.127,1.127,0,0,1,1.558.436,1.359,1.359,0,0,1,.16.66,1.3,1.3,0,0,1-.16.66,1.084,1.084,0,0,1-.423.436h0A1.132,1.132,0,0,1,34.142,85.636Zm0-2.4a1.034,1.034,0,0,0-.518.138,1,1,0,0,0-.384.4,1.371,1.371,0,0,0,0,1.217,1,1,0,0,0,.384.4,1.038,1.038,0,0,0,1.027,0h0a1.021,1.021,0,0,0,.38-.4,1.371,1.371,0,0,0,0-1.217,1.021,1.021,0,0,0-.38-.4,1.006,1.006,0,0,0-.514-.138Zm2.84,2.594a1.557,1.557,0,0,1-.578-.6,1.831,1.831,0,0,1,0-1.692,1.557,1.557,0,0,1,.578-.6,1.686,1.686,0,0,1,1.666,0,1.557,1.557,0,0,1,.578.6,1.831,1.831,0,0,1,0,1.692,1.557,1.557,0,0,1-.578.6,1.686,1.686,0,0,1-1.666,0Zm1.372-.4a1.043,1.043,0,0,0,.4-.419,1.408,1.408,0,0,0,0-1.269,1.032,1.032,0,0,0-.4-.414,1.077,1.077,0,0,0-.54-.147,1.05,1.05,0,0,0-.544.147,1.1,1.1,0,0,0-.406.414,1.408,1.408,0,0,0,0,1.269,1.082,1.082,0,0,0,.406.419,1.093,1.093,0,0,0,.544.147A1.024,1.024,0,0,0,38.355,85.437Zm-.54.673a1.665,1.665,0,0,1-.863-.229,1.6,1.6,0,0,1-.6-.626,1.809,1.809,0,0,1-.211-.872,1.859,1.859,0,0,1,.211-.872,1.6,1.6,0,0,1,.6-.626,1.665,1.665,0,0,1,.863-.229,1.638,1.638,0,0,1,.859.229,1.6,1.6,0,0,1,.6.626,1.809,1.809,0,0,1,.211.872,1.859,1.859,0,0,1-.211.872,1.6,1.6,0,0,1-.6.626A1.66,1.66,0,0,1,37.815,86.11Zm0-3.345a1.52,1.52,0,0,0-1.364.8,1.7,1.7,0,0,0-.2.82,1.745,1.745,0,0,0,.2.82,1.506,1.506,0,0,0,.557.583h0a1.617,1.617,0,0,0,1.614,0,1.506,1.506,0,0,0,.557-.583,1.7,1.7,0,0,0,.2-.82,1.744,1.744,0,0,0-.2-.82,1.506,1.506,0,0,0-.557-.583A1.547,1.547,0,0,0,37.815,82.765Zm0,2.87a1.119,1.119,0,0,1-.993-.587,1.359,1.359,0,0,1-.16-.66,1.3,1.3,0,0,1,.16-.66,1.112,1.112,0,0,1,.423-.436,1.127,1.127,0,0,1,1.558.436,1.359,1.359,0,0,1,.16.66,1.3,1.3,0,0,1-.16.66,1.084,1.084,0,0,1-.423.436h0A1.132,1.132,0,0,1,37.815,85.636Zm0-2.4a1.034,1.034,0,0,0-.518.138,1,1,0,0,0-.384.4,1.371,1.371,0,0,0,0,1.217,1,1,0,0,0,.384.4,1.038,1.038,0,0,0,1.027,0h0a1.021,1.021,0,0,0,.38-.4,1.371,1.371,0,0,0,0-1.217,1.021,1.021,0,0,0-.38-.4,1.006,1.006,0,0,0-.514-.138ZM40.5,87.129a1.256,1.256,0,0,1-.483-.621l.475-.2a.92.92,0,0,0,.35.44.993.993,0,0,0,.578.168,1.012,1.012,0,0,0,.755-.272,1.067,1.067,0,0,0,.268-.777v-.35H42.42a1.171,1.171,0,0,1-.436.393,1.417,1.417,0,0,1-1.381-.06,1.544,1.544,0,0,1-.535-.591,1.985,1.985,0,0,1,0-1.731,1.527,1.527,0,0,1,.535-.6,1.417,1.417,0,0,1,1.381-.06,1.143,1.143,0,0,1,.436.4h.026v-.449h.5v3.026A1.514,1.514,0,0,1,42.528,87a1.548,1.548,0,0,1-1.1.4,1.52,1.52,0,0,1-.915-.259Zm1.433-1.692a1.023,1.023,0,0,0,.371-.414,1.408,1.408,0,0,0,.138-.639,1.446,1.446,0,0,0-.138-.647.982.982,0,0,0-.371-.41.97.97,0,0,0-.514-.142.985.985,0,0,0-.518.142,1.033,1.033,0,0,0-.375.414,1.408,1.408,0,0,0-.138.639,1.427,1.427,0,0,0,.138.643.981.981,0,0,0,.893.557A.948.948,0,0,0,41.937,85.437Zm-.514,2.007a1.612,1.612,0,0,1-.95-.268,1.31,1.31,0,0,1-.5-.652l-.017-.047.574-.246.022.052a.883.883,0,0,0,.328.414.923.923,0,0,0,.548.16.975.975,0,0,0,.716-.255,1.008,1.008,0,0,0,.255-.738v-.22a1.276,1.276,0,0,1-.38.306,1.4,1.4,0,0,1-.665.155,1.424,1.424,0,0,1-.773-.22,1.552,1.552,0,0,1-.552-.613,2.059,2.059,0,0,1,0-1.783,1.568,1.568,0,0,1,.552-.617,1.424,1.424,0,0,1,.773-.22,1.352,1.352,0,0,1,.665.16,1.225,1.225,0,0,1,.38.311v-.371H43V85.83a1.581,1.581,0,0,1-.436,1.2,1.61,1.61,0,0,1-1.144.414Zm-1.334-.906a1.2,1.2,0,0,0,.449.548,1.455,1.455,0,0,0,2.352-1.252V82.865H42.5v.449H42.39l-.017-.026a1.1,1.1,0,0,0-.414-.38,1.286,1.286,0,0,0-.613-.147,1.342,1.342,0,0,0-.716.2,1.415,1.415,0,0,0-.514.574,1.95,1.95,0,0,0,0,1.679,1.443,1.443,0,0,0,.514.574,1.331,1.331,0,0,0,.716.2,1.284,1.284,0,0,0,.613-.142,1.062,1.062,0,0,0,.414-.375l.017-.026H42.5v.406a1.111,1.111,0,0,1-.285.816,1.08,1.08,0,0,1-.794.289,1.034,1.034,0,0,1-.609-.181.973.973,0,0,1-.345-.414l-.38.164Zm1.334-.9a1.1,1.1,0,0,1-.548-.147,1.045,1.045,0,0,1-.393-.436,1.483,1.483,0,0,1-.147-.669,1.4,1.4,0,0,1,.147-.665,1.1,1.1,0,0,1,.393-.436,1.047,1.047,0,0,1,.548-.151,1.069,1.069,0,0,1,.544.147,1.05,1.05,0,0,1,.388.432,1.47,1.47,0,0,1,.147.669,1.4,1.4,0,0,1-.147.665,1.123,1.123,0,0,1-.388.436,1.032,1.032,0,0,1-.544.151Zm0-2.4a.941.941,0,0,0-.492.138.979.979,0,0,0-.354.393,1.364,1.364,0,0,0-.134.613,1.327,1.327,0,0,0,.134.617.952.952,0,0,0,.354.393.916.916,0,0,0,.492.134.9.9,0,0,0,.488-.138.97.97,0,0,0,.35-.393,1.364,1.364,0,0,0,.134-.613,1.346,1.346,0,0,0-.134-.622.914.914,0,0,0-.837-.522Zm2.3-1.7h.527v4.42H43.72Zm.578,4.471h-.634V81.484H44.3Zm-.527-.108h.419V81.591h-.419Zm1.839-.065a1.483,1.483,0,0,1-.557-.6,1.808,1.808,0,0,1-.2-.855,1.87,1.87,0,0,1,.19-.842,1.533,1.533,0,0,1,.535-.613,1.424,1.424,0,0,1,.8-.229,1.523,1.523,0,0,1,.8.207,1.388,1.388,0,0,1,.522.57,1.847,1.847,0,0,1,.181.833.583.583,0,0,1-.017.16H45.386a1.243,1.243,0,0,0,.173.6,1.01,1.01,0,0,0,.393.371,1.072,1.072,0,0,0,.5.125,1.028,1.028,0,0,0,.932-.57l.445.216a1.491,1.491,0,0,1-1.394.824,1.536,1.536,0,0,1-.807-.216Zm1.718-1.791a1.083,1.083,0,0,0-.112-.4.843.843,0,0,0-.311-.332.975.975,0,0,0-.535-.134.877.877,0,0,0-.626.237,1.125,1.125,0,0,0-.337.626h1.921Zm-.906,2.059a1.57,1.57,0,0,1-.837-.224h0a1.563,1.563,0,0,1-.578-.617,1.854,1.854,0,0,1-.207-.88,1.894,1.894,0,0,1,.194-.863,1.566,1.566,0,0,1,.552-.63,1.462,1.462,0,0,1,.833-.237,1.57,1.57,0,0,1,.829.216,1.43,1.43,0,0,1,.54.591,1.9,1.9,0,0,1,.19.859.673.673,0,0,1-.022.173l-.013.039H45.433a1.2,1.2,0,0,0,.16.522.958.958,0,0,0,.371.35,1.025,1.025,0,0,0,.47.117.97.97,0,0,0,.885-.539l.026-.043.54.263-.026.047a1.662,1.662,0,0,1-.57.626,1.609,1.609,0,0,1-.872.229Zm-.781-.315a1.489,1.489,0,0,0,.781.207,1.467,1.467,0,0,0,.811-.216,1.5,1.5,0,0,0,.5-.535l-.35-.168a1.068,1.068,0,0,1-.954.552,1.114,1.114,0,0,1-.522-.129,1.05,1.05,0,0,1-.414-.388,1.3,1.3,0,0,1-.181-.63v-.056h2.5a.781.781,0,0,0,.009-.108,1.823,1.823,0,0,0-.177-.811,1.31,1.31,0,0,0-.5-.548,1.45,1.45,0,0,0-.773-.2,1.363,1.363,0,0,0-.773.22,1.486,1.486,0,0,0-.514.591,1.838,1.838,0,0,0-.181.816,1.777,1.777,0,0,0,.194.829,1.471,1.471,0,0,0,.539.574h0ZM47.384,84.1H45.342l.013-.065a1.206,1.206,0,0,1,.354-.656.937.937,0,0,1,.665-.25,1.021,1.021,0,0,1,.561.142.927.927,0,0,1,.332.354,1.071,1.071,0,0,1,.117.414v.056Zm-1.9-.108h1.791a.988.988,0,0,0-.1-.315.775.775,0,0,0-.293-.311.952.952,0,0,0-.5-.125.828.828,0,0,0-.591.224,1.089,1.089,0,0,0-.306.531Zm4.307-2.456h1.489a1.442,1.442,0,0,1,.686.168,1.345,1.345,0,0,1,.5.466,1.3,1.3,0,0,1,0,1.355,1.313,1.313,0,0,1-.5.466,1.442,1.442,0,0,1-.686.168h-.971v1.8h-.518v-4.42Zm1.5,2.115a.82.82,0,0,0,.729-.419.78.78,0,0,0,0-.777.82.82,0,0,0-.729-.419h-.98v1.619h.98Zm-.928,2.357h-.626V81.479h1.541a1.5,1.5,0,0,1,.712.173,1.407,1.407,0,0,1,.522.483,1.31,1.31,0,0,1,.2.7,1.274,1.274,0,0,1-.2.7,1.339,1.339,0,0,1-.522.483,1.473,1.473,0,0,1-.712.173h-.915V86Zm-.518-.108h.41v-1.8h1.023a1.383,1.383,0,0,0,.66-.16,1.271,1.271,0,0,0,.483-.449,1.247,1.247,0,0,0,0-1.295,1.273,1.273,0,0,0-.483-.449,1.383,1.383,0,0,0-.66-.16H49.844v4.312Zm1.446-2.193H50.254V81.98H51.29a.871.871,0,0,1,.462.125.86.86,0,0,1,.311.324.821.821,0,0,1,0,.829.927.927,0,0,1-.311.324A.871.871,0,0,1,51.29,83.706Zm-.928-.108h.928a.741.741,0,0,0,.406-.108.793.793,0,0,0,.276-.285.712.712,0,0,0,0-.725A.793.793,0,0,0,51.7,82.2a.751.751,0,0,0-.406-.108h-.928Zm3.345,2.318a1.013,1.013,0,0,1-.419-.375.992.992,0,0,1-.147-.54.92.92,0,0,1,.375-.781,1.558,1.558,0,0,1,.95-.281,2.232,2.232,0,0,1,.527.06,1.491,1.491,0,0,1,.375.142v-.19a.714.714,0,0,0-.246-.565.912.912,0,0,0-.622-.211,1.081,1.081,0,0,0-.488.112.892.892,0,0,0-.35.319l-.4-.3a1.278,1.278,0,0,1,.509-.445,1.592,1.592,0,0,1,.721-.16,1.442,1.442,0,0,1,1.01.337,1.178,1.178,0,0,1,.367.915v1.994h-.5V85.5h-.026a1.135,1.135,0,0,1-.406.388,1.17,1.17,0,0,1-.613.16,1.365,1.365,0,0,1-.617-.134Zm1.161-.462a1.042,1.042,0,0,0,.363-.363.957.957,0,0,0,.134-.5,1.277,1.277,0,0,0-.363-.16,1.748,1.748,0,0,0-.457-.06,1,1,0,0,0-.652.181.568.568,0,0,0-.22.462.509.509,0,0,0,.2.419.765.765,0,0,0,.5.16.937.937,0,0,0,.492-.134Zm-.544.652a1.423,1.423,0,0,1-.643-.142h0a1.039,1.039,0,0,1-.6-.962.978.978,0,0,1,.4-.824,1.6,1.6,0,0,1,.984-.289,2.125,2.125,0,0,1,.54.065,1.577,1.577,0,0,1,.306.1v-.1a.64.64,0,0,0-.229-.522.864.864,0,0,0-.587-.2.971.971,0,0,0-.462.108.853.853,0,0,0-.332.3l-.03.047-.483-.363.026-.043a1.287,1.287,0,0,1,.531-.462,1.687,1.687,0,0,1,.742-.164,1.491,1.491,0,0,1,1.044.35,1.239,1.239,0,0,1,.384.954v2.046h-.609V85.64a1.252,1.252,0,0,1-.35.3,1.239,1.239,0,0,1-.639.168ZM54.466,84a1.49,1.49,0,0,0-.919.272.862.862,0,0,0-.354.738.958.958,0,0,0,.138.509.989.989,0,0,0,.4.354h0A1.309,1.309,0,0,0,54.32,86a1.138,1.138,0,0,0,.583-.151,1.074,1.074,0,0,0,.388-.371l.017-.026h.108V85.9h.393V83.961a1.132,1.132,0,0,0-.35-.876,1.382,1.382,0,0,0-.971-.324,1.536,1.536,0,0,0-.695.155,1.213,1.213,0,0,0-.457.384l.306.233a.969.969,0,0,1,.341-.289,1.139,1.139,0,0,1,.514-.121,1,1,0,0,1,.66.224.764.764,0,0,1,.268.6v.289l-.082-.052a1.276,1.276,0,0,0-.358-.134,2.176,2.176,0,0,0-.514-.06Zm-.091,1.649a.821.821,0,0,1-.535-.173.571.571,0,0,1-.216-.462.63.63,0,0,1,.237-.5,1.075,1.075,0,0,1,.686-.19,1.674,1.674,0,0,1,.47.065,1.344,1.344,0,0,1,.38.168l.026.017v.03a1.015,1.015,0,0,1-.142.527,1.092,1.092,0,0,1-.384.384h0a1.011,1.011,0,0,1-.522.142Zm.173-1.221a.949.949,0,0,0-.617.168.512.512,0,0,0-.2.423.464.464,0,0,0,.177.38.709.709,0,0,0,.466.147.883.883,0,0,0,.466-.129,1.017,1.017,0,0,0,.345-.345.889.889,0,0,0,.129-.445,1.24,1.24,0,0,0-.324-.138,1.643,1.643,0,0,0-.44-.06Zm1.964-1.567h.5v.5h.026a.851.851,0,0,1,.375-.432,1.128,1.128,0,0,1,.578-.155,1.148,1.148,0,0,1,.229.017v.535a1.229,1.229,0,0,0-.285-.026.871.871,0,0,0-.652.263.957.957,0,0,0-.25.691V86h-.527V82.852Zm3.194,3.133a.928.928,0,0,1-.276-.168.8.8,0,0,1-.186-.276,1.011,1.011,0,0,1-.06-.384V83.283h-.548v-.475h.548V81.92h.522v.889h.764v.475h-.764v1.752a.649.649,0,0,0,.1.393.424.424,0,0,0,.341.138.644.644,0,0,0,.345-.1v.514a.749.749,0,0,1-.19.06,1.291,1.291,0,0,1-.242.017.939.939,0,0,1-.354-.065Zm.354.117a1.073,1.073,0,0,1-.375-.065.805.805,0,0,1-.293-.181.884.884,0,0,1-.2-.293,1.1,1.1,0,0,1-.065-.4V83.339H58.58v-.583h.548v-.889h.63v.889h.764v.583h-.764v1.7a.6.6,0,0,0,.086.358.372.372,0,0,0,.3.117.609.609,0,0,0,.315-.095l.082-.052v.643l-.03.013a.922.922,0,0,1-.2.065,1.382,1.382,0,0,1-.255.017Zm-1.372-2.879h.548v1.934a.985.985,0,0,0,.056.363.737.737,0,0,0,.173.259.8.8,0,0,0,.255.16.952.952,0,0,0,.337.06,1.167,1.167,0,0,0,.233-.017.7.7,0,0,0,.147-.043v-.384a.713.713,0,0,1-.293.069.46.46,0,0,1-.38-.16.683.683,0,0,1-.112-.427V83.232h.764v-.367H59.65v-.889h-.414v.889h-.548v.367Zm-1.6,2.831h-.634V82.8h.609v.38a.9.9,0,0,1,.319-.3,1.191,1.191,0,0,1,.609-.164,1.79,1.79,0,0,1,.237.017l.043.009v.647l-.065-.017a1.145,1.145,0,0,0-.272-.022.8.8,0,0,0-.613.25.917.917,0,0,0-.233.656v1.8Zm-.527-.108h.419V84.259a1.043,1.043,0,0,1,.263-.729.917.917,0,0,1,.691-.281,1.68,1.68,0,0,1,.229.013v-.427a1.072,1.072,0,0,0-.173-.009,1.113,1.113,0,0,0-.552.147.791.791,0,0,0-.354.406l-.013.035h-.117v-.5h-.393Zm4.506-3.142h.5v.462H61.6a1.053,1.053,0,0,1,.414-.4,1.211,1.211,0,0,1,.6-.164,1.107,1.107,0,0,1,.868.328,1.288,1.288,0,0,1,.3.9v2.02h-.527V84.017a.722.722,0,0,0-.786-.833.764.764,0,0,0-.453.142.947.947,0,0,0-.311.375,1.117,1.117,0,0,0-.112.483v1.77h-.527V82.809Zm2.762,3.2H63.2V84.017a.784.784,0,0,0-.194-.6.758.758,0,0,0-.535-.181.7.7,0,0,0-.423.134.906.906,0,0,0-.293.354,1.081,1.081,0,0,0-.108.462v1.826H61.01V82.761h.609v.375a1.189,1.189,0,0,1,.358-.3,1.27,1.27,0,0,1,.63-.173,1.155,1.155,0,0,1,.906.35,1.35,1.35,0,0,1,.315.937V86.02Zm-.527-.108h.419V83.939a1.247,1.247,0,0,0-.285-.863,1.062,1.062,0,0,0-.829-.311,1.151,1.151,0,0,0-.578.155.982.982,0,0,0-.393.38l-.017.026H61.51v-.462h-.393V85.9h.419V84.185a1.172,1.172,0,0,1,.117-.509,1,1,0,0,1,.328-.393.834.834,0,0,1,.483-.151.773.773,0,0,1,.842.885V85.9Zm1.817-.065a1.483,1.483,0,0,1-.557-.6,1.808,1.808,0,0,1-.2-.855,1.87,1.87,0,0,1,.19-.842,1.533,1.533,0,0,1,.535-.613,1.4,1.4,0,0,1,.8-.229,1.523,1.523,0,0,1,.8.207,1.36,1.36,0,0,1,.522.57,1.847,1.847,0,0,1,.181.833.584.584,0,0,1-.017.16H64.9a1.243,1.243,0,0,0,.173.6,1.01,1.01,0,0,0,.393.371,1.072,1.072,0,0,0,.5.125,1.028,1.028,0,0,0,.932-.57l.445.216a1.59,1.59,0,0,1-.552.6,1.668,1.668,0,0,1-1.649,0Zm1.718-1.791a1.083,1.083,0,0,0-.112-.4.843.843,0,0,0-.311-.332.975.975,0,0,0-.535-.134.877.877,0,0,0-.626.237,1.125,1.125,0,0,0-.337.626Zm-.906,2.059a1.58,1.58,0,0,1-.837-.224h0a1.563,1.563,0,0,1-.578-.617,1.854,1.854,0,0,1-.207-.88,1.894,1.894,0,0,1,.194-.863,1.566,1.566,0,0,1,.552-.63,1.462,1.462,0,0,1,.833-.237,1.57,1.57,0,0,1,.829.216,1.43,1.43,0,0,1,.54.591,1.9,1.9,0,0,1,.19.859.673.673,0,0,1-.022.173l-.013.039H64.946a1.2,1.2,0,0,0,.16.522.93.93,0,0,0,.371.35,1.012,1.012,0,0,0,.47.117.966.966,0,0,0,.885-.54l.026-.043.54.263-.026.047a1.662,1.662,0,0,1-.57.626,1.62,1.62,0,0,1-.872.229Zm-.781-.315a1.489,1.489,0,0,0,.781.207,1.467,1.467,0,0,0,.811-.216,1.5,1.5,0,0,0,.5-.535l-.35-.168a1.068,1.068,0,0,1-.954.552,1.114,1.114,0,0,1-.522-.129,1.05,1.05,0,0,1-.414-.388,1.3,1.3,0,0,1-.181-.63v-.056h2.5a.782.782,0,0,0,.009-.108,1.823,1.823,0,0,0-.177-.811,1.336,1.336,0,0,0-.5-.548,1.45,1.45,0,0,0-.773-.2,1.363,1.363,0,0,0-.773.22,1.454,1.454,0,0,0-.514.591,1.838,1.838,0,0,0-.181.816,1.777,1.777,0,0,0,.194.829,1.471,1.471,0,0,0,.539.574h0ZM66.9,84.1H64.855l.013-.065a1.206,1.206,0,0,1,.354-.656.937.937,0,0,1,.665-.25,1.022,1.022,0,0,1,.561.142.927.927,0,0,1,.332.354,1.071,1.071,0,0,1,.117.414v.056Zm-1.908-.108H66.78a.988.988,0,0,0-.1-.315.775.775,0,0,0-.293-.311.914.914,0,0,0-.5-.125.828.828,0,0,0-.591.224,1.089,1.089,0,0,0-.306.531ZM68,82.8h.5v.5h.026a.858.858,0,0,1,.358-.432.994.994,0,0,1,.557-.173.891.891,0,0,1,.371.069v.561a1,1,0,0,0-.445-.1.727.727,0,0,0-.419.129.929.929,0,0,0-.306.35.988.988,0,0,0-.112.475v1.761h-.527V82.8Zm.578,3.2h-.634V82.752h.609v.38a1.017,1.017,0,0,1,.3-.293,1.066,1.066,0,0,1,.587-.181,1,1,0,0,1,.393.073l.035.013v.686l-.078-.039a.962.962,0,0,0-.419-.095.658.658,0,0,0-.388.121.925.925,0,0,0-.289.328.944.944,0,0,0-.108.449v1.817Zm-.527-.108h.419V84.19a1.03,1.03,0,0,1,.121-.5,1,1,0,0,1,.324-.371.808.808,0,0,1,.449-.138,1.059,1.059,0,0,1,.393.069v-.445a.876.876,0,0,0-.315-.052.968.968,0,0,0-.527.164.818.818,0,0,0-.337.406l-.013.035H68.45v-.5h-.393v3.038Z" transform="translate(-13.153 -43.778)" fill="#606469"/>
    <path id="Path_58" data-name="Path 58" d="M85.4,45.528a10.937,10.937,0,0,0-.211-1.908H76.5v3.6h4.873a4.166,4.166,0,0,1-1.757,2.818v2.348h3.017A9.125,9.125,0,0,0,85.4,45.528h0Z" transform="translate(-41.004 -22.315)" fill="#0081c6"/>
    <path id="Path_59" data-name="Path 59" d="M65.488,59.209a8.878,8.878,0,0,0,6.159-2.249L68.63,54.612a5.6,5.6,0,0,1-8.351-2.952h-3.1v2.413a9.282,9.282,0,0,0,8.3,5.136h0Z" transform="translate(-30.023 -26.885)" fill="#00ae57"/>
    <path id="Path_60" data-name="Path 60" d="M58.987,43.81a5.585,5.585,0,0,1,0-3.548V37.85h-3.1a9.361,9.361,0,0,0,0,8.373l3.1-2.413Z" transform="translate(-28.727 -19.036)" fill="#fbab18"/>
    <path id="Path_61" data-name="Path 61" d="M65.494,29.657a5.029,5.029,0,0,1,3.556,1.394l2.663-2.672a8.908,8.908,0,0,0-6.219-2.43,9.287,9.287,0,0,0-8.3,5.136l3.1,2.413a5.544,5.544,0,0,1,5.205-3.841Z" transform="translate(-30.028 -12.272)" fill="#f04931"/>
  </g>
</svg>
