<?xml version="1.0" encoding="utf-8"?>
<!-- Generator: Adobe Illustrator 26.0.3, SVG Export Plug-In . SVG Version: 6.00 Build 0)  -->
<svg version="1.1" id="Layer_1" xmlns="http://www.w3.org/2000/svg" xmlns:xlink="http://www.w3.org/1999/xlink" x="0px" y="0px"
	 width="574px" height="99px" viewBox="0 0 574 99" style="enable-background:new 0 0 574 99;" xml:space="preserve">
<style type="text/css">
	.st0{fill:#FFFFFF;}
	.st1{fill:#DBDBDB;}
	.st2{fill:#793E97;}
	.st3{fill:url(#SVGID_1_);}
	.st4{fill:url(#SVGID_00000071525028500541171700000003611490173276428692_);}
	.st5{fill:url(#SVGID_00000137116828944382504650000018059213666374129341_);}
	.st6{fill:url(#SVGID_00000170971114371465551760000005343557337052469169_);}
	.st7{fill:url(#SVGID_00000081612134695190247970000012322074109063649970_);}
	.st8{fill:url(#SVGID_00000014592482001687481240000010917125456137821846_);}
	.st9{fill:url(#SVGID_00000033332006891097017290000015461883195376019121_);}
	.st10{fill:url(#SVGID_00000162352240009461055110000008856727610434160267_);}
	.st11{fill:url(#SVGID_00000127747999670921495130000004283233733676436133_);}
	.st12{fill:url(#SVGID_00000026164450124065607550000008744978698300277682_);}
	.st13{fill:url(#SVGID_00000085950155076770052200000005042148106766904710_);}
	.st14{fill:url(#SVGID_00000111913074063691472800000009663562171149591190_);}
	.st15{fill:url(#SVGID_00000074443135777697997760000010128345167954737070_);}
	.st16{fill:url(#SVGID_00000120549004243278157460000009922321989862749111_);}
	.st17{fill:url(#SVGID_00000041292218906508859250000009456335885230076819_);}
	.st18{fill:url(#SVGID_00000145041136040889760760000016457340611381295541_);}
	.st19{fill:url(#SVGID_00000165229648122369654470000016580292922001177497_);}
	.st20{fill:url(#SVGID_00000016788444822321980690000011864653607360481691_);}
	.st21{fill:url(#SVGID_00000150822473973175157780000000610659381094303164_);}
	.st22{fill:url(#SVGID_00000082359039192463480050000004021201795978999168_);}
	.st23{fill:url(#SVGID_00000163766530594950638130000016179190390247059389_);}
	.st24{fill:url(#SVGID_00000063600654118330059270000015094934458676307867_);}
	.st25{fill:url(#SVGID_00000179635787907460765740000006808540775378497672_);}
	.st26{fill:url(#SVGID_00000183959322340831961570000004120937808829602709_);}
	.st27{fill:url(#SVGID_00000134244784230284028310000013611655505572694675_);}
	.st28{fill:url(#SVGID_00000086667441654039502690000011521585303955144612_);}
	.st29{fill:url(#SVGID_00000075125671041006818310000007350341148378332577_);}
	.st30{fill:url(#SVGID_00000103225425884657086080000016796087515036752291_);}
	.st31{fill:url(#SVGID_00000054246252279434262510000003714193488593918857_);}
	.st32{fill:url(#SVGID_00000011031442443249277160000010436653377717607571_);}
	.st33{fill:url(#SVGID_00000010301146943635737850000014138797331234552495_);}
	.st34{fill:url(#SVGID_00000083054280471717887870000015656647696459527061_);}
	.st35{fill:url(#SVGID_00000016768826826261425000000005161867506138022318_);}
	.st36{fill:url(#SVGID_00000168802849987767708750000003751641996573979797_);}
	.st37{fill:url(#SVGID_00000062910147536017344170000011292783585345073541_);}
	.st38{fill:url(#SVGID_00000177482131029613502270000010743517684421437569_);}
	.st39{fill:url(#SVGID_00000018943872156057503390000000091132047864676259_);}
	.st40{fill:url(#SVGID_00000046328249782972949660000010195272215815828367_);}
	.st41{fill:url(#SVGID_00000030457928126581470160000002983650776244428734_);}
	.st42{fill:url(#SVGID_00000136383929529058753230000008690153171623373470_);}
	.st43{fill:url(#SVGID_00000111888937782366512290000002066169715832826009_);}
	.st44{fill:url(#SVGID_00000002378208397876516120000015099674144845446553_);}
	.st45{fill:url(#SVGID_00000062191315311582188740000012595936530801722528_);}
	.st46{fill:url(#SVGID_00000139281306402520016600000015150028172719432108_);}
	.st47{fill:url(#SVGID_00000018231612392590317900000017309775975219434642_);}
	.st48{fill:#633989;}
	.st49{fill:#CB203D;}
	.st50{display:none;fill:#793E97;}
	.st51{fill:#6F368E;}
	.st52{display:none;}
	.st53{display:inline;fill:#FFFFFF;}
	.st54{fill:#231F20;}
</style>
<image style="display:none;overflow:visible;enable-background:new    ;" width="574" height="99" xlink:href="AA83E97F.png" >
</image>
<g>
	
		<image style="display:none;overflow:visible;opacity:0.81;enable-background:new    ;" width="572" height="95" xlink:href="AA83E97D.png"  transform="matrix(1 0 0 1 2 1)">
	</image>
	<g>
		<path class="st0" d="M14.6,90.8c-5.4,0-9.7-4.4-9.7-9.7V13.4c0-5.4,4.4-9.7,9.7-9.7h544.8c5.4,0,9.7,4.4,9.7,9.7v67.7
			c0,5.4-4.4,9.7-9.7,9.7C559.4,90.8,14.6,90.8,14.6,90.8z"/>
		<g>
			<path class="st1" d="M559.4,4.2c5.1,0,9.2,4.1,9.2,9.2v67.7c0,5.1-4.1,9.2-9.2,9.2H14.6c-5.1,0-9.2-4.1-9.2-9.2V13.4
				c0-5.1,4.1-9.2,9.2-9.2H559.4 M559.4,3.2H14.6C9,3.2,4.4,7.8,4.4,13.4v67.7c0,5.6,4.6,10.2,10.2,10.2h544.8
				c5.6,0,10.2-4.6,10.2-10.2V13.4C569.6,7.8,565,3.2,559.4,3.2L559.4,3.2z"/>
		</g>
	</g>
</g>
<g>
	<g>
		<g>
			<g>
				<g>
					<g>
						<path class="st2" d="M206.6,76.6c-0.5,0-0.8-0.3-0.8-0.6V38.6c0-0.3,0.4-0.6,0.8-0.6c0.5,0,0.8,0.3,0.8,0.6V76
							C207.5,76.4,207.1,76.6,206.6,76.6z"/>
					</g>
				</g>
			</g>
		</g>
		<g>
			<g>
				<g>
					
						<radialGradient id="SVGID_1_" cx="53.5114" cy="42.875" r="74.7934" gradientTransform="matrix(1 0 0 -1 0 100)" gradientUnits="userSpaceOnUse">
						<stop  offset="6.445300e-04" style="stop-color:#EC1C29"/>
						<stop  offset="0.6393" style="stop-color:#6F358D"/>
						<stop  offset="1" style="stop-color:#6F358D"/>
					</radialGradient>
					<path class="st3" d="M109.8,46.2v-7.7h1.9v7.7H109.8z"/>
					
						<radialGradient id="SVGID_00000070808243680908206190000013878241273293982650_" cx="53.4881" cy="42.875" r="74.8205" gradientTransform="matrix(1 0 0 -1 0 100)" gradientUnits="userSpaceOnUse">
						<stop  offset="6.445300e-04" style="stop-color:#EC1C29"/>
						<stop  offset="0.6393" style="stop-color:#6F358D"/>
						<stop  offset="1" style="stop-color:#6F358D"/>
					</radialGradient>
					<path style="fill:url(#SVGID_00000070808243680908206190000013878241273293982650_);" d="M118.3,46.2l-3.1-5l0,0v5h-1.8v-7.7
						h2.1l3.1,5l0,0v-5h1.8v7.7H118.3z"/>
					
						<radialGradient id="SVGID_00000144304266493264679520000009387897220907265979_" cx="53.4968" cy="42.875" r="74.8107" gradientTransform="matrix(1 0 0 -1 0 100)" gradientUnits="userSpaceOnUse">
						<stop  offset="6.445300e-04" style="stop-color:#EC1C29"/>
						<stop  offset="0.6393" style="stop-color:#6F358D"/>
						<stop  offset="1" style="stop-color:#6F358D"/>
					</radialGradient>
					<path style="fill:url(#SVGID_00000144304266493264679520000009387897220907265979_);" d="M124,40.1v1.6h3v1.5h-3v3h-1.8v-7.7
						h5.1v1.6C127.3,40.1,124,40.1,124,40.1z"/>
					
						<radialGradient id="SVGID_00000122678111931310584150000012210328234013346443_" cx="53.4908" cy="42.8719" r="74.8165" gradientTransform="matrix(1 0 0 -1 0 100)" gradientUnits="userSpaceOnUse">
						<stop  offset="6.445300e-04" style="stop-color:#EC1C29"/>
						<stop  offset="0.6393" style="stop-color:#6F358D"/>
						<stop  offset="1" style="stop-color:#6F358D"/>
					</radialGradient>
					<path style="fill:url(#SVGID_00000122678111931310584150000012210328234013346443_);" d="M136.3,42.3c0,0.6-0.1,1.2-0.3,1.7
						s-0.5,0.9-0.9,1.3c-0.4,0.4-0.8,0.6-1.3,0.8s-1.1,0.3-1.7,0.3c-0.6,0-1.2-0.1-1.7-0.3s-1-0.5-1.3-0.8c-0.4-0.4-0.7-0.8-0.9-1.3
						s-0.3-1.1-0.3-1.7c0-0.6,0.1-1.2,0.3-1.7s0.5-0.9,0.9-1.3c0.4-0.3,0.8-0.6,1.3-0.8s1.1-0.3,1.7-0.3c0.6,0,1.2,0.1,1.7,0.3
						s1,0.5,1.3,0.8c0.4,0.3,0.7,0.8,0.9,1.3C136.2,41.2,136.3,41.7,136.3,42.3z M134.3,42.3c0-0.3-0.1-0.6-0.2-0.9
						c-0.1-0.3-0.3-0.5-0.5-0.7s-0.4-0.4-0.7-0.5S132.3,40,132,40c-0.3,0-0.6,0.1-0.9,0.2c-0.3,0.1-0.5,0.3-0.7,0.5
						s-0.3,0.5-0.5,0.7c-0.1,0.3-0.2,0.6-0.2,0.9c0,0.3,0.1,0.7,0.2,1c0.1,0.3,0.3,0.5,0.5,0.8c0.2,0.2,0.4,0.4,0.7,0.5
						s0.6,0.2,0.9,0.2c0.3,0,0.6-0.1,0.9-0.2c0.3-0.1,0.5-0.3,0.7-0.5s0.3-0.5,0.5-0.8S134.3,42.7,134.3,42.3z"/>
					
						<radialGradient id="SVGID_00000039111620565505957250000017108822603508239525_" cx="53.5395" cy="42.8719" r="74.7756" gradientTransform="matrix(1 0 0 -1 0 100)" gradientUnits="userSpaceOnUse">
						<stop  offset="6.445300e-04" style="stop-color:#EC1C29"/>
						<stop  offset="0.6393" style="stop-color:#6F358D"/>
						<stop  offset="1" style="stop-color:#6F358D"/>
					</radialGradient>
					<path style="fill:url(#SVGID_00000039111620565505957250000017108822603508239525_);" d="M143.1,46.1c-0.5,0.2-1.1,0.3-1.7,0.3
						c-0.6,0-1.1-0.1-1.6-0.3s-0.9-0.5-1.3-0.8c-0.4-0.4-0.7-0.8-0.9-1.3s-0.3-1-0.3-1.6s0.1-1.2,0.3-1.7s0.5-0.9,0.9-1.3
						c0.4-0.4,0.8-0.6,1.3-0.8s1.1-0.3,1.6-0.3s1.1,0.1,1.6,0.3s1,0.5,1.3,0.8l-1.3,1.3c-0.2-0.2-0.4-0.4-0.7-0.5s-0.6-0.2-0.9-0.2
						c-0.3,0-0.6,0.1-0.9,0.2c-0.3,0.1-0.5,0.3-0.7,0.5s-0.3,0.5-0.5,0.7c-0.1,0.3-0.2,0.6-0.2,0.9c0,0.3,0.1,0.7,0.2,1
						c0.1,0.3,0.3,0.5,0.5,0.7s0.4,0.4,0.7,0.5s0.6,0.2,0.9,0.2c0.4,0,0.7-0.1,1-0.2c0.3-0.1,0.5-0.3,0.7-0.6l1.3,1.2
						C144,45.6,143.6,45.9,143.1,46.1z"/>
					
						<radialGradient id="SVGID_00000041999163369235161890000011064896457830033031_" cx="53.4952" cy="42.8719" r="74.8137" gradientTransform="matrix(1 0 0 -1 0 100)" gradientUnits="userSpaceOnUse">
						<stop  offset="6.445300e-04" style="stop-color:#EC1C29"/>
						<stop  offset="0.6393" style="stop-color:#6F358D"/>
						<stop  offset="1" style="stop-color:#6F358D"/>
					</radialGradient>
					<path style="fill:url(#SVGID_00000041999163369235161890000011064896457830033031_);" d="M153.1,42.3c0,0.6-0.1,1.2-0.3,1.7
						s-0.5,0.9-0.9,1.3c-0.4,0.4-0.8,0.6-1.3,0.8s-1.1,0.3-1.7,0.3c-0.6,0-1.2-0.1-1.7-0.3s-1-0.5-1.3-0.8c-0.4-0.4-0.7-0.8-0.9-1.3
						s-0.3-1.1-0.3-1.7c0-0.6,0.1-1.2,0.3-1.7s0.5-0.9,0.9-1.3c0.4-0.3,0.8-0.6,1.3-0.8s1.1-0.3,1.7-0.3c0.6,0,1.2,0.1,1.7,0.3
						s1,0.5,1.3,0.8c0.4,0.3,0.7,0.8,0.9,1.3C153,41.2,153.1,41.7,153.1,42.3z M151.1,42.3c0-0.3-0.1-0.6-0.2-0.9
						c-0.1-0.3-0.3-0.5-0.5-0.7s-0.4-0.4-0.7-0.5s-0.6-0.2-0.9-0.2c-0.3,0-0.6,0.1-0.9,0.2c-0.3,0.1-0.5,0.3-0.7,0.5
						s-0.3,0.5-0.5,0.7c-0.1,0.3-0.2,0.6-0.2,0.9c0,0.3,0.1,0.7,0.2,1c0.1,0.3,0.3,0.5,0.5,0.8c0.2,0.2,0.4,0.4,0.7,0.5
						s0.6,0.2,0.9,0.2c0.3,0,0.6-0.1,0.9-0.2c0.3-0.1,0.5-0.3,0.7-0.5s0.3-0.5,0.5-0.8C151,43,151.1,42.7,151.1,42.3z"/>
					
						<radialGradient id="SVGID_00000034772411113553099250000011909385048222397831_" cx="53.4912" cy="42.875" r="74.8161" gradientTransform="matrix(1 0 0 -1 0 100)" gradientUnits="userSpaceOnUse">
						<stop  offset="6.445300e-04" style="stop-color:#EC1C29"/>
						<stop  offset="0.6393" style="stop-color:#6F358D"/>
						<stop  offset="1" style="stop-color:#6F358D"/>
					</radialGradient>
					<path style="fill:url(#SVGID_00000034772411113553099250000011909385048222397831_);" d="M161.1,46.2v-5.4l0,0l-2,5.4h-1.3
						l-1.9-5.4l0,0v5.4h-1.8v-7.7h2.6l1.8,4.9l0,0l1.7-4.9h2.7v7.7H161.1z"/>
					
						<radialGradient id="SVGID_00000039829456567866454990000000483827214515141512_" cx="53.5" cy="42.875" r="74.8091" gradientTransform="matrix(1 0 0 -1 0 100)" gradientUnits="userSpaceOnUse">
						<stop  offset="6.445300e-04" style="stop-color:#EC1C29"/>
						<stop  offset="0.6393" style="stop-color:#6F358D"/>
						<stop  offset="1" style="stop-color:#6F358D"/>
					</radialGradient>
					<path style="fill:url(#SVGID_00000039829456567866454990000000483827214515141512_);" d="M171.5,46.2v-5.4l0,0l-2,5.4h-1.3
						l-1.9-5.4l0,0v5.4h-1.7v-7.7h2.6l1.8,4.9l0,0l1.7-4.9h2.7v7.7H171.5z"/>
					
						<radialGradient id="SVGID_00000106135704544271179820000010164433919425405623_" cx="53.4993" cy="42.8759" r="74.809" gradientTransform="matrix(1 0 0 -1 0 100)" gradientUnits="userSpaceOnUse">
						<stop  offset="6.445300e-04" style="stop-color:#EC1C29"/>
						<stop  offset="0.6393" style="stop-color:#6F358D"/>
						<stop  offset="1" style="stop-color:#6F358D"/>
					</radialGradient>
					<path style="fill:url(#SVGID_00000106135704544271179820000010164433919425405623_);" d="M116.8,56.2v-5.4l0,0l-2,5.4h-1.3
						l-1.9-5.4l0,0v5.4h-1.7v-7.7h2.6l1.8,4.9l0,0l1.7-4.9h2.7v7.7H116.8z"/>
					
						<radialGradient id="SVGID_00000072981102889976476330000012134774863689601191_" cx="53.519" cy="42.8759" r="74.7893" gradientTransform="matrix(1 0 0 -1 0 100)" gradientUnits="userSpaceOnUse">
						<stop  offset="6.445300e-04" style="stop-color:#EC1C29"/>
						<stop  offset="0.6393" style="stop-color:#6F358D"/>
						<stop  offset="1" style="stop-color:#6F358D"/>
					</radialGradient>
					<path style="fill:url(#SVGID_00000072981102889976476330000012134774863689601191_);" d="M120,56.2v-7.7h5.2v1.6h-3.4v1.5h3.2
						V53h-3.2v1.6h3.6v1.6C125.4,56.2,120,56.2,120,56.2z"/>
					
						<radialGradient id="SVGID_00000062880664117366785530000010252831353656480189_" cx="53.4928" cy="42.8759" r="74.8148" gradientTransform="matrix(1 0 0 -1 0 100)" gradientUnits="userSpaceOnUse">
						<stop  offset="6.445300e-04" style="stop-color:#EC1C29"/>
						<stop  offset="0.6393" style="stop-color:#6F358D"/>
						<stop  offset="1" style="stop-color:#6F358D"/>
					</radialGradient>
					<path style="fill:url(#SVGID_00000062880664117366785530000010252831353656480189_);" d="M133.7,52.3c0,0.7-0.1,1.3-0.4,1.7
						c-0.2,0.5-0.6,0.9-1,1.2s-0.9,0.5-1.4,0.7c-0.5,0.1-1,0.2-1.6,0.2h-2.9v-7.7h2.8c0.5,0,1.1,0.1,1.6,0.2c0.5,0.1,1,0.3,1.4,0.6
						s0.7,0.7,1,1.2C133.6,51,133.7,51.6,133.7,52.3z M131.8,52.3c0-0.4-0.1-0.8-0.2-1.1c-0.1-0.3-0.3-0.5-0.6-0.7
						c-0.2-0.2-0.5-0.3-0.8-0.4c-0.3-0.1-0.6-0.1-0.9-0.1h-0.9v4.5h0.9c0.3,0,0.7,0,1-0.1s0.6-0.2,0.8-0.4s0.4-0.4,0.6-0.7
						C131.7,53.1,131.8,52.7,131.8,52.3z"/>
					
						<radialGradient id="SVGID_00000005259786274169873130000003210265648059311265_" cx="53.5627" cy="42.8759" r="74.7524" gradientTransform="matrix(1 0 0 -1 0 100)" gradientUnits="userSpaceOnUse">
						<stop  offset="6.445300e-04" style="stop-color:#EC1C29"/>
						<stop  offset="0.6393" style="stop-color:#6F358D"/>
						<stop  offset="1" style="stop-color:#6F358D"/>
					</radialGradient>
					<path style="fill:url(#SVGID_00000005259786274169873130000003210265648059311265_);" d="M134.7,56.2v-7.7h1.9v7.7H134.7z"/>
					
						<radialGradient id="SVGID_00000005233048644477179380000015250170317304168087_" cx="53.4944" cy="42.8759" r="74.8135" gradientTransform="matrix(1 0 0 -1 0 100)" gradientUnits="userSpaceOnUse">
						<stop  offset="6.445300e-04" style="stop-color:#EC1C29"/>
						<stop  offset="0.6393" style="stop-color:#6F358D"/>
						<stop  offset="1" style="stop-color:#6F358D"/>
					</radialGradient>
					<path style="fill:url(#SVGID_00000005233048644477179380000015250170317304168087_);" d="M143.6,56.2l-0.6-1.5h-3l-0.6,1.5h-2
						l3.2-7.7h1.8l3.2,7.7H143.6z M141.5,50.5l-1,2.6h1.9L141.5,50.5z"/>
					
						<radialGradient id="SVGID_00000053528285874753148420000012016014147773993602_" cx="53.5083" cy="42.8737" r="74.7973" gradientTransform="matrix(1 0 0 -1 0 100)" gradientUnits="userSpaceOnUse">
						<stop  offset="6.445300e-04" style="stop-color:#EC1C29"/>
						<stop  offset="0.6393" style="stop-color:#6F358D"/>
						<stop  offset="1" style="stop-color:#6F358D"/>
					</radialGradient>
					<path style="fill:url(#SVGID_00000053528285874753148420000012016014147773993602_);" d="M117,62.3c0,0.7-0.1,1.3-0.4,1.7
						c-0.3,0.5-0.6,0.9-1,1.2c-0.4,0.3-0.9,0.5-1.4,0.7c-0.5,0.1-1,0.2-1.6,0.2h-2.9v-7.7h2.8c0.5,0,1.1,0.1,1.6,0.2
						c0.5,0.1,1,0.3,1.4,0.6s0.7,0.7,1,1.2C116.9,60.9,117,61.5,117,62.3z M115.1,62.3c0-0.4-0.1-0.8-0.2-1.1s-0.3-0.5-0.6-0.7
						c-0.2-0.2-0.5-0.3-0.8-0.4c-0.3-0.1-0.6-0.1-0.9-0.1h-0.9v4.5h0.9c0.3,0,0.7,0,1-0.1s0.6-0.2,0.8-0.4c0.2-0.2,0.4-0.4,0.6-0.7
						C115,63.1,115.1,62.7,115.1,62.3z"/>
					
						<radialGradient id="SVGID_00000073722465534681070470000012240962749938956202_" cx="53.4836" cy="42.8737" r="74.8257" gradientTransform="matrix(1 0 0 -1 0 100)" gradientUnits="userSpaceOnUse">
						<stop  offset="6.445300e-04" style="stop-color:#EC1C29"/>
						<stop  offset="0.6393" style="stop-color:#6F358D"/>
						<stop  offset="1" style="stop-color:#6F358D"/>
					</radialGradient>
					<path style="fill:url(#SVGID_00000073722465534681070470000012240962749938956202_);" d="M118.1,66.1v-7.7h5.2V60h-3.4v1.5h3.2
						V63h-3.2v1.6h3.6v1.6L118.1,66.1L118.1,66.1z"/>
					
						<radialGradient id="SVGID_00000085937878632203461440000011075030083790999435_" cx="53.4909" cy="42.8737" r="74.8176" gradientTransform="matrix(1 0 0 -1 0 100)" gradientUnits="userSpaceOnUse">
						<stop  offset="6.445300e-04" style="stop-color:#EC1C29"/>
						<stop  offset="0.6393" style="stop-color:#6F358D"/>
						<stop  offset="1" style="stop-color:#6F358D"/>
					</radialGradient>
					<path style="fill:url(#SVGID_00000085937878632203461440000011075030083790999435_);" d="M128.9,66.1H127l-2.9-7.7h2.1l1.8,5.5
						l0,0l1.8-5.5h2.1L128.9,66.1z"/>
					
						<radialGradient id="SVGID_00000112595844359700067880000013752808651858216845_" cx="53.4959" cy="42.8737" r="74.8126" gradientTransform="matrix(1 0 0 -1 0 100)" gradientUnits="userSpaceOnUse">
						<stop  offset="6.445300e-04" style="stop-color:#EC1C29"/>
						<stop  offset="0.6393" style="stop-color:#6F358D"/>
						<stop  offset="1" style="stop-color:#6F358D"/>
					</radialGradient>
					<path style="fill:url(#SVGID_00000112595844359700067880000013752808651858216845_);" d="M132.8,66.1v-7.7h5.2V60h-3.4v1.5h3.2
						V63h-3.2v1.6h3.6v1.6L132.8,66.1L132.8,66.1z"/>
					
						<radialGradient id="SVGID_00000164482793922266783110000004744097572350257059_" cx="53.4802" cy="42.8737" r="74.8254" gradientTransform="matrix(1 0 0 -1 0 100)" gradientUnits="userSpaceOnUse">
						<stop  offset="6.445300e-04" style="stop-color:#EC1C29"/>
						<stop  offset="0.6393" style="stop-color:#6F358D"/>
						<stop  offset="1" style="stop-color:#6F358D"/>
					</radialGradient>
					<path style="fill:url(#SVGID_00000164482793922266783110000004744097572350257059_);" d="M139.4,66.1v-7.7h1.9v6.1h3v1.6H139.4
						z"/>
					
						<radialGradient id="SVGID_00000001650538383645777980000005672481415221564046_" cx="53.4834" cy="42.8727" r="74.8216" gradientTransform="matrix(1 0 0 -1 0 100)" gradientUnits="userSpaceOnUse">
						<stop  offset="6.445300e-04" style="stop-color:#EC1C29"/>
						<stop  offset="0.6393" style="stop-color:#6F358D"/>
						<stop  offset="1" style="stop-color:#6F358D"/>
					</radialGradient>
					<path style="fill:url(#SVGID_00000001650538383645777980000005672481415221564046_);" d="M153.2,62.3c0,0.6-0.1,1.2-0.3,1.7
						s-0.5,0.9-0.9,1.3s-0.8,0.6-1.3,0.8c-0.5,0.2-1.1,0.3-1.7,0.3c-0.6,0-1.2-0.1-1.7-0.3c-0.5-0.2-1-0.5-1.3-0.8
						c-0.4-0.4-0.7-0.8-0.9-1.3s-0.3-1.1-0.3-1.7c0-0.6,0.1-1.2,0.3-1.7s0.5-0.9,0.9-1.3c0.4-0.3,0.8-0.6,1.3-0.8s1.1-0.3,1.7-0.3
						c0.6,0,1.2,0.1,1.7,0.3s1,0.5,1.3,0.8c0.4,0.3,0.7,0.8,0.9,1.3C153.1,61.1,153.2,61.6,153.2,62.3z M151.2,62.3
						c0-0.3-0.1-0.6-0.2-0.9c-0.1-0.3-0.3-0.5-0.5-0.7s-0.4-0.4-0.7-0.5s-0.6-0.2-0.9-0.2c-0.3,0-0.6,0.1-0.9,0.2
						c-0.3,0.1-0.5,0.3-0.7,0.5s-0.3,0.5-0.5,0.7c-0.1,0.3-0.2,0.6-0.2,0.9c0,0.3,0.1,0.7,0.2,1c0.1,0.3,0.3,0.5,0.5,0.8
						c0.2,0.2,0.4,0.4,0.7,0.5s0.6,0.2,0.9,0.2c0.3,0,0.6-0.1,0.9-0.2c0.3-0.1,0.5-0.3,0.7-0.5c0.2-0.2,0.3-0.5,0.5-0.8
						C151.2,62.9,151.2,62.6,151.2,62.3z"/>
					
						<radialGradient id="SVGID_00000088096793959619147770000015956761689937321141_" cx="53.5109" cy="42.8737" r="74.8023" gradientTransform="matrix(1 0 0 -1 0 100)" gradientUnits="userSpaceOnUse">
						<stop  offset="6.445300e-04" style="stop-color:#EC1C29"/>
						<stop  offset="0.6393" style="stop-color:#6F358D"/>
						<stop  offset="1" style="stop-color:#6F358D"/>
					</radialGradient>
					<path style="fill:url(#SVGID_00000088096793959619147770000015956761689937321141_);" d="M160.1,60.8c0,0.4-0.1,0.8-0.2,1.1
						c-0.2,0.3-0.4,0.6-0.7,0.7c-0.3,0.2-0.6,0.3-1,0.4c-0.4,0.1-0.8,0.1-1.2,0.1h-0.9V66h-1.9v-7.7h2.8c0.4,0,0.8,0,1.2,0.1
						s0.7,0.2,1,0.4s0.5,0.4,0.6,0.7C160,60,160.1,60.4,160.1,60.8z M158.2,60.8c0-0.2,0-0.3-0.1-0.4c-0.1-0.1-0.2-0.2-0.3-0.3
						s-0.3-0.1-0.4-0.1c-0.2,0-0.3,0-0.5,0h-0.8v1.8h0.8c0.2,0,0.3,0,0.5,0s0.3-0.1,0.4-0.2c0.1-0.1,0.2-0.2,0.3-0.3
						S158.2,61,158.2,60.8z"/>
					
						<radialGradient id="SVGID_00000079449932459930069220000007742233636911468199_" cx="53.4912" cy="42.8737" r="74.816" gradientTransform="matrix(1 0 0 -1 0 100)" gradientUnits="userSpaceOnUse">
						<stop  offset="6.445300e-04" style="stop-color:#EC1C29"/>
						<stop  offset="0.6393" style="stop-color:#6F358D"/>
						<stop  offset="1" style="stop-color:#6F358D"/>
					</radialGradient>
					<path style="fill:url(#SVGID_00000079449932459930069220000007742233636911468199_);" d="M167.9,66.1v-5.4l0,0l-2,5.4h-1.3
						l-1.9-5.4l0,0v5.4H161v-7.7h2.6l1.8,4.9l0,0l1.7-4.9h2.7v7.7H167.9z"/>
					
						<radialGradient id="SVGID_00000036969731551357004670000018088336394289666992_" cx="53.4753" cy="42.8737" r="74.825" gradientTransform="matrix(1 0 0 -1 0 100)" gradientUnits="userSpaceOnUse">
						<stop  offset="6.445300e-04" style="stop-color:#EC1C29"/>
						<stop  offset="0.6393" style="stop-color:#6F358D"/>
						<stop  offset="1" style="stop-color:#6F358D"/>
					</radialGradient>
					<path style="fill:url(#SVGID_00000036969731551357004670000018088336394289666992_);" d="M171.4,66.1v-7.7h5.2V60h-3.4v1.5h3.2
						V63h-3.2v1.6h3.6v1.6L171.4,66.1L171.4,66.1z"/>
					
						<radialGradient id="SVGID_00000170268786071798610170000012396368515493314206_" cx="53.4892" cy="42.8737" r="74.8165" gradientTransform="matrix(1 0 0 -1 0 100)" gradientUnits="userSpaceOnUse">
						<stop  offset="6.445300e-04" style="stop-color:#EC1C29"/>
						<stop  offset="0.6393" style="stop-color:#6F358D"/>
						<stop  offset="1" style="stop-color:#6F358D"/>
					</radialGradient>
					<path style="fill:url(#SVGID_00000170268786071798610170000012396368515493314206_);" d="M182.8,66.1l-3.1-5l0,0v5h-1.8v-7.7
						h2.1l3.1,5l0,0v-5h1.8v7.7H182.8z"/>
					
						<radialGradient id="SVGID_00000010994698058621302890000010108322911313458354_" cx="53.4756" cy="42.8737" r="74.8232" gradientTransform="matrix(1 0 0 -1 0 100)" gradientUnits="userSpaceOnUse">
						<stop  offset="6.445300e-04" style="stop-color:#EC1C29"/>
						<stop  offset="0.6393" style="stop-color:#6F358D"/>
						<stop  offset="1" style="stop-color:#6F358D"/>
					</radialGradient>
					<path style="fill:url(#SVGID_00000010994698058621302890000010108322911313458354_);" d="M189.9,60v6.1H188V60h-2.2v-1.6h6.2
						V60H189.9z"/>
					
						<radialGradient id="SVGID_00000062912647759997253140000012108257421458310580_" cx="53.5081" cy="42.8775" r="74.8008" gradientTransform="matrix(1 0 0 -1 0 100)" gradientUnits="userSpaceOnUse">
						<stop  offset="6.445300e-04" style="stop-color:#EC1C29"/>
						<stop  offset="0.6393" style="stop-color:#6F358D"/>
						<stop  offset="1" style="stop-color:#6F358D"/>
					</radialGradient>
					<path style="fill:url(#SVGID_00000062912647759997253140000012108257421458310580_);" d="M116,76.1l-0.6-1.5h-3l-0.6,1.5h-2
						l3.2-7.7h1.8l3.2,7.7H116z M113.9,70.5l-1,2.6h1.9L113.9,70.5z"/>
					
						<radialGradient id="SVGID_00000114050756640384487650000006370851002828848538_" cx="53.4934" cy="42.8782" r="74.8173" gradientTransform="matrix(1 0 0 -1 0 100)" gradientUnits="userSpaceOnUse">
						<stop  offset="6.445300e-04" style="stop-color:#EC1C29"/>
						<stop  offset="0.6393" style="stop-color:#6F358D"/>
						<stop  offset="1" style="stop-color:#6F358D"/>
					</radialGradient>
					<path style="fill:url(#SVGID_00000114050756640384487650000006370851002828848538_);" d="M124.7,74.5c-0.2,0.4-0.4,0.7-0.7,1
						c-0.3,0.3-0.6,0.5-1,0.6c-0.4,0.2-0.9,0.2-1.4,0.2s-1-0.1-1.4-0.2c-0.4-0.2-0.7-0.4-1-0.6c-0.3-0.3-0.5-0.6-0.7-1
						s-0.2-0.8-0.2-1.3v-4.8h1.8V73c0,0.2,0,0.4,0.1,0.6s0.1,0.4,0.3,0.5c0.1,0.1,0.3,0.3,0.4,0.4c0.2,0.1,0.4,0.1,0.7,0.1
						c0.3,0,0.5,0,0.7-0.1s0.3-0.2,0.5-0.4c0.1-0.1,0.2-0.3,0.3-0.5c0-0.2,0.1-0.4,0.1-0.6v-4.6h1.9v4.8
						C125,73.7,124.9,74.1,124.7,74.5z"/>
					
						<radialGradient id="SVGID_00000181075658872818180240000006662980550769142690_" cx="53.5064" cy="42.8775" r="74.8036" gradientTransform="matrix(1 0 0 -1 0 100)" gradientUnits="userSpaceOnUse">
						<stop  offset="6.445300e-04" style="stop-color:#EC1C29"/>
						<stop  offset="0.6393" style="stop-color:#6F358D"/>
						<stop  offset="1" style="stop-color:#6F358D"/>
					</radialGradient>
					<path style="fill:url(#SVGID_00000181075658872818180240000006662980550769142690_);" d="M129.9,70v6.1H128V70h-2.2v-1.6h6.2
						V70H129.9z"/>
					
						<radialGradient id="SVGID_00000095321872138932926910000011389567452120263611_" cx="53.5112" cy="42.8775" r="74.8002" gradientTransform="matrix(1 0 0 -1 0 100)" gradientUnits="userSpaceOnUse">
						<stop  offset="6.445300e-04" style="stop-color:#EC1C29"/>
						<stop  offset="0.6393" style="stop-color:#6F358D"/>
						<stop  offset="1" style="stop-color:#6F358D"/>
					</radialGradient>
					<path style="fill:url(#SVGID_00000095321872138932926910000011389567452120263611_);" d="M137.7,76.1v-3.2h-3v3.2h-1.9v-7.7
						h1.9v2.9h3v-2.9h1.9v7.7H137.7z"/>
					
						<radialGradient id="SVGID_00000035494937147064049100000000660623518003843972_" cx="53.4939" cy="42.8751" r="74.814" gradientTransform="matrix(1 0 0 -1 0 100)" gradientUnits="userSpaceOnUse">
						<stop  offset="6.445300e-04" style="stop-color:#EC1C29"/>
						<stop  offset="0.6393" style="stop-color:#6F358D"/>
						<stop  offset="1" style="stop-color:#6F358D"/>
					</radialGradient>
					<path style="fill:url(#SVGID_00000035494937147064049100000000660623518003843972_);" d="M148.8,72.2c0,0.6-0.1,1.2-0.3,1.7
						s-0.5,0.9-0.9,1.3s-0.8,0.6-1.3,0.8c-0.5,0.2-1.1,0.3-1.7,0.3c-0.6,0-1.2-0.1-1.7-0.3c-0.5-0.2-1-0.5-1.3-0.8
						c-0.4-0.4-0.7-0.8-0.9-1.3s-0.3-1.1-0.3-1.7s0.1-1.2,0.3-1.7s0.5-0.9,0.9-1.3c0.4-0.3,0.8-0.6,1.3-0.8c0.5-0.2,1.1-0.3,1.7-0.3
						c0.6,0,1.2,0.1,1.7,0.3c0.5,0.2,1,0.5,1.3,0.8c0.4,0.3,0.7,0.8,0.9,1.3S148.8,71.6,148.8,72.2z M146.9,72.2
						c0-0.3-0.1-0.6-0.2-0.9c-0.1-0.3-0.3-0.5-0.5-0.7s-0.4-0.4-0.7-0.5s-0.6-0.2-0.9-0.2c-0.3,0-0.6,0.1-0.9,0.2
						c-0.3,0.1-0.5,0.3-0.7,0.5s-0.3,0.5-0.5,0.7c-0.1,0.3-0.2,0.6-0.2,0.9s0.1,0.7,0.2,1c0.1,0.3,0.3,0.5,0.5,0.8
						c0.2,0.2,0.4,0.4,0.7,0.5s0.6,0.2,0.9,0.2c0.3,0,0.6-0.1,0.9-0.2c0.3-0.1,0.5-0.3,0.7-0.5s0.3-0.5,0.5-0.8
						C146.8,72.9,146.9,72.6,146.9,72.2z"/>
					
						<radialGradient id="SVGID_00000095341184042337875480000009612947564272043451_" cx="53.5205" cy="42.8775" r="74.795" gradientTransform="matrix(1 0 0 -1 0 100)" gradientUnits="userSpaceOnUse">
						<stop  offset="6.445300e-04" style="stop-color:#EC1C29"/>
						<stop  offset="0.6393" style="stop-color:#6F358D"/>
						<stop  offset="1" style="stop-color:#6F358D"/>
					</radialGradient>
					<path style="fill:url(#SVGID_00000095341184042337875480000009612947564272043451_);" d="M154,76.1l-1.7-3.1h-0.6v3.1h-1.8
						v-7.7h2.9c0.4,0,0.7,0,1.1,0.1c0.4,0.1,0.7,0.2,0.9,0.4c0.3,0.2,0.5,0.4,0.7,0.7c0.2,0.3,0.2,0.7,0.2,1.1c0,0.5-0.1,1-0.4,1.3
						c-0.3,0.4-0.7,0.6-1.2,0.8l2,3.3C156.1,76.1,154,76.1,154,76.1z M153.9,70.8c0-0.2,0-0.3-0.1-0.4s-0.2-0.2-0.3-0.3
						c-0.1-0.1-0.3-0.1-0.4-0.1c-0.1,0-0.3,0-0.4,0h-1v1.8h0.9c0.2,0,0.3,0,0.5,0s0.3-0.1,0.4-0.1c0.1-0.1,0.2-0.2,0.3-0.3
						C153.8,71.1,153.9,71,153.9,70.8z"/>
					
						<radialGradient id="SVGID_00000007428278733007427050000009458582120862900915_" cx="53.5336" cy="42.8775" r="74.7873" gradientTransform="matrix(1 0 0 -1 0 100)" gradientUnits="userSpaceOnUse">
						<stop  offset="6.445300e-04" style="stop-color:#EC1C29"/>
						<stop  offset="0.6393" style="stop-color:#6F358D"/>
						<stop  offset="1" style="stop-color:#6F358D"/>
					</radialGradient>
					<path style="fill:url(#SVGID_00000007428278733007427050000009458582120862900915_);" d="M157.1,76.1v-7.7h1.9v7.7H157.1z"/>
					
						<radialGradient id="SVGID_00000022551614588967429540000007201040363692742591_" cx="53.4942" cy="42.8775" r="74.8137" gradientTransform="matrix(1 0 0 -1 0 100)" gradientUnits="userSpaceOnUse">
						<stop  offset="6.445300e-04" style="stop-color:#EC1C29"/>
						<stop  offset="0.6393" style="stop-color:#6F358D"/>
						<stop  offset="1" style="stop-color:#6F358D"/>
					</radialGradient>
					<path style="fill:url(#SVGID_00000022551614588967429540000007201040363692742591_);" d="M163.8,70v6.1h-1.9V70h-2.2v-1.6h6.2
						V70H163.8z"/>
					
						<radialGradient id="SVGID_00000142161637380593910660000013147788243563362733_" cx="53.5074" cy="42.8775" r="74.8059" gradientTransform="matrix(1 0 0 -1 0 100)" gradientUnits="userSpaceOnUse">
						<stop  offset="6.445300e-04" style="stop-color:#EC1C29"/>
						<stop  offset="0.6393" style="stop-color:#6F358D"/>
						<stop  offset="1" style="stop-color:#6F358D"/>
					</radialGradient>
					<path style="fill:url(#SVGID_00000142161637380593910660000013147788243563362733_);" d="M171.3,72.8v3.3h-1.9v-3.3l-2.9-4.4
						h2.2l1.6,2.8l1.6-2.8h2.2L171.3,72.8z"/>
				</g>
			</g>
			
				<radialGradient id="SVGID_00000139257029330226891600000003274997640898972079_" cx="53.498" cy="42.8735" r="74.8053" gradientTransform="matrix(1 0 0 -1 0 100)" gradientUnits="userSpaceOnUse">
				<stop  offset="6.445300e-04" style="stop-color:#EC1C29"/>
				<stop  offset="0.6393" style="stop-color:#6F358D"/>
				<stop  offset="1" style="stop-color:#6F358D"/>
			</radialGradient>
			<path style="fill:url(#SVGID_00000139257029330226891600000003274997640898972079_);" d="M58.9,71.7V43l8.3-4.5v37.6L58.9,71.7z"
				/>
			
				<radialGradient id="SVGID_00000038381974281672422850000003417773825354742693_" cx="53.4966" cy="42.8735" r="74.808" gradientTransform="matrix(1 0 0 -1 0 100)" gradientUnits="userSpaceOnUse">
				<stop  offset="6.445300e-04" style="stop-color:#EC1C29"/>
				<stop  offset="0.6393" style="stop-color:#6F358D"/>
				<stop  offset="1" style="stop-color:#6F358D"/>
			</radialGradient>
			<path style="fill:url(#SVGID_00000038381974281672422850000003417773825354742693_);" d="M41.2,76.1V38.5l8.3,4.5v28.7L41.2,76.1
				z"/>
			<g>
				
					<radialGradient id="SVGID_00000155117718210723519700000013874311664937041840_" cx="53.4934" cy="42.8747" r="74.816" gradientTransform="matrix(1 0 0 -1 0 100)" gradientUnits="userSpaceOnUse">
					<stop  offset="6.445300e-04" style="stop-color:#EC1C29"/>
					<stop  offset="0.6393" style="stop-color:#6F358D"/>
					<stop  offset="1" style="stop-color:#6F358D"/>
				</radialGradient>
				<polygon style="fill:url(#SVGID_00000155117718210723519700000013874311664937041840_);" points="86.2,76.1 76.6,76.1 76.6,52 
									"/>
				
					<radialGradient id="SVGID_00000124858739264412246940000001349568988953802376_" cx="53.4975" cy="42.8747" r="74.8108" gradientTransform="matrix(1 0 0 -1 0 100)" gradientUnits="userSpaceOnUse">
					<stop  offset="6.445300e-04" style="stop-color:#EC1C29"/>
					<stop  offset="0.6393" style="stop-color:#6F358D"/>
					<stop  offset="1" style="stop-color:#6F358D"/>
				</radialGradient>
				<polygon style="fill:url(#SVGID_00000124858739264412246940000001349568988953802376_);" points="90.8,76.1 100.4,76.1 
					100.4,52 				"/>
			</g>
			
				<radialGradient id="SVGID_00000115495358488656507130000000769257501800394640_" cx="53.4949" cy="42.8733" r="74.8156" gradientTransform="matrix(1 0 0 -1 0 100)" gradientUnits="userSpaceOnUse">
				<stop  offset="6.445300e-04" style="stop-color:#EC1C29"/>
				<stop  offset="0.6393" style="stop-color:#6F358D"/>
				<stop  offset="1" style="stop-color:#6F358D"/>
			</radialGradient>
			<polygon style="fill:url(#SVGID_00000115495358488656507130000000769257501800394640_);" points="80.1,38.5 96.9,38.5 88.5,57.3 
							"/>
		</g>
		<g>
			<g>
				
					<linearGradient id="SVGID_00000041988919689843925620000017038944093298073777_" gradientUnits="userSpaceOnUse" x1="535.0447" y1="42.6881" x2="450.2442" y2="42.6881" gradientTransform="matrix(1 0 0 -1 0 100)">
					<stop  offset="6.445300e-04" style="stop-color:#EC1C29"/>
					<stop  offset="0.6393" style="stop-color:#6F358D"/>
					<stop  offset="1" style="stop-color:#6F358D"/>
				</linearGradient>
				<path style="fill:url(#SVGID_00000041988919689843925620000017038944093298073777_);" d="M485,59c-0.1,0-0.2,0-0.4,0
					c-0.6,0-1.3,0-1.9,0c-0.2,0-0.5,0-0.7-0.1c-0.8-0.3-1.1-1.1-1-1.7c0.1-0.8,0.7-1.4,1.5-1.4c0.5,0,1.1,0,1.6,0c0.8,0,1.7,0,2.5,0
					c0.2,0,0.4,0,0.6,0.1c0.8,0.2,1.3,0.6,1.4,1.4c0.1,0.4,0.1,0.8,0.1,1.2c-0.1,1.3-0.3,2.6-1,3.7c-1.2,2.1-2.9,3.3-5.3,3.7
					c-1.6,0.3-3.1,0.1-4.6-0.5c-2.1-0.9-3.6-2.5-4.3-4.7c-1-2.8-0.8-5.5,0.6-8.1c1.2-2.2,3.2-3.5,5.7-3.9c1.9-0.3,3.8,0,5.6,0.8
					c0.6,0.3,1.2,0.6,1.6,1.1c0.4,0.4,0.6,0.9,0.6,1.5c-0.1,1.1-1,1.6-2,1.3c-0.3-0.1-0.5-0.2-0.8-0.4s-0.6-0.4-0.9-0.6
					c-1.2-0.7-2.5-0.8-3.9-0.5c-1,0.2-1.7,0.8-2.3,1.6c-0.5,0.7-0.8,1.5-0.9,2.3c-0.2,1.4-0.2,2.7,0.3,4c0.4,1,1,1.9,2,2.4
					c1.6,0.7,3.1,0.6,4.6-0.3c1-0.6,1.4-1.6,1.5-2.7C485,59.2,485,59.1,485,59z"/>
				
					<linearGradient id="SVGID_00000123436049791549742050000012199814509337768115_" gradientUnits="userSpaceOnUse" x1="535.0447" y1="42.7" x2="450.2442" y2="42.7" gradientTransform="matrix(1 0 0 -1 0 100)">
					<stop  offset="6.445300e-04" style="stop-color:#EC1C29"/>
					<stop  offset="0.6393" style="stop-color:#6F358D"/>
					<stop  offset="1" style="stop-color:#6F358D"/>
				</linearGradient>
				<path style="fill:url(#SVGID_00000123436049791549742050000012199814509337768115_);" d="M448.7,57.3c0-2.2,0-4.5,0-6.7
					c0-0.3,0-0.6,0.1-0.9c0.1-0.5,0.5-0.8,1-1c0.2-0.1,0.5-0.1,0.7-0.1c1.3,0,2.7,0,4,0c1.2,0,2.5,0.1,3.6,0.6
					c3,1.2,4.9,3.4,5.4,6.7c0.4,2.3,0,4.4-1.4,6.3c-1.4,2-3.3,3.2-5.7,3.6c-0.8,0.1-1.6,0.1-2.4,0.2c-1.3,0-2.6,0-3.9,0
					c-0.8,0-1.4-0.6-1.5-1.4c0-0.2,0-0.4,0-0.6C448.7,61.8,448.7,59.5,448.7,57.3z M452,63.1c0.1,0,0.2,0,0.3,0c0.7,0,1.4,0,2.1,0
					c0.6,0,1.1,0,1.7-0.2c1.9-0.5,4-2.4,4.2-5.2c0.1-1.3-0.2-2.5-0.9-3.6c-0.7-1.1-1.6-1.9-2.9-2.3c-0.7-0.2-1.3-0.3-2-0.3
					s-1.4,0-2.1,0c-0.1,0-0.2,0-0.4,0C452,55.4,452,59.2,452,63.1z"/>
				
					<linearGradient id="SVGID_00000159464863755254439490000009116395700240078496_" gradientUnits="userSpaceOnUse" x1="535.0447" y1="42.8258" x2="450.2442" y2="42.8258" gradientTransform="matrix(1 0 0 -1 0 100)">
					<stop  offset="6.445300e-04" style="stop-color:#EC1C29"/>
					<stop  offset="0.6393" style="stop-color:#6F358D"/>
					<stop  offset="1" style="stop-color:#6F358D"/>
				</linearGradient>
				<path style="fill:url(#SVGID_00000159464863755254439490000009116395700240078496_);" d="M519.6,62.4c-2.2,0-4.4,0-6.6,0
					c0,0.1-0.1,0.2-0.1,0.3c-0.2,0.6-0.4,1.3-0.6,1.9c-0.1,0.4-0.3,0.8-0.7,1c-0.7,0.4-1.6,0.3-2.2-0.3c-0.5-0.5-0.6-1.2-0.3-1.8
					c0.4-1,0.7-2,1.1-3c1.2-3.3,2.4-6.5,3.6-9.8c0.2-0.6,0.5-1.1,0.9-1.5c1-1,2.6-0.9,3.6,0.2c0.3,0.4,0.5,0.8,0.7,1.2
					c1.3,3.6,2.6,7.1,3.8,10.7c0.3,0.7,0.5,1.5,0.8,2.2c0.1,0.3,0.2,0.6,0.1,0.9c0,0.9-0.9,1.5-1.7,1.4c-0.9,0-1.3-0.4-1.6-1.2
					c-0.2-0.6-0.4-1.2-0.6-1.8C519.7,62.7,519.6,62.6,519.6,62.4z M516.3,52.3c-0.2,0.3-2.2,6.6-2.2,6.8c1.5,0,2.9,0,4.4,0
					C518.4,58.8,516.4,52.5,516.3,52.3z"/>
				
					<linearGradient id="SVGID_00000129204239703950797790000008423864059890388137_" gradientUnits="userSpaceOnUse" x1="535.0447" y1="42.6437" x2="450.2442" y2="42.6437" gradientTransform="matrix(1 0 0 -1 0 100)">
					<stop  offset="6.445300e-04" style="stop-color:#EC1C29"/>
					<stop  offset="0.6393" style="stop-color:#6F358D"/>
					<stop  offset="1" style="stop-color:#6F358D"/>
				</linearGradient>
				<path style="fill:url(#SVGID_00000129204239703950797790000008423864059890388137_);" d="M505,52.1c0,0.2,0,0.3,0,0.5
					c0,3.8,0,7.5,0,11.3c0,0.2,0,0.4-0.1,0.6c-0.2,0.9-0.9,1.4-1.9,1.3s-1.6-0.7-1.6-1.8c0-1.5,0-3,0-4.4c0-2.3,0-4.7,0-7
					c0-0.1,0-0.3,0-0.5c-0.1,0-0.3,0-0.4,0c-0.7,0-1.4,0-2.2,0c-0.2,0-0.4,0-0.6-0.1c-0.2,0-0.3-0.1-0.5-0.2
					c-0.5-0.4-0.7-1.1-0.5-1.8c0.2-0.6,0.7-1.1,1.4-1.1c0.1,0,0.1,0,0.2,0c2.9,0,5.7,0,8.6,0c0.8,0,1.4,0.4,1.6,1.2
					c0.1,0.5,0.1,1-0.2,1.4c-0.3,0.5-0.8,0.6-1.3,0.6c-0.7,0-1.5,0-2.2,0C505.3,52.1,505.2,52.1,505,52.1z"/>
				
					<linearGradient id="SVGID_00000167378229610628578950000015573861173036151983_" gradientUnits="userSpaceOnUse" x1="535.0447" y1="42.9047" x2="450.2442" y2="42.9047" gradientTransform="matrix(1 0 0 -1 0 100)">
					<stop  offset="6.445300e-04" style="stop-color:#EC1C29"/>
					<stop  offset="0.6393" style="stop-color:#6F358D"/>
					<stop  offset="1" style="stop-color:#6F358D"/>
				</linearGradient>
				<path style="fill:url(#SVGID_00000167378229610628578950000015573861173036151983_);" d="M529.1,62.5c0.2,0,0.3,0,0.5,0
					c1.2,0,2.5,0,3.7,0c0.2,0,0.3,0,0.5,0c0.8,0.2,1.3,0.8,1.3,1.6c0,0.8-0.6,1.4-1.3,1.5c-0.2,0-0.3,0-0.5,0c-1.9,0-3.8,0-5.6,0
					c-0.2,0-0.5,0-0.7-0.1c-0.7-0.2-1.2-0.8-1.2-1.6c0-0.1,0-0.3,0-0.4c0-4.3,0-8.6,0-12.9c0-0.2,0-0.4,0.1-0.7
					c0.2-0.8,0.7-1.3,1.5-1.3c1.1-0.1,1.9,0.6,1.9,1.8c0,0.7,0,1.4,0,2.2c0,3.1,0,6.2,0,9.3C529.1,62.2,529.1,62.3,529.1,62.5z"/>
				
					<linearGradient id="SVGID_00000129928231522894794640000002992365830537774484_" gradientUnits="userSpaceOnUse" x1="535.0447" y1="42.7526" x2="450.2442" y2="42.7526" gradientTransform="matrix(1 0 0 -1 0 100)">
					<stop  offset="6.445300e-04" style="stop-color:#EC1C29"/>
					<stop  offset="0.6393" style="stop-color:#6F358D"/>
					<stop  offset="1" style="stop-color:#6F358D"/>
				</linearGradient>
				<path style="fill:url(#SVGID_00000129928231522894794640000002992365830537774484_);" d="M466.4,57.3c0-2.2,0-4.4,0-6.7
					c0-0.2,0-0.3,0-0.5c0.2-1.2,1.2-1.5,2-1.4c0.9,0.1,1.3,0.7,1.4,1.6c0,0.1,0,0.3,0,0.4c0,4.4,0,8.7,0,13.1c0,0.2,0,0.5-0.1,0.7
					c-0.2,0.9-0.9,1.4-1.8,1.3c-1-0.1-1.6-0.7-1.6-1.8C466.4,61.8,466.4,59.6,466.4,57.3z"/>
				
					<linearGradient id="SVGID_00000096026178626776549390000011307301307703043731_" gradientUnits="userSpaceOnUse" x1="535.0447" y1="42.7375" x2="450.2442" y2="42.7375" gradientTransform="matrix(1 0 0 -1 0 100)">
					<stop  offset="6.445300e-04" style="stop-color:#EC1C29"/>
					<stop  offset="0.6393" style="stop-color:#6F358D"/>
					<stop  offset="1" style="stop-color:#6F358D"/>
				</linearGradient>
				<path style="fill:url(#SVGID_00000096026178626776549390000011307301307703043731_);" d="M491.6,57.3c0-2.2,0-4.3,0-6.5
					c0-0.1,0-0.2,0-0.3c0-1.6,1.5-2.1,2.6-1.6c0.7,0.3,0.9,0.9,0.9,1.5c0,0.1,0,0.2,0,0.3c0,4.4,0,8.7,0,13.1c0,0.2,0,0.4,0,0.6
					c-0.1,0.9-0.9,1.5-1.9,1.4s-1.6-0.7-1.6-1.8C491.6,61.8,491.6,59.6,491.6,57.3z"/>
			</g>
			<path class="st48" d="M442.6,63.8c-1.1,0-2.2-0.9-2.2-2.2s1.2-2.1,2.2-2.1s2.1,0.8,2.1,2.1C444.8,63,443.6,63.9,442.6,63.8z"/>
			<path class="st49" d="M440.4,52.9c0-1.1,1-2.1,2.2-2.1s2.2,1,2.1,2.2c0,1.2-1,2.1-2.2,2.1C441.4,55.1,440.4,54.1,440.4,52.9z"/>
			<g>
				<path class="st49" d="M391.9,57.3c0-11.9,9.7-21.6,21.7-21.6c12.2,0,21.8,10.1,21.6,22c-0.2,11.9-10,21.5-22,21.3
					C401.6,78.8,391.9,69.4,391.9,57.3z M413.5,75.7c10.5-0.1,18.4-8.5,18.4-18.3c0-10-8-18.3-18.2-18.4
					c-10.3-0.1-18.5,8.2-18.6,18.3C395.1,67.1,403.1,75.6,413.5,75.7z"/>
				<path class="st49" d="M426.1,59.1c-0.2,0-0.3,0-0.4,0c-1.5,0-2.9,0-4.4,0c-0.1,0-0.1,0-0.2,0c-0.4,0-0.6-0.2-0.6-0.6
					c0-0.6,0-1.2,0-1.7s0.2-0.6,0.6-0.6c2.5,0,5,0,7.5,0c0.1,0,0.1,0,0.2,0c0.3,0,0.5,0.2,0.5,0.5c0.1,2.3-0.4,4.4-1.8,6.3
					c-1.3,1.6-2.9,2.6-4.9,2.9c-1.5,0.3-3,0.2-4.5-0.3c-2-0.7-3.5-2-4.5-3.9c-1.4-2.8-1.4-5.7,0-8.5c1.2-2.4,3.1-3.8,5.8-4.3
					c1.9-0.3,3.7-0.2,5.4,0.6c0.9,0.4,1.7,1,2.4,1.7c0.3,0.3,0.3,0.5,0,0.8c-0.5,0.5-0.9,1-1.4,1.5c-0.2,0.2-0.4,0.2-0.6,0
					c-0.1-0.1-0.2-0.1-0.2-0.2c-0.8-0.7-1.6-1.3-2.7-1.5c-0.9-0.2-1.9-0.2-2.8,0.1c-1.3,0.4-2.4,1.2-3,2.4c-1,2-1,4.1,0,6.1
					c0.7,1.5,2,2.4,3.7,2.6c1.1,0.2,2.3,0,3.3-0.5C424.9,61.8,425.7,60.7,426.1,59.1z"/>
				<path class="st49" d="M405.1,48.6c1.5,0,2.8,0.3,4,0.9c0.7,0.4,1.3,0.9,1.9,1.4c0.3,0.3,0.3,0.6,0,0.9c-0.4,0.5-0.9,0.9-1.4,1.4
					c-0.2,0.3-0.4,0.3-0.7,0c-0.4-0.5-0.9-0.9-1.4-1.2c-0.9-0.5-1.8-0.7-2.8-0.6c-0.4,0.1-0.8,0.1-1.2,0.3c-0.3,0.1-0.6,0.3-0.9,0.6
					c-0.6,0.6-0.6,1.5,0.1,2.2c0.4,0.4,0.9,0.6,1.3,0.8c0.8,0.2,1.6,0.5,2.4,0.7c0.7,0.2,1.4,0.4,2.1,0.6c0.5,0.2,0.9,0.4,1.3,0.6
					c1.2,0.7,1.8,1.8,2,3.2c0.1,0.6,0,1.1-0.1,1.7c-0.3,1.1-0.9,1.9-1.8,2.6c-0.8,0.6-1.7,0.9-2.6,1.1c-1.5,0.3-2.9,0.2-4.4-0.2
					c-0.7-0.2-1.4-0.5-2-1c-0.8-0.5-1.5-1.2-2.2-2c-0.2-0.3-0.2-0.5,0-0.7c0.5-0.5,0.9-1,1.4-1.5c0.3-0.3,0.5-0.3,0.8,0
					c0.3,0.4,0.6,0.8,1,1.1c1.5,1.4,3.2,1.8,5.2,1.4c0.4-0.1,0.7-0.2,1-0.4c0.9-0.6,0.9-2,0.1-2.7c-0.3-0.2-0.6-0.4-1-0.5
					c-0.8-0.3-1.7-0.5-2.5-0.8c-0.6-0.2-1.2-0.4-1.9-0.6c-0.8-0.3-1.5-0.7-2.1-1.3c-1.9-1.8-1.9-4.7,0.1-6.4c0.9-0.8,2-1.2,3.2-1.4
					C404.3,48.7,404.8,48.7,405.1,48.6z"/>
			</g>
		</g>
		<g id="Group_688" transform="translate(70 29.096)">
			<path id="Path_7837-2" class="st50" d="M164.7,15.7h107c6.9,0,12.5,5.6,12.5,12.5s-5.6,12.5-12.5,12.5h-107
				c-6.9,0-12.5-5.6-12.5-12.5S157.8,15.7,164.7,15.7L164.7,15.7"/>
			<path id="Path_7838-2" class="st0" d="M170.5,24.5c0,0.5-0.4,1-0.9,1l0,0c-0.6,0-1-0.4-1.8-0.4c-0.6,0-1.1,0.3-1.1,0.9
				c0,1.4,4.6,0.5,4.6,4c0,1.8-1.5,3.2-3.3,3.2c-0.1,0-0.1,0-0.2,0c-1.1,0-3.3-0.2-3.3-1.5c0-0.5,0.3-0.9,0.9-1l0,0h0.1
				c0.6,0,1.4,0.5,2.3,0.5s1.4-0.5,1.4-1.2c0-1.6-4.6-0.6-4.6-3.8c0-1.7,1.5-3.1,3.2-3.1c0.1,0,0.1,0,0.2,0
				C168.6,23.2,170.5,23.5,170.5,24.5"/>
			<path id="Path_7839-2" class="st0" d="M173.4,24.3c0.1-0.6,0.7-1.1,1.3-1.1s1.2,0.4,1.4,1l1.6,5.4l0,0l1.6-5.4
				c0.2-0.6,0.8-1,1.4-1c0.6,0,1.2,0.4,1.3,1.1l1.3,7.6c0,0.1,0,0.2,0,0.2c0,0.5-0.4,1-0.9,1l0,0h-0.1c-0.7,0-1-0.3-1.1-1l-0.8-5.6
				l0,0l-1.6,5.7c-0.2,0.6-0.9,0.9-1.5,0.7c-0.3-0.1-0.6-0.4-0.7-0.7l-1.6-5.7l0,0l-0.8,5.6c-0.1,0.6-0.4,1-1.1,1
				c-0.5,0-1-0.4-1-0.9l0,0v-0.1c0-0.1,0-0.2,0-0.2L173.4,24.3z"/>
			<path id="Path_7840-2" class="st0" d="M184.6,24.5c0-0.7,0.3-1.2,1.1-1.2h3.4c0.5,0,0.9,0.3,1,0.8l0,0v0.1c0,0.5-0.4,0.9-0.9,0.9
				h-2.5v2h2.2c0.5,0,1,0.3,1,0.9v0.1c0,0.5-0.4,0.9-0.9,0.9h-2.3v2.1h2.5c0.5,0,0.9,0.3,1,0.8l0,0V32c0,0.5-0.4,0.9-0.9,0.9l0,0
				h-3.6c-0.6,0-1-0.4-1.1-0.9l0,0v-0.1V24.5z"/>
			<path id="Path_7841-2" class="st0" d="M195.6,27.9c-0.4,0-1.1-0.6-1.8-0.6c-0.4,0-0.7,0.2-0.7,0.5c0,0.9,3.4,0.8,3.4,3
				c0,1.3-1.1,2.3-2.8,2.3c-1.1,0-2.8-0.6-2.8-1.5c0-0.5,0.4-0.8,0.8-0.9c0.8,0,1.1,0.7,2,0.7c0.6,0,0.8-0.2,0.8-0.6
				c0-0.9-3.4-0.8-3.4-3c0-1.3,1.1-2.4,2.5-2.3l0,0c0.1,0,0.1,0,0.2,0c1,0,2.5,0.5,2.5,1.4C196.4,27.5,196.1,27.9,195.6,27.9"/>
			<path id="Path_7842-2" class="st0" d="M208.4,27.3c0.9,0,1.2,0.4,1.2,1.3c0.2,2.4-1.6,4.5-4,4.6c-0.1,0-0.3,0-0.4,0
				c-2.6,0-4.7-2.1-4.7-4.8l0,0c0-0.1,0-0.2,0-0.3c-0.2-2.6,1.8-4.9,4.4-5l0,0c0.1,0,0.2,0,0.3,0c2.1,0,3.8,1,3.8,1.9
				c0,0.5-0.3,0.9-0.8,1h-0.1c-0.9,0-1.1-1-2.9-1c-1.7,0-2.6,1.5-2.6,3.2s0.8,3.2,2.6,3.2c1.2,0.1,2.2-0.8,2.3-1.9
				c0-0.1,0-0.1,0-0.2h-1.4c-0.5,0-0.9-0.4-0.9-0.9s0.4-0.9,0.9-0.9L208.4,27.3z"/>
			<path id="Path_7843-2" class="st0" d="M210.6,28.2c-0.2-2.6,1.8-4.9,4.4-5c0.1,0,0.2,0,0.3,0c2.6,0,4.8,2.2,4.7,4.9
				c0,0.1,0,0.1,0,0.2c0.2,2.6-1.8,4.9-4.4,5.1s-4.9-1.8-5.1-4.4C210.6,28.7,210.6,28.4,210.6,28.2 M217.9,28.2
				c0-1.7-0.9-3.2-2.6-3.2c-1.7,0-2.6,1.5-2.6,3.2s0.8,3.2,2.6,3.2S217.9,29.9,217.9,28.2"/>
			<path id="Path_7844-2" class="st0" d="M224.2,24.4c0-0.6,0.4-1,0.9-1.1l0,0h0.1h2.3c2.5-0.2,4.7,1.7,4.8,4.2l0,0
				c0,0.3,0,0.5,0,0.8c0.2,2.4-1.7,4.6-4.1,4.7l0,0c-0.2,0-0.4,0-0.6,0h-2.4c-0.6,0-1-0.4-1.1-0.9V32L224.2,24.4z M226.3,31.2h1.4
				c1.8,0,2.6-1.3,2.6-2.9c0-1.8-0.8-3-2.7-3h-1.2L226.3,31.2z"/>
			<path id="Path_7845-2" class="st0" d="M233.8,24.3c0-0.6,0.4-1.1,1-1.1s1.1,0.4,1.1,1l0,0v0.1v7.8c0,0.6-0.4,1.1-1,1.1
				s-1.1-0.4-1.1-1l0,0v-0.1V24.3z"/>
			<path id="Path_7846-2" class="st0" d="M245.1,27.3c0.9,0,1.2,0.4,1.2,1.3c0.2,2.4-1.6,4.5-4,4.6c-0.1,0-0.3,0-0.4,0
				c-2.6,0-4.7-2.1-4.7-4.8l0,0c0-0.1,0-0.2,0-0.3c-0.2-2.6,1.8-4.9,4.4-5l0,0c0.1,0,0.2,0,0.3,0c2.1,0,3.8,1,3.8,1.9
				c0,0.5-0.3,0.9-0.8,1h-0.1c-0.9,0-1.1-1-2.9-1c-1.7,0-2.6,1.5-2.6,3.2s0.8,3.2,2.6,3.2c1.2,0.1,2.2-0.8,2.3-1.9
				c0-0.1,0-0.1,0-0.2h-1.4c-0.5,0-0.9-0.4-0.9-0.9s0.4-0.9,0.9-0.9L245.1,27.3z"/>
			<path id="Path_7847-2" class="st0" d="M247.6,24.3c0-0.6,0.4-1.1,1-1.1s1.1,0.4,1.1,1l0,0v0.1v7.8c0,0.6-0.4,1.1-1,1.1
				s-1.1-0.4-1.1-1l0,0v-0.1V24.3z"/>
			<path id="Path_7848-2" class="st0" d="M253.2,25.2h-1.5c-0.5,0-0.9-0.3-0.9-0.8l0,0v-0.1c0-0.5,0.4-0.9,0.9-0.9h5.1
				c0.5,0,0.9,0.4,0.9,0.9l0,0l0,0c0,0.5-0.3,0.9-0.8,0.9l0,0h-1.6v6.9c0,0.6-0.4,1.1-1,1.1s-1.1-0.4-1.1-1l0,0v-0.1L253.2,25.2z"/>
			<path id="Path_7849-2" class="st0" d="M259.8,24.3c0.2-0.7,0.8-1.1,1.5-1.1s1.3,0.5,1.5,1.1l2.7,7.5c0.1,0.2,0.1,0.3,0.1,0.5
				c0,0.5-0.4,0.9-0.9,0.9l0,0c-0.5,0-0.9-0.3-1-0.7l-0.4-1.3h-3.8l-0.4,1.3c-0.1,0.4-0.5,0.8-1,0.7c-0.5,0-1-0.4-1-1l0,0l0,0
				c0-0.2,0-0.3,0.1-0.5L259.8,24.3z M259.9,29.3h2.6l-1.3-4l0,0L259.9,29.3z"/>
			<path id="Path_7850-2" class="st0" d="M266.6,24.3c0-0.6,0.4-1.1,1-1.1s1.1,0.4,1.1,1l0,0v0.1v6.9h2.4c0.5,0,1,0.4,1,0.9l0,0v0.1
				c0,0.5-0.5,0.9-1,0.9h-3.4c-0.6,0-1-0.4-1.1-1l0,0c0-0.1,0-0.1,0-0.2V24.3z"/>
			<path class="st51" d="M271,41H164.8c-7,0-12.7-5.7-12.7-12.7v0c0-7,5.7-12.7,12.7-12.7H271c7,0,12.7,5.7,12.7,12.7v0
				C283.7,35.3,278,41,271,41z"/>
			<g class="st52">
				<path class="st53" d="M168.9,24.3l-1.4,1.5c-0.2-0.2-0.4-0.3-0.6-0.4c-0.3-0.1-0.5-0.2-0.8-0.2c-0.3,0-0.6,0.1-0.9,0.2
					c-0.3,0.2-0.4,0.4-0.4,0.7c0,0.2,0.1,0.4,0.2,0.6c0.2,0.1,0.4,0.3,0.6,0.4c0.2,0.1,0.5,0.2,0.8,0.3s0.6,0.2,0.9,0.3
					c0.3,0.1,0.6,0.3,0.8,0.4c0.2,0.2,0.4,0.4,0.6,0.7c0.2,0.3,0.2,0.7,0.2,1.1c0,1-0.3,1.7-1,2.2c-0.7,0.5-1.5,0.8-2.5,0.8
					c-1.2,0-2.2-0.4-3-1.1l1.4-1.6c0.2,0.3,0.5,0.5,0.8,0.6c0.3,0.2,0.6,0.2,1,0.2c0.4,0,0.7-0.1,1-0.2c0.3-0.2,0.4-0.4,0.4-0.7
					c0-0.3-0.1-0.5-0.3-0.7c-0.2-0.2-0.5-0.3-0.8-0.4c-0.3-0.1-0.7-0.2-1-0.3c-0.4-0.1-0.7-0.3-1-0.4c-0.3-0.2-0.6-0.4-0.8-0.7
					c-0.2-0.3-0.3-0.7-0.3-1.2c0-0.9,0.3-1.6,1-2.2c0.7-0.5,1.5-0.8,2.4-0.8C167.3,23.4,168.2,23.7,168.9,24.3z"/>
				<path class="st53" d="M170.4,32.7v-9.1h3l2.1,5.9h0l2.1-5.9h3v9.1h-2v-6.9h0l-2.4,6.9h-1.5l-2.3-6.9h0v6.9H170.4z"/>
				<path class="st53" d="M182.6,32.7v-9.1h6.2v1.8h-4.2v1.7h3.9V29h-3.9v1.8h4.4v1.8H182.6z"/>
				<path class="st53" d="M195,27.1l-1.2,1.2c-0.3-0.3-0.7-0.5-1.1-0.5c-0.2,0-0.4,0-0.5,0.1c-0.1,0.1-0.2,0.2-0.2,0.4
					c0,0.1,0.1,0.2,0.2,0.3c0.2,0.1,0.4,0.2,0.6,0.2c0.2,0,0.5,0.1,0.8,0.2c0.3,0.1,0.5,0.2,0.8,0.3c0.2,0.1,0.4,0.3,0.6,0.6
					c0.2,0.3,0.2,0.6,0.2,0.9c0,0.4-0.1,0.7-0.3,1c-0.2,0.3-0.4,0.5-0.7,0.6c-0.3,0.1-0.6,0.3-0.9,0.3c-0.3,0.1-0.7,0.1-1,0.1
					c-1.1,0-1.9-0.3-2.4-0.8l1.2-1.3c0.4,0.5,0.8,0.7,1.4,0.7c0.6,0,0.9-0.1,0.9-0.4c0-0.2-0.1-0.3-0.3-0.4
					c-0.2-0.1-0.5-0.2-0.8-0.2c-0.3-0.1-0.6-0.1-1-0.2c-0.3-0.1-0.6-0.3-0.8-0.6c-0.2-0.3-0.3-0.6-0.3-1.1c0-0.7,0.3-1.2,0.8-1.6
					c0.5-0.4,1.1-0.5,1.8-0.5C193.7,26.3,194.5,26.6,195,27.1z"/>
				<path class="st53" d="M208.5,27.3V32c-1.1,0.6-2.4,0.9-3.8,0.9c-1.4,0-2.6-0.4-3.5-1.3c-0.9-0.9-1.4-2-1.4-3.5
					c0-1.4,0.5-2.6,1.4-3.5c0.9-0.9,2.1-1.3,3.5-1.3c1.6,0,2.8,0.4,3.6,1.2l-1.4,1.5c-0.5-0.6-1.3-0.9-2.2-0.9c-0.8,0-1.5,0.3-2,0.8
					c-0.5,0.5-0.8,1.2-0.8,2.1s0.3,1.6,0.8,2.1c0.5,0.5,1.2,0.8,2,0.8c0.7,0,1.3-0.1,1.9-0.4v-1.5h-1.6v-1.8H208.5z"/>
				<path class="st53" d="M211.1,31.6c-0.9-0.9-1.4-2-1.4-3.5c0-1.4,0.5-2.6,1.4-3.5c0.9-0.9,2.1-1.3,3.5-1.3s2.6,0.4,3.5,1.3
					c0.9,0.9,1.4,2,1.4,3.5c0,1.4-0.5,2.6-1.4,3.5c-0.9,0.9-2.1,1.3-3.5,1.3S212,32.5,211.1,31.6z M212.6,26
					c-0.5,0.5-0.8,1.2-0.8,2.1s0.3,1.6,0.8,2.1c0.5,0.5,1.2,0.8,2,0.8s1.5-0.3,2-0.8c0.5-0.5,0.8-1.2,0.8-2.1s-0.3-1.6-0.8-2.1
					c-0.5-0.5-1.2-0.8-2-0.8S213.1,25.5,212.6,26z"/>
				<path class="st53" d="M224.6,32.7v-9.1h3c0.8,0,1.5,0.1,2.1,0.2c0.6,0.2,1.2,0.4,1.7,0.8c0.5,0.3,0.9,0.8,1.2,1.4
					c0.3,0.6,0.4,1.3,0.4,2.1c0,0.9-0.2,1.8-0.7,2.4c-0.5,0.7-1.1,1.2-1.9,1.5c-0.8,0.3-1.6,0.5-2.5,0.5H224.6z M226.6,25.4v5.4h1
					c2.2,0,3.2-0.9,3.2-2.8c0-0.8-0.3-1.5-0.9-1.9c-0.6-0.4-1.3-0.7-2.2-0.7H226.6z"/>
				<path class="st53" d="M234.3,32.7v-9.1h2v9.1H234.3z"/>
				<path class="st53" d="M246.3,27.3V32c-1.1,0.6-2.4,0.9-3.8,0.9c-1.4,0-2.6-0.4-3.5-1.3c-0.9-0.9-1.4-2-1.4-3.5
					c0-1.4,0.5-2.6,1.4-3.5c0.9-0.9,2.1-1.3,3.5-1.3c1.6,0,2.8,0.4,3.6,1.2l-1.4,1.5c-0.5-0.6-1.3-0.9-2.2-0.9c-0.8,0-1.5,0.3-2,0.8
					c-0.5,0.5-0.8,1.2-0.8,2.1s0.3,1.6,0.8,2.1c0.5,0.5,1.2,0.8,2,0.8c0.7,0,1.3-0.1,1.9-0.4v-1.5h-1.6v-1.8H246.3z"/>
				<path class="st53" d="M248.1,32.7v-9.1h2v9.1H248.1z"/>
				<path class="st53" d="M253.6,32.7v-7.3H251v-1.8h7.2v1.8h-2.6v7.3H253.6z"/>
				<path class="st53" d="M257.1,32.7l3.9-9.1h1.6l3.9,9.1h-2.3l-0.8-1.9h-3.5l-0.8,1.9H257.1z M262.9,29l-1.1-2.8l-1.1,2.8H262.9z"
					/>
				<path class="st53" d="M267.6,32.7v-9.1h2v7.2h3.7v1.8H267.6z"/>
			</g>
		</g>
	</g>
	<g>
		<path class="st54" d="M39.2,23.6c-0.1,0-0.2-0.1-0.2-0.2c-0.1-0.1-0.1-0.2-0.1-0.3c0-0.1,0-0.2,0.1-0.3c0.1-0.1,0.2-0.1,0.3-0.1
			s0.1,0,0.2,0c0.7,0.3,1.4,0.4,2.1,0.4c1.3,0,1.9-0.4,1.9-1.2c0-0.2-0.1-0.4-0.2-0.5c-0.2-0.1-0.4-0.3-0.6-0.3
			c-0.2-0.1-0.6-0.2-1-0.3c-0.6-0.2-1.1-0.3-1.4-0.4c-0.4-0.1-0.7-0.4-0.9-0.6C39.1,19.4,39,19,39,18.5c0-0.4,0.1-0.8,0.3-1.1
			c0.2-0.3,0.5-0.6,1-0.8c0.4-0.2,0.9-0.3,1.5-0.3c0.8,0,1.5,0.1,2.2,0.4c0.2,0.1,0.3,0.2,0.3,0.4c0,0.1,0,0.2-0.1,0.3
			c-0.1,0.1-0.2,0.1-0.3,0.1c0,0-0.1,0-0.2,0c-0.6-0.2-1.1-0.3-1.7-0.3c-0.6,0-1,0.1-1.4,0.3c-0.4,0.2-0.5,0.5-0.5,0.9
			c0,0.3,0.1,0.5,0.3,0.6c0.2,0.2,0.4,0.3,0.6,0.4c0.3,0.1,0.6,0.2,1,0.3c0.6,0.1,1,0.3,1.4,0.4c0.3,0.1,0.6,0.3,0.9,0.6
			c0.2,0.3,0.4,0.7,0.4,1.2c0,0.4-0.1,0.8-0.3,1.1c-0.2,0.3-0.6,0.6-1,0.8C43,24,42.5,24.1,42,24.1C40.9,24.1,40,23.9,39.2,23.6z"/>
		<path class="st54" d="M46.7,23.8c-0.3-0.2-0.5-0.4-0.7-0.8c-0.2-0.3-0.2-0.7-0.2-1.1v-3.1c0-0.1,0-0.3,0.1-0.3s0.2-0.1,0.4-0.1
			s0.3,0,0.3,0.1c0.1,0.1,0.1,0.2,0.1,0.3v3c0,0.9,0.4,1.3,1.2,1.3c0.4,0,0.7-0.1,1-0.3c0.3-0.2,0.6-0.4,0.8-0.8v-3.2
			c0-0.1,0-0.3,0.1-0.3c0.1-0.1,0.2-0.1,0.4-0.1s0.3,0,0.3,0.1c0.1,0.1,0.1,0.2,0.1,0.3v4.6c0,0.1,0,0.3-0.1,0.4
			c0,0.2-0.2,0.2-0.3,0.2s-0.3,0-0.4-0.1c-0.1-0.1-0.1-0.2-0.1-0.4v-0.4c-0.3,0.3-0.6,0.5-0.9,0.7c-0.3,0.2-0.7,0.3-1.1,0.3
			C47.3,24.1,47,24,46.7,23.8z"/>
		<path class="st54" d="M52.5,26.4c-0.1-0.1-0.1-0.2-0.1-0.4v-7.1c0-0.1,0-0.3,0.1-0.3c0.1-0.1,0.2-0.1,0.3-0.1s0.3,0,0.4,0.1
			c0.1,0.1,0.1,0.2,0.1,0.3v0.3c0.5-0.5,1.1-0.8,1.9-0.8c0.4,0,0.9,0.1,1.3,0.3c0.4,0.2,0.7,0.6,1,1c0.2,0.4,0.4,0.9,0.4,1.5
			s-0.1,1.1-0.4,1.5c-0.2,0.4-0.6,0.8-1,1S55.7,24,55.2,24c-0.7,0-1.3-0.3-1.9-0.8V26c0,0.1,0,0.3-0.1,0.4s-0.2,0.1-0.4,0.1
			C52.7,26.5,52.6,26.5,52.5,26.4z M56.4,22.7c0.3-0.3,0.5-0.8,0.5-1.4s-0.2-1.1-0.5-1.4s-0.8-0.5-1.3-0.5c-0.3,0-0.6,0.1-0.9,0.2
			c-0.3,0.1-0.6,0.3-0.8,0.6v2.3c0.2,0.2,0.5,0.4,0.8,0.6c0.3,0.1,0.6,0.2,0.9,0.2C55.6,23.2,56.1,23,56.4,22.7z"/>
		<path class="st54" d="M59.4,26.4c-0.1-0.1-0.1-0.2-0.1-0.4v-7.1c0-0.1,0-0.3,0.1-0.3c0.1-0.1,0.2-0.1,0.3-0.1s0.3,0,0.4,0.1
			c0.1,0.1,0.1,0.2,0.1,0.3v0.3c0.5-0.5,1.1-0.8,1.9-0.8c0.4,0,0.9,0.1,1.3,0.3c0.4,0.2,0.7,0.6,1,1c0.2,0.4,0.4,0.9,0.4,1.5
			s-0.1,1.1-0.4,1.5c-0.2,0.4-0.6,0.8-1,1S62.6,24,62.1,24c-0.7,0-1.3-0.3-1.9-0.8V26c0,0.1,0,0.3-0.1,0.4s-0.2,0.1-0.4,0.1
			C59.6,26.5,59.5,26.5,59.4,26.4z M63.2,22.7c0.3-0.3,0.5-0.8,0.5-1.4s-0.2-1.1-0.5-1.4s-0.8-0.5-1.3-0.5c-0.3,0-0.6,0.1-0.9,0.2
			c-0.3,0.1-0.6,0.3-0.8,0.6v2.3c0.2,0.2,0.5,0.4,0.8,0.6c0.3,0.1,0.6,0.2,0.9,0.2C62.5,23.2,62.9,23,63.2,22.7z"/>
		<path class="st54" d="M67,23.7c-0.4-0.2-0.7-0.6-1-1c-0.2-0.4-0.3-0.9-0.3-1.5s0.1-1.1,0.3-1.5c0.2-0.4,0.6-0.8,1-1
			s0.9-0.4,1.5-0.4c0.5,0,1,0.1,1.4,0.4c0.4,0.2,0.7,0.6,1,1c0.2,0.4,0.3,0.9,0.3,1.5s-0.1,1.1-0.3,1.5c-0.2,0.4-0.6,0.8-1,1
			s-0.9,0.4-1.4,0.4C67.9,24.1,67.4,24,67,23.7z M69.3,23c0.3-0.1,0.5-0.4,0.7-0.6c0.2-0.3,0.3-0.7,0.3-1.1s-0.1-0.8-0.3-1.1
			s-0.4-0.5-0.7-0.6c-0.3-0.1-0.6-0.2-0.8-0.2c-0.3,0-0.6,0.1-0.9,0.2s-0.5,0.3-0.7,0.6c-0.2,0.3-0.3,0.7-0.3,1.1
			c0,0.5,0.1,0.8,0.3,1.1c0.2,0.3,0.4,0.5,0.7,0.6c0.3,0.1,0.6,0.2,0.9,0.2S69.1,23.1,69.3,23z"/>
		<path class="st54" d="M72.8,23.9c-0.1-0.1-0.1-0.2-0.1-0.3V19c0-0.1,0-0.3,0.1-0.4s0.2-0.1,0.3-0.1c0.1,0,0.3,0,0.4,0.1
			s0.1,0.2,0.1,0.4v0.5c0.5-0.7,1.1-1,1.7-1h0.1c0.1,0,0.3,0,0.3,0.1c0.1,0.1,0.1,0.2,0.1,0.3c0,0.1,0,0.2-0.1,0.3
			c-0.1,0.1-0.2,0.1-0.4,0.1h-0.1c-0.3,0-0.7,0.1-1,0.3c-0.3,0.2-0.5,0.4-0.7,0.7v3.3c0,0.1,0,0.3-0.1,0.3c0,0.1-0.2,0.1-0.3,0.1
			S72.9,24,72.8,23.9z"/>
		<path class="st54" d="M77.1,22.7v-3.4h-0.8c-0.1,0-0.1,0-0.1-0.1l-0.1-0.1c0-0.1,0-0.1,0.1-0.2l1.5-1.4c0.1-0.1,0.1-0.1,0.2-0.1
			s0.1,0,0.1,0.1c0,0,0.1,0.1,0.1,0.2v0.9h1.2c0.1,0,0.2,0,0.3,0.1c0.1,0.1,0.1,0.2,0.1,0.3c0,0.1,0,0.2-0.1,0.3
			c-0.1,0.1-0.2,0.1-0.3,0.1h-1.2v3.3c0,0.3,0.1,0.5,0.2,0.5c0.1,0.1,0.3,0.1,0.5,0.1c0.1,0,0.3,0,0.4-0.1h0.1h0.1
			c0.1,0,0.2,0,0.3,0.1c0.1,0.1,0.1,0.2,0.1,0.3c0,0.2-0.1,0.3-0.2,0.4c-0.3,0.1-0.6,0.2-0.9,0.2C77.6,24.1,77.1,23.6,77.1,22.7z"/>
		<path class="st54" d="M81.2,23.3c-0.5-0.5-0.7-1.2-0.7-2.1c0-0.5,0.1-1,0.3-1.4c0.2-0.4,0.5-0.8,0.9-1c0.4-0.3,0.9-0.4,1.4-0.4
			s1,0.1,1.4,0.4c0.4,0.2,0.7,0.6,0.9,1c0.2,0.4,0.3,0.9,0.3,1.4c0,0.1,0,0.3-0.1,0.3c-0.1,0.1-0.2,0.1-0.4,0.1h-3.7
			c0.1,0.5,0.2,0.9,0.6,1.2s0.8,0.4,1.3,0.4c0.3,0,0.6,0,0.8-0.1c0.2-0.1,0.4-0.1,0.7-0.2c0.1,0,0.1,0,0.2,0s0.2,0,0.3,0.1
			c0.1,0.1,0.1,0.2,0.1,0.3c0,0.2-0.1,0.3-0.3,0.4c-0.3,0.2-0.6,0.3-0.8,0.4c-0.3,0.1-0.6,0.1-1.1,0.1
			C82.4,24.1,81.7,23.8,81.2,23.3z M84.7,20.8c0-0.4-0.1-0.6-0.3-0.9c-0.2-0.2-0.4-0.4-0.6-0.5s-0.5-0.2-0.7-0.2s-0.5,0.1-0.7,0.2
			s-0.4,0.3-0.6,0.5s-0.2,0.5-0.3,0.9H84.7z"/>
		<path class="st54" d="M88,23.8c-0.4-0.2-0.7-0.6-1-1c-0.2-0.4-0.4-0.9-0.4-1.5s0.1-1.1,0.4-1.5c0.2-0.4,0.6-0.8,1-1
			s0.8-0.3,1.3-0.3c0.7,0,1.3,0.3,1.8,0.8v-2.7c0-0.1,0-0.3,0.1-0.4s0.2-0.1,0.4-0.1s0.3,0,0.3,0.1c0.1,0.1,0.1,0.2,0.1,0.4v7
			c0,0.1,0,0.3-0.1,0.3C91.8,24,91.7,24,91.6,24s-0.3,0-0.4-0.1s-0.1-0.2-0.1-0.3v-0.3c-0.5,0.5-1.1,0.8-1.8,0.8
			C88.8,24.1,88.4,24,88,23.8z M90.3,23c0.3-0.1,0.6-0.3,0.8-0.6v-2.3c-0.2-0.2-0.5-0.4-0.8-0.6c-0.3-0.1-0.6-0.2-0.9-0.2
			c-0.5,0-1,0.2-1.3,0.5s-0.5,0.8-0.5,1.4s0.2,1.1,0.5,1.4s0.8,0.5,1.3,0.5C89.7,23.2,90,23.1,90.3,23z"/>
		<path class="st54" d="M97.6,23.3v0.3c0,0.1,0,0.3-0.1,0.3C97.3,24,97.2,24,97.1,24s-0.3,0-0.3-0.1s-0.1-0.2-0.1-0.3v-7
			c0-0.1,0-0.3,0.1-0.4s0.2-0.1,0.3-0.1c0.1,0,0.3,0,0.4,0.1s0.1,0.2,0.1,0.4v2.7c0.5-0.5,1.1-0.8,1.9-0.8c0.4,0,0.9,0.1,1.3,0.3
			c0.4,0.2,0.7,0.6,1,1c0.2,0.4,0.4,0.9,0.4,1.5s-0.1,1.1-0.4,1.5c-0.2,0.4-0.6,0.8-1,1s-0.8,0.3-1.3,0.3
			C98.7,24.1,98.1,23.8,97.6,23.3z M100.6,22.7c0.3-0.3,0.5-0.8,0.5-1.4s-0.2-1.1-0.5-1.4s-0.8-0.5-1.3-0.5c-0.3,0-0.6,0.1-0.9,0.2
			s-0.6,0.3-0.8,0.6v2.3c0.2,0.2,0.5,0.4,0.8,0.6c0.3,0.1,0.6,0.2,0.9,0.2C99.8,23.2,100.2,23,100.6,22.7z"/>
		<path class="st54" d="M104.2,26.4c-0.1-0.1-0.1-0.2-0.1-0.3c0-0.1,0-0.1,0-0.2l0.7-1.8l-2-5c0-0.1,0-0.1,0-0.2s0-0.3,0.1-0.4
			s0.2-0.1,0.3-0.1c0.1,0,0.2,0,0.3,0.1c0.1,0.1,0.1,0.1,0.2,0.2l1.7,4.1l1.7-4.1c0.1-0.2,0.2-0.3,0.5-0.3c0.1,0,0.3,0,0.3,0.1
			c0.1,0.1,0.1,0.2,0.1,0.4c0,0.1,0,0.1,0,0.2l-3,7.1c-0.1,0.2-0.3,0.3-0.5,0.3C104.4,26.5,104.3,26.5,104.2,26.4z"/>
		<path class="st54" d="M109.2,19.5c-0.1-0.1-0.2-0.3-0.2-0.4V19c0-0.2,0.1-0.3,0.2-0.4s0.3-0.2,0.4-0.2h0.1c0.2,0,0.3,0.1,0.4,0.2
			s0.2,0.3,0.2,0.4v0.1c0,0.2-0.1,0.3-0.2,0.4s-0.3,0.2-0.4,0.2h-0.1C109.5,19.7,109.3,19.7,109.2,19.5z M109.2,23.8
			c-0.1-0.1-0.2-0.3-0.2-0.4v-0.1c0-0.2,0.1-0.3,0.2-0.4s0.3-0.2,0.4-0.2h0.1c0.2,0,0.3,0.1,0.4,0.2s0.2,0.3,0.2,0.4v0.1
			c0,0.2-0.1,0.3-0.2,0.4s-0.3,0.2-0.4,0.2h-0.1C109.5,24,109.3,24,109.2,23.8z"/>
	</g>
	<g>
		<path class="st54" d="M393.2,23.7c-0.1-0.1-0.1-0.2-0.1-0.3V17c0-0.1,0-0.2,0.1-0.3c0.1-0.1,0.2-0.1,0.3-0.1c0.1,0,0.2,0,0.3,0.1
			c0.1,0.1,0.1,0.2,0.1,0.3v6.4c0,0.1,0,0.2-0.1,0.3c-0.1,0.1-0.2,0.1-0.3,0.1C393.4,23.8,393.3,23.8,393.2,23.7z"/>
		<path class="st54" d="M395.8,23.7c-0.1-0.1-0.1-0.2-0.1-0.3v-4.5c0-0.1,0-0.2,0.1-0.3c0.1-0.1,0.2-0.1,0.3-0.1
			c0.1,0,0.2,0,0.3,0.1c0.1,0.1,0.1,0.2,0.1,0.3v0.4c0.3-0.3,0.5-0.5,0.9-0.7c0.3-0.2,0.7-0.3,1.1-0.3s0.7,0.1,1,0.3
			c0.3,0.2,0.5,0.4,0.6,0.7c0.1,0.3,0.2,0.7,0.2,1v2.9c0,0.1,0,0.2-0.1,0.3c-0.1,0.1-0.2,0.1-0.3,0.1c-0.1,0-0.2,0-0.3-0.1
			c-0.1-0.1-0.1-0.2-0.1-0.3v-2.8c0-0.8-0.4-1.3-1.1-1.3c-0.3,0-0.7,0.1-0.9,0.3c-0.3,0.2-0.5,0.4-0.8,0.7v3.1c0,0.1,0,0.2-0.1,0.3
			c-0.1,0.1-0.2,0.1-0.3,0.1C396,23.8,395.9,23.8,395.8,23.7z"/>
		<path class="st54" d="M404.5,23.4c-0.1-0.1-0.2-0.2-0.2-0.3c0-0.1,0-0.2,0.1-0.3s0.2-0.1,0.3-0.1c0.1,0,0.1,0,0.2,0
			c0.2,0.1,0.4,0.2,0.7,0.2c0.2,0.1,0.5,0.1,0.7,0.1c0.8,0,1.2-0.2,1.2-0.7c0-0.2-0.1-0.3-0.3-0.4c-0.2-0.1-0.5-0.2-0.9-0.3
			c-0.4-0.1-0.7-0.2-1-0.3c-0.3-0.1-0.5-0.3-0.7-0.5s-0.3-0.5-0.3-0.8c0-0.5,0.2-0.9,0.5-1.2c0.3-0.3,0.8-0.5,1.5-0.5
			c0.5,0,1,0.1,1.5,0.3c0.1,0,0.2,0.1,0.2,0.2c0.1,0.1,0.1,0.2,0.1,0.2c0,0.1,0,0.2-0.1,0.3c-0.1,0.1-0.2,0.1-0.3,0.1h-0.1
			c-0.4-0.1-0.8-0.2-1.2-0.2c-0.4,0-0.7,0.1-0.9,0.2c-0.2,0.1-0.3,0.3-0.3,0.5s0.1,0.4,0.3,0.5c0.2,0.1,0.5,0.2,0.9,0.3
			c0.4,0.1,0.7,0.2,1,0.3c0.3,0.1,0.5,0.3,0.7,0.5s0.3,0.5,0.3,0.9s-0.2,0.8-0.5,1.1c-0.4,0.3-0.8,0.4-1.5,0.4
			C405.7,23.9,405.1,23.7,404.5,23.4z"/>
		<path class="st54" d="M410.5,23.6c-0.3-0.2-0.5-0.4-0.6-0.7c-0.1-0.3-0.2-0.7-0.2-1V19c0-0.1,0-0.2,0.1-0.3
			c0.1-0.1,0.2-0.1,0.3-0.1c0.1,0,0.2,0,0.3,0.1c0.1,0.1,0.1,0.2,0.1,0.3v2.8c0,0.8,0.4,1.3,1.1,1.3c0.3,0,0.7-0.1,0.9-0.3
			c0.3-0.2,0.5-0.4,0.8-0.7V19c0-0.1,0-0.2,0.1-0.3c0.1-0.1,0.2-0.1,0.3-0.1c0.1,0,0.2,0,0.3,0.1c0.1,0.1,0.1,0.2,0.1,0.3v4.5
			c0,0.1,0,0.2-0.1,0.3c-0.1,0.1-0.2,0.1-0.3,0.1c-0.1,0-0.2,0-0.3-0.1c-0.1-0.1-0.1-0.2-0.1-0.3v-0.4c-0.3,0.3-0.5,0.5-0.9,0.7
			c-0.3,0.2-0.7,0.3-1.1,0.3C411.1,23.9,410.8,23.8,410.5,23.6z"/>
		<path class="st54" d="M416.2,26.1c-0.1-0.1-0.1-0.2-0.1-0.3V19c0-0.1,0-0.2,0.1-0.3c0.1-0.1,0.2-0.1,0.3-0.1c0.1,0,0.2,0,0.3,0.1
			c0.1,0.1,0.1,0.2,0.1,0.3v0.3c0.5-0.5,1.1-0.8,1.8-0.8c0.4,0,0.8,0.1,1.2,0.3c0.4,0.2,0.7,0.5,0.9,1c0.2,0.4,0.4,0.9,0.4,1.5
			s-0.1,1.1-0.4,1.5c-0.2,0.4-0.6,0.7-0.9,1c-0.4,0.2-0.8,0.3-1.2,0.3c-0.7,0-1.3-0.3-1.8-0.8v2.6c0,0.1,0,0.3-0.1,0.3
			c-0.1,0.1-0.2,0.1-0.3,0.1C416.4,26.2,416.3,26.2,416.2,26.1z M419.8,22.5c0.3-0.3,0.5-0.8,0.5-1.4s-0.2-1.1-0.5-1.4
			s-0.7-0.5-1.2-0.5c-0.3,0-0.6,0.1-0.9,0.2s-0.5,0.3-0.7,0.6v2.2c0.2,0.2,0.5,0.4,0.7,0.6c0.3,0.1,0.6,0.2,0.9,0.2
			C419.1,23,419.5,22.8,419.8,22.5z"/>
		<path class="st54" d="M422.7,26.1c-0.1-0.1-0.1-0.2-0.1-0.3V19c0-0.1,0-0.2,0.1-0.3c0.1-0.1,0.2-0.1,0.3-0.1c0.1,0,0.2,0,0.3,0.1
			c0.1,0.1,0.1,0.2,0.1,0.3v0.3c0.5-0.5,1.1-0.8,1.8-0.8c0.4,0,0.8,0.1,1.2,0.3c0.4,0.2,0.7,0.5,0.9,1c0.2,0.4,0.4,0.9,0.4,1.5
			s-0.1,1.1-0.4,1.5c-0.2,0.4-0.6,0.7-0.9,1c-0.4,0.2-0.8,0.3-1.2,0.3c-0.7,0-1.3-0.3-1.8-0.8v2.6c0,0.1,0,0.3-0.1,0.3
			c-0.1,0.1-0.2,0.1-0.3,0.1C422.9,26.2,422.8,26.2,422.7,26.1z M426.4,22.5c0.3-0.3,0.5-0.8,0.5-1.4s-0.2-1.1-0.5-1.4
			s-0.7-0.5-1.2-0.5c-0.3,0-0.6,0.1-0.9,0.2s-0.5,0.3-0.7,0.6v2.2c0.2,0.2,0.5,0.4,0.7,0.6c0.3,0.1,0.6,0.2,0.9,0.2
			C425.7,23,426.1,22.8,426.4,22.5z"/>
		<path class="st54" d="M430.1,23.5c-0.4-0.2-0.7-0.6-0.9-1c-0.2-0.4-0.3-0.9-0.3-1.4s0.1-1,0.3-1.4c0.2-0.4,0.5-0.7,0.9-1
			c0.4-0.2,0.9-0.3,1.4-0.3s1,0.1,1.4,0.3c0.4,0.2,0.7,0.6,0.9,1c0.2,0.4,0.3,0.9,0.3,1.4s-0.1,1-0.3,1.4c-0.2,0.4-0.5,0.7-0.9,1
			c-0.4,0.2-0.9,0.3-1.4,0.3C430.9,23.9,430.5,23.8,430.1,23.5z M432.3,22.8c0.3-0.1,0.5-0.3,0.6-0.6c0.2-0.3,0.3-0.6,0.3-1.1
			c0-0.4-0.1-0.8-0.3-1.1c-0.2-0.3-0.4-0.5-0.6-0.6c-0.3-0.1-0.5-0.2-0.8-0.2s-0.6,0.1-0.8,0.2c-0.3,0.1-0.5,0.3-0.6,0.6
			c-0.2,0.3-0.2,0.6-0.2,1.1c0,0.4,0.1,0.8,0.2,1.1c0.2,0.3,0.4,0.5,0.6,0.6c0.3,0.1,0.5,0.2,0.8,0.2C431.7,23,432,22.9,432.3,22.8z
			"/>
		<path class="st54" d="M435.6,23.7c-0.1-0.1-0.1-0.2-0.1-0.3v-4.5c0-0.1,0-0.2,0.1-0.3c0.1-0.1,0.2-0.1,0.3-0.1
			c0.1,0,0.2,0,0.3,0.1c0.1,0.1,0.1,0.2,0.1,0.3v0.4c0.5-0.7,1-1,1.6-1h0.1c0.1,0,0.2,0,0.3,0.1s0.1,0.2,0.1,0.3
			c0,0.1,0,0.2-0.1,0.3c-0.1,0.1-0.2,0.1-0.3,0.1l0,0c-0.3,0-0.6,0.1-0.9,0.2c-0.3,0.2-0.5,0.4-0.7,0.7v3.2c0,0.1,0,0.2-0.1,0.3
			s-0.2,0.1-0.3,0.1C435.8,23.8,435.7,23.8,435.6,23.7z"/>
		<path class="st54" d="M439.7,22.5v-3.2H439c-0.1,0-0.1,0-0.1-0.1l-0.1-0.1c0-0.1,0-0.1,0.1-0.2l1.4-1.4c0.1-0.1,0.1-0.1,0.2-0.1
			s0.1,0,0.1,0.1l0.1,0.1v0.8h1.2c0.1,0,0.2,0,0.3,0.1c0.1,0.1,0.1,0.2,0.1,0.3c0,0.1,0,0.2-0.1,0.3c-0.1,0.1-0.2,0.1-0.3,0.1h-1.2
			v3.1c0,0.3,0.1,0.4,0.2,0.5s0.3,0.1,0.5,0.1c0.1,0,0.3,0,0.4-0.1h0.1h0.1c0.1,0,0.2,0,0.3,0.1c0.1,0.1,0.1,0.2,0.1,0.3
			c0,0.2-0.1,0.3-0.2,0.4c-0.3,0.1-0.6,0.2-0.9,0.2C440.2,23.9,439.7,23.4,439.7,22.5z"/>
		<path class="st54" d="M447,23.5c-0.4-0.2-0.7-0.6-0.9-1c-0.2-0.4-0.3-0.9-0.3-1.4s0.1-1,0.3-1.4c0.2-0.4,0.5-0.7,0.9-1
			c0.4-0.2,0.9-0.3,1.4-0.3s1,0.1,1.4,0.3c0.4,0.2,0.7,0.6,0.9,1c0.2,0.4,0.3,0.9,0.3,1.4s-0.1,1-0.3,1.4c-0.2,0.4-0.5,0.7-0.9,1
			c-0.4,0.2-0.9,0.3-1.4,0.3C447.9,23.9,447.4,23.8,447,23.5z M449.2,22.8c0.3-0.1,0.5-0.3,0.6-0.6c0.2-0.3,0.3-0.6,0.3-1.1
			c0-0.4-0.1-0.8-0.3-1.1c-0.2-0.3-0.4-0.5-0.6-0.6c-0.3-0.1-0.5-0.2-0.8-0.2s-0.6,0.1-0.8,0.2c-0.3,0.1-0.5,0.3-0.6,0.6
			c-0.2,0.3-0.2,0.6-0.2,1.1c0,0.4,0.1,0.8,0.2,1.1c0.2,0.3,0.4,0.5,0.6,0.6c0.3,0.1,0.5,0.2,0.8,0.2S449,22.9,449.2,22.8z"/>
		<path class="st54" d="M452.9,23.7c-0.1-0.1-0.1-0.2-0.1-0.3v-4.1h-0.6c-0.1,0-0.2,0-0.3-0.1c-0.1-0.1-0.1-0.2-0.1-0.3
			c0-0.1,0-0.2,0.1-0.3c0.1-0.1,0.2-0.1,0.3-0.1h0.6v-0.6c0-0.4,0.1-0.8,0.2-1c0.1-0.3,0.3-0.5,0.6-0.6c0.2-0.1,0.5-0.2,0.8-0.2
			s0.6,0.1,0.9,0.2c0.1,0,0.1,0.1,0.2,0.2c0,0.1,0.1,0.1,0.1,0.2s0,0.2-0.1,0.3c-0.1,0.1-0.2,0.1-0.3,0.1c-0.1,0-0.2,0-0.2,0
			c-0.2,0-0.3,0-0.3,0c-0.3,0-0.5,0.1-0.6,0.2s-0.2,0.4-0.2,0.7v0.6h1.3c0.1,0,0.2,0,0.3,0.1c0.1,0.1,0.1,0.2,0.1,0.3
			c0,0.1,0,0.2-0.1,0.3c-0.1,0.1-0.2,0.1-0.3,0.1h-1.3v4.1c0,0.1,0,0.2-0.1,0.3c-0.1,0.1-0.2,0.1-0.3,0.1
			C453.1,23.8,453,23.8,452.9,23.7z"/>
		<path class="st54" d="M456.4,19.5c-0.1-0.1-0.2-0.3-0.2-0.4V19c0-0.2,0.1-0.3,0.2-0.4s0.3-0.2,0.4-0.2h0.1c0.2,0,0.3,0.1,0.4,0.2
			s0.2,0.3,0.2,0.4v0.1c0,0.2-0.1,0.3-0.2,0.4s-0.3,0.2-0.4,0.2h-0.1C456.6,19.7,456.5,19.6,456.4,19.5z M456.4,23.6
			c-0.1-0.1-0.2-0.3-0.2-0.4v-0.1c0-0.2,0.1-0.3,0.2-0.4s0.3-0.2,0.4-0.2h0.1c0.2,0,0.3,0.1,0.4,0.2s0.2,0.3,0.2,0.4v0.1
			c0,0.2-0.1,0.3-0.2,0.4s-0.3,0.2-0.4,0.2h-0.1C456.6,23.8,456.5,23.7,456.4,23.6z"/>
	</g>
</g>
<image style="display:none;overflow:visible;opacity:0.5;enable-background:new    ;" width="739" height="94" xlink:href="AA83E983.png"  transform="matrix(0.7175 0 0 0.7175 22.6147 15.776)">
</image>
<g>
	<path class="st0" d="M238.9,53.3l-1.4,1.5c-0.3-0.4-1-0.6-1.4-0.6c-0.5,0-1.3,0.3-1.3,0.9c0,0.8,1,1,2,1.3c1.1,0.3,2.2,0.9,2.2,2.5
		c0,2.1-1.6,3-3.5,3c-1.2,0-2.2-0.3-3-1.1l1.4-1.6c0.4,0.5,1.1,0.9,1.7,0.9c0.5,0,1.4-0.2,1.4-0.9c0-0.8-1-1-2-1.3
		c-1.1-0.4-2.3-0.9-2.3-2.5c0-1.9,1.7-2.9,3.5-2.9C237.2,52.4,238.2,52.6,238.9,53.3z"/>
	<path class="st0" d="M240.4,52.6h3l2.1,5.9h0l2.1-5.9h3v9.1h-2v-6.9h0l-2.4,6.9h-1.5l-2.3-6.9h0v6.9h-2V52.6z"/>
	<path class="st0" d="M252.6,52.6h6.2v1.8h-4.2v1.7h3.9V58h-3.9v1.8h4.4v1.8h-6.4V52.6z"/>
	<path class="st0" d="M265,56.1l-1.2,1.2c-0.3-0.4-0.7-0.5-1.1-0.5c-0.4,0-0.7,0.2-0.7,0.5c0,0.3,0.3,0.4,1.2,0.6
		c1.5,0.3,2.1,0.9,2.1,1.9c0,1.4-1.2,2-2.9,2c-1,0-1.9-0.3-2.4-0.8l1.2-1.3c0.4,0.4,0.8,0.7,1.4,0.7c0.6,0,0.9-0.2,0.9-0.4
		c0-0.3-0.4-0.5-1-0.6c-1.1-0.2-2.3-0.5-2.3-1.9c0-1.3,1.1-2.1,2.6-2.1C263.7,55.3,264.5,55.6,265,56.1z"/>
	<path class="st0" d="M278.3,53.5l-1.4,1.5c-0.6-0.6-1.3-0.9-2.2-0.9c-1.7,0-2.8,1.2-2.8,2.9c0,1.7,1.1,2.9,2.8,2.9
		c0.7,0,1.3-0.1,1.9-0.4v-1.5h-1.6v-1.8h3.5V61c-1.2,0.6-2.5,0.9-3.8,0.9c-2.9,0-4.9-1.8-4.9-4.8c0-2.9,2-4.8,4.9-4.8
		C276,52.4,277.3,52.6,278.3,53.5z"/>
	<path class="st0" d="M289.5,57.1c0,2.9-2,4.8-4.9,4.8c-2.9,0-4.9-1.9-4.9-4.8s2-4.8,4.9-4.8C287.5,52.4,289.5,54.2,289.5,57.1z
		 M284.6,60c1.7,0,2.8-1.2,2.8-2.9s-1.1-2.9-2.8-2.9c-1.7,0-2.8,1.2-2.8,2.9C281.8,58.8,282.9,60,284.6,60z"/>
	<path class="st0" d="M297.7,52.6c2.9,0,5.3,1.3,5.3,4.5c0,2.9-2.3,4.5-5,4.5h-3.3v-9.1H297.7z M297.7,59.8c1.8,0,3.2-0.7,3.2-2.7
		c0-1.8-1.4-2.6-3.1-2.6h-1.2v5.4H297.7z"/>
	<path class="st0" d="M306.3,61.6h-2v-9.1h2V61.6z"/>
	<path class="st0" d="M316.1,53.5l-1.4,1.5c-0.6-0.6-1.3-0.9-2.2-0.9c-1.7,0-2.8,1.2-2.8,2.9c0,1.7,1.1,2.9,2.8,2.9
		c0.7,0,1.3-0.1,1.9-0.4v-1.5h-1.6v-1.8h3.5V61c-1.2,0.6-2.5,0.9-3.8,0.9c-2.9,0-4.9-1.8-4.9-4.8c0-2.9,2-4.8,4.9-4.8
		C313.9,52.4,315.2,52.6,316.1,53.5z"/>
	<path class="st0" d="M320.1,61.6h-2v-9.1h2V61.6z"/>
	<path class="st0" d="M321,52.6h7.2v1.8h-2.6v7.3h-2v-7.3H321V52.6z"/>
	<path class="st0" d="M327.1,61.6l3.9-9.1h1.6l3.9,9.1h-2.3l-0.8-1.9h-3.5l-0.8,1.9H327.1z M330.7,58h2.2l-1.1-2.8L330.7,58z"/>
	<path class="st0" d="M339.6,59.8h3.7v1.8h-5.7v-9.1h2V59.8z"/>
</g>
</svg>
