<?xml version="1.0" encoding="utf-8"?>
<!-- Generator: Adobe Illustrator 25.4.1, SVG Export Plug-In . SVG Version: 6.00 Build 0)  -->
<svg version="1.1" id="Layer_1" xmlns="http://www.w3.org/2000/svg" xmlns:xlink="http://www.w3.org/1999/xlink" x="0px" y="0px"
	 width="175px" height="64px" viewBox="0 0 175 64" style="enable-background:new 0 0 175 64;" xml:space="preserve">
<style type="text/css">
	.st0{fill:#C92727;}
	.st1{fill:#7F183C;}
	.st2{fill:#929395;}
</style>
<g>
	<path class="st0" d="M26.4,0c7.7,0,14.1,2.6,19.3,7.7c5.2,5.1,7.8,11.5,7.8,19c0,7.4-2.6,13.7-7.8,18.9c-5.2,5.2-11.5,7.8-18.9,7.8
		c-7.5,0-13.9-2.6-19.1-7.7C2.6,40.5,0,34.2,0,26.9c0-4.9,1.2-9.4,3.5-13.6c2.4-4.2,5.6-7.4,9.7-9.8C17.3,1.2,21.7,0,26.4,0z
		 M26.7,4.9c-3.8,0-7.3,1-10.7,2.9c-3.4,2-6,4.6-7.9,7.9c-1.9,3.3-2.8,7-2.8,11.1c0,6,2.1,11.1,6.3,15.3c4.2,4.2,9.2,6.2,15.1,6.2
		c3.9,0,7.6-1,10.9-2.9s6-4.5,7.9-7.8s2.8-7,2.8-11.1c0-4-0.9-7.7-2.8-10.9s-4.5-5.9-7.9-7.8C34.1,5.9,30.5,4.9,26.7,4.9z"/>
	<path class="st1" d="M79.8,0c7.7,0,14.1,2.6,19.3,7.7c5.2,5.1,7.8,11.5,7.8,19c0,7.4-2.6,13.7-7.8,18.9c-5.2,5.2-11.5,7.8-18.9,7.8
		c-7.5,0-13.9-2.6-19.1-7.7c-5.2-5.2-7.8-11.4-7.8-18.7c0-4.9,1.2-9.4,3.5-13.6c2.4-4.2,5.6-7.4,9.7-9.8C70.6,1.2,75,0,79.8,0z
		 M80,4.9c-3.8,0-7.3,1-10.7,2.9c-3.4,2-6,4.6-7.9,7.9c-1.9,3.3-2.8,7-2.8,11.1c0,6,2.1,11.1,6.3,15.3c4.2,4.2,9.2,6.2,15.1,6.2
		c3.9,0,7.6-1,10.9-2.9s6-4.5,7.9-7.8c1.9-3.3,2.8-7,2.8-11.1c0-4-0.9-7.7-2.8-10.9c-1.9-3.3-4.5-5.9-7.9-7.8
		C87.5,5.9,83.8,4.9,80,4.9z"/>
	<path class="st1" d="M108.1,14.5h4.8V21c1.7-2.4,3.4-4.1,5.2-5.3c2.4-1.5,5-2.2,7.7-2.2c1.8,0,3.5,0.4,5.2,1.1c1.6,0.7,3,1.7,4,2.8
		c1,1.2,1.9,2.9,2.7,5.1c1.6-2.9,3.6-5.2,6-6.7c2.4-1.5,5-2.3,7.8-2.3c2.6,0,4.9,0.7,6.9,2c2,1.3,3.5,3.1,4.4,5.5
		c1,2.3,1.4,5.9,1.4,10.6v20.5h-4.9V31.6c0-4-0.3-6.8-0.9-8.3c-0.6-1.5-1.6-2.7-2.9-3.6c-1.4-0.9-3-1.4-5-1.4
		c-2.3,0-4.5,0.7-6.4,2.1c-1.9,1.4-3.4,3.2-4.3,5.5c-0.9,2.3-1.3,6.1-1.3,11.5v14.7h-4.8V32.8c0-4.5-0.3-7.6-0.8-9.2
		c-0.6-1.6-1.5-2.9-3-3.9c-1.4-1-3.1-1.5-5-1.5c-2.2,0-4.3,0.7-6.3,2c-1.9,1.3-3.4,3.2-4.3,5.4s-1.4,5.8-1.4,10.5v15.9h-4.8V14.5z"
		/>
</g>
<g>
	<path class="st2" d="M3.6,58.5c-0.6-0.4-0.7-0.6-0.8-0.6c-0.1-0.1-0.2-0.3-0.3-0.4c0-0.1-0.1-0.2-0.1-0.3c0-0.2,0.1-0.3,0.2-0.5
		c0.1-0.1,0.3-0.2,0.5-0.2c0.2,0,0.3,0,0.5,0.1c0.1,0.1,0.3,0.3,0.6,0.6l0.1,0.1L5,56.8l-0.1-0.1c-0.3-0.4-0.6-0.7-0.8-0.8
		c-0.5-0.3-1.2-0.3-1.7,0c-0.3,0.1-0.5,0.3-0.6,0.6c-0.1,0.2-0.2,0.5-0.2,0.8c0,0.4,0.1,0.7,0.4,1c0.1,0.2,0.5,0.5,1,0.9
		c0.5,0.4,0.8,0.7,1,1c0.1,0.2,0.2,0.4,0.2,0.5c0,0.2,0,0.3-0.1,0.5c-0.1,0.1-0.2,0.3-0.4,0.3c-0.2,0.1-0.3,0.1-0.5,0.1
		c-0.4,0-0.8-0.3-1.2-1l-0.1-0.1l-0.7,0.4L1.2,61c0.3,0.5,0.6,0.8,0.9,1c0.3,0.2,0.7,0.3,1.1,0.3c0.5,0,1-0.2,1.3-0.5
		c0.4-0.4,0.5-0.8,0.5-1.3c0-0.3-0.1-0.7-0.3-1C4.5,59.3,4.2,58.9,3.6,58.5z"/>
	<path class="st2" d="M13.1,57.6c-0.6-0.4-1.3-0.4-2,0c-0.2,0.1-0.4,0.3-0.6,0.5v-2.4H9.7v6.6h0.8v-1.8c0-0.6,0-1,0.1-1.2
		c0.1-0.3,0.3-0.6,0.5-0.8c0.3-0.2,0.5-0.3,0.9-0.3c0.3,0,0.5,0.1,0.7,0.2c0.2,0.1,0.3,0.3,0.4,0.6c0,0.2,0.1,0.5,0.1,1v2.3h0.8
		v-2.5c0-0.6-0.1-1.1-0.2-1.4C13.6,58,13.3,57.7,13.1,57.6z"/>
	<path class="st2" d="M22.5,58c-0.2-0.2-0.4-0.4-0.6-0.5c-0.3-0.2-0.7-0.3-1.1-0.3c-0.7,0-1.3,0.2-1.8,0.7c-0.5,0.5-0.7,1.1-0.7,1.8
		c0,0.7,0.2,1.3,0.7,1.8c0.5,0.5,1.1,0.7,1.7,0.7c0.4,0,0.7-0.1,1.1-0.2c0.2-0.1,0.5-0.3,0.6-0.5v0.6h0.8v-4.8h-0.8V58z M22.1,58.6
		c0.3,0.3,0.5,0.7,0.5,1.2c0,0.3-0.1,0.6-0.2,0.9c-0.1,0.3-0.3,0.5-0.6,0.6c-0.5,0.3-1.2,0.3-1.7,0c-0.3-0.2-0.5-0.4-0.6-0.6
		c-0.2-0.3-0.2-0.6-0.2-0.9c0-0.3,0.1-0.6,0.2-0.9s0.4-0.5,0.6-0.6c0.3-0.1,0.5-0.2,0.8-0.2C21.3,58.1,21.7,58.3,22.1,58.6z"/>
	<path class="st2" d="M30.6,57.3c-0.4,0-0.8,0.1-1.1,0.3c-0.2,0.1-0.4,0.3-0.6,0.5v-0.6H28v6.5h0.8v-2.3c0.2,0.2,0.4,0.4,0.6,0.5
		c0.3,0.2,0.7,0.2,1.1,0.2c0.7,0,1.3-0.2,1.7-0.7c0.5-0.5,0.7-1.1,0.7-1.8c0-0.7-0.2-1.3-0.7-1.8C31.8,57.5,31.3,57.3,30.6,57.3z
		 M32.2,59.8c0,0.3-0.1,0.6-0.2,0.9c-0.2,0.3-0.4,0.5-0.6,0.6c-0.5,0.3-1.1,0.3-1.7,0c-0.3-0.2-0.5-0.4-0.6-0.6
		c-0.1-0.3-0.2-0.5-0.2-0.9c0-0.5,0.2-0.9,0.5-1.2c0.3-0.3,0.7-0.5,1.2-0.5c0.3,0,0.6,0.1,0.8,0.2c0.3,0.1,0.5,0.4,0.6,0.6
		S32.2,59.5,32.2,59.8z"/>
	<rect x="37.4" y="57.4" class="st2" width="0.8" height="4.8"/>
	<path class="st2" d="M37.4,55.7c-0.1,0.1-0.2,0.3-0.2,0.4c0,0.2,0.1,0.3,0.2,0.4c0.1,0.1,0.3,0.2,0.4,0.2c0.2,0,0.3-0.1,0.4-0.2
		c0.1-0.1,0.2-0.3,0.2-0.4c0-0.2-0.1-0.3-0.2-0.4C38.1,55.5,37.7,55.5,37.4,55.7z"/>
	<path class="st2" d="M46.3,57.6c-0.6-0.4-1.4-0.4-2,0c-0.2,0.1-0.4,0.3-0.6,0.5v-0.6h-0.8v4.8h0.8v-1.8c0-0.6,0-1,0.1-1.2
		c0.1-0.3,0.3-0.6,0.5-0.8c0.3-0.2,0.5-0.3,0.9-0.3c0.3,0,0.5,0.1,0.7,0.2c0.2,0.1,0.3,0.3,0.3,0.6c0,0.2,0.1,0.5,0.1,1v2.3h0.8
		v-2.5c0-0.6-0.1-1.1-0.2-1.4C46.8,58,46.6,57.7,46.3,57.6z"/>
	<path class="st2" d="M55.7,58c-0.2-0.2-0.4-0.4-0.7-0.5c-0.7-0.3-1.5-0.3-2.2,0.1c-0.4,0.2-0.7,0.5-0.9,0.9s-0.3,0.8-0.3,1.2
		c0,0.4,0.1,0.9,0.3,1.2c0.2,0.4,0.5,0.7,0.9,0.9c0.7,0.4,1.6,0.4,2.3,0.1c0.2-0.1,0.4-0.3,0.6-0.4c0,0.4-0.1,0.8-0.2,0.9
		c-0.1,0.2-0.3,0.4-0.5,0.5c-0.3,0.1-0.6,0.2-1,0.2c-0.4,0-0.7-0.1-1-0.2c-0.3-0.1-0.5-0.3-0.6-0.6l0-0.1h-0.9l0.1,0.2
		c0.2,0.4,0.4,0.7,0.6,0.9c0.2,0.2,0.5,0.4,0.8,0.5c0.3,0.1,0.7,0.2,1.1,0.2c0.6,0,1-0.1,1.4-0.4c0.4-0.2,0.7-0.6,0.9-1
		c0.1-0.3,0.2-0.8,0.2-1.5v-3.8h-0.8V58z M55.5,58.9c0.1,0.2,0.2,0.5,0.2,0.9c0,0.5-0.1,0.9-0.5,1.2c-0.3,0.3-0.7,0.5-1.2,0.5
		c-0.5,0-0.9-0.1-1.2-0.5c-0.3-0.3-0.5-0.7-0.5-1.2c0-0.3,0.1-0.6,0.2-0.9c0.1-0.3,0.4-0.5,0.6-0.6c0.3-0.1,0.6-0.2,0.9-0.2
		c0.3,0,0.6,0.1,0.8,0.2C55.2,58.5,55.4,58.7,55.5,58.9z"/>
	<path class="st2" d="M70.3,55.6c-0.6,0-1.2,0.2-1.7,0.4c-0.5,0.3-0.9,0.7-1.2,1.2C67.2,57.8,67,58.4,67,59c0,0.9,0.3,1.7,1,2.4
		c0.7,0.6,1.5,1,2.4,1c0.9,0,1.7-0.3,2.4-1c0.7-0.7,1-1.5,1-2.4c0-0.9-0.3-1.7-1-2.4C72.1,56,71.3,55.6,70.3,55.6z M72.9,59
		c0,0.5-0.1,0.9-0.3,1.3c-0.2,0.4-0.5,0.7-0.9,0.9c-0.4,0.2-0.8,0.3-1.3,0.3c-0.7,0-1.3-0.2-1.8-0.7c-0.5-0.5-0.7-1.1-0.7-1.8
		c0-0.5,0.1-0.9,0.3-1.3c0.2-0.4,0.5-0.7,0.9-0.9c0.4-0.2,0.8-0.3,1.2-0.3c0.4,0,0.9,0.1,1.3,0.3c0.4,0.2,0.7,0.5,0.9,0.9
		S72.9,58.5,72.9,59z"/>
	<path class="st2" d="M81.7,57.6c-0.6-0.4-1.4-0.4-2,0c-0.2,0.1-0.4,0.3-0.6,0.5v-0.6h-0.8v4.8h0.8v-1.8c0-0.6,0-1,0.1-1.2
		c0.1-0.3,0.3-0.6,0.5-0.8c0.3-0.2,0.5-0.3,0.9-0.3c0.3,0,0.5,0.1,0.7,0.2c0.2,0.1,0.3,0.3,0.3,0.6c0,0.2,0.1,0.5,0.1,1v2.3h0.8
		v-2.5c0-0.6-0.1-1.1-0.2-1.4C82.2,58,82,57.7,81.7,57.6z"/>
	<rect x="87.1" y="55.6" class="st2" width="0.8" height="6.6"/>
	<rect x="92.4" y="57.4" class="st2" width="0.8" height="4.8"/>
	<path class="st2" d="M92.4,55.7c-0.1,0.1-0.2,0.3-0.2,0.4c0,0.2,0.1,0.3,0.2,0.4c0.1,0.1,0.3,0.2,0.4,0.2c0.2,0,0.3-0.1,0.4-0.2
		c0.1-0.1,0.2-0.3,0.2-0.4c0-0.2-0.1-0.3-0.2-0.4C93,55.5,92.7,55.5,92.4,55.7z"/>
	<path class="st2" d="M101.3,57.6c-0.3-0.2-0.6-0.3-1-0.3c-0.4,0-0.7,0.1-1,0.2c-0.2,0.1-0.4,0.3-0.6,0.5v-0.6h-0.8v4.8h0.8v-1.8
		c0-0.6,0-1,0.1-1.2c0.1-0.3,0.3-0.6,0.5-0.8c0.3-0.2,0.5-0.3,0.9-0.3c0.3,0,0.5,0.1,0.7,0.2c0.2,0.1,0.3,0.3,0.3,0.6
		c0,0.1,0.1,0.4,0.1,1v2.3h0.8v-2.5c0-0.6-0.1-1.1-0.2-1.4C101.8,58,101.6,57.7,101.3,57.6z"/>
	<path class="st2" d="M111.5,59.9c0-0.6-0.2-1.2-0.5-1.6c-0.5-0.6-1.1-0.9-2-0.9c-0.8,0-1.4,0.3-1.9,0.9c-0.4,0.5-0.6,1-0.6,1.6
		c0,0.6,0.2,1.2,0.7,1.7c0.4,0.5,1.1,0.8,1.8,0.8c0.4,0,0.7-0.1,0.9-0.2s0.5-0.3,0.8-0.5c0.2-0.2,0.4-0.5,0.6-0.8l0.1-0.1l-0.7-0.4
		l-0.1,0.1c-0.2,0.3-0.3,0.5-0.5,0.6s-0.3,0.2-0.5,0.3c-0.2,0.1-0.4,0.1-0.6,0.1c-0.5,0-0.8-0.2-1.1-0.5c-0.3-0.3-0.4-0.6-0.5-1.1
		h4.1L111.5,59.9z M107.5,59.2c0.1-0.3,0.3-0.6,0.4-0.7c0.3-0.3,0.7-0.4,1.1-0.4c0.3,0,0.5,0.1,0.7,0.2c0.2,0.1,0.4,0.2,0.6,0.4
		c0.1,0.1,0.2,0.3,0.3,0.5H107.5z"/>
	<polygon class="st2" points="122.1,62.2 122.9,62.2 122.9,59.2 125.4,59.2 125.4,58.3 122.9,58.3 122.9,56.6 125.4,56.6 
		125.4,55.8 122.1,55.8 	"/>
	<path class="st2" d="M133.1,59.7c0,0.7,0,1-0.1,1.1c-0.1,0.2-0.2,0.4-0.4,0.6c-0.2,0.1-0.5,0.2-0.8,0.2c-0.3,0-0.6-0.1-0.8-0.2
		c-0.2-0.1-0.4-0.3-0.4-0.6c-0.1-0.2-0.1-0.5-0.1-1v-2.3h-0.8v2.3c0,0.7,0.1,1.2,0.2,1.5c0.2,0.3,0.4,0.6,0.7,0.8
		c0.3,0.2,0.7,0.3,1.2,0.3s0.9-0.1,1.2-0.3c0.3-0.2,0.6-0.5,0.7-0.8c0.2-0.3,0.2-0.8,0.2-1.5v-2.4h-0.9V59.7z"/>
	<polygon class="st2" points="140,55.7 139.1,55.7 139.1,57.4 138.3,57.4 138.3,58.2 139.1,58.2 139.1,62.2 140,62.2 140,58.2 
		140.9,58.2 140.9,57.4 140,57.4 	"/>
	<path class="st2" d="M148.5,59.7c0,0.7,0,1-0.1,1.1c-0.1,0.2-0.2,0.4-0.4,0.6c-0.2,0.1-0.5,0.2-0.8,0.2c-0.3,0-0.6-0.1-0.8-0.2
		c-0.2-0.1-0.4-0.3-0.4-0.6c-0.1-0.2-0.1-0.5-0.1-1v-2.3h-0.8v2.3c0,0.7,0.1,1.2,0.2,1.5c0.2,0.3,0.4,0.6,0.7,0.8
		c0.3,0.2,0.7,0.3,1.2,0.3s0.9-0.1,1.2-0.3c0.3-0.2,0.6-0.5,0.7-0.8c0.2-0.3,0.2-0.8,0.2-1.5v-2.4h-0.9V59.7z"/>
	<path class="st2" d="M155,57.5c-0.1,0.1-0.3,0.2-0.4,0.3v-0.4h-0.9v4.8h0.9v-1.7c0-0.8,0-1.3,0.1-1.5c0.1-0.3,0.2-0.5,0.4-0.7
		c0.2-0.1,0.3-0.2,0.5-0.2c0.1,0,0.2,0,0.3,0.1l0.1,0l0.4-0.7l-0.1-0.1C155.8,57.2,155.4,57.2,155,57.5z"/>
	<path class="st2" d="M164.1,60.5c-0.2,0.3-0.3,0.5-0.5,0.6s-0.3,0.2-0.5,0.3c-0.2,0.1-0.4,0.1-0.6,0.1c-0.5,0-0.8-0.2-1.1-0.5
		c-0.3-0.3-0.4-0.6-0.5-1.1h4.1l0-0.1c0-0.6-0.2-1.2-0.5-1.6c-0.5-0.6-1.1-0.9-2-0.9c-0.8,0-1.4,0.3-1.9,0.9c-0.4,0.5-0.6,1-0.6,1.6
		c0,0.6,0.2,1.2,0.7,1.7c0.4,0.5,1.1,0.8,1.8,0.8c0.4,0,0.7-0.1,0.9-0.2s0.5-0.3,0.8-0.5c0.2-0.2,0.4-0.5,0.6-0.8l0.1-0.1l-0.7-0.4
		L164.1,60.5z M161,59.2c0.1-0.3,0.3-0.6,0.4-0.7c0.3-0.3,0.7-0.4,1.1-0.4c0.3,0,0.5,0.1,0.7,0.2c0.2,0.1,0.4,0.2,0.6,0.4
		c0.1,0.1,0.2,0.3,0.3,0.5H161z"/>
</g>
<g>
	<path class="st2" d="M170.2,12.4c0.8,0,1.6,0.2,2.3,0.6c0.7,0.4,1.3,1,1.8,1.7c0.4,0.8,0.6,1.5,0.6,2.4c0,0.8-0.2,1.6-0.6,2.3
		c-0.4,0.7-1,1.3-1.7,1.7c-0.7,0.4-1.5,0.6-2.3,0.6c-0.8,0-1.6-0.2-2.3-0.6s-1.3-1-1.7-1.7c-0.4-0.7-0.6-1.5-0.6-2.3
		c0-0.8,0.2-1.6,0.6-2.4c0.4-0.8,1-1.3,1.8-1.7C168.7,12.6,169.4,12.4,170.2,12.4z M170.2,13.4c-0.6,0-1.3,0.2-1.9,0.5
		c-0.6,0.3-1.1,0.8-1.4,1.4s-0.5,1.2-0.5,1.9c0,0.7,0.2,1.3,0.5,1.9c0.3,0.6,0.8,1.1,1.4,1.4c0.6,0.3,1.2,0.5,1.9,0.5
		c0.7,0,1.3-0.2,1.9-0.5c0.6-0.3,1.1-0.8,1.4-1.4c0.3-0.6,0.5-1.2,0.5-1.9c0-0.7-0.2-1.3-0.5-1.9c-0.3-0.6-0.8-1.1-1.4-1.4
		C171.5,13.5,170.9,13.4,170.2,13.4z M168.1,19.7v-5h1c1,0,1.5,0,1.6,0c0.3,0,0.6,0.1,0.8,0.2c0.2,0.1,0.3,0.3,0.5,0.5
		s0.2,0.5,0.2,0.7c0,0.4-0.1,0.7-0.4,0.9c-0.2,0.3-0.6,0.4-1,0.5c0.2,0.1,0.3,0.1,0.4,0.2c0.1,0.1,0.2,0.2,0.3,0.4
		c0,0,0.2,0.3,0.4,0.6l0.6,1h-1.3l-0.4-0.8c-0.3-0.5-0.5-0.9-0.7-1s-0.4-0.2-0.7-0.2h-0.3v2.1H168.1z M169.1,16.8h0.4
		c0.6,0,1,0,1.1-0.1c0.1,0,0.3-0.1,0.3-0.2s0.1-0.2,0.1-0.4c0-0.1,0-0.3-0.1-0.4c-0.1-0.1-0.2-0.2-0.3-0.2c-0.1,0-0.5-0.1-1.1-0.1
		h-0.4V16.8z"/>
</g>
</svg>
