<svg xmlns="http://www.w3.org/2000/svg" xmlns:xlink="http://www.w3.org/1999/xlink" width="97.765" height="93.282" viewBox="0 0 97.765 93.282">
  <defs>
    <clipPath id="clip-path">
      <rect id="Rectangle_49" data-name="Rectangle 49" width="97.765" height="93.282" fill="none"/>
    </clipPath>
  </defs>
  <g id="_97x93" data-name="97x93" transform="translate(-4.36 -4.36)">
    <path id="Path_30" data-name="Path 30" d="M99.827,97.495H6.986A2.156,2.156,0,0,1,4.83,95.339V6.906A2.156,2.156,0,0,1,6.986,4.75H99.827a2.156,2.156,0,0,1,2.156,2.156V95.339a2.156,2.156,0,0,1-2.156,2.156Z" transform="translate(-0.15 -0.125)" fill="#fff"/>
    <g id="Group_53" data-name="Group 53" transform="translate(4.36 4.36)" clip-path="url(#clip-path)">
      <path id="Path_31" data-name="Path 31" d="M99.825,97.493H6.986A2.156,2.156,0,0,1,4.83,95.337V6.906A2.156,2.156,0,0,1,6.986,4.75H99.825a2.156,2.156,0,0,1,2.156,2.156V95.337a2.156,2.156,0,0,1-2.156,2.156Z" transform="translate(-4.509 -4.484)" fill="none" stroke="#5f6368" stroke-miterlimit="10" stroke-width="0.79"/>
      <path id="Path_32" data-name="Path 32" d="M99.827,97.493H6.906A2.156,2.156,0,0,1,4.75,95.337V6.906A2.156,2.156,0,0,1,6.906,4.75h92.92a2.156,2.156,0,0,1,2.156,2.156V95.337a2.156,2.156,0,0,1-2.156,2.156Z" transform="translate(-4.484 -4.484)" fill="#fff"/>
      <path id="Path_33" data-name="Path 33" d="M4.75,112.92v15.6c0,2.361.853,3.337,3.337,3.337h90.56c2.627,0,3.9,0,3.337-3.337v-15.6Z" transform="translate(-4.484 -38.846)" fill="#5f6368"/>
    </g>
    <path id="Path_34" data-name="Path 34" d="M39.74,122.29h1.951a2,2,0,0,1,.917.218,1.66,1.66,0,0,1,.671.612,1.709,1.709,0,0,1,0,1.768,1.76,1.76,0,0,1-.671.612,2,2,0,0,1-.917.218H40.623v2.176H39.74v-5.6Zm1.972,2.6a.952.952,0,0,0,.507-.129.884.884,0,0,0,.322-.333.866.866,0,0,0,0-.843.822.822,0,0,0-.322-.326,1,1,0,0,0-.507-.122H40.623v1.761h1.088Zm2.56-2.6h1.985a2.011,2.011,0,0,1,.924.218,1.582,1.582,0,0,1,.657.612,1.679,1.679,0,0,1,.24.884,1.537,1.537,0,0,1-.363,1,1.74,1.74,0,0,1-.917.585v.041l1.533,2.21v.048H47.3l-1.486-2.19h-.664v2.19h-.883v-5.6Zm1.958,2.6a.957.957,0,0,0,.671-.252.826.826,0,0,0,.274-.639.862.862,0,0,0-.11-.422.919.919,0,0,0-.315-.333.88.88,0,0,0-.486-.129H45.155v1.775h1.082Zm2.7-2.6H52.35v.836H49.81v1.551H52.1v.83H49.81v1.551h2.54v.836H48.927v-5.6Zm4.361,0h1.2l1.622,4.25h.048l1.622-4.25h1.2v5.6H58.1v-3.135l.048-1.006H58.1l-1.616,4.141H55.78l-1.616-4.141h-.048l.048,1.006v3.135h-.876v-5.6Zm6.818,0h.883v5.6h-.883v-5.6Zm2.006,0h3.423v.836h-2.54v1.551h2.293v.83H62.995v1.551h2.54v.836H62.112v-5.6Zm4.361,0h1.985a2.011,2.011,0,0,1,.924.218,1.582,1.582,0,0,1,.657.612,1.679,1.679,0,0,1,.24.884,1.537,1.537,0,0,1-.363,1,1.74,1.74,0,0,1-.917.585v.041l1.533,2.21v.048H69.505L68.02,125.7h-.664v2.19h-.883v-5.6Zm1.958,2.6a.957.957,0,0,0,.671-.252.826.826,0,0,0,.274-.639.862.862,0,0,0-.11-.422.919.919,0,0,0-.315-.333.88.88,0,0,0-.486-.129H67.356v1.775h1.082Zm4.114,2.19.993-.986c.493-.49.821-.83.986-1.006a3.054,3.054,0,0,0,.452-.571,1.059,1.059,0,0,0,.123-.524.712.712,0,0,0-.24-.53.886.886,0,0,0-.637-.224.861.861,0,0,0-.6.218.972.972,0,0,0-.3.5l-.787-.32a1.631,1.631,0,0,1,.294-.558,1.746,1.746,0,0,1,.582-.462,1.82,1.82,0,0,1,.835-.19,1.971,1.971,0,0,1,.91.2,1.5,1.5,0,0,1,.835,1.353,1.832,1.832,0,0,1-.24.891,3.523,3.523,0,0,1-.609.8c-.1.1-.37.36-.794.782l-.643.639.014.034h2.348v.782H72.558v-.816Zm5.182.564a2.352,2.352,0,0,1-.774-1.006,3.631,3.631,0,0,1-.274-1.421,3.568,3.568,0,0,1,.274-1.428,2.351,2.351,0,0,1,.774-1.006,2.028,2.028,0,0,1,2.328,0,2.363,2.363,0,0,1,.774,1.006,3.665,3.665,0,0,1,.274,1.428,3.534,3.534,0,0,1-.274,1.421,2.363,2.363,0,0,1-.774,1.006,1.912,1.912,0,0,1-1.157.374,1.889,1.889,0,0,1-1.164-.374Zm1.869-.707a1.735,1.735,0,0,0,.466-.714,2.942,2.942,0,0,0,.164-1.013,3.01,3.01,0,0,0-.164-1.02,1.671,1.671,0,0,0-.466-.714,1.074,1.074,0,0,0-.705-.258,1.091,1.091,0,0,0-.712.258,1.582,1.582,0,0,0-.459.714,3.157,3.157,0,0,0-.164,1.02,2.915,2.915,0,0,0,.164,1.013,1.725,1.725,0,0,0,.459.714,1.079,1.079,0,0,0,1.417,0Zm2.04.136.993-.986c.493-.49.821-.83.986-1.006a3.052,3.052,0,0,0,.452-.571,1.059,1.059,0,0,0,.123-.524.712.712,0,0,0-.24-.53.886.886,0,0,0-.637-.224.861.861,0,0,0-.6.218.971.971,0,0,0-.3.5l-.787-.32a1.631,1.631,0,0,1,.294-.558,1.746,1.746,0,0,1,.582-.462,1.82,1.82,0,0,1,.835-.19,1.971,1.971,0,0,1,.91.2,1.5,1.5,0,0,1,.835,1.353,1.832,1.832,0,0,1-.24.891,3.524,3.524,0,0,1-.609.8c-.1.1-.37.36-.794.782l-.644.639.014.034h2.348v.782H81.649v-.816Zm4.771.592a1.761,1.761,0,0,1-.719-1.02l.8-.326a1.182,1.182,0,0,0,.383.639.987.987,0,0,0,.657.224,1.042,1.042,0,0,0,.678-.238.742.742,0,0,0,.281-.605.755.755,0,0,0-.3-.612,1.179,1.179,0,0,0-.746-.238h-.466V124.7h.418a1.031,1.031,0,0,0,.65-.2.668.668,0,0,0,.26-.564.616.616,0,0,0-.233-.51.906.906,0,0,0-.6-.19.78.78,0,0,0-.561.19,1.07,1.07,0,0,0-.3.462l-.794-.326a1.776,1.776,0,0,1,.582-.789,1.691,1.691,0,0,1,1.088-.34,1.928,1.928,0,0,1,.876.19,1.432,1.432,0,0,1,.609.524,1.35,1.35,0,0,1,.219.748,1.221,1.221,0,0,1-.205.714,1.33,1.33,0,0,1-.507.449v.048a1.51,1.51,0,0,1,.644.5,1.278,1.278,0,0,1,.253.8,1.515,1.515,0,0,1-.24.836,1.666,1.666,0,0,1-.664.578,2.061,2.061,0,0,1-.952.211,1.97,1.97,0,0,1-1.123-.347Z" transform="translate(-11.32 -37.419)" fill="#fff"/>
    <g id="Group_54" data-name="Group 54" transform="translate(4.36 4.36)" clip-path="url(#clip-path)">
      <path id="Path_35" data-name="Path 35" d="M99.827,97.493H6.906A2.156,2.156,0,0,1,4.75,95.337V6.906A2.156,2.156,0,0,1,6.906,4.75h92.92a2.156,2.156,0,0,1,2.156,2.156V95.337a2.156,2.156,0,0,1-2.156,2.156Z" transform="translate(-4.484 -4.484)" fill="none" stroke="#5f6368" stroke-miterlimit="10" stroke-width="0.79"/>
    </g>
    <path id="Path_36" data-name="Path 36" d="M29.434,88.31a3.593,3.593,0,0,1-1.8-3.162,3.648,3.648,0,0,1,.485-1.85,3.532,3.532,0,0,1,1.319-1.312,3.574,3.574,0,0,1,1.818-.476,3.812,3.812,0,0,1,1.449.272,2.938,2.938,0,0,1,1.121.768l-.595.592a2.122,2.122,0,0,0-.847-.626,2.9,2.9,0,0,0-1.114-.218,2.767,2.767,0,0,0-2.406,1.353,2.837,2.837,0,0,0-.383,1.5,2.919,2.919,0,0,0,.383,1.5,2.643,2.643,0,0,0,1.032,1,2.8,2.8,0,0,0,1.38.354,2.766,2.766,0,0,0,1.175-.218,2.6,2.6,0,0,0,.813-.578,2.079,2.079,0,0,0,.41-.66,2.981,2.981,0,0,0,.2-.85h-2.59v-.768h3.362a2.71,2.71,0,0,1,.048.5,3.9,3.9,0,0,1-.205,1.251,2.746,2.746,0,0,1-.656,1.068,3.341,3.341,0,0,1-2.57,1.04,3.575,3.575,0,0,1-1.818-.476Zm7.306.129a2.459,2.459,0,0,1-.916-.952,2.872,2.872,0,0,1,0-2.666,2.459,2.459,0,0,1,.916-.952,2.681,2.681,0,0,1,2.638,0,2.459,2.459,0,0,1,.916.952,2.872,2.872,0,0,1,0,2.666,2.459,2.459,0,0,1-.916.952,2.681,2.681,0,0,1-2.638,0Zm2.173-.626a1.648,1.648,0,0,0,.636-.66,2.209,2.209,0,0,0,0-2,1.629,1.629,0,0,0-.636-.653,1.712,1.712,0,0,0-.854-.231,1.669,1.669,0,0,0-.861.231,1.738,1.738,0,0,0-.642.653,2.209,2.209,0,0,0,0,2,1.709,1.709,0,0,0,.642.66,1.737,1.737,0,0,0,.861.231A1.628,1.628,0,0,0,38.913,87.814Zm3.643.626a2.459,2.459,0,0,1-.916-.952,2.872,2.872,0,0,1,0-2.666,2.459,2.459,0,0,1,.916-.952,2.681,2.681,0,0,1,2.638,0,2.459,2.459,0,0,1,.916.952,2.872,2.872,0,0,1,0,2.666,2.459,2.459,0,0,1-.916.952,2.681,2.681,0,0,1-2.638,0Zm2.173-.626a1.648,1.648,0,0,0,.636-.66,2.209,2.209,0,0,0,0-2,1.63,1.63,0,0,0-.636-.653,1.712,1.712,0,0,0-.854-.231,1.669,1.669,0,0,0-.861.231,1.738,1.738,0,0,0-.642.653,2.209,2.209,0,0,0,0,2,1.709,1.709,0,0,0,.642.66,1.737,1.737,0,0,0,.861.231A1.628,1.628,0,0,0,44.729,87.814Zm3.4,2.666a1.981,1.981,0,0,1-.765-.979l.752-.32a1.451,1.451,0,0,0,.554.694,1.577,1.577,0,0,0,.916.265,1.607,1.607,0,0,0,1.2-.428,1.677,1.677,0,0,0,.424-1.224v-.551h-.041a1.851,1.851,0,0,1-.69.619,2.253,2.253,0,0,1-2.187-.1,2.438,2.438,0,0,1-.847-.932,3.114,3.114,0,0,1,0-2.727,2.41,2.41,0,0,1,.847-.938,2.253,2.253,0,0,1,2.187-.1,1.807,1.807,0,0,1,.69.626h.041v-.707H52v4.767a2.379,2.379,0,0,1-.663,1.823,2.458,2.458,0,0,1-1.749.626,2.416,2.416,0,0,1-1.449-.408ZM50.4,87.814a1.616,1.616,0,0,0,.588-.653,2.209,2.209,0,0,0,.219-1.006,2.268,2.268,0,0,0-.219-1.02,1.577,1.577,0,0,0-2.221-.646,1.63,1.63,0,0,0-.595.653,2.209,2.209,0,0,0-.219,1.006,2.239,2.239,0,0,0,.219,1.013,1.539,1.539,0,0,0,.595.653,1.565,1.565,0,0,0,.82.224A1.507,1.507,0,0,0,50.4,87.814Zm2.822-6.141h.834v6.964h-.834Zm3,6.78a2.342,2.342,0,0,1-.882-.938,2.837,2.837,0,0,1-.314-1.346,2.934,2.934,0,0,1,.3-1.326,2.419,2.419,0,0,1,.847-.966,2.264,2.264,0,0,1,1.271-.36,2.421,2.421,0,0,1,1.271.326,2.191,2.191,0,0,1,.827.9,2.9,2.9,0,0,1,.287,1.312.915.915,0,0,1-.027.252H55.868a1.952,1.952,0,0,0,.273.952,1.6,1.6,0,0,0,.622.585,1.7,1.7,0,0,0,.786.2,1.629,1.629,0,0,0,1.476-.9l.7.34a2.54,2.54,0,0,1-3.485.959Zm2.72-2.822a1.7,1.7,0,0,0-.178-.626,1.331,1.331,0,0,0-.492-.524,1.55,1.55,0,0,0-.847-.211,1.393,1.393,0,0,0-.991.374,1.77,1.77,0,0,0-.533.986h3.041Zm3.889-3.958h2.358a2.292,2.292,0,0,1,1.087.265,2.125,2.125,0,0,1,.8.734,2.046,2.046,0,0,1,0,2.135,2.076,2.076,0,0,1-.8.734,2.292,2.292,0,0,1-1.087.265H63.652V88.65h-.82V81.687Zm2.378,3.332a1.3,1.3,0,0,0,1.155-.66,1.224,1.224,0,0,0,0-1.224,1.3,1.3,0,0,0-1.155-.66H63.659v2.55H65.21Zm3.834,3.57a1.6,1.6,0,0,1-.663-.592,1.558,1.558,0,0,1-.232-.85,1.447,1.447,0,0,1,.595-1.231,2.476,2.476,0,0,1,1.5-.442,3.551,3.551,0,0,1,.834.1,2.366,2.366,0,0,1,.595.224v-.3a1.123,1.123,0,0,0-.39-.891,1.449,1.449,0,0,0-.984-.333,1.718,1.718,0,0,0-.772.177,1.409,1.409,0,0,0-.554.5l-.629-.469a2.02,2.02,0,0,1,.806-.7,2.531,2.531,0,0,1,1.141-.252,2.29,2.29,0,0,1,1.6.53,1.851,1.851,0,0,1,.581,1.442V88.63h-.793v-.707h-.041a1.794,1.794,0,0,1-.642.612,1.86,1.86,0,0,1-.97.252,2.17,2.17,0,0,1-.977-.211Zm1.838-.728a1.645,1.645,0,0,0,.574-.571,1.5,1.5,0,0,0,.212-.789,2.027,2.027,0,0,0-.574-.252,2.781,2.781,0,0,0-.724-.1,1.594,1.594,0,0,0-1.032.286.894.894,0,0,0-.349.728.8.8,0,0,0,.314.66,1.216,1.216,0,0,0,.793.252,1.489,1.489,0,0,0,.779-.211Zm2.6-4.094h.793v.789h.041a1.343,1.343,0,0,1,.595-.68,1.793,1.793,0,0,1,.916-.245,1.825,1.825,0,0,1,.362.027v.843a1.956,1.956,0,0,0-.451-.041,1.383,1.383,0,0,0-1.032.415,1.5,1.5,0,0,0-.4,1.088V88.7h-.834V83.747Zm5.057,4.937a1.471,1.471,0,0,1-.437-.265,1.259,1.259,0,0,1-.294-.435,1.586,1.586,0,0,1-.1-.605V84.427h-.868v-.748h.868v-1.4h.827v1.4h1.21v.748h-1.21v2.761a1.019,1.019,0,0,0,.157.619.672.672,0,0,0,.54.218,1.023,1.023,0,0,0,.547-.163v.809a1.19,1.19,0,0,1-.3.1,2.054,2.054,0,0,1-.383.027,1.493,1.493,0,0,1-.56-.1ZM80.7,83.673H81.5V84.4h.041a1.664,1.664,0,0,1,.656-.626,1.924,1.924,0,0,1,.957-.258,1.758,1.758,0,0,1,1.374.517,2.023,2.023,0,0,1,.472,1.414V88.63h-.834V85.577a1.14,1.14,0,0,0-1.244-1.312,1.214,1.214,0,0,0-.718.224,1.493,1.493,0,0,0-.492.592,1.753,1.753,0,0,0-.178.762V88.63H80.7V83.673Zm6.417,4.774a2.342,2.342,0,0,1-.882-.938,2.837,2.837,0,0,1-.314-1.346,2.934,2.934,0,0,1,.3-1.326,2.419,2.419,0,0,1,.847-.966,2.226,2.226,0,0,1,1.271-.36,2.421,2.421,0,0,1,1.271.326,2.146,2.146,0,0,1,.827.9,2.9,2.9,0,0,1,.287,1.312.915.915,0,0,1-.027.252H86.764a1.952,1.952,0,0,0,.273.952,1.6,1.6,0,0,0,.622.585,1.7,1.7,0,0,0,.786.2,1.629,1.629,0,0,0,1.476-.9l.7.34a2.51,2.51,0,0,1-.875.952,2.652,2.652,0,0,1-2.611.007Zm2.72-2.822A1.7,1.7,0,0,0,89.662,85a1.331,1.331,0,0,0-.492-.524,1.55,1.55,0,0,0-.847-.211,1.393,1.393,0,0,0-.991.374,1.77,1.77,0,0,0-.533.986Zm1.838-1.952h.793v.8h.041a1.353,1.353,0,0,1,.567-.68,1.58,1.58,0,0,1,.882-.272,1.416,1.416,0,0,1,.588.109v.884a1.6,1.6,0,0,0-.7-.156,1.155,1.155,0,0,0-.663.2,1.466,1.466,0,0,0-.485.551,1.55,1.55,0,0,0-.178.748V88.63h-.834V83.673Z" transform="translate(-7.445 -24.488)" fill="#5f6368" stroke="#5f6368" stroke-miterlimit="10" stroke-width="0.25"/>
    <path id="Path_37" data-name="Path 37" d="M90.516,46.626a17.232,17.232,0,0,0-.333-3.006H76.5v5.672h7.678a6.565,6.565,0,0,1-2.768,4.441v3.7h4.754a14.377,14.377,0,0,0,4.359-10.806h0Z" transform="translate(-22.889 -12.456)" fill="#4284f4"/>
    <path id="Path_38" data-name="Path 38" d="M70.271,63.554a13.988,13.988,0,0,0,9.7-3.543l-4.754-3.7A8.831,8.831,0,0,1,62.063,51.66H57.18v3.8a14.625,14.625,0,0,0,13.084,8.093h0Z" transform="translate(-16.742 -15.01)" fill="#34a853"/>
    <path id="Path_39" data-name="Path 39" d="M61.34,47.241a8.8,8.8,0,0,1,0-5.59v-3.8H56.457a14.749,14.749,0,0,0,0,13.193l4.883-3.8Z" transform="translate(-16.047 -10.626)" fill="#fbbc04"/>
    <path id="Path_40" data-name="Path 40" d="M70.274,31.792a7.923,7.923,0,0,1,5.6,2.2l4.2-4.209a14.036,14.036,0,0,0-9.8-3.829A14.633,14.633,0,0,0,57.19,34.043l4.883,3.8a8.736,8.736,0,0,1,8.2-6.052Z" transform="translate(-16.745 -6.851)" fill="#ea4335"/>
  </g>
</svg>
