<?xml version="1.0" encoding="utf-8"?>
<!-- Generator: Adobe Illustrator 26.0.2, SVG Export Plug-In . SVG Version: 6.00 Build 0)  -->
<svg version="1.1" id="Layer_1" xmlns="http://www.w3.org/2000/svg" xmlns:xlink="http://www.w3.org/1999/xlink" x="0px" y="0px"
	 viewBox="0 0 340.16 190.13" style="enable-background:new 0 0 340.16 190.13;" xml:space="preserve">
<style type="text/css">
	.st0{fill:#79A0D5;}
	.st1{fill:#202E53;stroke:#FFFFFF;stroke-width:1.5;stroke-miterlimit:10;}
	.st2{fill:none;stroke:#79A0D5;stroke-width:1.5;stroke-miterlimit:10;}
	.st3{fill:#FFFFFF;}
</style>
<rect class="st0" width="340.16" height="190.13"/>
<rect x="7" y="7" class="st1" width="326.16" height="176.13"/>
<g>
	<path class="st0" d="M50.12,162.33H28.95v-3.54c0.93-0.94,1.94-1.79,3.04-2.57c1.1-0.77,2.22-1.46,3.35-2.06
		c1.21-0.64,2.23-1.21,3.05-1.71c0.82-0.5,1.47-1.03,1.94-1.57c0.47-0.51,0.8-1.06,1.01-1.66c0.2-0.6,0.3-1.27,0.3-2.01
		c0-1.65-0.39-2.86-1.18-3.61c-0.78-0.75-1.82-1.13-3.11-1.13c-0.41,0-0.79,0.03-1.15,0.09c-0.36,0.06-0.73,0.17-1.13,0.32
		c0.2,0.59,0.38,1.19,0.57,1.82s0.27,1.32,0.27,2.09c0,0.92-0.33,1.66-1,2.21s-1.51,0.82-2.54,0.82c-0.98,0-1.75-0.32-2.33-0.96
		c-0.58-0.64-0.87-1.41-0.87-2.32c0-1.59,0.92-2.96,2.77-4.12c1.85-1.16,4.1-1.74,6.76-1.74c3.07,0,5.56,0.53,7.45,1.58
		s2.84,2.75,2.84,5.1c0,1.21-0.25,2.19-0.75,2.93s-1.24,1.39-2.22,1.95c-0.87,0.51-1.84,0.92-2.9,1.25
		c-1.06,0.33-2.2,0.64-3.41,0.94c-1.29,0.33-2.41,0.67-3.37,1.04c-0.96,0.37-1.81,0.8-2.55,1.31v0.21h16.31V162.33z"/>
	<path class="st0" d="M74.99,144.13c0.99,1.04,1.72,2.23,2.2,3.56c0.48,1.33,0.71,2.72,0.71,4.15c0,1.71-0.3,3.25-0.89,4.62
		c-0.59,1.37-1.4,2.54-2.43,3.49c-1.08,0.99-2.34,1.75-3.77,2.27s-3.08,0.78-4.94,0.78c-1.97,0-3.7-0.31-5.21-0.92
		c-1.5-0.61-2.76-1.42-3.76-2.42c-0.99-0.99-1.74-2.15-2.26-3.5c-0.51-1.34-0.77-2.78-0.77-4.32c0-1.52,0.24-2.94,0.73-4.24
		c0.49-1.3,1.24-2.48,2.26-3.54c0.99-1.03,2.25-1.85,3.77-2.47c1.52-0.62,3.27-0.93,5.25-0.93c2.04,0,3.83,0.32,5.35,0.96
		C72.76,142.27,74.01,143.1,74.99,144.13z M69.48,158.68c0.38-0.87,0.65-1.85,0.81-2.92s0.24-2.38,0.24-3.92
		c0-1.38-0.08-2.62-0.22-3.73c-0.15-1.11-0.4-2.09-0.75-2.95c-0.36-0.88-0.85-1.57-1.45-2.05c-0.6-0.48-1.33-0.72-2.21-0.72
		c-0.89,0-1.63,0.24-2.23,0.71c-0.6,0.48-1.09,1.15-1.46,2.02c-0.34,0.79-0.59,1.77-0.74,2.92s-0.23,2.42-0.23,3.8
		c0,1.45,0.07,2.68,0.21,3.69s0.39,1.99,0.75,2.93c0.33,0.85,0.79,1.53,1.41,2.05c0.61,0.52,1.37,0.78,2.27,0.78
		c0.83,0,1.56-0.23,2.17-0.7S69.13,159.49,69.48,158.68z"/>
	<path class="st0" d="M103.23,162.33H82.06v-3.54c0.93-0.94,1.94-1.79,3.04-2.57c1.1-0.77,2.22-1.46,3.35-2.06
		c1.21-0.64,2.23-1.21,3.05-1.71c0.82-0.5,1.47-1.03,1.94-1.57c0.47-0.51,0.8-1.06,1.01-1.66c0.2-0.6,0.3-1.27,0.3-2.01
		c0-1.65-0.39-2.86-1.18-3.61c-0.78-0.75-1.82-1.13-3.11-1.13c-0.41,0-0.79,0.03-1.15,0.09c-0.36,0.06-0.73,0.17-1.13,0.32
		c0.2,0.59,0.38,1.19,0.57,1.82s0.27,1.32,0.27,2.09c0,0.92-0.33,1.66-1,2.21s-1.51,0.82-2.54,0.82c-0.98,0-1.75-0.32-2.33-0.96
		c-0.58-0.64-0.87-1.41-0.87-2.32c0-1.59,0.92-2.96,2.77-4.12c1.85-1.16,4.1-1.74,6.76-1.74c3.07,0,5.56,0.53,7.45,1.58
		s2.84,2.75,2.84,5.1c0,1.21-0.25,2.19-0.75,2.93s-1.24,1.39-2.22,1.95c-0.87,0.51-1.84,0.92-2.9,1.25
		c-1.06,0.33-2.2,0.64-3.41,0.94c-1.29,0.33-2.41,0.67-3.37,1.04c-0.96,0.37-1.81,0.8-2.55,1.31v0.21h16.31V162.33z"/>
	<path class="st0" d="M125.2,155.77c0.78,0.52,1.43,1.21,1.95,2.08c0.52,0.87,0.78,1.93,0.78,3.19c0,2.43-1.17,4.46-3.5,6.07
		s-5.33,2.42-9,2.42c-2.63,0-4.86-0.56-6.7-1.69s-2.75-2.51-2.75-4.15c0-0.92,0.3-1.71,0.89-2.34c0.59-0.64,1.38-0.96,2.37-0.96
		c1.03,0,1.87,0.28,2.53,0.83c0.66,0.55,0.99,1.29,0.99,2.22c0,0.64-0.11,1.35-0.34,2.14s-0.41,1.37-0.54,1.75
		c0.29,0.13,0.66,0.23,1.11,0.3s0.99,0.11,1.6,0.11c0.75,0,1.49-0.12,2.22-0.37s1.35-0.65,1.88-1.21c0.56-0.59,0.99-1.27,1.3-2.06
		s0.46-1.83,0.46-3.13c0-0.74-0.07-1.45-0.21-2.11s-0.39-1.24-0.75-1.74c-0.36-0.49-0.86-0.88-1.49-1.16
		c-0.63-0.28-1.44-0.42-2.41-0.42h-2.48v-2.36h1.76c1.64,0,2.83-0.48,3.56-1.46c0.74-0.97,1.1-2.45,1.1-4.44
		c0-1.6-0.35-2.8-1.06-3.6s-1.74-1.2-3.08-1.2c-0.51,0-0.95,0.03-1.33,0.09s-0.76,0.17-1.15,0.32c0.14,0.44,0.32,1.06,0.53,1.86
		c0.21,0.79,0.31,1.47,0.31,2.03c0,0.92-0.32,1.66-0.96,2.21s-1.47,0.82-2.5,0.82c-0.98,0-1.75-0.32-2.33-0.96
		c-0.58-0.64-0.87-1.41-0.87-2.32c0-1.61,0.93-2.99,2.8-4.13c1.87-1.14,4.22-1.71,7.04-1.71c1.95,0,3.57,0.23,4.85,0.68
		c1.28,0.46,2.29,1.02,3.04,1.68c0.73,0.65,1.23,1.35,1.51,2.1c0.28,0.75,0.42,1.42,0.42,2.02c0,0.57-0.12,1.22-0.36,1.94
		s-0.6,1.36-1.06,1.9c-0.57,0.66-1.32,1.24-2.25,1.72c-0.92,0.48-2,0.85-3.24,1.11v0.31c0.85,0.05,1.76,0.21,2.74,0.47
		C123.58,154.88,124.45,155.26,125.2,155.77z"/>
</g>
<line class="st2" x1="27" y1="61.01" x2="313.16" y2="61.01"/>
<g>
	<g>
		<path class="st3" d="M240.32,153.57c-0.18-0.94-0.62-1.47-1.41-1.47c-0.64,0-1.08,0.33-1.08,0.94c0,1.85,4.61,2.59,4.61,6.11
			c0,2.11-1.45,3.19-3.45,3.19c-2.15,0-3.38-1.23-3.76-3.29l2.15-0.59c0.15,0.99,0.5,1.87,1.63,1.87c0.64,0,1.1-0.37,1.1-1.03
			c0-2.04-4.61-2.81-4.61-6.04c0-1.87,1.45-3.16,3.3-3.16c1.93,0,3.23,1.3,3.6,3.14L240.32,153.57z"/>
		<path class="st3" d="M243.41,152.32v-2.02h1.36v-3.18h2.46v3.18h1.65v2.02h-1.65v6.81c0,0.61,0.26,0.97,0.83,0.97h0.81v2.11
			c-0.33,0.09-0.62,0.13-1.23,0.13c-1.85,0-2.88-0.86-2.88-2.66v-7.36H243.41z"/>
		<path class="st3" d="M250.22,153.76c0.13-2.39,1.65-3.69,3.95-3.69c2.28,0,3.58,1.05,3.58,3.21v7.58c0,0.37,0.09,0.86,0.15,1.25
			h-2.35c-0.02-0.33-0.11-0.64-0.13-0.92c-0.92,0.75-1.69,1.14-2.88,1.14c-1.67,0-2.5-1.14-2.5-2.66c0-2.59,1.71-4.02,5.25-5.36
			v-0.7c0-0.99-0.4-1.52-1.21-1.52c-1.12,0-1.36,0.66-1.41,1.67H250.22z M255.3,156.11c-2.24,1.27-2.79,2.09-2.79,3.12
			c0,0.77,0.4,1.08,1.14,1.08c0.68,0,1.23-0.51,1.65-1.1V156.11z"/>
		<path class="st3" d="M259.27,152.32v-2.02h1.36v-3.18h2.46v3.18h1.65v2.02h-1.65v6.81c0,0.61,0.26,0.97,0.83,0.97h0.81v2.11
			c-0.33,0.09-0.62,0.13-1.23,0.13c-1.85,0-2.88-0.86-2.88-2.66v-7.36H259.27z"/>
		<path class="st3" d="M266.37,149.32v-2.24h2.46v2.24H266.37z M266.37,162.11v-11.82h2.46v11.82H266.37z"/>
		<path class="st3" d="M275.7,153.57c-0.18-0.94-0.62-1.47-1.41-1.47c-0.64,0-1.08,0.33-1.08,0.94c0,1.85,4.61,2.59,4.61,6.11
			c0,2.11-1.45,3.19-3.45,3.19c-2.15,0-3.38-1.23-3.76-3.29l2.15-0.59c0.15,0.99,0.51,1.87,1.63,1.87c0.64,0,1.1-0.37,1.1-1.03
			c0-2.04-4.61-2.81-4.61-6.04c0-1.87,1.45-3.16,3.3-3.16c1.93,0,3.23,1.3,3.6,3.14L275.7,153.57z"/>
		<path class="st3" d="M278.8,152.32v-2.02h1.36v-3.18h2.46v3.18h1.65v2.02h-1.65v6.81c0,0.61,0.26,0.97,0.83,0.97h0.81v2.11
			c-0.33,0.09-0.61,0.13-1.23,0.13c-1.84,0-2.88-0.86-2.88-2.66v-7.36H278.8z"/>
		<path class="st3" d="M285.61,153.76c0.13-2.39,1.65-3.69,3.95-3.69c2.28,0,3.58,1.05,3.58,3.21v7.58c0,0.37,0.09,0.86,0.15,1.25
			h-2.35c-0.02-0.33-0.11-0.64-0.13-0.92c-0.92,0.75-1.69,1.14-2.88,1.14c-1.67,0-2.5-1.14-2.5-2.66c0-2.59,1.71-4.02,5.25-5.36
			v-0.7c0-0.99-0.4-1.52-1.21-1.52c-1.12,0-1.36,0.66-1.41,1.67H285.61z M290.68,156.11c-2.24,1.27-2.79,2.09-2.79,3.12
			c0,0.77,0.4,1.08,1.14,1.08c0.68,0,1.23-0.51,1.65-1.1V156.11z"/>
	</g>
	<path class="st3" d="M312.62,147.1h-14.17c-0.29,0-0.53,0.24-0.53,0.53v9.65c0.03,0,0.05,0,0.08,0c0,0,2.29-0.05,3.28-0.56
		c1.22-0.63,2.12-1.94,2.12-1.94c0.23-0.33,0.48-0.7,0.56-0.81c0.08-0.12,0.16-0.23,0.18-0.26c0.02-0.03,0.12-0.16,0.17-0.24
		c0.06-0.08,0.29-0.42,0.52-0.75c0,0,1.38-2,3.34-3.01c2.12-1.1,4.93-0.98,4.93-0.98c0.02,0,0.03,0,0.05,0v-1.1
		C313.16,147.33,312.92,147.1,312.62,147.1z M309.74,152.71c-1.21,0.63-2.12,1.94-2.12,1.94c-0.23,0.33-0.48,0.7-0.57,0.81
		c-0.08,0.12-0.16,0.23-0.18,0.26c-0.02,0.03-0.12,0.16-0.17,0.24c-0.06,0.08-0.29,0.42-0.52,0.75c0,0-1.38,2-3.34,3.01
		c-2.04,1.06-4.7,0.99-4.92,0.98v1.1c0,0.29,0.24,0.53,0.53,0.53h14.17c0.29,0,0.53-0.24,0.53-0.53v-9.67
		c-0.05,0.01-0.09,0.02-0.14,0.02C313.02,152.15,310.73,152.19,309.74,152.71z"/>
</g>
<g>
	<path class="st3" d="M38.5,85.45c0.35,0.39,0.61,0.82,0.78,1.28s0.25,1.01,0.25,1.62c0,1.47-0.54,2.68-1.63,3.63
		s-2.43,1.43-4.04,1.43c-0.74,0-1.48-0.12-2.23-0.35c-0.74-0.23-1.38-0.51-1.92-0.84l-0.5,0.86h-0.94l-0.16-5.7h0.95
		c0.2,0.7,0.42,1.34,0.69,1.9s0.61,1.1,1.04,1.59c0.41,0.46,0.88,0.83,1.42,1.1c0.54,0.27,1.17,0.41,1.89,0.41
		c0.54,0,1.01-0.07,1.41-0.21s0.73-0.34,0.98-0.6s0.44-0.56,0.56-0.91c0.12-0.35,0.18-0.75,0.18-1.2c0-0.67-0.19-1.29-0.56-1.86
		c-0.38-0.58-0.93-1.01-1.68-1.31c-0.51-0.2-1.09-0.43-1.75-0.67s-1.22-0.48-1.7-0.69c-0.94-0.42-1.67-0.97-2.19-1.66
		s-0.78-1.58-0.78-2.68c0-0.63,0.13-1.22,0.39-1.77c0.26-0.55,0.62-1.03,1.1-1.46c0.45-0.41,0.99-0.72,1.61-0.96
		c0.62-0.23,1.26-0.35,1.93-0.35c0.77,0,1.45,0.12,2.06,0.35s1.16,0.51,1.66,0.82l0.48-0.8h0.94l0.09,5.52h-0.95
		c-0.17-0.63-0.37-1.24-0.58-1.82s-0.49-1.1-0.84-1.57c-0.34-0.45-0.75-0.81-1.23-1.08s-1.08-0.4-1.78-0.4
		c-0.74,0-1.38,0.24-1.9,0.71c-0.52,0.48-0.79,1.06-0.79,1.75c0,0.72,0.17,1.31,0.5,1.79s0.82,0.86,1.46,1.17
		c0.57,0.27,1.13,0.51,1.68,0.71s1.08,0.41,1.6,0.64c0.47,0.2,0.92,0.43,1.35,0.69S38.18,85.11,38.5,85.45z"/>
	<path class="st3" d="M46.63,93.08h-5.58v-0.77c0.18-0.02,0.37-0.03,0.56-0.05s0.36-0.05,0.5-0.09c0.22-0.07,0.38-0.19,0.49-0.37
		s0.16-0.4,0.16-0.68v-7.13c0-0.25-0.06-0.48-0.17-0.68s-0.27-0.38-0.47-0.52c-0.15-0.09-0.36-0.17-0.64-0.24s-0.54-0.11-0.77-0.12
		v-0.77l4.08-0.26l0.16,0.16v9.42c0,0.27,0.05,0.5,0.16,0.68s0.27,0.31,0.49,0.4c0.17,0.07,0.34,0.13,0.5,0.17s0.34,0.07,0.55,0.09
		V93.08z M45.17,76.83c0,0.45-0.15,0.83-0.44,1.17s-0.65,0.5-1.08,0.5c-0.4,0-0.74-0.16-1.04-0.47s-0.44-0.68-0.44-1.08
		c0-0.43,0.15-0.8,0.44-1.12s0.64-0.48,1.04-0.48c0.45,0,0.81,0.15,1.1,0.45S45.17,76.43,45.17,76.83z"/>
	<path class="st3" d="M60.85,93.08H55.2v-0.77c0.18-0.02,0.38-0.03,0.59-0.05s0.39-0.05,0.53-0.09c0.22-0.07,0.38-0.19,0.49-0.37
		s0.16-0.4,0.16-0.69v-5.94c0-0.82-0.19-1.45-0.58-1.9c-0.39-0.45-0.86-0.67-1.42-0.67c-0.42,0-0.79,0.06-1.14,0.19
		s-0.65,0.29-0.92,0.47c-0.26,0.18-0.46,0.37-0.62,0.58c-0.15,0.21-0.26,0.37-0.33,0.5V91c0,0.27,0.05,0.48,0.16,0.66
		s0.27,0.3,0.49,0.4c0.16,0.08,0.34,0.14,0.53,0.18s0.39,0.07,0.59,0.08v0.77h-5.66v-0.77c0.18-0.02,0.37-0.03,0.56-0.05
		s0.36-0.05,0.5-0.09c0.22-0.07,0.38-0.19,0.49-0.37s0.16-0.4,0.16-0.68v-7.13c0-0.26-0.06-0.51-0.17-0.73
		c-0.11-0.22-0.27-0.4-0.47-0.54c-0.15-0.09-0.32-0.16-0.53-0.21s-0.42-0.07-0.66-0.09v-0.77l3.84-0.26l0.16,0.16v1.63h0.06
		c0.19-0.19,0.42-0.41,0.7-0.67s0.55-0.47,0.8-0.64c0.29-0.19,0.63-0.34,1.03-0.47s0.85-0.19,1.35-0.19c1.11,0,1.93,0.35,2.47,1.04
		s0.8,1.61,0.8,2.76v6.01c0,0.27,0.05,0.49,0.14,0.66s0.25,0.3,0.48,0.39c0.19,0.08,0.35,0.13,0.49,0.16s0.33,0.05,0.57,0.07V93.08z
		"/>
	<path class="st3" d="M71.74,91.89c0.31,0.3,0.56,0.63,0.74,1.01s0.27,0.84,0.27,1.39s-0.12,1.08-0.36,1.56s-0.61,0.91-1.1,1.27
		c-0.52,0.37-1.15,0.65-1.88,0.86s-1.62,0.3-2.7,0.3c-1.75,0-3.06-0.26-3.93-0.77s-1.3-1.26-1.3-2.24c0-0.8,0.31-1.43,0.94-1.89
		s1.42-0.71,2.39-0.75v-0.16c-0.23-0.07-0.48-0.16-0.73-0.26s-0.46-0.23-0.64-0.37c-0.2-0.16-0.37-0.36-0.49-0.58
		s-0.19-0.5-0.19-0.83c0-0.41,0.15-0.79,0.44-1.14s0.74-0.65,1.33-0.9v-0.18c-0.75-0.35-1.33-0.8-1.75-1.35s-0.62-1.19-0.62-1.92
		c0-1.09,0.41-1.99,1.22-2.7s1.86-1.05,3.13-1.05c0.35,0,0.7,0.04,1.05,0.11s0.7,0.16,1.06,0.27h4.03v1.12h-2.72v0.07
		c0.29,0.34,0.5,0.71,0.64,1.11s0.21,0.8,0.21,1.2c0,1.02-0.41,1.88-1.24,2.58s-1.78,1.05-2.88,1.05h-1.42
		c-0.18,0.06-0.37,0.18-0.56,0.34s-0.29,0.39-0.29,0.67c0,0.29,0.08,0.51,0.25,0.66s0.36,0.26,0.6,0.31
		c0.23,0.06,0.49,0.1,0.79,0.12s0.61,0.03,0.93,0.04c0.34,0.01,0.81,0.03,1.41,0.07s1.02,0.06,1.27,0.07
		c0.36,0.02,0.72,0.1,1.08,0.26S71.45,91.61,71.74,91.89z M70.83,94.72c0-0.44-0.1-0.8-0.3-1.08s-0.51-0.47-0.93-0.57
		c-0.22-0.03-0.67-0.07-1.35-0.11s-1.47-0.06-2.37-0.06c-0.84,0.16-1.44,0.44-1.8,0.83s-0.53,0.88-0.53,1.49
		c0,0.27,0.06,0.54,0.18,0.79s0.32,0.48,0.61,0.69c0.27,0.2,0.64,0.37,1.1,0.5s1.02,0.19,1.69,0.19c1.15,0,2.05-0.22,2.71-0.66
		S70.83,95.62,70.83,94.72z M68.58,85.03c0-0.91-0.19-1.64-0.56-2.19s-0.89-0.81-1.56-0.81c-0.37,0-0.68,0.08-0.94,0.23
		s-0.47,0.37-0.64,0.65c-0.16,0.26-0.27,0.57-0.33,0.93s-0.1,0.74-0.1,1.12c0,0.87,0.19,1.57,0.57,2.12s0.87,0.82,1.47,0.82
		c0.67,0,1.19-0.27,1.55-0.81S68.58,85.86,68.58,85.03z"/>
	<path class="st3" d="M84.6,92.87c-0.37,0.13-0.69,0.24-0.97,0.32s-0.59,0.12-0.94,0.12c-0.61,0-1.1-0.14-1.46-0.43
		s-0.6-0.7-0.7-1.25h-0.07c-0.51,0.56-1.05,0.99-1.63,1.29s-1.28,0.45-2.1,0.45c-0.87,0-1.58-0.27-2.14-0.8s-0.84-1.23-0.84-2.09
		c0-0.45,0.06-0.84,0.19-1.2s0.31-0.67,0.56-0.95c0.2-0.23,0.45-0.44,0.77-0.63s0.62-0.33,0.9-0.44c0.35-0.13,1.06-0.38,2.14-0.74
		s1.8-0.64,2.17-0.84v-1.16c0-0.1-0.02-0.3-0.06-0.59s-0.13-0.56-0.28-0.82c-0.16-0.29-0.38-0.54-0.66-0.76s-0.69-0.32-1.21-0.32
		c-0.36,0-0.69,0.06-1,0.18s-0.53,0.25-0.65,0.38c0,0.16,0.04,0.39,0.11,0.69s0.11,0.59,0.11,0.84c0,0.27-0.12,0.52-0.37,0.75
		s-0.59,0.34-1.03,0.34c-0.39,0-0.68-0.14-0.86-0.42s-0.28-0.59-0.28-0.93c0-0.36,0.13-0.7,0.38-1.03s0.58-0.62,0.99-0.88
		c0.35-0.22,0.78-0.4,1.28-0.56s0.99-0.23,1.46-0.23c0.66,0,1.23,0.04,1.72,0.13s0.93,0.28,1.33,0.58c0.4,0.29,0.7,0.68,0.91,1.18
		s0.31,1.13,0.31,1.92c0,1.12-0.01,2.11-0.04,2.97s-0.04,1.81-0.04,2.83c0,0.3,0.05,0.55,0.16,0.73s0.27,0.33,0.49,0.46
		c0.12,0.07,0.3,0.11,0.56,0.12s0.51,0.01,0.78,0.01V92.87z M80.51,86.68c-0.66,0.2-1.25,0.39-1.75,0.58
		c-0.5,0.19-0.96,0.42-1.39,0.7c-0.39,0.27-0.7,0.58-0.93,0.95c-0.23,0.36-0.34,0.8-0.34,1.3c0,0.65,0.17,1.13,0.51,1.43
		c0.34,0.31,0.77,0.46,1.29,0.46c0.55,0,1.04-0.13,1.46-0.41c0.42-0.27,0.78-0.59,1.07-0.96L80.51,86.68z"/>
	<path class="st3" d="M95.72,82.9c0.46,0.55,0.82,1.18,1.07,1.9s0.38,1.55,0.38,2.48c0,0.91-0.15,1.75-0.46,2.5s-0.71,1.4-1.21,1.93
		c-0.52,0.54-1.11,0.95-1.75,1.24s-1.32,0.43-2.04,0.43c-0.7,0-1.27-0.08-1.71-0.23s-0.81-0.34-1.09-0.55h-0.09v3.48
		c0,0.28,0.05,0.52,0.16,0.71c0.11,0.19,0.28,0.32,0.5,0.41c0.19,0.07,0.46,0.14,0.8,0.21s0.63,0.1,0.86,0.11v0.77h-6.46v-0.77
		c0.24-0.02,0.48-0.04,0.7-0.06s0.43-0.06,0.61-0.12c0.23-0.08,0.4-0.21,0.49-0.41s0.14-0.43,0.14-0.69V83.94
		c0-0.23-0.06-0.46-0.18-0.68s-0.27-0.39-0.46-0.53c-0.14-0.09-0.34-0.17-0.59-0.22s-0.49-0.08-0.73-0.1v-0.77l3.94-0.26l0.16,0.14
		v1.3l0.09,0.02c0.41-0.47,0.91-0.86,1.51-1.17s1.2-0.47,1.79-0.47c0.72,0,1.38,0.15,1.97,0.46S95.29,82.38,95.72,82.9z
		 M93.81,91.21c0.31-0.48,0.54-1.05,0.69-1.69s0.22-1.36,0.22-2.14c0-0.58-0.06-1.17-0.19-1.77s-0.32-1.12-0.59-1.57
		c-0.27-0.45-0.61-0.82-1.04-1.1s-0.95-0.42-1.55-0.42c-0.58,0-1.07,0.13-1.48,0.38s-0.76,0.56-1.05,0.91v6.83
		c0.07,0.21,0.19,0.43,0.35,0.66s0.34,0.42,0.53,0.59c0.24,0.2,0.5,0.35,0.79,0.47s0.62,0.18,1.03,0.18c0.44,0,0.86-0.12,1.27-0.35
		S93.54,91.63,93.81,91.21z"/>
	<path class="st3" d="M110.05,87.19c0,0.81-0.13,1.61-0.39,2.4c-0.26,0.79-0.63,1.45-1.1,2c-0.54,0.62-1.17,1.09-1.88,1.39
		c-0.71,0.3-1.51,0.46-2.39,0.46c-0.74,0-1.44-0.14-2.1-0.42c-0.67-0.28-1.26-0.68-1.77-1.21c-0.51-0.52-0.91-1.16-1.21-1.92
		c-0.3-0.75-0.45-1.6-0.45-2.54c0-1.8,0.53-3.28,1.58-4.43c1.05-1.15,2.43-1.72,4.13-1.72c1.62,0,2.95,0.54,4.01,1.63
		S110.05,85.37,110.05,87.19z M107.62,87.21c0-0.59-0.06-1.21-0.18-1.86c-0.12-0.65-0.29-1.21-0.53-1.66
		c-0.25-0.48-0.58-0.87-0.99-1.17c-0.41-0.29-0.9-0.44-1.49-0.44c-0.6,0-1.12,0.15-1.54,0.45s-0.77,0.7-1.04,1.22
		c-0.25,0.48-0.43,1.02-0.53,1.63s-0.15,1.2-0.15,1.77c0,0.75,0.06,1.44,0.18,2.08s0.32,1.21,0.58,1.71c0.27,0.5,0.6,0.89,1,1.18
		s0.9,0.43,1.5,0.43c0.98,0,1.75-0.47,2.32-1.42S107.62,88.87,107.62,87.21z"/>
	<path class="st3" d="M120.02,83.02c0,0.4-0.1,0.75-0.29,1.06s-0.5,0.46-0.9,0.46c-0.44,0-0.77-0.11-1-0.34s-0.35-0.48-0.35-0.75
		c0-0.17,0.01-0.33,0.04-0.47s0.05-0.28,0.08-0.42c-0.37,0-0.8,0.15-1.29,0.45s-0.91,0.72-1.25,1.27V91c0,0.27,0.05,0.5,0.16,0.67
		s0.27,0.3,0.5,0.39c0.2,0.08,0.45,0.14,0.76,0.18s0.58,0.07,0.8,0.08v0.77h-6.09v-0.77c0.18-0.02,0.37-0.03,0.56-0.05
		s0.36-0.05,0.5-0.09c0.22-0.07,0.38-0.19,0.49-0.37s0.16-0.4,0.16-0.68v-7.13c0-0.24-0.06-0.48-0.17-0.71
		c-0.11-0.23-0.27-0.42-0.47-0.56c-0.15-0.09-0.32-0.16-0.53-0.21s-0.42-0.07-0.66-0.09v-0.77l3.84-0.26l0.16,0.16v1.63h0.06
		c0.48-0.63,1.02-1.11,1.62-1.44s1.14-0.49,1.63-0.49s0.89,0.16,1.2,0.48S120.02,82.48,120.02,83.02z"/>
	<path class="st3" d="M131.13,90.36c-0.48,0.92-1.13,1.66-1.95,2.2s-1.75,0.82-2.8,0.82c-0.93,0-1.74-0.16-2.44-0.49
		s-1.28-0.77-1.73-1.34s-0.79-1.22-1.01-1.97s-0.33-1.54-0.33-2.38c0-0.75,0.12-1.49,0.36-2.21s0.59-1.37,1.05-1.95
		c0.45-0.55,1-1,1.66-1.34s1.4-0.51,2.22-0.51c0.84,0,1.57,0.13,2.17,0.4c0.6,0.27,1.09,0.63,1.46,1.09
		c0.36,0.44,0.63,0.95,0.8,1.55s0.26,1.24,0.26,1.93v0.77h-7.65c0,0.76,0.07,1.45,0.22,2.07s0.37,1.16,0.69,1.63
		c0.3,0.45,0.7,0.81,1.2,1.07c0.49,0.26,1.08,0.39,1.76,0.39c0.7,0,1.29-0.16,1.8-0.49c0.5-0.33,0.99-0.91,1.46-1.76L131.13,90.36z
		 M128.54,85.96c0-0.44-0.04-0.9-0.11-1.4c-0.07-0.5-0.19-0.92-0.36-1.25c-0.18-0.36-0.43-0.65-0.74-0.88
		c-0.31-0.23-0.71-0.34-1.21-0.34c-0.82,0-1.5,0.34-2.04,1.02s-0.84,1.63-0.88,2.84H128.54z"/>
	<path class="st3" d="M135.67,77.54c0,0.52-0.11,0.99-0.33,1.41s-0.49,0.79-0.8,1.11c-0.31,0.32-0.66,0.61-1.03,0.86
		s-0.68,0.44-0.9,0.56l-0.4-0.69c0.32-0.19,0.63-0.38,0.92-0.58s0.52-0.39,0.67-0.57c0.21-0.23,0.38-0.48,0.5-0.73s0.2-0.59,0.23-1
		h-0.56c-0.49,0-0.88-0.12-1.15-0.38s-0.41-0.6-0.41-1.04c0-0.32,0.12-0.62,0.38-0.91s0.59-0.43,1.02-0.43
		c0.66,0,1.14,0.22,1.43,0.66S135.67,76.83,135.67,77.54z"/>
	<path class="st3" d="M143.39,87.42c0.32,0.28,0.57,0.61,0.74,0.97s0.26,0.82,0.26,1.35c0,1.07-0.4,1.95-1.2,2.62
		s-1.84,1.02-3.11,1.02c-0.67,0-1.29-0.12-1.86-0.36s-0.97-0.46-1.21-0.67l-0.23,0.76h-0.88l-0.12-4.02h0.81
		c0.06,0.31,0.2,0.66,0.4,1.07c0.2,0.41,0.45,0.78,0.74,1.11c0.3,0.34,0.67,0.63,1.1,0.87s0.9,0.35,1.44,0.35
		c0.75,0,1.33-0.17,1.73-0.51s0.61-0.83,0.61-1.47c0-0.33-0.06-0.61-0.19-0.85s-0.32-0.45-0.57-0.63c-0.26-0.18-0.57-0.34-0.95-0.49
		s-0.79-0.29-1.25-0.43c-0.37-0.11-0.78-0.26-1.22-0.45s-0.83-0.42-1.15-0.67c-0.34-0.27-0.62-0.61-0.84-1.01s-0.33-0.87-0.33-1.41
		c0-0.95,0.35-1.75,1.05-2.4s1.64-0.98,2.82-0.98c0.45,0,0.92,0.06,1.39,0.18s0.86,0.26,1.15,0.42l0.27-0.61h0.84l0.18,3.71h-0.81
		c-0.16-0.83-0.52-1.51-1.06-2.03c-0.54-0.52-1.21-0.78-1.99-0.78c-0.64,0-1.14,0.16-1.51,0.48c-0.37,0.32-0.55,0.71-0.55,1.17
		c0,0.35,0.06,0.64,0.18,0.88s0.3,0.43,0.54,0.6c0.23,0.16,0.53,0.3,0.88,0.44s0.79,0.29,1.32,0.46c0.52,0.16,1,0.36,1.46,0.57
		S143.09,87.16,143.39,87.42z"/>
	<path class="st3" d="M166.83,80.89h-0.91c-0.23-0.65-0.63-1.33-1.2-2.06c-0.57-0.73-1.12-1.13-1.63-1.2
		c-0.23-0.03-0.55-0.06-0.94-0.08s-0.75-0.04-1.08-0.04h-2.59v6.52h1.65c0.47,0,0.88-0.05,1.22-0.16s0.65-0.29,0.91-0.57
		c0.2-0.2,0.38-0.52,0.57-0.98s0.29-0.85,0.33-1.18h0.89v7h-0.89c-0.03-0.35-0.15-0.78-0.36-1.28s-0.39-0.84-0.54-1
		c-0.23-0.25-0.52-0.44-0.87-0.56s-0.77-0.18-1.27-0.18h-1.65v5.51c0,0.28,0.05,0.52,0.16,0.72s0.31,0.36,0.6,0.49
		c0.17,0.07,0.41,0.13,0.71,0.19s0.6,0.1,0.9,0.13v0.91h-8.96v-0.91c0.23-0.02,0.53-0.06,0.9-0.1s0.64-0.1,0.79-0.16
		c0.28-0.11,0.48-0.26,0.59-0.46s0.16-0.45,0.16-0.75V78.97c0-0.27-0.05-0.5-0.15-0.7s-0.3-0.37-0.6-0.5
		c-0.22-0.09-0.51-0.18-0.87-0.26s-0.63-0.13-0.82-0.15v-0.91h14.94V80.89z"/>
	<path class="st3" d="M180.18,92.84c-0.34,0.15-0.75,0.29-1.22,0.41c-0.47,0.12-0.96,0.19-1.48,0.19c-0.96,0-1.67-0.14-2.12-0.43
		s-0.76-0.69-0.92-1.22h-0.07c-0.27,0.27-0.52,0.49-0.77,0.68c-0.25,0.19-0.51,0.35-0.79,0.48c-0.37,0.17-0.72,0.3-1.06,0.39
		c-0.34,0.09-0.82,0.13-1.43,0.13c-0.91,0-1.68-0.27-2.32-0.8c-0.64-0.54-0.96-1.25-0.96-2.13c0-0.51,0.07-0.94,0.21-1.3
		c0.14-0.36,0.34-0.67,0.6-0.95c0.24-0.25,0.51-0.46,0.82-0.62c0.31-0.16,0.65-0.32,1.01-0.46c0.7-0.26,1.55-0.53,2.54-0.8
		c0.99-0.28,1.71-0.53,2.16-0.75v-1.12c0-0.2-0.02-0.45-0.05-0.77s-0.1-0.59-0.2-0.81c-0.11-0.25-0.28-0.46-0.52-0.63
		s-0.54-0.26-0.93-0.26c-0.34,0-0.63,0.05-0.86,0.15s-0.42,0.2-0.56,0.3c0.02,0.16,0.09,0.39,0.2,0.71
		c0.11,0.32,0.17,0.63,0.17,0.93c0,0.13-0.04,0.3-0.11,0.5c-0.07,0.2-0.17,0.36-0.31,0.47c-0.18,0.16-0.38,0.28-0.61,0.36
		s-0.57,0.13-1.03,0.13c-0.66,0-1.16-0.16-1.49-0.47c-0.34-0.32-0.51-0.73-0.51-1.24c0-0.44,0.17-0.83,0.52-1.18
		s0.77-0.63,1.27-0.86c0.49-0.23,1.06-0.42,1.7-0.54s1.23-0.19,1.78-0.19c0.76,0,1.45,0.04,2.09,0.13s1.2,0.28,1.71,0.56
		c0.48,0.27,0.87,0.67,1.15,1.19s0.43,1.2,0.43,2.03c0,0.88-0.02,1.93-0.05,3.14s-0.05,2.01-0.05,2.39c0,0.35,0.05,0.63,0.16,0.83
		s0.27,0.36,0.49,0.46c0.13,0.06,0.34,0.1,0.63,0.11s0.54,0.02,0.78,0.02V92.84z M174.37,86.73c-0.44,0.15-0.87,0.32-1.31,0.51
		c-0.43,0.19-0.78,0.39-1.06,0.6c-0.29,0.22-0.52,0.5-0.68,0.84s-0.25,0.74-0.25,1.2c0,0.61,0.14,1.05,0.42,1.33
		c0.28,0.27,0.62,0.41,1.03,0.41c0.43,0,0.79-0.09,1.06-0.26c0.28-0.18,0.52-0.39,0.74-0.65L174.37,86.73z"/>
	<path class="st3" d="M186.71,93.48c-0.76,0-1.5-0.11-2.22-0.33s-1.28-0.46-1.68-0.71l-0.35,0.8h-0.91l-0.15-4.37h0.86
		c0.12,0.35,0.31,0.75,0.59,1.19s0.59,0.84,0.94,1.19c0.37,0.35,0.79,0.65,1.26,0.89s0.98,0.36,1.52,0.36
		c0.71,0,1.24-0.14,1.59-0.42s0.52-0.71,0.52-1.28c0-0.31-0.08-0.57-0.23-0.77s-0.37-0.38-0.64-0.53c-0.3-0.16-0.64-0.29-1-0.4
		s-0.81-0.24-1.34-0.4s-0.99-0.31-1.37-0.47s-0.77-0.41-1.18-0.76c-0.35-0.3-0.63-0.67-0.84-1.1s-0.32-0.94-0.32-1.54
		c0-1.1,0.46-1.99,1.39-2.67s2.14-1.02,3.64-1.02c0.71,0,1.37,0.07,1.96,0.22s1.1,0.3,1.51,0.47l0.25-0.69h0.89l0.19,4h-0.82
		c-0.27-0.81-0.74-1.51-1.41-2.1s-1.38-0.88-2.14-0.88c-0.6,0-1.07,0.12-1.42,0.38s-0.52,0.6-0.52,1.04c0,0.59,0.25,1.02,0.75,1.29
		c0.5,0.27,1.21,0.52,2.11,0.75c1.4,0.36,2.42,0.85,3.07,1.47c0.65,0.62,0.97,1.41,0.97,2.37c0,1.28-0.5,2.27-1.51,2.98
		S188.32,93.48,186.71,93.48z"/>
	<path class="st3" d="M202.32,92.54c-0.5,0.22-1.04,0.42-1.61,0.59s-1.27,0.26-2.09,0.26c-1.22,0-2.12-0.3-2.71-0.89
		s-0.88-1.44-0.88-2.54v-7.19h-2.11V81.5h2.16v-3.55h3.8v3.55h3.29v1.28h-3.27v6.41c0,0.91,0.13,1.56,0.38,1.94
		c0.25,0.38,0.71,0.57,1.37,0.57c0.21,0,0.51-0.02,0.88-0.05s0.64-0.07,0.79-0.11V92.54z"/>
	<path class="st3" d="M215.37,90.28c-0.27,0.45-0.6,0.87-0.99,1.26s-0.83,0.73-1.32,1.01c-0.52,0.3-1.05,0.52-1.59,0.67
		s-1.15,0.23-1.85,0.23c-1.16,0-2.15-0.16-2.99-0.49s-1.53-0.77-2.08-1.32s-0.96-1.21-1.22-1.96s-0.4-1.57-0.4-2.46
		c0-0.8,0.15-1.56,0.44-2.29s0.71-1.38,1.25-1.95c0.53-0.55,1.2-1,2.01-1.35s1.71-0.52,2.71-0.52c1.09,0,1.99,0.13,2.7,0.4
		s1.29,0.63,1.75,1.1c0.45,0.45,0.77,0.97,0.97,1.58s0.3,1.24,0.3,1.9v0.76h-7.92c0,1.6,0.31,2.82,0.93,3.66s1.6,1.25,2.94,1.25
		c0.73,0,1.39-0.2,1.98-0.6s1.09-0.91,1.5-1.53L215.37,90.28z M210.89,85.83c0-0.47-0.02-0.95-0.07-1.44s-0.13-0.89-0.25-1.21
		c-0.13-0.37-0.31-0.64-0.54-0.83s-0.52-0.28-0.87-0.28c-0.6,0-1.08,0.3-1.44,0.91s-0.55,1.57-0.59,2.89L210.89,85.83z"/>
	<path class="st3" d="M222.11,93.48c-0.76,0-1.5-0.11-2.22-0.33s-1.28-0.46-1.68-0.71l-0.35,0.8h-0.91l-0.15-4.37h0.86
		c0.12,0.35,0.31,0.75,0.59,1.19s0.59,0.84,0.94,1.19c0.37,0.35,0.79,0.65,1.26,0.89s0.98,0.36,1.52,0.36
		c0.71,0,1.24-0.14,1.59-0.42s0.52-0.71,0.52-1.28c0-0.31-0.08-0.57-0.23-0.77s-0.37-0.38-0.64-0.53c-0.3-0.16-0.64-0.29-1-0.4
		s-0.81-0.24-1.34-0.4s-0.99-0.31-1.37-0.47s-0.77-0.41-1.18-0.76c-0.35-0.3-0.63-0.67-0.84-1.1s-0.32-0.94-0.32-1.54
		c0-1.1,0.46-1.99,1.39-2.67s2.14-1.02,3.64-1.02c0.71,0,1.37,0.07,1.96,0.22s1.1,0.3,1.51,0.47l0.25-0.69h0.89l0.19,4h-0.82
		c-0.27-0.81-0.74-1.51-1.41-2.1s-1.38-0.88-2.14-0.88c-0.6,0-1.07,0.12-1.42,0.38s-0.52,0.6-0.52,1.04c0,0.59,0.25,1.02,0.75,1.29
		c0.5,0.27,1.21,0.52,2.11,0.75c1.4,0.36,2.42,0.85,3.07,1.47c0.65,0.62,0.97,1.41,0.97,2.37c0,1.28-0.5,2.27-1.51,2.98
		S223.73,93.48,222.11,93.48z"/>
	<path class="st3" d="M237.72,92.54c-0.5,0.22-1.04,0.42-1.61,0.59s-1.27,0.26-2.09,0.26c-1.22,0-2.12-0.3-2.71-0.89
		s-0.88-1.44-0.88-2.54v-7.19h-2.11V81.5h2.16v-3.55h3.8v3.55h3.29v1.28h-3.27v6.41c0,0.91,0.13,1.56,0.38,1.94
		c0.25,0.38,0.71,0.57,1.37,0.57c0.21,0,0.51-0.02,0.88-0.05s0.64-0.07,0.79-0.11V92.54z"/>
	<path class="st3" d="M46.32,114.32c-0.24,0.02-0.46,0.05-0.64,0.08s-0.42,0.09-0.7,0.19c-0.32,0.1-0.53,0.27-0.63,0.5
		s-0.15,0.48-0.15,0.74v1.93c0,0.39,0,0.71,0.01,0.94s0.02,0.53,0.04,0.88c-0.78,0.47-1.94,0.91-3.46,1.32s-2.93,0.62-4.21,0.62
		c-1.2,0-2.33-0.18-3.39-0.55s-1.98-0.92-2.78-1.65c-0.8-0.73-1.42-1.63-1.88-2.71s-0.69-2.31-0.69-3.71c0-1.3,0.21-2.5,0.64-3.6
		s1.05-2.05,1.86-2.85c0.8-0.79,1.77-1.4,2.91-1.83s2.41-0.65,3.8-0.65c0.95,0,1.82,0.12,2.62,0.35s1.47,0.48,1.99,0.75l0.73-0.64
		h1.02l0.11,6.07h-1.03c-0.59-1.82-1.3-3.18-2.13-4.06s-1.88-1.33-3.14-1.33c-1.5,0-2.66,0.66-3.47,1.97s-1.22,3.12-1.22,5.43
		c0,2.45,0.4,4.36,1.2,5.75s1.94,2.08,3.4,2.08c0.69,0,1.3-0.1,1.83-0.31s0.95-0.45,1.25-0.72v-3.38c0-0.28-0.05-0.52-0.15-0.71
		s-0.3-0.36-0.61-0.5c-0.23-0.11-0.53-0.2-0.88-0.27s-0.64-0.12-0.88-0.15v-0.91h8.64V114.32z"/>
	<path class="st3" d="M58.48,111.6c0,0.59-0.18,1.12-0.55,1.56s-0.85,0.67-1.45,0.67c-0.57,0-1.05-0.14-1.45-0.43
		s-0.59-0.71-0.59-1.27c0-0.27,0.02-0.48,0.06-0.64c0.04-0.15,0.07-0.29,0.11-0.43c-0.36,0.02-0.74,0.14-1.14,0.37
		s-0.75,0.54-1.05,0.93v6.43c0,0.27,0.04,0.5,0.13,0.68s0.23,0.32,0.43,0.42c0.17,0.09,0.45,0.16,0.84,0.22s0.67,0.09,0.84,0.1v0.86
		H46.8v-0.86c0.2-0.02,0.39-0.04,0.59-0.06s0.37-0.06,0.51-0.11c0.25-0.09,0.42-0.22,0.52-0.4s0.14-0.41,0.14-0.7v-6.82
		c0-0.28-0.07-0.53-0.2-0.76s-0.29-0.4-0.48-0.53c-0.14-0.09-0.32-0.17-0.53-0.23s-0.45-0.11-0.71-0.13v-0.86l5.59-0.3l0.18,0.18
		v1.7h0.05c0.54-0.62,1.11-1.12,1.72-1.47s1.24-0.53,1.89-0.53c0.73,0,1.31,0.22,1.75,0.67S58.48,110.89,58.48,111.6z"/>
	<path class="st3" d="M71.23,110.84c0.58,0.54,1.02,1.18,1.32,1.93s0.46,1.56,0.46,2.44c0,0.87-0.15,1.69-0.45,2.46
		s-0.74,1.43-1.32,1.97c-0.62,0.59-1.35,1.04-2.21,1.35s-1.83,0.47-2.94,0.47c-0.95,0-1.83-0.14-2.63-0.41s-1.51-0.68-2.13-1.23
		c-0.59-0.52-1.06-1.17-1.41-1.94s-0.52-1.63-0.52-2.58c0-0.94,0.15-1.77,0.45-2.5s0.75-1.38,1.35-1.95
		c0.58-0.55,1.29-0.97,2.14-1.27s1.79-0.45,2.84-0.45c1.09,0,2.06,0.15,2.89,0.45S70.64,110.29,71.23,110.84z M68.23,118.96
		c0.17-0.44,0.3-0.97,0.38-1.59s0.12-1.35,0.12-2.18c0-0.55-0.04-1.17-0.12-1.88s-0.2-1.26-0.35-1.66
		c-0.19-0.49-0.45-0.88-0.78-1.16s-0.75-0.42-1.26-0.42c-0.55,0-1,0.15-1.33,0.46s-0.59,0.7-0.77,1.18
		c-0.16,0.45-0.28,0.97-0.34,1.56s-0.09,1.22-0.09,1.87c0,0.85,0.03,1.56,0.08,2.12s0.19,1.12,0.4,1.68
		c0.18,0.48,0.44,0.87,0.77,1.15s0.76,0.42,1.28,0.42c0.47,0,0.87-0.13,1.21-0.39S68.04,119.47,68.23,118.96z"/>
	<path class="st3" d="M94.21,110.31c-0.36,0.05-0.69,0.17-1,0.36s-0.56,0.53-0.77,1.03c-0.55,1.34-0.98,2.41-1.31,3.23
		s-0.79,2-1.38,3.55c-0.12,0.32-0.28,0.76-0.45,1.32s-0.31,1.02-0.42,1.38h-2.29l-2.95-7.98l-2.76,7.98h-2.26
		c-0.79-2.13-1.41-3.79-1.86-4.96s-1.06-2.73-1.82-4.66c-0.14-0.37-0.38-0.66-0.72-0.87s-0.69-0.34-1.05-0.39v-0.86h7.2v0.86
		c-0.27,0.02-0.58,0.09-0.95,0.19s-0.55,0.24-0.55,0.41c0,0.08,0.01,0.15,0.03,0.21s0.05,0.17,0.1,0.32c0.21,0.61,0.5,1.4,0.87,2.37
		c0.37,0.97,0.8,2.09,1.29,3.38l2.6-7.72h2.32l2.96,7.96c0.45-1.2,0.8-2.15,1.05-2.84c0.25-0.69,0.56-1.58,0.93-2.67
		c0.05-0.16,0.09-0.31,0.1-0.44s0.01-0.21,0.01-0.25c0-0.14-0.07-0.27-0.21-0.38c-0.14-0.11-0.31-0.21-0.5-0.28
		c-0.2-0.07-0.38-0.12-0.57-0.16s-0.34-0.07-0.46-0.08v-0.86h4.84V110.31z"/>
	<path class="st3" d="M102.77,121.08h-7.41v-0.86c0.2-0.02,0.4-0.04,0.6-0.06s0.36-0.06,0.5-0.12c0.25-0.09,0.43-0.23,0.53-0.4
		s0.15-0.41,0.15-0.7v-6.82c0-0.27-0.06-0.51-0.19-0.72s-0.28-0.37-0.47-0.5c-0.14-0.09-0.35-0.18-0.64-0.27s-0.54-0.14-0.78-0.16
		v-0.86l5.74-0.3l0.18,0.18v9.3c0,0.27,0.06,0.51,0.18,0.7s0.29,0.33,0.5,0.43c0.16,0.07,0.33,0.13,0.52,0.19s0.38,0.09,0.59,0.12
		V121.08z M101.06,105.1c0,0.59-0.23,1.1-0.69,1.52s-1,0.63-1.62,0.63c-0.63,0-1.18-0.21-1.63-0.63s-0.69-0.92-0.69-1.52
		s0.23-1.1,0.69-1.52s1-0.63,1.63-0.63s1.18,0.21,1.63,0.63S101.06,104.5,101.06,105.1z"/>
	<path class="st3" d="M119.52,121.08h-7.04v-0.86c0.15-0.02,0.33-0.04,0.54-0.06s0.37-0.06,0.48-0.12c0.16-0.09,0.28-0.21,0.35-0.38
		s0.11-0.41,0.11-0.73v-5.48c0-0.8-0.15-1.4-0.44-1.8c-0.29-0.4-0.73-0.6-1.3-0.6c-0.31,0-0.61,0.05-0.88,0.14
		c-0.27,0.09-0.54,0.23-0.79,0.41c-0.23,0.16-0.41,0.32-0.55,0.48c-0.14,0.16-0.25,0.31-0.35,0.43v6.29c0,0.27,0.04,0.5,0.12,0.69
		s0.21,0.32,0.39,0.42c0.12,0.07,0.28,0.13,0.47,0.19s0.37,0.09,0.55,0.12v0.86h-7.12v-0.86c0.2-0.02,0.39-0.04,0.59-0.06
		s0.37-0.06,0.51-0.11c0.25-0.09,0.42-0.22,0.52-0.4s0.14-0.41,0.14-0.7v-6.82c0-0.24-0.06-0.48-0.19-0.71s-0.29-0.43-0.49-0.57
		c-0.14-0.09-0.32-0.17-0.53-0.23s-0.45-0.11-0.71-0.13v-0.86l5.59-0.3l0.18,0.18v1.7h0.05c0.22-0.2,0.48-0.43,0.8-0.7
		s0.6-0.5,0.87-0.67c0.29-0.19,0.67-0.35,1.14-0.48s0.97-0.2,1.5-0.2c1.27,0,2.23,0.36,2.87,1.08s0.96,1.68,0.96,2.88v5.74
		c0,0.29,0.04,0.52,0.13,0.69s0.25,0.31,0.48,0.41c0.12,0.05,0.28,0.11,0.46,0.16s0.39,0.09,0.63,0.12V121.08z"/>
	<path class="st3" d="M133.32,110.77h-2.58c0.3,0.34,0.53,0.7,0.69,1.08s0.23,0.78,0.23,1.19c0,0.54-0.14,1.04-0.43,1.52
		s-0.67,0.86-1.14,1.15c-0.48,0.3-1.04,0.54-1.68,0.71c-0.64,0.17-1.34,0.26-2.09,0.26h-1.91c-0.09,0.07-0.2,0.18-0.31,0.34
		s-0.17,0.3-0.17,0.44c0,0.35,0.14,0.59,0.41,0.72s0.77,0.21,1.49,0.22c0.71,0.02,1.43,0.04,2.16,0.09
		c0.73,0.04,1.25,0.07,1.56,0.08c0.45,0.02,0.9,0.12,1.35,0.28s0.83,0.37,1.16,0.63c0.36,0.27,0.66,0.62,0.89,1.05
		s0.35,0.92,0.35,1.47c0,0.59-0.14,1.15-0.43,1.68s-0.72,0.98-1.31,1.36c-0.62,0.4-1.36,0.71-2.22,0.93s-1.93,0.33-3.21,0.33
		c-2.05,0-3.62-0.25-4.69-0.75s-1.61-1.25-1.61-2.25c0-0.62,0.29-1.12,0.87-1.52c0.58-0.4,1.48-0.62,2.69-0.66v-0.14
		c-0.72-0.24-1.28-0.57-1.68-0.97s-0.6-0.87-0.6-1.4c0-0.33,0.08-0.61,0.24-0.83c0.16-0.23,0.37-0.43,0.62-0.6
		c0.22-0.15,0.48-0.28,0.8-0.38c0.31-0.11,0.57-0.19,0.79-0.25v-0.13c-1.05-0.39-1.83-0.87-2.33-1.43s-0.74-1.25-0.74-2.06
		c0-1.15,0.53-2.07,1.59-2.75s2.4-1.03,4.03-1.03c0.53,0,1.04,0.04,1.54,0.13c0.5,0.09,0.87,0.17,1.13,0.24h4.55V110.77z
		 M129.78,122.85c0-0.27-0.07-0.53-0.22-0.79c-0.15-0.26-0.48-0.47-0.99-0.64c-0.28-0.05-0.74-0.08-1.39-0.09s-1.53-0.02-2.65-0.02
		c-0.27,0.23-0.5,0.51-0.68,0.83c-0.18,0.32-0.27,0.71-0.27,1.16c0,0.2,0.05,0.41,0.16,0.64c0.11,0.23,0.28,0.45,0.51,0.66
		c0.27,0.23,0.58,0.4,0.91,0.53s0.84,0.19,1.52,0.19c1.01,0,1.77-0.2,2.3-0.59C129.51,124.35,129.78,123.72,129.78,122.85z
		 M127.82,113c0-0.91-0.14-1.64-0.44-2.17c-0.29-0.53-0.74-0.8-1.34-0.8c-0.31,0-0.57,0.07-0.8,0.22s-0.41,0.35-0.55,0.63
		c-0.13,0.27-0.22,0.58-0.27,0.93s-0.07,0.72-0.07,1.1c0,0.85,0.15,1.55,0.45,2.1c0.3,0.55,0.72,0.82,1.27,0.82
		c0.56,0,1-0.25,1.3-0.74S127.82,113.89,127.82,113z"/>
	<path class="st3" d="M148.97,121.54c-1.22,0-2.36-0.2-3.42-0.59c-1.06-0.39-1.99-0.97-2.78-1.72c-0.77-0.74-1.38-1.64-1.83-2.73
		c-0.45-1.08-0.67-2.27-0.67-3.57c0-1.29,0.22-2.49,0.67-3.58c0.45-1.1,1.08-2.05,1.89-2.86c0.8-0.79,1.75-1.4,2.87-1.84
		c1.12-0.43,2.31-0.65,3.59-0.65c0.92,0,1.76,0.11,2.52,0.34s1.4,0.48,1.92,0.76l0.73-0.64h1.02l0.11,6.07h-1.03
		c-0.58-1.86-1.29-3.22-2.11-4.09s-1.82-1.3-3-1.3c-1.47,0-2.58,0.65-3.35,1.94c-0.76,1.3-1.15,3.11-1.15,5.45
		c0,1.32,0.13,2.45,0.39,3.39c0.26,0.93,0.6,1.69,1.02,2.26c0.45,0.59,0.99,1.03,1.6,1.31c0.62,0.28,1.3,0.42,2.05,0.42
		c1.09,0,2.07-0.3,2.92-0.89s1.63-1.49,2.33-2.7l1.01,0.61c-0.34,0.69-0.72,1.3-1.15,1.85s-0.93,1.01-1.49,1.4
		c-0.62,0.43-1.3,0.77-2.04,1.01S149.99,121.54,148.97,121.54z"/>
	<path class="st3" d="M169.37,110.84c0.58,0.54,1.02,1.18,1.32,1.93s0.46,1.56,0.46,2.44c0,0.87-0.15,1.69-0.45,2.46
		s-0.74,1.43-1.32,1.97c-0.62,0.59-1.35,1.04-2.21,1.35s-1.83,0.47-2.94,0.47c-0.95,0-1.83-0.14-2.63-0.41s-1.51-0.68-2.13-1.23
		c-0.59-0.52-1.06-1.17-1.41-1.94s-0.52-1.63-0.52-2.58c0-0.94,0.15-1.77,0.45-2.5s0.75-1.38,1.35-1.95
		c0.58-0.55,1.29-0.97,2.14-1.27s1.79-0.45,2.84-0.45c1.09,0,2.06,0.15,2.89,0.45S168.78,110.29,169.37,110.84z M166.37,118.96
		c0.17-0.44,0.3-0.97,0.38-1.59s0.12-1.35,0.12-2.18c0-0.55-0.04-1.17-0.12-1.88s-0.2-1.26-0.35-1.66
		c-0.19-0.49-0.45-0.88-0.78-1.16s-0.75-0.42-1.26-0.42c-0.55,0-1,0.15-1.33,0.46s-0.59,0.7-0.77,1.18
		c-0.16,0.45-0.28,0.97-0.34,1.56s-0.09,1.22-0.09,1.87c0,0.85,0.03,1.56,0.08,2.12s0.19,1.12,0.4,1.68
		c0.18,0.48,0.44,0.87,0.77,1.15s0.76,0.42,1.28,0.42c0.47,0,0.87-0.13,1.21-0.39S166.18,119.47,166.37,118.96z"/>
	<path class="st3" d="M195.55,121.08h-6.96v-0.86c0.17-0.02,0.35-0.04,0.53-0.06c0.19-0.02,0.34-0.05,0.46-0.12
		c0.17-0.08,0.28-0.21,0.33-0.39c0.05-0.18,0.07-0.42,0.07-0.71v-5.47c0-0.8-0.14-1.41-0.43-1.81s-0.7-0.6-1.23-0.6
		c-0.34,0-0.64,0.05-0.9,0.16c-0.26,0.11-0.5,0.24-0.72,0.39c-0.23,0.16-0.4,0.33-0.53,0.49c-0.13,0.16-0.23,0.3-0.32,0.42v6.29
		c0,0.28,0.03,0.51,0.1,0.69c0.07,0.18,0.19,0.31,0.37,0.42c0.12,0.07,0.27,0.13,0.42,0.19c0.16,0.05,0.33,0.09,0.51,0.12v0.86
		h-6.66v-0.86c0.15-0.02,0.33-0.04,0.53-0.06s0.36-0.06,0.46-0.12c0.16-0.09,0.27-0.21,0.32-0.38c0.05-0.16,0.08-0.41,0.08-0.73
		v-5.47c0-0.8-0.14-1.41-0.43-1.81s-0.7-0.6-1.23-0.6c-0.34,0-0.64,0.05-0.9,0.16c-0.26,0.11-0.5,0.24-0.72,0.39
		c-0.23,0.16-0.4,0.33-0.53,0.49c-0.13,0.16-0.23,0.3-0.32,0.42v6.29c0,0.27,0.04,0.5,0.11,0.68s0.2,0.32,0.38,0.42
		c0.12,0.07,0.27,0.13,0.43,0.19s0.33,0.09,0.51,0.12v0.86h-7.02v-0.86c0.2-0.02,0.4-0.04,0.6-0.06s0.36-0.06,0.5-0.12
		c0.25-0.09,0.42-0.23,0.52-0.4s0.14-0.41,0.14-0.7v-6.82c0-0.25-0.07-0.49-0.2-0.73s-0.29-0.42-0.48-0.56
		c-0.14-0.09-0.32-0.17-0.53-0.23s-0.45-0.11-0.71-0.13v-0.86l5.59-0.3l0.18,0.18v1.65h0.05c0.22-0.2,0.48-0.43,0.78-0.7
		s0.58-0.49,0.85-0.65c0.29-0.19,0.66-0.34,1.11-0.47s0.95-0.19,1.49-0.19c0.89,0,1.63,0.19,2.23,0.58s1.02,0.9,1.27,1.54h0.11
		c0.23-0.21,0.5-0.46,0.83-0.74s0.63-0.51,0.9-0.69c0.3-0.2,0.69-0.36,1.17-0.49s0.98-0.2,1.52-0.2c1.18,0,2.09,0.35,2.72,1.04
		s0.96,1.68,0.96,2.96v5.7c0,0.29,0.04,0.52,0.13,0.7s0.24,0.31,0.47,0.4c0.12,0.05,0.28,0.11,0.46,0.16s0.4,0.09,0.64,0.12V121.08z
		"/>
	<path class="st3" d="M210.43,115.37c0,1.65-0.55,3.06-1.65,4.24c-1.1,1.18-2.49,1.77-4.18,1.77c-0.75,0-1.36-0.08-1.83-0.23
		c-0.47-0.15-0.85-0.34-1.16-0.56h-0.09v3.29c0,0.27,0.06,0.51,0.18,0.71s0.29,0.35,0.51,0.45c0.21,0.09,0.51,0.16,0.9,0.23
		s0.71,0.11,0.97,0.13v0.87h-8.47v-0.87c0.2-0.02,0.44-0.04,0.74-0.09s0.52-0.09,0.67-0.13c0.25-0.09,0.42-0.23,0.51-0.44
		s0.13-0.44,0.13-0.71v-11.99c-0.02-0.26-0.08-0.48-0.18-0.68s-0.25-0.37-0.46-0.52c-0.16-0.1-0.36-0.19-0.62-0.25
		s-0.51-0.11-0.76-0.13v-0.86l5.72-0.3l0.18,0.15v1.3l0.09,0.02c0.51-0.52,1.09-0.93,1.71-1.22c0.63-0.29,1.25-0.43,1.87-0.43
		c1.62,0,2.89,0.57,3.83,1.72S210.43,113.51,210.43,115.37z M206.23,115.42c0-0.59-0.04-1.15-0.13-1.68
		c-0.08-0.54-0.24-1.01-0.46-1.44c-0.21-0.42-0.49-0.76-0.84-1.01c-0.35-0.25-0.77-0.38-1.27-0.38c-0.51,0-0.91,0.09-1.22,0.26
		s-0.57,0.4-0.79,0.69v6.64c0.05,0.16,0.14,0.36,0.27,0.6c0.13,0.25,0.27,0.44,0.4,0.59c0.2,0.21,0.42,0.37,0.67,0.47
		c0.25,0.1,0.52,0.15,0.82,0.15c0.77,0,1.39-0.42,1.85-1.25C205.99,118.25,206.23,117.03,206.23,115.42z"/>
	<path class="st3" d="M225.14,120.84c-0.34,0.15-0.75,0.29-1.22,0.41c-0.47,0.12-0.96,0.19-1.48,0.19c-0.96,0-1.67-0.14-2.12-0.43
		s-0.76-0.69-0.92-1.22h-0.07c-0.27,0.27-0.52,0.49-0.77,0.68c-0.25,0.19-0.51,0.35-0.79,0.48c-0.37,0.17-0.72,0.3-1.06,0.39
		c-0.34,0.09-0.82,0.13-1.43,0.13c-0.91,0-1.68-0.27-2.32-0.8c-0.64-0.54-0.96-1.25-0.96-2.13c0-0.51,0.07-0.94,0.21-1.3
		c0.14-0.36,0.34-0.67,0.6-0.95c0.24-0.25,0.51-0.46,0.82-0.62c0.31-0.16,0.65-0.32,1.01-0.46c0.7-0.26,1.55-0.53,2.54-0.8
		c0.99-0.28,1.71-0.53,2.16-0.75v-1.12c0-0.2-0.02-0.45-0.05-0.77s-0.1-0.59-0.2-0.81c-0.11-0.25-0.28-0.46-0.52-0.63
		s-0.54-0.26-0.93-0.26c-0.34,0-0.63,0.05-0.86,0.15s-0.42,0.2-0.56,0.3c0.02,0.16,0.09,0.39,0.2,0.71
		c0.11,0.32,0.17,0.63,0.17,0.93c0,0.13-0.04,0.3-0.11,0.5c-0.07,0.2-0.17,0.36-0.31,0.47c-0.18,0.16-0.38,0.28-0.61,0.36
		s-0.57,0.13-1.03,0.13c-0.66,0-1.16-0.16-1.49-0.47c-0.34-0.32-0.51-0.73-0.51-1.24c0-0.44,0.17-0.83,0.52-1.18
		s0.77-0.63,1.27-0.86c0.49-0.23,1.06-0.42,1.7-0.54s1.23-0.19,1.78-0.19c0.76,0,1.45,0.04,2.09,0.13s1.2,0.28,1.71,0.56
		c0.48,0.27,0.87,0.67,1.15,1.19s0.43,1.2,0.43,2.03c0,0.88-0.02,1.93-0.05,3.14s-0.05,2.01-0.05,2.39c0,0.35,0.05,0.63,0.16,0.83
		s0.27,0.36,0.49,0.46c0.13,0.06,0.34,0.1,0.63,0.11s0.54,0.02,0.78,0.02V120.84z M219.33,114.73c-0.44,0.15-0.87,0.32-1.31,0.51
		c-0.43,0.19-0.78,0.39-1.06,0.6c-0.29,0.22-0.52,0.5-0.68,0.84s-0.25,0.74-0.25,1.2c0,0.61,0.14,1.05,0.42,1.33
		c0.28,0.27,0.62,0.41,1.03,0.41c0.43,0,0.79-0.09,1.06-0.26c0.28-0.18,0.52-0.39,0.74-0.65L219.33,114.73z"/>
	<path class="st3" d="M241.81,121.08h-7.04v-0.86c0.15-0.02,0.33-0.04,0.54-0.06s0.37-0.06,0.48-0.12c0.16-0.09,0.28-0.21,0.35-0.38
		s0.11-0.41,0.11-0.73v-5.48c0-0.8-0.15-1.4-0.44-1.8c-0.29-0.4-0.73-0.6-1.3-0.6c-0.31,0-0.61,0.05-0.88,0.14
		c-0.27,0.09-0.54,0.23-0.79,0.41c-0.23,0.16-0.41,0.32-0.55,0.48c-0.14,0.16-0.25,0.31-0.35,0.43v6.29c0,0.27,0.04,0.5,0.12,0.69
		s0.21,0.32,0.39,0.42c0.12,0.07,0.28,0.13,0.47,0.19s0.37,0.09,0.55,0.12v0.86h-7.12v-0.86c0.2-0.02,0.39-0.04,0.59-0.06
		s0.37-0.06,0.51-0.11c0.25-0.09,0.42-0.22,0.52-0.4s0.14-0.41,0.14-0.7v-6.82c0-0.24-0.06-0.48-0.19-0.71s-0.29-0.43-0.49-0.57
		c-0.14-0.09-0.32-0.17-0.53-0.23s-0.45-0.11-0.71-0.13v-0.86l5.59-0.3l0.18,0.18v1.7h0.05c0.22-0.2,0.48-0.43,0.8-0.7
		s0.6-0.5,0.87-0.67c0.29-0.19,0.67-0.35,1.14-0.48s0.97-0.2,1.5-0.2c1.27,0,2.23,0.36,2.87,1.08s0.96,1.68,0.96,2.88v5.74
		c0,0.29,0.04,0.52,0.13,0.69s0.25,0.31,0.48,0.41c0.12,0.05,0.28,0.11,0.46,0.16s0.39,0.09,0.63,0.12V121.08z"/>
	<path class="st3" d="M250.49,121.08h-7.41v-0.86c0.2-0.02,0.4-0.04,0.6-0.06s0.36-0.06,0.5-0.12c0.25-0.09,0.43-0.23,0.53-0.4
		s0.15-0.41,0.15-0.7v-6.82c0-0.27-0.06-0.51-0.19-0.72s-0.28-0.37-0.47-0.5c-0.14-0.09-0.35-0.18-0.64-0.27s-0.54-0.14-0.78-0.16
		v-0.86l5.74-0.3l0.18,0.18v9.3c0,0.27,0.06,0.51,0.18,0.7s0.29,0.33,0.5,0.43c0.16,0.07,0.33,0.13,0.52,0.19s0.38,0.09,0.59,0.12
		V121.08z M248.78,105.1c0,0.59-0.23,1.1-0.69,1.52s-1,0.63-1.62,0.63c-0.63,0-1.18-0.21-1.63-0.63s-0.69-0.92-0.69-1.52
		s0.23-1.1,0.69-1.52s1-0.63,1.63-0.63s1.18,0.21,1.63,0.63S248.78,104.5,248.78,105.1z"/>
	<path class="st3" d="M263.74,118.28c-0.27,0.45-0.6,0.87-0.99,1.26s-0.83,0.73-1.32,1.01c-0.52,0.3-1.05,0.52-1.59,0.67
		s-1.15,0.23-1.85,0.23c-1.16,0-2.15-0.16-2.99-0.49s-1.53-0.77-2.08-1.32s-0.96-1.21-1.22-1.96s-0.4-1.57-0.4-2.46
		c0-0.8,0.15-1.56,0.44-2.29s0.71-1.38,1.25-1.95c0.53-0.55,1.2-1,2.01-1.35s1.71-0.52,2.71-0.52c1.09,0,1.99,0.13,2.7,0.4
		s1.29,0.63,1.75,1.1c0.45,0.45,0.77,0.97,0.97,1.58s0.3,1.24,0.3,1.9v0.76h-7.92c0,1.6,0.31,2.82,0.93,3.66
		c0.62,0.84,1.6,1.25,2.94,1.25c0.73,0,1.39-0.2,1.98-0.6s1.09-0.91,1.5-1.53L263.74,118.28z M259.27,113.83
		c0-0.47-0.02-0.95-0.07-1.44s-0.13-0.89-0.25-1.21c-0.13-0.37-0.31-0.64-0.54-0.83s-0.52-0.28-0.87-0.28c-0.6,0-1.08,0.3-1.44,0.91
		c-0.36,0.61-0.55,1.57-0.59,2.89L259.27,113.83z"/>
	<path class="st3" d="M270.49,121.48c-0.76,0-1.5-0.11-2.22-0.33s-1.28-0.46-1.68-0.71l-0.35,0.8h-0.91l-0.15-4.37h0.86
		c0.12,0.35,0.31,0.75,0.59,1.19s0.59,0.84,0.94,1.19c0.37,0.35,0.79,0.65,1.26,0.89s0.98,0.36,1.52,0.36
		c0.71,0,1.24-0.14,1.59-0.42s0.52-0.71,0.52-1.28c0-0.31-0.08-0.57-0.23-0.77s-0.37-0.38-0.64-0.53c-0.3-0.16-0.64-0.29-1-0.4
		s-0.81-0.24-1.34-0.4s-0.99-0.31-1.37-0.47s-0.77-0.41-1.18-0.76c-0.35-0.3-0.63-0.67-0.84-1.1s-0.32-0.94-0.32-1.54
		c0-1.1,0.46-1.99,1.39-2.67s2.14-1.02,3.64-1.02c0.71,0,1.37,0.07,1.96,0.22s1.1,0.3,1.51,0.47l0.25-0.69h0.89l0.19,4h-0.82
		c-0.27-0.81-0.74-1.51-1.41-2.1s-1.38-0.88-2.14-0.88c-0.6,0-1.07,0.12-1.42,0.38s-0.52,0.6-0.52,1.04c0,0.59,0.25,1.02,0.75,1.29
		c0.5,0.27,1.21,0.52,2.11,0.75c1.4,0.36,2.42,0.85,3.07,1.47c0.65,0.62,0.97,1.41,0.97,2.37c0,1.28-0.5,2.27-1.51,2.98
		S272.11,121.48,270.49,121.48z"/>
</g>
<g id="XMLID_43_">
	<g id="XMLID_44_">
		<path id="XMLID_63_" class="st3" d="M225.15,46.16c-1.86-0.16-2.77-1.54-2.77-3.78l0.06-12.9h0.08l5.88,16.78h0.22l6.12-17.07
			h0.06c-0.09,2.02-0.13,5.9-0.13,7.21v6.78c0,2.18-1.18,2.87-1.89,2.98v0.16h8.09v-0.16c-0.66-0.11-1.78-0.8-1.78-2.98V30.57
			c0-2.18,1.12-2.61,1.78-2.71V27.7h-6.06l-4.18,11.81h-0.05l-3.99-11.81h-6.39v0.16c0.93,0.1,1.86,0.64,1.84,2.34l-0.13,11.97
			c-0.08,1.89-0.81,3.75-2.51,3.99v0.16h5.79V46.16z"/>
		<path id="XMLID_62_" class="st3" d="M219.05,46.16c-0.65-0.09-1.74-0.8-1.74-2.98V30.57c0-2.18,1.24-2.65,2.02-2.71V27.7h-8.35
			v0.16c0.71,0.11,1.91,0.53,1.91,2.71v12.61c0,2.18-1.2,2.87-1.91,2.98v0.16h8.07V46.16z"/>
		<path id="XMLID_61_" class="st3" d="M256.11,44.94l0.08-2.61H256c-1.36,3.16-3.22,3.67-5.88,3.67h-2.39v-9.18h1.67
			c2.26,0,3.19,0.75,3.81,2.29h0.16v-4.92h-0.16c-0.59,1.49-1.62,2.32-3.81,2.32h-1.67v-8.48h1.76c2.1,0,5,0.32,6.09,3.48h0.19
			l-0.08-2.42V27.7h-13.99v0.16c0.59,0.11,1.62,0.4,1.62,2.61v12.82c0,2.18-1.04,2.74-1.62,2.87v0.16h14.42V44.94z"/>
		<path id="XMLID_60_" class="st3" d="M199.6,28.02h0.67v15.16c0,2.18-1.27,2.87-2.05,2.98v0.16h8.46v-0.16
			c-0.85-0.11-1.99-0.8-1.99-2.98V28.02h0.66c1.57,0,3.75,0.77,4.97,3.51h0.16l-0.08-2.45V27.7h-15.86v1.38l-0.08,2.45h0.16
			C195.85,28.79,198.03,28.02,199.6,28.02z"/>
		<path id="XMLID_59_" class="st3" d="M261.63,46.24c-2.63,0-4.07-2.29-4.76-3.91h-0.19l0.05,1.92v1.78c1.2,0.27,2.98,0.5,4.97,0.5
			c3.7,0,7.26-1.73,7.26-5.69c0-2.66-1.43-4.52-4.95-5.85c-2.4-0.9-3.83-1.97-3.83-4.09c0-2.02,1.65-3.25,3.52-3.25
			c2.37,0,3.64,1.73,4.41,3.86h0.16l-0.06-1.86v-1.84c-1.14-0.16-2.61-0.42-4.47-0.42c-4.52,0-7.05,2.18-7.05,5.43
			c0,3.27,2.21,4.55,4.63,5.56c2.58,1.06,3.96,2.18,3.96,4.39C265.3,45.1,263.87,46.24,261.63,46.24z"/>
		<path id="XMLID_58_" class="st3" d="M51.69,46.17c-0.72-0.11-1.89-0.8-1.89-2.98v-6.3h6.28v6.3c0,2.18-1.2,2.88-1.91,2.98v0.15
			h8.22v-0.15c-0.72-0.11-1.89-0.8-1.89-2.98v-12.6c0-2.18,1.17-2.61,1.89-2.71v-0.16h-8.22v0.16c0.71,0.1,1.91,0.53,1.91,2.71v5.93
			H49.8v-5.93c0-2.18,1.17-2.61,1.89-2.71v-0.16h-8.22v0.16c0.72,0.1,1.92,0.53,1.92,2.71v12.6c0,2.18-1.2,2.88-1.92,2.98v0.15h8.22
			V46.17z"/>
		<path id="XMLID_57_" class="st3" d="M77.67,44.94l0.08-2.61h-0.19c-1.36,3.17-3.22,3.67-5.88,3.67h-2.39v-9.18h1.67
			c2.26,0,3.2,0.75,3.81,2.29h0.16V34.2h-0.16c-0.58,1.49-1.62,2.31-3.81,2.31h-1.67v-8.48h1.75c2.1,0,5,0.32,6.09,3.49h0.18
			l-0.08-2.42v-1.38H63.26v0.16c0.59,0.11,1.62,0.4,1.62,2.61v12.82c0,2.18-1.03,2.74-1.62,2.87v0.16h14.42V44.94z"/>
		<path id="XMLID_56_" class="st3" d="M32.65,28.02v15.16c0,2.18-1.28,2.88-2.05,2.98v0.16h8.46v-0.16c-0.85-0.1-2-0.8-2-2.98V28.02
			h0.67c1.57,0,3.75,0.77,4.97,3.51h0.16l-0.08-2.45v-1.38H26.93v1.38l-0.08,2.45h0.16c1.22-2.74,3.41-3.51,4.97-3.51H32.65z"/>
		<path id="XMLID_55_" class="st3" d="M90.71,46.24c-2.63,0-4.07-2.29-4.76-3.91h-0.18l0.05,1.92v1.78c1.2,0.27,2.98,0.5,4.98,0.5
			c3.7,0,7.26-1.73,7.26-5.69c0-2.66-1.43-4.52-4.94-5.85c-2.4-0.9-3.83-1.97-3.83-4.09c0-2.02,1.65-3.25,3.51-3.25
			c2.36,0,3.64,1.73,4.41,3.86h0.16l-0.05-1.86v-1.84c-1.14-0.16-2.61-0.42-4.47-0.42c-4.52,0-7.05,2.18-7.05,5.43
			c0,3.27,2.21,4.55,4.63,5.56c2.58,1.06,3.96,2.18,3.96,4.39C94.38,45.1,92.94,46.24,90.71,46.24z"/>
		<path id="XMLID_54_" class="st3" d="M181.11,46.24c-2.63,0-4.07-2.29-4.77-3.91h-0.18l0.06,1.92v1.78c1.19,0.27,2.98,0.5,4.97,0.5
			c3.7,0,7.26-1.73,7.26-5.69c0-2.66-1.43-4.52-4.94-5.85c-2.39-0.9-3.83-1.97-3.83-4.09c0-2.02,1.65-3.25,3.51-3.25
			c2.37,0,3.65,1.73,4.42,3.86h0.16l-0.05-1.86v-1.84c-1.14-0.16-2.6-0.42-4.47-0.42c-4.52,0-7.05,2.18-7.05,5.43
			c0,3.27,2.21,4.55,4.63,5.56c2.58,1.06,3.96,2.18,3.96,4.39C184.78,45.1,183.34,46.24,181.11,46.24z"/>
		<path id="XMLID_53_" class="st3" d="M102.99,28.02h0.67v15.16c0,2.18-1.28,2.87-2.05,2.98v0.16h8.4v-0.16
			c-0.85-0.11-1.94-0.8-1.94-2.98V28.02h0.67c1.57,0,3.75,0.77,4.98,3.51h0.16l-0.08-2.45V27.7H97.94v1.38l-0.08,2.45h0.16
			C99.24,28.79,101.42,28.02,102.99,28.02z"/>
		<path id="XMLID_52_" class="st3" d="M164.98,28.02h0.67v15.16c0,2.18-1.27,2.87-2.04,2.98v0.16h8.45v-0.16
			c-0.85-0.11-1.99-0.8-1.99-2.98V28.02h0.67c1.57,0,3.75,0.77,4.97,3.51h0.16l-0.08-2.45V27.7h-15.85v1.38l-0.08,2.45H160
			C161.23,28.79,163.41,28.02,164.98,28.02z"/>
		<path id="XMLID_51_" class="st3" d="M159.34,46.16c-0.72-0.11-1.89-0.8-1.89-2.98V30.57c0-2.18,1.17-2.61,1.89-2.71V27.7h-8.22
			v0.16c0.72,0.11,1.91,0.53,1.91,2.71v12.61c0,2.18-1.19,2.87-1.91,2.98v0.16h8.22V46.16z"/>
		<path id="XMLID_48_" class="st3" d="M136.87,46.32v-0.16c-1.04-0.06-1.86-1.01-1.86-2.26c0-0.99,0.26-1.86,0.74-3.19l0.4-1.12
			h6.56l0.27,0.8c0.48,1.51,1.01,3.22,1.01,4.07c0,0.67-0.24,1.6-1.14,1.7v0.16h7.95v-0.16c-0.83-0.06-1.59-0.93-2.08-2.4
			l-5.06-16.06h-5.4v0.16c0.69,0.19,1.06,1.01,1.06,1.36c0,0.34-0.05,0.56-0.24,1.06l-4.04,10.77c-1.27,3.52-2.4,4.95-3.33,5.1
			l0,0.17H136.87z M139.66,29.86h0.05l2.87,9.36h-6.3L139.66,29.86z"/>
		<path id="XMLID_45_" class="st3" d="M122.27,46.16c-0.74-0.11-1.59-0.9-1.59-3.11v-6.01h0.35c2.1,0,3.33,2.5,4.34,6.25
			c0.64,2.37,0.69,2.79,0.69,2.93v0.11h5.42v-0.17c-0.84-0.13-1.16-1.7-1.8-3.71c-1.07-3.38-2.1-5.61-5.56-5.8l0.13-0.11
			c3.01-0.13,5.4-1.51,5.4-4.5c0-3.59-3.82-4.33-7.92-4.33h-7.34v0.16c0.72,0.11,1.91,0.53,1.91,2.71v12.61
			c0,2.18-1.19,2.87-1.91,2.98v0.16h7.9V46.16z M120.67,28.05c0.35-0.05,0.74-0.08,0.96-0.08c2.44,0,3.8,1.33,3.8,4.07
			c0,3.06-1.55,4.68-4.1,4.68c-0.21,0-0.42,0-0.66-0.03V28.05z"/>
	</g>
</g>
</svg>
