<svg id="Layer_1" data-name="Layer 1" xmlns="http://www.w3.org/2000/svg" viewBox="0 0 76 100"><defs><style>.cls-1{fill:#17313b;}.cls-2{fill:#fdfdfd;}.cls-3{fill:#fd3d2e;}</style></defs><circle class="cls-1" cx="38" cy="50" r="38"/><path class="cls-2" d="M21.86,77.4C4.69,68.11-.12,46.81,11.65,31.85,18.54,23.1,28.13,19.94,39,20.12A34.59,34.59,0,0,1,63,30.24L52.79,39.8c-.83-.64-1.58-1.25-2.36-1.84a20.24,20.24,0,0,0-21.12-2.42C22.37,38.47,18.93,45.45,20,53.3c1,7,7,12.78,14.4,13.91a19.67,19.67,0,0,0,16.89-4.84c.4-.35.83-.65,1.37-1.09l10.19,9.35C54.27,81,35.92,84.55,21.86,77.4Z"/><path class="cls-3" d="M40,60.71c-2.67-.29-5.33-.14-7.59-1a9.72,9.72,0,0,1-5.86-10.45,10.78,10.78,0,0,1,9-8.71c6.38-.89,11.73,2.73,12.81,8.74C49.19,54.25,46,58.73,40,60.71Z"/></svg>