<svg xmlns="http://www.w3.org/2000/svg" xmlns:xlink="http://www.w3.org/1999/xlink" width="103.758" height="99" viewBox="0 0 103.758 99">
  <defs>
    <clipPath id="clip-path">
      <rect id="Rectangle_51" data-name="Rectangle 51" width="103.758" height="99" fill="none"/>
    </clipPath>
  </defs>
  <g id="PremierPartner-CMYK103x99" transform="translate(-4.36 -4.36)">
    <g id="Group_58" data-name="Group 58" transform="translate(4.36 4.36)">
      <path id="Path_41" data-name="Path 41" d="M105.648,103.178H7.118A2.289,2.289,0,0,1,4.83,100.89V7.038A2.289,2.289,0,0,1,7.118,4.75h98.529a2.289,2.289,0,0,1,2.288,2.288V100.89a2.289,2.289,0,0,1-2.288,2.288Z" transform="translate(-4.49 -4.468)" fill="#fff"/>
      <g id="Group_55" data-name="Group 55" clip-path="url(#clip-path)">
        <path id="Path_42" data-name="Path 42" d="M105.648,103.178H7.118A2.289,2.289,0,0,1,4.83,100.89V7.038A2.289,2.289,0,0,1,7.118,4.75h98.529a2.289,2.289,0,0,1,2.288,2.288V100.89a2.289,2.289,0,0,1-2.288,2.288Z" transform="translate(-4.49 -4.468)" fill="none" stroke="#5f6469" stroke-miterlimit="10" stroke-width="0.79"/>
        <path id="Path_43" data-name="Path 43" d="M105.655,103.178H7.038A2.289,2.289,0,0,1,4.75,100.89V7.038A2.289,2.289,0,0,1,7.038,4.75h98.616a2.289,2.289,0,0,1,2.288,2.288V100.89a2.289,2.289,0,0,1-2.288,2.288Z" transform="translate(-4.468 -4.468)" fill="#fff"/>
        <path id="Path_44" data-name="Path 44" d="M4.75,112.92v16.554c0,2.506.905,3.541,3.541,3.541H104.4c2.788,0,4.135,0,3.541-3.541V112.92Z" transform="translate(-4.468 -34.305)" fill="#666c71"/>
      </g>
      <g id="Group_56" data-name="Group 56" transform="translate(25.621 85.4)">
        <path id="Path_45" data-name="Path 45" d="M39.74,122.29H41.8a2.107,2.107,0,0,1,.97.232,1.76,1.76,0,0,1,.71.652,1.83,1.83,0,0,1,0,1.883,1.867,1.867,0,0,1-.71.652,2.107,2.107,0,0,1-.97.232h-1.13v2.317H39.74V122.3Zm2.086,2.766a1,1,0,0,0,.536-.138.939.939,0,0,0,.34-.355.928.928,0,0,0,0-.9.872.872,0,0,0-.34-.348,1.049,1.049,0,0,0-.536-.13H40.674v1.876h1.151Z" transform="translate(-39.74 -122.29)" fill="#fff"/>
        <path id="Path_46" data-name="Path 46" d="M46.35,122.29h2.1a2.115,2.115,0,0,1,.978.232,1.677,1.677,0,0,1,.7.652,1.8,1.8,0,0,1,.253.941,1.643,1.643,0,0,1-.384,1.065,1.839,1.839,0,0,1-.97.623v.043l1.622,2.354v.051H49.558l-1.571-2.332h-.7v2.332H46.35v-5.96Zm2.071,2.766a1.008,1.008,0,0,0,.71-.268.882.882,0,0,0,.29-.681.922.922,0,0,0-.116-.449.976.976,0,0,0-.333-.355.926.926,0,0,0-.514-.138H47.284v1.89h1.144Z" transform="translate(-41.563 -122.29)" fill="#fff"/>
        <path id="Path_47" data-name="Path 47" d="M53.16,122.29h3.621v.891H54.094v1.651H56.52v.883H54.094v1.651h2.687v.891H53.16V122.3Z" transform="translate(-43.442 -122.29)" fill="#fff"/>
        <path id="Path_48" data-name="Path 48" d="M59.53,122.29H60.8l1.716,4.526h.051l1.716-4.526h1.267v5.96h-.927v-3.338l.051-1.072h-.051l-1.709,4.41h-.746l-1.709-4.41h-.051l.051,1.072v3.338H59.53v-5.96Z" transform="translate(-45.199 -122.29)" fill="#fff"/>
        <path id="Path_49" data-name="Path 49" d="M69.49,122.29h.934v5.96H69.49v-5.96Z" transform="translate(-47.946 -122.29)" fill="#fff"/>
        <path id="Path_50" data-name="Path 50" d="M72.42,122.29h3.621v.891H73.354v1.651H75.78v.883H73.354v1.651h2.687v.891H72.42V122.3Z" transform="translate(-48.754 -122.29)" fill="#fff"/>
        <path id="Path_51" data-name="Path 51" d="M78.79,122.29h2.1a2.115,2.115,0,0,1,.978.232,1.677,1.677,0,0,1,.7.652,1.8,1.8,0,0,1,.253.941,1.643,1.643,0,0,1-.384,1.065,1.839,1.839,0,0,1-.97.623v.043l1.622,2.354v.051H82l-1.571-2.332h-.7v2.332H78.79v-5.96Zm2.071,2.766a1.008,1.008,0,0,0,.71-.268.882.882,0,0,0,.29-.681.922.922,0,0,0-.116-.449.976.976,0,0,0-.333-.355.926.926,0,0,0-.514-.138H79.724v1.89h1.144Z" transform="translate(-50.511 -122.29)" fill="#fff"/>
        <path id="Path_52" data-name="Path 52" d="M87.664,127.431l1.05-1.05c.521-.521.869-.883,1.043-1.072a3.249,3.249,0,0,0,.478-.608,1.114,1.114,0,0,0,.13-.558.76.76,0,0,0-.253-.565.934.934,0,0,0-.673-.239.907.907,0,0,0-.637.232,1.036,1.036,0,0,0-.319.529l-.833-.34a1.741,1.741,0,0,1,.311-.594,1.849,1.849,0,0,1,.616-.492,1.915,1.915,0,0,1,.883-.2,2.073,2.073,0,0,1,.963.217,1.6,1.6,0,0,1,.883,1.441,1.961,1.961,0,0,1-.253.949,3.75,3.75,0,0,1-.645.847c-.109.109-.391.384-.84.833l-.681.681.014.036h2.484v.833H87.679v-.869Z" transform="translate(-52.955 -122.34)" fill="#fff"/>
        <path id="Path_53" data-name="Path 53" d="M94.808,128.039a2.5,2.5,0,0,1-.818-1.072,3.889,3.889,0,0,1-.29-1.513,3.821,3.821,0,0,1,.29-1.521,2.5,2.5,0,0,1,.818-1.072,2.133,2.133,0,0,1,2.462,0,2.514,2.514,0,0,1,.818,1.072,3.925,3.925,0,0,1,.29,1.521,3.785,3.785,0,0,1-.29,1.513,2.515,2.515,0,0,1-.818,1.072,2.014,2.014,0,0,1-1.224.4,1.989,1.989,0,0,1-1.231-.4Zm1.977-.753a1.849,1.849,0,0,0,.492-.76,3.152,3.152,0,0,0,.174-1.079,3.224,3.224,0,0,0-.174-1.086,1.78,1.78,0,0,0-.492-.76,1.131,1.131,0,0,0-.746-.275,1.15,1.15,0,0,0-.753.275,1.628,1.628,0,0,0-.485.76,3.382,3.382,0,0,0-.174,1.086,3.123,3.123,0,0,0,.174,1.079,1.838,1.838,0,0,0,.485.76,1.136,1.136,0,0,0,1.5,0Z" transform="translate(-54.624 -122.34)" fill="#fff"/>
        <path id="Path_54" data-name="Path 54" d="M100.944,127.431l1.05-1.05c.521-.521.869-.883,1.043-1.072a3.248,3.248,0,0,0,.478-.608,1.133,1.133,0,0,0,.13-.558.76.76,0,0,0-.253-.565.934.934,0,0,0-.673-.239.907.907,0,0,0-.637.232,1.036,1.036,0,0,0-.319.529l-.833-.34a1.741,1.741,0,0,1,.311-.594,1.849,1.849,0,0,1,.616-.492,1.915,1.915,0,0,1,.883-.2,2.074,2.074,0,0,1,.963.217,1.6,1.6,0,0,1,.883,1.441,1.961,1.961,0,0,1-.253.949,3.75,3.75,0,0,1-.645.847c-.109.109-.391.384-.84.833l-.681.681.014.036h2.484v.833h-3.708v-.869Z" transform="translate(-56.619 -122.34)" fill="#fff"/>
        <path id="Path_55" data-name="Path 55" d="M107.63,128.066a1.875,1.875,0,0,1-.76-1.086l.847-.348a1.26,1.26,0,0,0,.406.681,1.039,1.039,0,0,0,.7.239,1.1,1.1,0,0,0,.717-.253.793.793,0,0,0,.3-.645.806.806,0,0,0-.319-.652,1.242,1.242,0,0,0-.789-.253h-.492v-.84h.442a1.085,1.085,0,0,0,.688-.217.713.713,0,0,0,.275-.6.657.657,0,0,0-.246-.543.954.954,0,0,0-.63-.2.821.821,0,0,0-.594.2,1.14,1.14,0,0,0-.319.492l-.84-.348a1.891,1.891,0,0,1,.616-.84,1.781,1.781,0,0,1,1.151-.362,2.028,2.028,0,0,1,.927.2,1.518,1.518,0,0,1,.645.558,1.445,1.445,0,0,1,.232.8,1.306,1.306,0,0,1-.217.76,1.411,1.411,0,0,1-.536.478v.051a1.6,1.6,0,0,1,.681.536,1.367,1.367,0,0,1,.268.855,1.621,1.621,0,0,1-.253.891,1.765,1.765,0,0,1-.7.616,2.168,2.168,0,0,1-1.007.224,2.074,2.074,0,0,1-1.188-.369Z" transform="translate(-58.257 -122.345)" fill="#fff"/>
      </g>
      <g id="Group_57" data-name="Group 57" clip-path="url(#clip-path)">
        <path id="Path_56" data-name="Path 56" d="M105.655,103.178H7.038A2.289,2.289,0,0,1,4.75,100.89V7.038A2.289,2.289,0,0,1,7.038,4.75h98.616a2.289,2.289,0,0,1,2.288,2.288V100.89a2.289,2.289,0,0,1-2.288,2.288Z" transform="translate(-4.468 -4.468)" fill="none" stroke="#666c71" stroke-miterlimit="10" stroke-width="0.79"/>
      </g>
    </g>
    <path id="Path_57" data-name="Path 57" d="M29.506,88.716a3.829,3.829,0,0,1-1.912-3.367,3.9,3.9,0,0,1,.514-1.97,3.8,3.8,0,0,1,3.324-1.9,4.022,4.022,0,0,1,1.535.29,3.113,3.113,0,0,1,1.188.818l-.63.63a2.25,2.25,0,0,0-.9-.666,3.063,3.063,0,0,0-1.18-.232A2.93,2.93,0,0,0,28.9,83.755a3.033,3.033,0,0,0-.406,1.593,3.121,3.121,0,0,0,.406,1.593,2.807,2.807,0,0,0,1.093,1.065,2.955,2.955,0,0,0,1.463.377,2.919,2.919,0,0,0,1.246-.232,2.75,2.75,0,0,0,.862-.616,2.215,2.215,0,0,0,.434-.7,3.188,3.188,0,0,0,.21-.905H31.461v-.818h3.563a2.9,2.9,0,0,1,.051.536,4.176,4.176,0,0,1-.217,1.332,2.927,2.927,0,0,1-.7,1.137,3.532,3.532,0,0,1-2.723,1.108,3.773,3.773,0,0,1-1.926-.507Zm1.926.6a3.853,3.853,0,0,1-1.97-.521h0A3.932,3.932,0,0,1,27.5,85.348a4,4,0,0,1,.529-2.013,3.9,3.9,0,0,1,3.4-1.955,4.185,4.185,0,0,1,1.571.3,3.132,3.132,0,0,1,1.217.84l.058.065-.76.76-.065-.08a2.242,2.242,0,0,0-.869-.645,2.88,2.88,0,0,0-1.144-.224,2.843,2.843,0,0,0-1.419.369A2.9,2.9,0,0,0,28.963,83.8a3,3,0,0,0-.4,1.542,2.931,2.931,0,0,0,.4,1.542,2.843,2.843,0,0,0,1.057,1.036,2.883,2.883,0,0,0,1.419.369,2.636,2.636,0,0,0,2.049-.818,2.171,2.171,0,0,0,.42-.673,2.945,2.945,0,0,0,.188-.782H31.36v-1h3.729l.014.072a3.068,3.068,0,0,1,.051.558,4.161,4.161,0,0,1-.224,1.361,3.085,3.085,0,0,1-.717,1.166,3.634,3.634,0,0,1-2.788,1.137Zm0-7.749a3.747,3.747,0,0,0-1.883.492,3.739,3.739,0,0,0-1.876,3.28,3.71,3.71,0,0,0,.507,1.919,3.633,3.633,0,0,0,1.369,1.361h0a3.747,3.747,0,0,0,1.883.492,3.465,3.465,0,0,0,2.658-1.079,2.849,2.849,0,0,0,.673-1.1,3.964,3.964,0,0,0,.21-1.3,3.4,3.4,0,0,0-.036-.449h-3.4v.637h2.752v.1a3.4,3.4,0,0,1-.224.934,2.408,2.408,0,0,1-.449.724,2.939,2.939,0,0,1-.891.637,3.1,3.1,0,0,1-1.289.239,3.136,3.136,0,0,1-1.506-.391,3,3,0,0,1-1.13-1.1,3.129,3.129,0,0,1-.42-1.637,3.2,3.2,0,0,1,.42-1.637A3.033,3.033,0,0,1,31.432,82.2a3.116,3.116,0,0,1,1.217.239,2.37,2.37,0,0,1,.869.616l.5-.5a3,3,0,0,0-1.093-.731,3.982,3.982,0,0,0-1.506-.282Zm5.815,7.285a2.613,2.613,0,0,1-.97-1.014,3.072,3.072,0,0,1,0-2.839,2.613,2.613,0,0,1,.97-1.014,2.829,2.829,0,0,1,2.8,0A2.613,2.613,0,0,1,41.013,85a3.072,3.072,0,0,1,0,2.839,2.613,2.613,0,0,1-.97,1.014,2.829,2.829,0,0,1-2.8,0Zm2.3-.666a1.751,1.751,0,0,0,.673-.7,2.362,2.362,0,0,0,0-2.129,1.731,1.731,0,0,0-.673-.7,1.807,1.807,0,0,0-.905-.246,1.762,1.762,0,0,0-.912.246,1.847,1.847,0,0,0-.681.7,2.362,2.362,0,0,0,0,2.129,1.815,1.815,0,0,0,.681.7,1.834,1.834,0,0,0,.912.246A1.718,1.718,0,0,0,39.55,88.187Zm-.905,1.13a2.793,2.793,0,0,1-1.448-.384,2.681,2.681,0,0,1-1-1.05,3.035,3.035,0,0,1-.355-1.463,3.119,3.119,0,0,1,.355-1.463,2.679,2.679,0,0,1,1-1.05,2.793,2.793,0,0,1,1.448-.384,2.749,2.749,0,0,1,1.441.384,2.681,2.681,0,0,1,1,1.05,3.035,3.035,0,0,1,.355,1.463,3.119,3.119,0,0,1-.355,1.463,2.681,2.681,0,0,1-1,1.05A2.786,2.786,0,0,1,38.645,89.317Zm0-5.612a2.55,2.55,0,0,0-2.288,1.34,2.843,2.843,0,0,0-.333,1.376,2.927,2.927,0,0,0,.333,1.376,2.526,2.526,0,0,0,.934.978h0a2.713,2.713,0,0,0,2.708,0,2.526,2.526,0,0,0,.934-.978,2.843,2.843,0,0,0,.333-1.376,2.927,2.927,0,0,0-.333-1.376A2.526,2.526,0,0,0,40,84.067,2.6,2.6,0,0,0,38.645,83.7Zm0,4.816a1.878,1.878,0,0,1-1.666-.985,2.28,2.28,0,0,1-.268-1.108,2.184,2.184,0,0,1,.268-1.108,1.866,1.866,0,0,1,.71-.731,1.891,1.891,0,0,1,2.614.731,2.28,2.28,0,0,1,.268,1.108,2.184,2.184,0,0,1-.268,1.108,1.818,1.818,0,0,1-.71.731h0A1.9,1.9,0,0,1,38.645,88.52Zm0-4.019a1.735,1.735,0,0,0-.869.232,1.681,1.681,0,0,0-.645.666,2.3,2.3,0,0,0,0,2.042,1.681,1.681,0,0,0,.645.666,1.742,1.742,0,0,0,1.724,0h0a1.713,1.713,0,0,0,.637-.666,2.3,2.3,0,0,0,0-2.042,1.713,1.713,0,0,0-.637-.666,1.689,1.689,0,0,0-.862-.232Zm4.765,4.352a2.613,2.613,0,0,1-.97-1.014,3.072,3.072,0,0,1,0-2.839,2.613,2.613,0,0,1,.97-1.014,2.829,2.829,0,0,1,2.8,0A2.613,2.613,0,0,1,47.175,85a3.072,3.072,0,0,1,0,2.839,2.613,2.613,0,0,1-.97,1.014,2.829,2.829,0,0,1-2.8,0Zm2.3-.666a1.751,1.751,0,0,0,.673-.7,2.362,2.362,0,0,0,0-2.129,1.731,1.731,0,0,0-.673-.7,1.807,1.807,0,0,0-.905-.246,1.762,1.762,0,0,0-.912.246,1.847,1.847,0,0,0-.681.7,2.362,2.362,0,0,0,0,2.129,1.815,1.815,0,0,0,.681.7,1.834,1.834,0,0,0,.912.246A1.718,1.718,0,0,0,45.713,88.187Zm-.905,1.13a2.793,2.793,0,0,1-1.448-.384,2.681,2.681,0,0,1-1-1.05A3.035,3.035,0,0,1,42,86.42a3.119,3.119,0,0,1,.355-1.463,2.679,2.679,0,0,1,1-1.05,2.793,2.793,0,0,1,1.448-.384,2.749,2.749,0,0,1,1.441.384,2.681,2.681,0,0,1,1,1.05A3.035,3.035,0,0,1,47.6,86.42a3.119,3.119,0,0,1-.355,1.463,2.681,2.681,0,0,1-1,1.05A2.786,2.786,0,0,1,44.807,89.317Zm0-5.612a2.55,2.55,0,0,0-2.288,1.34,2.843,2.843,0,0,0-.333,1.376,2.927,2.927,0,0,0,.333,1.376,2.526,2.526,0,0,0,.934.978h0a2.713,2.713,0,0,0,2.708,0A2.526,2.526,0,0,0,47.1,87.8a2.843,2.843,0,0,0,.333-1.376,2.927,2.927,0,0,0-.333-1.376,2.526,2.526,0,0,0-.934-.978A2.6,2.6,0,0,0,44.807,83.7Zm0,4.816a1.878,1.878,0,0,1-1.666-.985,2.28,2.28,0,0,1-.268-1.108,2.184,2.184,0,0,1,.268-1.108,1.866,1.866,0,0,1,.71-.731,1.891,1.891,0,0,1,2.614.731,2.28,2.28,0,0,1,.268,1.108,2.184,2.184,0,0,1-.268,1.108,1.818,1.818,0,0,1-.71.731h0A1.9,1.9,0,0,1,44.807,88.52Zm0-4.019a1.735,1.735,0,0,0-.869.232,1.681,1.681,0,0,0-.645.666,2.3,2.3,0,0,0,0,2.042,1.681,1.681,0,0,0,.645.666,1.742,1.742,0,0,0,1.724,0h0a1.713,1.713,0,0,0,.637-.666,2.3,2.3,0,0,0,0-2.042,1.713,1.713,0,0,0-.637-.666A1.689,1.689,0,0,0,44.8,84.5Zm4.512,6.525a2.108,2.108,0,0,1-.811-1.043l.8-.34a1.544,1.544,0,0,0,.587.739,1.666,1.666,0,0,0,.97.282,1.7,1.7,0,0,0,1.267-.456,1.791,1.791,0,0,0,.449-1.3v-.587h-.043a1.965,1.965,0,0,1-.731.659,2.377,2.377,0,0,1-2.317-.1,2.591,2.591,0,0,1-.9-.992,3.331,3.331,0,0,1,0-2.9,2.562,2.562,0,0,1,.9-1,2.377,2.377,0,0,1,2.317-.1,1.918,1.918,0,0,1,.731.666h.043v-.753h.84v5.076a2.54,2.54,0,0,1-.7,1.941,2.6,2.6,0,0,1-1.854.666,2.551,2.551,0,0,1-1.535-.434Zm2.4-2.839a1.717,1.717,0,0,0,.623-.7,2.362,2.362,0,0,0,.232-1.072,2.425,2.425,0,0,0-.232-1.086,1.647,1.647,0,0,0-.623-.688,1.627,1.627,0,0,0-.862-.239,1.652,1.652,0,0,0-.869.239,1.733,1.733,0,0,0-.63.7,2.362,2.362,0,0,0-.232,1.072,2.394,2.394,0,0,0,.232,1.079,1.646,1.646,0,0,0,1.5.934A1.591,1.591,0,0,0,51.723,88.187Zm-.862,3.367a2.705,2.705,0,0,1-1.593-.449,2.2,2.2,0,0,1-.847-1.093l-.029-.08.963-.413.036.087a1.482,1.482,0,0,0,.55.7,1.549,1.549,0,0,0,.92.268,1.635,1.635,0,0,0,1.2-.427,1.691,1.691,0,0,0,.427-1.238v-.369a2.141,2.141,0,0,1-.637.514,2.347,2.347,0,0,1-1.115.261,2.39,2.39,0,0,1-1.3-.369,2.6,2.6,0,0,1-.927-1.028,3.455,3.455,0,0,1,0-2.991,2.63,2.63,0,0,1,.927-1.036,2.39,2.39,0,0,1,1.3-.369,2.269,2.269,0,0,1,1.115.268,2.055,2.055,0,0,1,.637.521v-.623h1.021v5.163a2.653,2.653,0,0,1-.731,2.006,2.7,2.7,0,0,1-1.919.7Zm-2.238-1.521a2.021,2.021,0,0,0,.753.92,2.441,2.441,0,0,0,3.947-2.1V83.871h-.659v.753h-.181l-.029-.043a1.851,1.851,0,0,0-.7-.637,2.158,2.158,0,0,0-1.028-.246,2.251,2.251,0,0,0-1.2.34,2.374,2.374,0,0,0-.862.963,3.272,3.272,0,0,0,0,2.817,2.422,2.422,0,0,0,.862.963,2.233,2.233,0,0,0,1.2.34,2.155,2.155,0,0,0,1.028-.239,1.782,1.782,0,0,0,.7-.63l.029-.043h.181v.681a1.863,1.863,0,0,1-.478,1.369,1.812,1.812,0,0,1-1.332.485,1.735,1.735,0,0,1-1.021-.3,1.632,1.632,0,0,1-.579-.7l-.637.275Zm2.238-1.513a1.84,1.84,0,0,1-.92-.246,1.754,1.754,0,0,1-.659-.731,2.489,2.489,0,0,1-.246-1.122,2.347,2.347,0,0,1,.246-1.115,1.846,1.846,0,0,1,.659-.731,1.757,1.757,0,0,1,.92-.253,1.794,1.794,0,0,1,.912.246,1.762,1.762,0,0,1,.652.724,2.467,2.467,0,0,1,.246,1.122,2.347,2.347,0,0,1-.246,1.115,1.884,1.884,0,0,1-.652.731,1.731,1.731,0,0,1-.912.253Zm0-4.019a1.579,1.579,0,0,0-.826.232,1.643,1.643,0,0,0-.594.659,2.289,2.289,0,0,0-.224,1.028,2.227,2.227,0,0,0,.224,1.036,1.6,1.6,0,0,0,.594.659,1.537,1.537,0,0,0,.826.224,1.517,1.517,0,0,0,.818-.232,1.627,1.627,0,0,0,.587-.659,2.289,2.289,0,0,0,.224-1.028,2.258,2.258,0,0,0-.224-1.043,1.534,1.534,0,0,0-1.4-.876Zm3.853-2.853H55.6v7.415h-.883Zm.97,7.5H54.62v-7.6h1.065Zm-.883-.181h.7V81.735h-.7Zm3.085-.109a2.489,2.489,0,0,1-.934-1,3.033,3.033,0,0,1-.333-1.434,3.137,3.137,0,0,1,.319-1.412,2.572,2.572,0,0,1,.9-1.028,2.39,2.39,0,0,1,1.347-.384,2.555,2.555,0,0,1,1.347.348,2.329,2.329,0,0,1,.876.956,3.1,3.1,0,0,1,.3,1.4.979.979,0,0,1-.029.268H57.509a2.086,2.086,0,0,0,.29,1.014,1.694,1.694,0,0,0,.659.623,1.8,1.8,0,0,0,.833.21,1.725,1.725,0,0,0,1.564-.956l.746.362a2.5,2.5,0,0,1-2.339,1.383,2.577,2.577,0,0,1-1.354-.362Zm2.882-3.005a1.817,1.817,0,0,0-.188-.666,1.414,1.414,0,0,0-.521-.558,1.636,1.636,0,0,0-.9-.224,1.472,1.472,0,0,0-1.05.4,1.887,1.887,0,0,0-.565,1.05h3.223ZM59.247,89.31a2.634,2.634,0,0,1-1.4-.377h0a2.622,2.622,0,0,1-.97-1.036,3.11,3.11,0,0,1-.348-1.477,3.179,3.179,0,0,1,.326-1.448,2.627,2.627,0,0,1,.927-1.057,2.453,2.453,0,0,1,1.4-.4,2.634,2.634,0,0,1,1.39.362,2.4,2.4,0,0,1,.905.992,3.2,3.2,0,0,1,.319,1.441,1.129,1.129,0,0,1-.036.29l-.022.065H57.589a2.014,2.014,0,0,0,.268.876,1.608,1.608,0,0,0,.623.587,1.719,1.719,0,0,0,.789.2,1.628,1.628,0,0,0,1.485-.905l.043-.072.905.442-.043.08a2.789,2.789,0,0,1-.956,1.05,2.7,2.7,0,0,1-1.463.384Zm-1.311-.529a2.5,2.5,0,0,0,1.311.348,2.461,2.461,0,0,0,1.361-.362,2.523,2.523,0,0,0,.847-.9l-.587-.282a1.792,1.792,0,0,1-1.6.927,1.869,1.869,0,0,1-.876-.217,1.762,1.762,0,0,1-.7-.652,2.186,2.186,0,0,1-.3-1.057v-.094h4.193a1.311,1.311,0,0,0,.014-.181,3.058,3.058,0,0,0-.3-1.361,2.2,2.2,0,0,0-.84-.92,2.433,2.433,0,0,0-1.3-.333,2.287,2.287,0,0,0-1.3.369,2.494,2.494,0,0,0-.862.992,3.084,3.084,0,0,0-.3,1.369,2.981,2.981,0,0,0,.326,1.39,2.467,2.467,0,0,0,.905.963h0Zm2.926-2.839H57.437l.022-.109a2.024,2.024,0,0,1,.594-1.1,1.572,1.572,0,0,1,1.115-.42,1.714,1.714,0,0,1,.941.239,1.555,1.555,0,0,1,.558.594,1.8,1.8,0,0,1,.2.7v.094Zm-3.194-.181h3.005a1.658,1.658,0,0,0-.167-.529,1.3,1.3,0,0,0-.492-.521,1.6,1.6,0,0,0-.847-.21,1.39,1.39,0,0,0-.992.377,1.827,1.827,0,0,0-.514.891Zm7.227-4.12h2.5a2.419,2.419,0,0,1,1.151.282,2.256,2.256,0,0,1,.847.782,2.188,2.188,0,0,1,0,2.274,2.2,2.2,0,0,1-.847.782,2.419,2.419,0,0,1-1.151.282H65.765v3.027H64.9V81.655Zm2.52,3.548a1.375,1.375,0,0,0,1.224-.7,1.309,1.309,0,0,0,0-1.3,1.375,1.375,0,0,0-1.224-.7H65.772V85.2h1.644Zm-1.557,3.954h-1.05v-7.6h2.585a2.512,2.512,0,0,1,1.195.29,2.36,2.36,0,0,1,.876.811,2.2,2.2,0,0,1,.333,1.18,2.137,2.137,0,0,1-.333,1.18,2.247,2.247,0,0,1-.876.811,2.472,2.472,0,0,1-1.195.29H65.859v3.027Zm-.869-.181h.688V85.935h1.716a2.32,2.32,0,0,0,1.108-.268,2.132,2.132,0,0,0,.811-.753,2.092,2.092,0,0,0,0-2.172,2.136,2.136,0,0,0-.811-.753,2.32,2.32,0,0,0-1.108-.268h-2.4v7.234Zm2.426-3.679H65.678v-2.9h1.738a1.461,1.461,0,0,1,.775.21,1.442,1.442,0,0,1,.521.543,1.378,1.378,0,0,1,0,1.39,1.555,1.555,0,0,1-.521.543A1.461,1.461,0,0,1,67.416,85.283ZM65.859,85.1h1.557a1.243,1.243,0,0,0,.681-.181,1.331,1.331,0,0,0,.463-.478,1.194,1.194,0,0,0,0-1.217,1.331,1.331,0,0,0-.463-.478,1.26,1.26,0,0,0-.681-.181H65.859Zm5.612,3.889a1.7,1.7,0,0,1-.7-.63,1.665,1.665,0,0,1-.246-.905,1.543,1.543,0,0,1,.63-1.311,2.614,2.614,0,0,1,1.593-.471,3.746,3.746,0,0,1,.883.1,2.5,2.5,0,0,1,.63.239V85.7a1.2,1.2,0,0,0-.413-.949,1.531,1.531,0,0,0-1.043-.355,1.813,1.813,0,0,0-.818.188,1.5,1.5,0,0,0-.587.536l-.666-.5a2.143,2.143,0,0,1,.855-.746A2.671,2.671,0,0,1,72.8,83.6a2.42,2.42,0,0,1,1.695.565,1.976,1.976,0,0,1,.616,1.535v3.346h-.84V88.3h-.043a1.905,1.905,0,0,1-.681.652,1.963,1.963,0,0,1-1.028.268,2.29,2.29,0,0,1-1.036-.224Zm1.948-.775a1.747,1.747,0,0,0,.608-.608,1.6,1.6,0,0,0,.224-.84,2.142,2.142,0,0,0-.608-.268,2.933,2.933,0,0,0-.768-.1,1.683,1.683,0,0,0-1.093.3.954.954,0,0,0-.369.775.855.855,0,0,0,.333.7,1.284,1.284,0,0,0,.84.268,1.572,1.572,0,0,0,.826-.224Zm-.912,1.093a2.387,2.387,0,0,1-1.079-.239h0a1.743,1.743,0,0,1-1-1.615,1.641,1.641,0,0,1,.666-1.383,2.689,2.689,0,0,1,1.651-.485,3.565,3.565,0,0,1,.905.109,2.647,2.647,0,0,1,.514.174V85.7a1.073,1.073,0,0,0-.384-.876,1.449,1.449,0,0,0-.985-.333,1.63,1.63,0,0,0-.775.181,1.431,1.431,0,0,0-.558.5l-.051.08-.811-.608.043-.072a2.159,2.159,0,0,1,.891-.775,2.831,2.831,0,0,1,1.246-.275,2.5,2.5,0,0,1,1.752.587,2.078,2.078,0,0,1,.645,1.6v3.433H74.158v-.616a2.1,2.1,0,0,1-.587.5,2.079,2.079,0,0,1-1.072.282Zm.239-3.541a2.5,2.5,0,0,0-1.542.456,1.445,1.445,0,0,0-.594,1.238,1.607,1.607,0,0,0,.232.855,1.659,1.659,0,0,0,.666.594h0a2.2,2.2,0,0,0,.992.217,1.909,1.909,0,0,0,.978-.253,1.8,1.8,0,0,0,.652-.623l.029-.043h.181v.753H75V85.71a1.9,1.9,0,0,0-.587-1.47,2.319,2.319,0,0,0-1.629-.543,2.578,2.578,0,0,0-1.166.261,2.035,2.035,0,0,0-.768.645l.514.391a1.625,1.625,0,0,1,.572-.485,1.912,1.912,0,0,1,.862-.2,1.682,1.682,0,0,1,1.108.377,1.282,1.282,0,0,1,.449,1.014v.485l-.138-.087a2.141,2.141,0,0,0-.6-.224,3.65,3.65,0,0,0-.862-.1Zm-.152,2.766a1.378,1.378,0,0,1-.9-.29.958.958,0,0,1-.362-.775,1.057,1.057,0,0,1,.4-.847,1.8,1.8,0,0,1,1.151-.319,2.809,2.809,0,0,1,.789.109,2.255,2.255,0,0,1,.637.282l.043.029v.051a1.7,1.7,0,0,1-.239.883,1.831,1.831,0,0,1-.645.645h0a1.7,1.7,0,0,1-.876.239Zm.29-2.049a1.593,1.593,0,0,0-1.036.282.859.859,0,0,0-.333.71.779.779,0,0,0,.3.637,1.19,1.19,0,0,0,.782.246,1.481,1.481,0,0,0,.782-.217,1.705,1.705,0,0,0,.579-.579,1.491,1.491,0,0,0,.217-.746,2.08,2.08,0,0,0-.543-.232,2.756,2.756,0,0,0-.739-.1Zm3.295-2.629h.84v.84h.043a1.428,1.428,0,0,1,.63-.724,1.893,1.893,0,0,1,.97-.261,1.926,1.926,0,0,1,.384.029v.9a2.062,2.062,0,0,0-.478-.043,1.462,1.462,0,0,0-1.093.442,1.606,1.606,0,0,0-.42,1.159v2.933h-.883V83.849Zm5.359,5.257a1.557,1.557,0,0,1-.463-.282,1.341,1.341,0,0,1-.311-.463,1.7,1.7,0,0,1-.1-.645v-3.15h-.92v-.8h.92V82.285h.876v1.492h1.282v.8H81.537v2.94a1.089,1.089,0,0,0,.167.659.711.711,0,0,0,.572.232,1.08,1.08,0,0,0,.579-.174v.862a1.256,1.256,0,0,1-.319.1,2.167,2.167,0,0,1-.406.029,1.576,1.576,0,0,1-.594-.109Zm.594.2a1.8,1.8,0,0,1-.63-.109,1.351,1.351,0,0,1-.492-.3,1.483,1.483,0,0,1-.333-.492,1.849,1.849,0,0,1-.109-.673V84.668h-.92V83.69h.92V82.2h1.057V83.69h1.282v.978H81.624v2.853a1,1,0,0,0,.145.6.623.623,0,0,0,.5.2,1.022,1.022,0,0,0,.529-.159l.138-.087V89.15l-.051.022a1.546,1.546,0,0,1-.34.109,2.319,2.319,0,0,1-.427.029Zm-2.3-4.83h.92v3.244a1.652,1.652,0,0,0,.094.608,1.237,1.237,0,0,0,.29.434,1.341,1.341,0,0,0,.427.268,1.6,1.6,0,0,0,.565.1,1.958,1.958,0,0,0,.391-.029,1.17,1.17,0,0,0,.246-.072V88.39a1.2,1.2,0,0,1-.492.116.772.772,0,0,1-.637-.268,1.147,1.147,0,0,1-.188-.717V84.487h1.282v-.616H81.443V82.379h-.7v1.492h-.92v.616Zm-2.679,4.75H76.084V83.77h1.021v.637a1.5,1.5,0,0,1,.536-.507,2,2,0,0,1,1.021-.275,3.006,3.006,0,0,1,.4.029l.072.014v1.086l-.109-.029a1.922,1.922,0,0,0-.456-.036,1.338,1.338,0,0,0-1.028.42,1.539,1.539,0,0,0-.391,1.1v3.02Zm-.883-.181h.7V86.21a1.75,1.75,0,0,1,.442-1.224,1.539,1.539,0,0,1,1.159-.471,2.82,2.82,0,0,1,.384.022V83.82a1.8,1.8,0,0,0-.29-.014,1.867,1.867,0,0,0-.927.246,1.327,1.327,0,0,0-.594.681l-.022.058h-.2v-.84h-.659Zm7.56-5.272h.84v.775h.043a1.767,1.767,0,0,1,.7-.666,2.031,2.031,0,0,1,1.014-.275,1.858,1.858,0,0,1,1.456.55,2.161,2.161,0,0,1,.5,1.506v3.389H87.49V85.8a1.378,1.378,0,0,0-.355-1.065,1.364,1.364,0,0,0-.963-.333,1.282,1.282,0,0,0-.76.239,1.588,1.588,0,0,0-.521.63,1.875,1.875,0,0,0-.188.811v2.969h-.883V83.777ZM88.46,89.15H87.4V85.8a1.316,1.316,0,0,0-.326-1,1.273,1.273,0,0,0-.9-.3,1.182,1.182,0,0,0-.71.224,1.521,1.521,0,0,0-.492.594,1.814,1.814,0,0,0-.181.775v3.063H83.724V83.7h1.021v.63a2,2,0,0,1,.6-.507,2.131,2.131,0,0,1,1.057-.29,1.938,1.938,0,0,1,1.521.587,2.265,2.265,0,0,1,.529,1.571v3.476Zm-.883-.181h.7V85.674a2.092,2.092,0,0,0-.478-1.448,1.781,1.781,0,0,0-1.39-.521,1.932,1.932,0,0,0-.97.261,1.647,1.647,0,0,0-.659.637l-.029.043h-.188v-.775H83.9v5.1h.7V86.087a1.966,1.966,0,0,1,.2-.855,1.684,1.684,0,0,1,.55-.659,1.4,1.4,0,0,1,.811-.253A1.3,1.3,0,0,1,87.576,85.8v3.165Zm3.049-.109a2.489,2.489,0,0,1-.934-1,3.033,3.033,0,0,1-.333-1.434,3.137,3.137,0,0,1,.319-1.412,2.572,2.572,0,0,1,.9-1.028,2.351,2.351,0,0,1,1.347-.384,2.555,2.555,0,0,1,1.347.348,2.281,2.281,0,0,1,.876.956,3.1,3.1,0,0,1,.3,1.4.979.979,0,0,1-.029.268H90.249a2.086,2.086,0,0,0,.29,1.014,1.694,1.694,0,0,0,.659.623,1.8,1.8,0,0,0,.833.21,1.725,1.725,0,0,0,1.564-.956l.746.362a2.668,2.668,0,0,1-.927,1.014,2.8,2.8,0,0,1-2.766.007Zm2.882-3.005a1.817,1.817,0,0,0-.188-.666,1.414,1.414,0,0,0-.521-.558,1.636,1.636,0,0,0-.9-.224,1.472,1.472,0,0,0-1.05.4,1.887,1.887,0,0,0-.565,1.05ZM91.987,89.31a2.652,2.652,0,0,1-1.4-.377h0a2.622,2.622,0,0,1-.97-1.036,3.11,3.11,0,0,1-.348-1.477,3.179,3.179,0,0,1,.326-1.448,2.627,2.627,0,0,1,.927-1.057,2.453,2.453,0,0,1,1.4-.4,2.634,2.634,0,0,1,1.39.362,2.4,2.4,0,0,1,.905.992,3.2,3.2,0,0,1,.319,1.441,1.129,1.129,0,0,1-.036.29l-.022.065H90.328a2.014,2.014,0,0,0,.268.876,1.56,1.56,0,0,0,.623.587,1.7,1.7,0,0,0,.789.2,1.621,1.621,0,0,0,1.485-.905l.043-.072.905.442-.043.08a2.788,2.788,0,0,1-.956,1.05,2.718,2.718,0,0,1-1.463.384Zm-1.311-.529a2.5,2.5,0,0,0,1.311.348,2.461,2.461,0,0,0,1.361-.362,2.523,2.523,0,0,0,.847-.9l-.587-.282a1.792,1.792,0,0,1-1.6.927,1.869,1.869,0,0,1-.876-.217,1.762,1.762,0,0,1-.7-.652,2.186,2.186,0,0,1-.3-1.057v-.094h4.193a1.311,1.311,0,0,0,.014-.181,3.058,3.058,0,0,0-.3-1.361,2.242,2.242,0,0,0-.84-.92,2.433,2.433,0,0,0-1.3-.333,2.287,2.287,0,0,0-1.3.369,2.439,2.439,0,0,0-.862.992,3.084,3.084,0,0,0-.3,1.369,2.981,2.981,0,0,0,.326,1.39,2.467,2.467,0,0,0,.905.963h0ZM93.6,85.942H90.176l.022-.109a2.024,2.024,0,0,1,.594-1.1,1.572,1.572,0,0,1,1.115-.42,1.714,1.714,0,0,1,.941.239,1.555,1.555,0,0,1,.558.594,1.8,1.8,0,0,1,.2.7v.094Zm-3.2-.181h3.005a1.658,1.658,0,0,0-.167-.529,1.3,1.3,0,0,0-.492-.521,1.533,1.533,0,0,0-.847-.21,1.39,1.39,0,0,0-.992.377,1.827,1.827,0,0,0-.514.891Zm5.055-1.991h.84v.847h.043a1.439,1.439,0,0,1,.6-.724,1.668,1.668,0,0,1,.934-.29,1.494,1.494,0,0,1,.623.116v.941a1.684,1.684,0,0,0-.746-.167,1.22,1.22,0,0,0-.7.217,1.559,1.559,0,0,0-.514.587,1.657,1.657,0,0,0-.188.8v2.955h-.883V83.77Zm.97,5.373H95.361v-5.46h1.021v.637a1.707,1.707,0,0,1,.5-.492,1.788,1.788,0,0,1,.985-.3,1.671,1.671,0,0,1,.659.123l.058.022V84.82l-.13-.065a1.614,1.614,0,0,0-.7-.159,1.1,1.1,0,0,0-.652.2,1.552,1.552,0,0,0-.485.55,1.584,1.584,0,0,0-.181.753V89.15Zm-.883-.181h.7V86.094a1.728,1.728,0,0,1,.2-.833,1.68,1.68,0,0,1,.543-.623,1.356,1.356,0,0,1,.753-.232,1.776,1.776,0,0,1,.659.116v-.746a1.471,1.471,0,0,0-.529-.087,1.624,1.624,0,0,0-.883.275,1.373,1.373,0,0,0-.565.681L96.4,84.7h-.2v-.847h-.659v5.1Z" transform="translate(-6.383 -21.245)" fill="#606469"/>
    <path id="Path_58" data-name="Path 58" d="M91.425,46.821a18.351,18.351,0,0,0-.355-3.2H76.5v6.04h8.176a6.991,6.991,0,0,1-2.947,4.729v3.939H86.79a15.31,15.31,0,0,0,4.642-11.507h0Z" transform="translate(-19.899 -10.829)" fill="#0081c6"/>
    <path id="Path_59" data-name="Path 59" d="M71.12,64.326a14.9,14.9,0,0,0,10.334-3.773l-5.062-3.939A9.4,9.4,0,0,1,62.379,51.66h-5.2v4.048a15.574,15.574,0,0,0,13.933,8.618h0Z" transform="translate(-14.57 -13.047)" fill="#00ae57"/>
    <path id="Path_60" data-name="Path 60" d="M61.758,47.851a9.371,9.371,0,0,1,0-5.953V37.85h-5.2a15.706,15.706,0,0,0,0,14.049l5.2-4.048Z" transform="translate(-13.941 -9.238)" fill="#fbab18"/>
    <path id="Path_61" data-name="Path 61" d="M71.123,32.171A8.437,8.437,0,0,1,77.09,34.51l4.468-4.483A14.946,14.946,0,0,0,71.123,25.95,15.583,15.583,0,0,0,57.19,34.568l5.2,4.048a9.3,9.3,0,0,1,8.733-6.445h0Z" transform="translate(-14.573 -5.955)" fill="#f04931"/>
  </g>
</svg>
