<svg xmlns="http://www.w3.org/2000/svg" xmlns:xlink="http://www.w3.org/1999/xlink" width="95.828" height="91.434" viewBox="0 0 95.828 91.434">
  <defs>
    <clipPath id="clip-path">
      <rect id="Rectangle_49" data-name="Rectangle 49" width="95.828" height="91.434" fill="none"/>
    </clipPath>
  </defs>
  <g id="_95x92" data-name="95x92" transform="translate(-4.36 -4.36)">
    <path id="Path_30" data-name="Path 30" d="M97.945,95.657h-91A2.114,2.114,0,0,1,4.83,93.544V6.863A2.114,2.114,0,0,1,6.944,4.75h91a2.114,2.114,0,0,1,2.114,2.113v86.68a2.114,2.114,0,0,1-2.114,2.114Z" transform="translate(-0.157 -0.13)" fill="#fff"/>
    <g id="Group_53" data-name="Group 53" transform="translate(4.36 4.36)" clip-path="url(#clip-path)">
      <path id="Path_31" data-name="Path 31" d="M97.943,95.655h-91A2.114,2.114,0,0,1,4.83,93.542V6.863A2.114,2.114,0,0,1,6.943,4.75h91a2.114,2.114,0,0,1,2.113,2.113V93.542a2.114,2.114,0,0,1-2.113,2.113Z" transform="translate(-4.516 -4.489)" fill="none" stroke="#5f6368" stroke-miterlimit="10" stroke-width="0.79"/>
      <path id="Path_32" data-name="Path 32" d="M97.943,95.655H6.863A2.114,2.114,0,0,1,4.75,93.542V6.863A2.114,2.114,0,0,1,6.863,4.75H97.943a2.114,2.114,0,0,1,2.113,2.113V93.542a2.114,2.114,0,0,1-2.113,2.113Z" transform="translate(-4.489 -4.489)" fill="#fff"/>
      <path id="Path_33" data-name="Path 33" d="M4.75,112.92v15.289c0,2.314.836,3.271,3.271,3.271H96.786c2.575,0,3.819,0,3.271-3.271V112.92Z" transform="translate(-4.489 -40.313)" fill="#5f6368"/>
    </g>
    <path id="Path_34" data-name="Path 34" d="M39.74,122.29h1.912a1.963,1.963,0,0,1,.9.213,1.627,1.627,0,0,1,.658.6,1.675,1.675,0,0,1,0,1.733,1.726,1.726,0,0,1-.658.6,1.963,1.963,0,0,1-.9.213H40.606v2.133H39.74V122.3Zm1.933,2.546a.933.933,0,0,0,.5-.127.867.867,0,0,0,.315-.327.849.849,0,0,0,0-.827.805.805,0,0,0-.315-.32.977.977,0,0,0-.5-.12H40.606v1.726h1.067Zm2.51-2.546h1.946a1.971,1.971,0,0,1,.906.213,1.55,1.55,0,0,1,.644.6,1.645,1.645,0,0,1,.235.867,1.507,1.507,0,0,1-.356.98,1.706,1.706,0,0,1-.9.573v.04l1.5,2.166v.047H47.155L45.7,125.63h-.651v2.146h-.866V122.29Zm1.919,2.546a.938.938,0,0,0,.658-.247.809.809,0,0,0,.268-.627.844.844,0,0,0-.107-.413.9.9,0,0,0-.309-.327.863.863,0,0,0-.476-.127H45.048v1.74h1.06Zm2.644-2.546H52.1v.82H49.611v1.52h2.248v.813H49.611v1.52H52.1v.82H48.745V122.3Zm4.274,0h1.174l1.59,4.166h.047l1.59-4.166H58.6v5.486h-.859V124.7l.047-.987h-.047l-1.584,4.059h-.691l-1.584-4.059h-.047l.047.987v3.073h-.859V122.29Zm6.683,0h.866v5.486H59.7Zm1.966,0h3.355v.82H62.534v1.52h2.248v.813H62.534v1.52h2.489v.82H61.669V122.3Zm4.274,0h1.946a1.971,1.971,0,0,1,.906.213,1.55,1.55,0,0,1,.644.6,1.645,1.645,0,0,1,.235.867,1.507,1.507,0,0,1-.356.98,1.706,1.706,0,0,1-.9.573v.04l1.5,2.166v.047H68.915l-1.456-2.146h-.651v2.146h-.866Zm1.919,2.546a.938.938,0,0,0,.658-.247.809.809,0,0,0,.268-.627.845.845,0,0,0-.107-.413.9.9,0,0,0-.309-.327.863.863,0,0,0-.476-.127H66.808v1.74h1.06Zm4.033,2.146.973-.967c.483-.48.805-.813.966-.987a2.993,2.993,0,0,0,.443-.56,1.038,1.038,0,0,0,.121-.513.7.7,0,0,0-.235-.52.869.869,0,0,0-.624-.22.844.844,0,0,0-.59.213.952.952,0,0,0-.3.487l-.772-.313a1.6,1.6,0,0,1,.289-.547,1.711,1.711,0,0,1,.57-.453,1.784,1.784,0,0,1,.819-.187,1.932,1.932,0,0,1,.892.2,1.471,1.471,0,0,1,.819,1.326,1.8,1.8,0,0,1-.235.873,3.453,3.453,0,0,1-.6.78c-.1.1-.362.353-.778.767l-.631.627.013.033h2.3v.767H71.908v-.8Zm5.08.553a2.3,2.3,0,0,1-.758-.987,3.559,3.559,0,0,1-.268-1.393,3.5,3.5,0,0,1,.268-1.4,2.3,2.3,0,0,1,.758-.987,1.987,1.987,0,0,1,2.281,0,2.316,2.316,0,0,1,.758.987,3.592,3.592,0,0,1,.268,1.4,3.464,3.464,0,0,1-.268,1.393,2.317,2.317,0,0,1-.758.987,1.874,1.874,0,0,1-1.134.367,1.851,1.851,0,0,1-1.141-.367Zm1.832-.693a1.7,1.7,0,0,0,.456-.7,2.884,2.884,0,0,0,.161-.993,2.95,2.95,0,0,0-.161-1,1.637,1.637,0,0,0-.456-.7,1.052,1.052,0,0,0-.691-.253,1.07,1.07,0,0,0-.7.253,1.55,1.55,0,0,0-.45.7,3.1,3.1,0,0,0-.161,1,2.857,2.857,0,0,0,.161.993,1.691,1.691,0,0,0,.45.7,1.058,1.058,0,0,0,1.389,0Zm2,.133.973-.967c.483-.48.805-.813.966-.987a2.992,2.992,0,0,0,.443-.56,1.038,1.038,0,0,0,.121-.513.7.7,0,0,0-.235-.52.869.869,0,0,0-.624-.22.844.844,0,0,0-.59.213.952.952,0,0,0-.3.487l-.772-.313a1.6,1.6,0,0,1,.289-.547,1.711,1.711,0,0,1,.57-.453,1.784,1.784,0,0,1,.819-.187,1.932,1.932,0,0,1,.892.2,1.471,1.471,0,0,1,.819,1.326,1.8,1.8,0,0,1-.235.873,3.454,3.454,0,0,1-.6.78c-.1.1-.362.353-.778.767l-.631.627.013.033h2.3v.767H80.819v-.8Zm4.677.58a1.726,1.726,0,0,1-.7-1l.785-.32a1.158,1.158,0,0,0,.376.627.967.967,0,0,0,.644.22,1.021,1.021,0,0,0,.664-.233.728.728,0,0,0,.275-.593.74.74,0,0,0-.3-.6,1.156,1.156,0,0,0-.731-.233H86.04v-.773h.409a1.01,1.01,0,0,0,.637-.2.655.655,0,0,0,.255-.553.6.6,0,0,0-.228-.5.888.888,0,0,0-.584-.187.764.764,0,0,0-.55.187,1.049,1.049,0,0,0-.3.453l-.778-.32a1.741,1.741,0,0,1,.57-.773,1.657,1.657,0,0,1,1.067-.333,1.89,1.89,0,0,1,.859.187,1.4,1.4,0,0,1,.6.513,1.323,1.323,0,0,1,.215.733,1.2,1.2,0,0,1-.2.7,1.3,1.3,0,0,1-.5.44v.047a1.48,1.48,0,0,1,.631.493,1.253,1.253,0,0,1,.248.787,1.485,1.485,0,0,1-.235.82,1.633,1.633,0,0,1-.651.567,2.02,2.02,0,0,1-.933.207,1.93,1.93,0,0,1-1.1-.34Z" transform="translate(-11.797 -39.014)" fill="#fff"/>
    <g id="Group_54" data-name="Group 54" transform="translate(4.36 4.36)" clip-path="url(#clip-path)">
      <path id="Path_35" data-name="Path 35" d="M97.943,95.655H6.863A2.114,2.114,0,0,1,4.75,93.542V6.863A2.114,2.114,0,0,1,6.863,4.75H97.943a2.114,2.114,0,0,1,2.113,2.113V93.542a2.114,2.114,0,0,1-2.113,2.113Z" transform="translate(-4.489 -4.489)" fill="none" stroke="#5f6368" stroke-miterlimit="10" stroke-width="0.79"/>
    </g>
    <path id="Path_36" data-name="Path 36" d="M29.4,88.176a3.522,3.522,0,0,1-1.768-3.1,3.576,3.576,0,0,1,.476-1.813A3.462,3.462,0,0,1,29.4,81.977a3.5,3.5,0,0,1,1.782-.467,3.736,3.736,0,0,1,1.42.267,2.879,2.879,0,0,1,1.1.753l-.583.58a2.08,2.08,0,0,0-.831-.613,2.846,2.846,0,0,0-1.092-.213,2.713,2.713,0,0,0-2.358,1.326,2.781,2.781,0,0,0-.375,1.466,2.861,2.861,0,0,0,.375,1.466,2.591,2.591,0,0,0,1.011.98,2.744,2.744,0,0,0,1.353.347,2.711,2.711,0,0,0,1.152-.213,2.543,2.543,0,0,0,.8-.567,2.037,2.037,0,0,0,.4-.647,2.922,2.922,0,0,0,.194-.833H31.207v-.753h3.3a2.656,2.656,0,0,1,.047.493,3.827,3.827,0,0,1-.2,1.226,2.692,2.692,0,0,1-.643,1.047,3.275,3.275,0,0,1-2.519,1.02,3.5,3.5,0,0,1-1.782-.467Zm7.161.127a2.41,2.41,0,0,1-.9-.933,2.815,2.815,0,0,1,0-2.613,2.41,2.41,0,0,1,.9-.933,2.628,2.628,0,0,1,2.586,0,2.41,2.41,0,0,1,.9.933,2.815,2.815,0,0,1,0,2.613,2.41,2.41,0,0,1-.9.933,2.628,2.628,0,0,1-2.586,0Zm2.13-.613a1.615,1.615,0,0,0,.623-.647,2.165,2.165,0,0,0,0-1.96,1.6,1.6,0,0,0-.623-.64,1.678,1.678,0,0,0-.837-.227,1.636,1.636,0,0,0-.844.227,1.7,1.7,0,0,0-.63.64,2.165,2.165,0,0,0,0,1.96,1.675,1.675,0,0,0,.63.647,1.7,1.7,0,0,0,.844.227A1.6,1.6,0,0,0,38.689,87.689Zm3.57.613a2.41,2.41,0,0,1-.9-.933,2.815,2.815,0,0,1,0-2.613,2.41,2.41,0,0,1,.9-.933,2.628,2.628,0,0,1,2.586,0,2.41,2.41,0,0,1,.9.933,2.815,2.815,0,0,1,0,2.613,2.41,2.41,0,0,1-.9.933,2.628,2.628,0,0,1-2.586,0Zm2.13-.613a1.615,1.615,0,0,0,.623-.647,2.165,2.165,0,0,0,0-1.96,1.6,1.6,0,0,0-.623-.64,1.678,1.678,0,0,0-.837-.227,1.636,1.636,0,0,0-.844.227,1.7,1.7,0,0,0-.63.64,2.165,2.165,0,0,0,0,1.96,1.675,1.675,0,0,0,.63.647,1.7,1.7,0,0,0,.844.227A1.6,1.6,0,0,0,44.39,87.689ZM47.726,90.3a1.941,1.941,0,0,1-.75-.96l.737-.313a1.422,1.422,0,0,0,.543.68,1.546,1.546,0,0,0,.9.26,1.575,1.575,0,0,0,1.172-.42,1.643,1.643,0,0,0,.415-1.2v-.54H50.7a1.815,1.815,0,0,1-.677.607,2.208,2.208,0,0,1-2.144-.093,2.389,2.389,0,0,1-.831-.913,3.052,3.052,0,0,1,0-2.673,2.362,2.362,0,0,1,.831-.92,2.208,2.208,0,0,1,2.144-.093,1.771,1.771,0,0,1,.677.613h.04v-.693h.777v4.673a2.332,2.332,0,0,1-.65,1.786,2.41,2.41,0,0,1-1.715.613,2.368,2.368,0,0,1-1.42-.4Zm2.224-2.613a1.583,1.583,0,0,0,.576-.64,2.165,2.165,0,0,0,.214-.987,2.223,2.223,0,0,0-.214-1,1.546,1.546,0,0,0-2.177-.633,1.6,1.6,0,0,0-.583.64,2.165,2.165,0,0,0-.214.987,2.194,2.194,0,0,0,.214.993,1.508,1.508,0,0,0,.583.64,1.534,1.534,0,0,0,.8.22A1.477,1.477,0,0,0,49.95,87.689Zm2.767-6.019h.817V88.5h-.817Zm2.941,6.646a2.3,2.3,0,0,1-.864-.92,2.781,2.781,0,0,1-.308-1.32,2.876,2.876,0,0,1,.295-1.3,2.371,2.371,0,0,1,.831-.947,2.219,2.219,0,0,1,1.246-.353,2.373,2.373,0,0,1,1.246.32,2.147,2.147,0,0,1,.811.88,2.841,2.841,0,0,1,.281,1.286.9.9,0,0,1-.027.247H55.308a1.913,1.913,0,0,0,.268.933,1.564,1.564,0,0,0,.61.573,1.67,1.67,0,0,0,.77.193,1.6,1.6,0,0,0,1.447-.88l.69.333a2.489,2.489,0,0,1-3.416.94Zm2.666-2.766a1.666,1.666,0,0,0-.174-.613,1.3,1.3,0,0,0-.482-.513,1.519,1.519,0,0,0-.831-.207,1.365,1.365,0,0,0-.971.367,1.734,1.734,0,0,0-.522.967h2.981Zm3.811-3.879h2.311a2.247,2.247,0,0,1,1.065.26,2.083,2.083,0,0,1,.784.72,2.005,2.005,0,0,1,0,2.093,2.035,2.035,0,0,1-.784.72,2.247,2.247,0,0,1-1.065.26H62.938v2.786h-.8V81.683Zm2.331,3.266A1.273,1.273,0,0,0,65.6,84.29a1.2,1.2,0,0,0,0-1.2,1.273,1.273,0,0,0-1.132-.647H62.945v2.5h1.521Zm3.758,3.5a1.569,1.569,0,0,1-.65-.58,1.527,1.527,0,0,1-.228-.833,1.418,1.418,0,0,1,.583-1.206,2.427,2.427,0,0,1,1.474-.433,3.481,3.481,0,0,1,.817.093,2.319,2.319,0,0,1,.583.22V85.4a1.1,1.1,0,0,0-.382-.873,1.421,1.421,0,0,0-.965-.327,1.684,1.684,0,0,0-.757.173,1.381,1.381,0,0,0-.543.493l-.616-.46a1.98,1.98,0,0,1,.79-.687,2.481,2.481,0,0,1,1.119-.247,2.245,2.245,0,0,1,1.567.52,1.814,1.814,0,0,1,.569,1.413v3.08h-.777V87.8h-.04a1.758,1.758,0,0,1-.63.6,1.823,1.823,0,0,1-.951.247,2.127,2.127,0,0,1-.958-.207Zm1.8-.713a1.612,1.612,0,0,0,.563-.56,1.472,1.472,0,0,0,.208-.773,1.987,1.987,0,0,0-.563-.247,2.726,2.726,0,0,0-.71-.093,1.562,1.562,0,0,0-1.011.28.876.876,0,0,0-.342.713.785.785,0,0,0,.308.647,1.192,1.192,0,0,0,.777.247,1.46,1.46,0,0,0,.764-.207Zm2.545-4.013h.777v.773h.04a1.317,1.317,0,0,1,.583-.667,1.758,1.758,0,0,1,.9-.24,1.788,1.788,0,0,1,.355.027v.827a1.916,1.916,0,0,0-.442-.04,1.356,1.356,0,0,0-1.011.407,1.474,1.474,0,0,0-.389,1.067v2.7h-.817V83.7Zm4.957,4.839a1.442,1.442,0,0,1-.429-.26,1.235,1.235,0,0,1-.288-.427,1.555,1.555,0,0,1-.094-.593v-2.9h-.851v-.733h.851V82.263h.811v1.373h1.186v.733H77.528v2.706a1,1,0,0,0,.154.607.659.659,0,0,0,.529.213,1,1,0,0,0,.536-.16v.793a1.166,1.166,0,0,1-.295.093,2.012,2.012,0,0,1-.375.027,1.464,1.464,0,0,1-.549-.1Zm2.123-4.919h.777v.713h.04a1.631,1.631,0,0,1,.643-.613,1.886,1.886,0,0,1,.938-.253,1.723,1.723,0,0,1,1.346.507,1.983,1.983,0,0,1,.462,1.386v3.12h-.817V85.5a1.117,1.117,0,0,0-1.219-1.286,1.19,1.19,0,0,0-.7.22,1.464,1.464,0,0,0-.482.58,1.719,1.719,0,0,0-.174.747v2.733h-.817V83.63Zm6.29,4.679a2.3,2.3,0,0,1-.864-.92,2.781,2.781,0,0,1-.308-1.32,2.876,2.876,0,0,1,.295-1.3,2.371,2.371,0,0,1,.831-.947,2.182,2.182,0,0,1,1.246-.353,2.373,2.373,0,0,1,1.246.32,2.1,2.1,0,0,1,.811.88,2.841,2.841,0,0,1,.281,1.286.9.9,0,0,1-.027.247H85.593a1.913,1.913,0,0,0,.268.933,1.564,1.564,0,0,0,.61.573,1.67,1.67,0,0,0,.77.193,1.6,1.6,0,0,0,1.447-.88l.69.333a2.461,2.461,0,0,1-.857.933,2.6,2.6,0,0,1-2.559.007Zm2.666-2.766a1.666,1.666,0,0,0-.174-.613,1.3,1.3,0,0,0-.482-.513,1.519,1.519,0,0,0-.831-.207,1.365,1.365,0,0,0-.971.367,1.734,1.734,0,0,0-.522.967Zm1.8-1.913h.777v.78h.04a1.326,1.326,0,0,1,.556-.667,1.548,1.548,0,0,1,.864-.267,1.388,1.388,0,0,1,.576.107v.867a1.564,1.564,0,0,0-.69-.153,1.132,1.132,0,0,0-.65.2,1.437,1.437,0,0,0-.476.54,1.52,1.52,0,0,0-.174.733v2.72h-.817V83.63Z" transform="translate(-7.759 -25.531)" fill="#5f6368" stroke="#5f6368" stroke-miterlimit="10" stroke-width="0.25"/>
    <path id="Path_37" data-name="Path 37" d="M90.238,46.566a16.891,16.891,0,0,0-.327-2.946H76.5v5.559h7.526a6.435,6.435,0,0,1-2.713,4.353v3.626h4.659a14.093,14.093,0,0,0,4.273-10.592h0Z" transform="translate(-23.864 -12.987)" fill="#4284f4"/>
    <path id="Path_38" data-name="Path 38" d="M70.011,63.318a13.711,13.711,0,0,0,9.512-3.473l-4.659-3.626a8.656,8.656,0,0,1-12.9-4.559H57.18v3.726A14.336,14.336,0,0,0,70,63.318h0Z" transform="translate(-17.457 -15.649)" fill="#34a853"/>
    <path id="Path_39" data-name="Path 39" d="M61.212,47.055a8.626,8.626,0,0,1,0-5.479V37.85H56.426a14.457,14.457,0,0,0,0,12.931l4.786-3.726Z" transform="translate(-16.73 -11.079)" fill="#fbbc04"/>
    <path id="Path_40" data-name="Path 40" d="M70.015,31.676a7.766,7.766,0,0,1,5.493,2.153L79.62,29.7a13.758,13.758,0,0,0-9.605-3.753A14.343,14.343,0,0,0,57.19,33.882l4.786,3.726a8.563,8.563,0,0,1,8.039-5.932Z" transform="translate(-17.46 -7.143)" fill="#ea4335"/>
  </g>
</svg>
