<?xml version="1.0" encoding="utf-8"?>
<!-- Generator: Adobe Illustrator 26.0.3, SVG Export Plug-In . SVG Version: 6.00 Build 0)  -->
<svg version="1.0" id="Layer_1" xmlns="http://www.w3.org/2000/svg" xmlns:xlink="http://www.w3.org/1999/xlink" x="0px" y="0px"
	 width="173.9px" height="92px" viewBox="0 0 173.9 92" style="enable-background:new 0 0 173.9 92;" xml:space="preserve">
<style type="text/css">
	.st0{display:none;}
	.st1{display:none;fill:#FFFFFF;}
	.st2{fill:#FFFFFF;}
	
		.st3{clip-path:url(#SVGID_00000150798869945274785370000017424933821441199272_);fill:none;stroke:#5F6368;stroke-width:0.7906;stroke-miterlimit:10;}
	.st4{clip-path:url(#SVGID_00000163067385853122779850000018418014918122448810_);fill:#FFFFFF;}
	.st5{clip-path:url(#SVGID_00000050635134105115882120000017732311041528118418_);fill:#5F6368;}
	.st6{fill:#4284F4;}
	.st7{fill:#34A853;}
	.st8{fill:#FBBC04;}
	.st9{fill:#EA4335;}
	
		.st10{clip-path:url(#SVGID_00000002370640888033433940000011150315776834653107_);fill:none;stroke:#5F6368;stroke-width:0.7896;stroke-miterlimit:10;}
	.st11{fill:#5F6368;}
	.st12{fill:#1C2B33;}
	.st13{clip-path:url(#SVGID_00000047750690892874460440000008079799944220783545_);}
	.st14{clip-path:url(#SVGID_00000086663357638197611000000004823618512698629552_);}
	.st15{fill:url(#SVGID_00000072995785483190240010000008283623951723388842_);}
	.st16{fill:#00ADEF;}
	.st17{fill:#1057A9;}
	.st18{fill:#0D59A7;}
	.st19{fill:#2319DC;}
	.st20{fill:#E10601;}
	.st21{fill:#FF004F;}
	.st22{fill:#00F2EA;}
	.st23{fill:#2DC100;}
	.st24{fill:#5F01D1;}
	.st25{fill:#C20237;}
	.st26{fill:url(#SVGID_00000123431191762395610940000004635177806420643252_);}
	.st27{fill:url(#SVGID_00000146470411570648711070000008998539539115630524_);}
	.st28{fill:#654C9F;}
	.st29{fill:#AAAAAA;}
	.st30{fill:#9B9B9B;}
	.st31{fill:#008272;}
</style>
<g>
	<g>
		<path class="st25" d="M110.4,64.4h-5.2L116.4,37h3.8l11.2,27.4h-5.4l-2.6-7H113L110.4,64.4z M122,53.4l-3.8-10.2l-3.8,10.2H122z"
			/>
		<path class="st25" d="M150.9,36v28.4h-4.6v-3.1c-1.3,2-3.6,3.5-5.9,3.5c-5,0-7.7-3.5-7.7-9.7s2.6-9.6,7.7-9.6
			c2.3,0,4.7,1.4,5.9,3.5V36H150.9z M137.5,55.2c0,4.1,1.4,5.7,4.2,5.7c2,0,3.7-1.6,4.6-3.5V53c-0.8-1.9-2.6-3.4-4.6-3.4
			C138.8,49.5,137.5,51.4,137.5,55.2z"/>
		<path class="st25" d="M169,47.8l-2.2,3.3c-1.3-1.3-3-2.2-5-2.2c-1.8,0-2.5,0.6-2.5,1.6c0,1.1,0.7,1.6,3.9,2.8
			c4.8,1.8,6.3,3.2,6.3,6.1c0,3.1-2.8,5.5-7.3,5.5c-2.6,0-5.3-0.6-7.7-1.6V59c1.9,1.2,4.7,2.3,7.1,2.3c2.3,0,3.3-0.6,3.3-1.8
			c0-1-1.3-1.7-4-2.7c-4.4-1.5-6.1-3.3-6.1-6.1c0-3,2.8-5.2,7-5.2C164.4,45.5,166.9,46.3,169,47.8z"/>
	</g>
</g>
<g id="Symbol">
	<g>
		
			<radialGradient id="SVGID_00000032630540894523690500000015648390182157720228_" cx="66.1186" cy="495.5338" r="125.6491" gradientTransform="matrix(0.9986 -5.233596e-02 -4.448556e-02 -0.8488 -33.3068 506.1799)" gradientUnits="userSpaceOnUse">
			<stop  offset="0" style="stop-color:#FED576"/>
			<stop  offset="0.2634" style="stop-color:#F47133"/>
			<stop  offset="0.6091" style="stop-color:#BC3081"/>
			<stop  offset="1" style="stop-color:#4C63D2"/>
		</radialGradient>
		<path style="fill:url(#SVGID_00000032630540894523690500000015648390182157720228_);" d="M24.1,5.5c-2.9,1.1-5.3,2.6-7.7,5
			c-2.4,2.4-3.9,4.8-5,7.7c-1.1,2.8-1.8,5.9-2,10.5c-0.2,4.6-0.3,6.1-0.3,17.9s0.1,13.3,0.3,17.9c0.2,4.6,1,7.8,2,10.5
			c1.1,2.9,2.6,5.3,5,7.7c2.4,2.4,4.8,3.9,7.7,5c2.8,1.1,5.9,1.8,10.5,2s6.1,0.3,17.9,0.3s13.3-0.1,17.9-0.3c4.6-0.2,7.8-1,10.5-2
			c2.9-1.1,5.3-2.6,7.7-5c2.4-2.4,3.9-4.8,5-7.7c1.1-2.8,1.8-5.9,2-10.5c0.2-4.6,0.3-6.1,0.3-17.9s-0.1-13.3-0.3-17.9
			c-0.2-4.6-1-7.8-2-10.5c-1.1-2.8-2.6-5.3-5-7.7c-2.4-2.4-4.8-3.9-7.7-5c-2.8-1.1-5.9-1.8-10.5-2s-6.1-0.3-17.9-0.3
			S39.3,3.2,34.7,3.4C30,3.6,26.8,4.4,24.1,5.5z M70.1,11.2c4.2,0.2,6.5,0.9,8.1,1.5c2,0.8,3.5,1.7,5,3.3c1.5,1.5,2.5,3,3.3,5
			c0.6,1.5,1.3,3.8,1.5,8.1c0.2,4.6,0.2,6,0.2,17.6s-0.1,13-0.2,17.6c-0.2,4.2-0.9,6.5-1.5,8.1c-0.8,2-1.7,3.5-3.3,5
			c-1.5,1.5-3,2.5-5,3.3c-1.5,0.6-3.8,1.3-8.1,1.5c-4.6,0.2-6,0.2-17.6,0.2S39.6,82.2,35,82c-4.2-0.2-6.5-0.9-8.1-1.5
			c-2-0.8-3.5-1.7-5-3.3c-1.5-1.5-2.5-3-3.3-5c-0.6-1.5-1.3-3.8-1.5-8.1c-0.2-4.6-0.2-6-0.2-17.6s0.1-13,0.2-17.6
			c0.2-4.2,0.9-6.5,1.5-8.1c0.8-2,1.7-3.5,3.3-5c1.5-1.5,3-2.5,5-3.3c1.5-0.6,3.8-1.3,8.1-1.5c4.6-0.2,6-0.2,17.6-0.2
			S65.5,11,70.1,11.2z"/>
		
			<radialGradient id="SVGID_00000052079334173799686690000016307532425757794981_" cx="64.7997" cy="291.5099" r="64.5225" gradientTransform="matrix(0.9986 -5.233596e-02 -4.448556e-02 -0.8488 -20.6943 315.6732)" gradientUnits="userSpaceOnUse">
			<stop  offset="0" style="stop-color:#FED576"/>
			<stop  offset="0.2634" style="stop-color:#F47133"/>
			<stop  offset="0.6091" style="stop-color:#BC3081"/>
			<stop  offset="1" style="stop-color:#4C63D2"/>
		</radialGradient>
		<path style="fill:url(#SVGID_00000052079334173799686690000016307532425757794981_);" d="M30.2,46.6c0,12.3,10,22.3,22.3,22.3
			s22.3-10,22.3-22.3s-10-22.3-22.3-22.3S30.2,34.3,30.2,46.6z M67,46.6c0,8-6.5,14.5-14.5,14.5s-14.5-6.5-14.5-14.5
			s6.5-14.5,14.5-14.5S67,38.6,67,46.6z"/>
		<circle class="st28" cx="75.8" cy="23.4" r="5.2"/>
	</g>
</g>
</svg>
