<?xml version="1.0" encoding="utf-8"?>
<!-- Generator: Adobe Illustrator 26.0.3, SVG Export Plug-In . SVG Version: 6.00 Build 0)  -->
<svg version="1.0" id="Layer_1" xmlns="http://www.w3.org/2000/svg" xmlns:xlink="http://www.w3.org/1999/xlink" x="0px" y="0px"
	 width="256.3px" height="92px" viewBox="0 0 256.3 92" style="enable-background:new 0 0 256.3 92;" xml:space="preserve">
<style type="text/css">
	.st0{display:none;}
	.st1{display:none;fill:#FFFFFF;}
	.st2{fill:#FFFFFF;}
	
		.st3{clip-path:url(#SVGID_00000122695106751585795190000014051978351174379938_);fill:none;stroke:#5F6368;stroke-width:0.7906;stroke-miterlimit:10;}
	.st4{clip-path:url(#SVGID_00000016040570616487545100000005000035394694327706_);fill:#FFFFFF;}
	.st5{clip-path:url(#SVGID_00000052099822278154605130000009881979789348720514_);fill:#5F6368;}
	.st6{fill:#4284F4;}
	.st7{fill:#34A853;}
	.st8{fill:#FBBC04;}
	.st9{fill:#EA4335;}
	
		.st10{clip-path:url(#SVGID_00000099648282253468153770000016286687753160985003_);fill:none;stroke:#5F6368;stroke-width:0.7896;stroke-miterlimit:10;}
	.st11{fill:#5F6368;}
	.st12{fill:#1C2B33;}
	.st13{clip-path:url(#SVGID_00000165230263050229150140000008189172530531170196_);}
	.st14{clip-path:url(#SVGID_00000124131931605820298630000006718536796474658202_);}
	.st15{fill:url(#SVGID_00000057845002164559102810000013638090151765016505_);}
	.st16{fill:#00ADEF;}
	.st17{fill:#1057A9;}
	.st18{fill:#0D59A7;}
	.st19{fill:#2319DC;}
	.st20{fill:#E10601;}
	.st21{fill:#FF004F;}
	.st22{fill:#00F2EA;}
	.st23{fill:#2DC100;}
	.st24{fill:#5F01D1;}
	.st25{fill:#C20237;}
	.st26{fill:url(#SVGID_00000181777052414061960890000005295883081257452674_);}
	.st27{fill:url(#SVGID_00000140728426970143893780000008324835778650399899_);}
	.st28{fill:#654C9F;}
	.st29{fill:#AAAAAA;}
	.st30{fill:#9B9B9B;}
	.st31{fill:#008272;}
</style>
<g id="g2225" transform="translate(1.55968, -5.45889)">
	<path id="path2227" class="st19" d="M102.1,51.5c7.8-1.7,6.7-10.9,6.5-13c-0.4-3.1-4.1-8.6-9-8.1c-6.3,0.6-7.2,9.6-7.2,9.6
		C91.5,44.2,94.4,53.1,102.1,51.5 M116.5,35.9c4.3,0,7.7-4.9,7.7-11c0-6.1-3.5-11-7.7-11c-4.3,0-7.7,4.9-7.7,11
		C108.8,31,112.3,35.9,116.5,35.9 M135,36.6c5.7,0.8,9.4-5.4,10.1-10c0.8-4.6-2.9-10-7-10.9c-4.1-0.9-9.1,5.6-9.6,9.8
		C128,30.7,129.3,35.9,135,36.6 M157.7,44.4c0-2.2-1.8-8.9-8.7-8.9c-6.8,0-7.7,6.3-7.7,10.7c0,4.2,0.4,10.2,8.8,10
		C158.6,56.1,157.7,46.6,157.7,44.4 M149,63.9c0,0-8.9-6.8-14-14.3c-7-10.9-17-6.5-20.3-0.9c-3.3,5.6-8.5,9.1-9.2,10
		c-0.7,0.9-10.7,6.3-8.5,16.1c2.2,9.8,10,9.6,10,9.6s5.7,0.6,12.3-0.9c6.6-1.5,12.4,0.4,12.4,0.4s15.5,5.2,19.7-4.8
		C155.6,69,149,63.9,149,63.9"/>
	<path id="path2229" class="st2" d="M117.9,54.3v6.6h-5.4c0,0-5.4,0.4-7.2,6.5c-0.7,4.1,0.6,6.5,0.8,7c0.2,0.5,2,3.5,6.3,4.4h10.1
		V54.4L117.9,54.3z M117.8,74.7h-4.1c0,0-2.8-0.1-3.7-3.4c-0.4-1.4,0.1-3.1,0.3-3.8c0.2-0.7,1.2-2.2,3.1-2.8h4.3L117.8,74.7
		L117.8,74.7z"/>
	<path id="path2231" class="st2" d="M124.9,61.5v12.8c0,0,0.2,3.2,4.7,4.4h11.6V61.5h-5v12.9h-4.8c0,0-1.5-0.2-1.8-1.4V61.4
		L124.9,61.5z"/>
	<path id="path2233" class="st20" d="M196.5,53.1v-5.4h-35.6l0,5.5h15.3l-1.4,3.3h-13v27.1h30.9c3.2,0,2.9-3.3,2.9-3.3V56.4h-13
		l1.1-3.4L196.5,53.1L196.5,53.1L196.5,53.1z M189.6,77.8c0,0-0.4,0.9-0.9,0.9h-20.5v-6.3h21.4L189.6,77.8L189.6,77.8z M189.5,67.1
		h-21.4v-5.9h21.4V67.1L189.5,67.1z"/>
	<path id="path2235" class="st20" d="M237.2,47.8h-14v-2.7h-6.6v2.6h-16v35.8h5.8V52.3h30.8V47.8z M233.4,55.2v-2.1h-5.6v2.1h-11.6
		v-2h-5.3v2h-3.6l0.1,4.1h3.5v7.6h19.5c2.7,0,3.1-2.9,3.1-2.9v-4.8h4.1v-4.1L233.4,55.2L233.4,55.2L233.4,55.2z M227.8,62.1
		c0,0-0.5,0.9-1.1,0.9h-10.5v-3.8h11.6L227.8,62.1L227.8,62.1L227.8,62.1L227.8,62.1z M208,72.5l9,5.2c-0.7,0.8-3.8,1.8-3.8,1.8h-6
		v4h8.1c2.4-0.5,6.9-2.8,6.9-2.8c1.9,1.7,5.4,2.4,5.4,2.4h9.3v-4h-7c-1.9-0.3-3.6-1.4-3.6-1.4l10.6-6.1v-3.3H208L208,72.5L208,72.5
		L208,72.5z M226.7,72.4l-5.1,2.7l-4.7-2.7H226.7z"/>
	<path id="path2237" class="st20" d="M81.6,53.5h7.8v-6.8h-7.8V53.5z M81.6,83.4h7.8V56.5h-7.8V83.4z"/>
	<path id="path2239" class="st20" d="M69,56.5l-16.6,0v5.6h14.5c0,0,3.5,0.9,3.5,3v2H57.2c0,0-5.2,0.5-6.8,6.7
		c-0.3,2.9,0.1,4.3,0.3,4.8c0.2,0.5,1.7,3.9,6.2,4.8h21V64.2C77.9,64.2,76.9,57.6,69,56.5 M70.4,78.1H59.8c-1.4-0.6-1.9-1.5-2-1.8
		c-0.1-0.2-0.4-1.1,0-1.9c0.9-1.7,2.3-2,2.3-2h10.4V78.1z"/>
	<path id="path2241" class="st20" d="M48.7,73.9c0.2-6.5-5.6-8.8-5.6-8.8c5-2.6,4.3-9.1,4.3-9.1c-0.5-10-12.8-9.6-12.8-9.6H15.7
		v37.3h21.4C49.6,83.7,48.7,73.9,48.7,73.9 M36.6,76.8L36.6,76.8l-12.8,0v-8.1h12.7l0.4,0.1c0,0,2.4,0.4,3.3,2.6c0,0,0.5,2-0.6,3.6
		C39.7,75.1,38.9,76.5,36.6,76.8 M39.3,59.5c0,0-0.9,1.6-3.1,1.9H23.8v-7.7h12.3c0,0,2.7-0.1,3.6,2C39.7,55.7,40.2,58,39.3,59.5"/>
</g>
</svg>
