<?xml version="1.0" encoding="utf-8"?>
<!-- Generator: Adobe Illustrator 26.0.3, SVG Export Plug-In . SVG Version: 6.00 Build 0)  -->
<svg version="1.0" id="Layer_1" xmlns="http://www.w3.org/2000/svg" xmlns:xlink="http://www.w3.org/1999/xlink" x="0px" y="0px"
	 width="301.3px" height="92px" viewBox="0 0 301.3 92" style="enable-background:new 0 0 301.3 92;" xml:space="preserve">
<style type="text/css">
	.st0{display:none;}
	.st1{display:none;fill:#FFFFFF;}
	.st2{fill:#FFFFFF;}
	
		.st3{clip-path:url(#SVGID_00000073701719146727563940000017855892660196263353_);fill:none;stroke:#5F6368;stroke-width:0.7906;stroke-miterlimit:10;}
	.st4{clip-path:url(#SVGID_00000099662533442750990410000002332628127108982657_);fill:#FFFFFF;}
	.st5{clip-path:url(#SVGID_00000085936067151856119510000003636633177846030215_);fill:#5F6368;}
	.st6{fill:#4284F4;}
	.st7{fill:#34A853;}
	.st8{fill:#FBBC04;}
	.st9{fill:#EA4335;}
	
		.st10{clip-path:url(#SVGID_00000072267292297312872830000011055549629833772174_);fill:none;stroke:#5F6368;stroke-width:0.7896;stroke-miterlimit:10;}
	.st11{fill:#5F6368;}
	.st12{fill:#1C2B33;}
	.st13{clip-path:url(#SVGID_00000141413273001468144160000003484650725252392833_);}
	.st14{clip-path:url(#SVGID_00000087375564450474470010000001436664417139110586_);}
	.st15{fill:url(#SVGID_00000182521100197165892610000010710035415688033717_);}
	.st16{fill:#00ADEF;}
	.st17{fill:#1057A9;}
	.st18{fill:#0D59A7;}
	.st19{fill:#2319DC;}
	.st20{fill:#E10601;}
	.st21{fill:#FF004F;}
	.st22{fill:#00F2EA;}
	.st23{fill:#2DC100;}
	.st24{fill:#5F01D1;}
	.st25{fill:#C20237;}
	.st26{fill:url(#SVGID_00000018209760638488213640000010627732884997538988_);}
	.st27{fill:url(#SVGID_00000163758732990880242520000006820442154620964252_);}
	.st28{fill:#654C9F;}
	.st29{fill:#AAAAAA;}
	.st30{fill:#9B9B9B;}
	.st31{fill:#008272;}
</style>
<g>
	<path class="st21" d="M61.8,34.3c5.4,3.9,12,6.1,19.2,6.1V26.7c-1.4,0-2.7-0.1-4-0.4v10.8c-7.2,0-13.8-2.3-19.2-6.1v28.1
		c0,14.1-11.4,25.5-25.5,25.5c-5.2,0-10.1-1.6-14.2-4.3c4.6,4.7,11.1,7.7,18.2,7.7c14.1,0,25.5-11.4,25.5-25.5L61.8,34.3L61.8,34.3z
		 M66.8,20.5c-2.8-3-4.6-6.9-5-11.2V7.4H58C58.9,12.9,62.2,17.6,66.8,20.5L66.8,20.5z M27,69.5c-1.5-2-2.4-4.5-2.4-7
		c0-6.4,5.2-11.6,11.7-11.6c1.2,0,2.4,0.2,3.5,0.5V37.2c-1.3-0.2-2.7-0.3-4-0.2v11c-1.1-0.4-2.3-0.5-3.5-0.5
		c-6.4,0-11.6,5.2-11.6,11.6C20.6,63.6,23.2,67.5,27,69.5z"/>
	<path d="M57.8,31c5.4,3.9,12,6.1,19.2,6.1V26.3c-4-0.9-7.5-2.9-10.2-5.8c-4.6-2.8-7.8-7.5-8.8-13h-10v55c0,6.4-5.2,11.6-11.7,11.6
		c-3.8,0-7.1-1.8-9.3-4.6c-3.8-1.9-6.4-5.9-6.4-10.4c0-6.4,5.2-11.6,11.6-11.6c1.2,0,2.4,0.2,3.5,0.5V37
		C22,37.3,10.9,48.6,10.9,62.5c0,6.9,2.8,13.2,7.3,17.8c4.1,2.7,8.9,4.3,14.2,4.3c14.1,0,25.5-11.4,25.5-25.5L57.8,31L57.8,31z"/>
	<path class="st22" d="M77,26.3v-2.9c-3.6,0-7.1-1-10.2-2.9C69.5,23.4,73.1,25.5,77,26.3z M58,7.4c-0.1-0.5-0.2-1.1-0.2-1.6V4.1
		H43.9v55c0,6.4-5.2,11.6-11.6,11.6c-1.9,0-3.7-0.4-5.2-1.2c2.1,2.8,5.5,4.6,9.3,4.6c6.4,0,11.6-5.2,11.7-11.6v-55H58z M35.8,37
		v-3.1c-1.2-0.2-2.3-0.2-3.5-0.2C18.2,33.6,6.8,45,6.8,59.1c0,8.8,4.5,16.6,11.3,21.1c-4.5-4.6-7.3-10.9-7.3-17.8
		C10.9,48.6,22,37.3,35.8,37z"/>
	<path class="st21" d="M237.6,73c10.1,0,18.2-8.1,18.2-18.1c0-10-8.2-18.1-18.2-18.1h-2.7C244.9,36.9,253,45,253,55
		S244.9,73,234.8,73H237.6z"/>
	<path class="st22" d="M234.6,36.9h-2.7c-10.1,0-18.2,8.1-18.2,18.1S221.8,73,231.8,73h2.7c-10.1,0-18.2-8.1-18.2-18.1
		C216.3,45,224.5,36.9,234.6,36.9z"/>
	<path d="M96,28.7v9.2h10.7v34.9h10.7V38.1h8.7l3-9.4L96,28.7L96,28.7z M183.9,28.7v9.2h10.7v34.9h10.7V38.1h8.7l3-9.4L183.9,28.7
		L183.9,28.7z M131.2,33.9c0-2.9,2.3-5.2,5.2-5.2c2.9,0,5.2,2.3,5.2,5.2c0,2.9-2.3,5.2-5.2,5.2C133.6,39.1,131.2,36.8,131.2,33.9z
		 M131.2,42.8h10.5v30h-10.5V42.8z M146.2,28.7v44.1h10.5V61.4l3.2-3L170.2,73h11.2l-14.7-21.3l13.2-12.9h-12.7l-10.5,10.4V28.7
		H146.2z M259.3,28.7v44.1h10.5V61.4l3.2-3L283.2,73h11.2l-14.7-21.3L293,38.9h-12.7l-10.5,10.4V28.7H259.3z"/>
	<path d="M234.8,73C244.9,73,253,64.9,253,55c0-10-8.2-18.1-18.2-18.1h-0.2c-10.1,0-18.2,8.1-18.2,18.1S224.5,73,234.6,73H234.8z
		 M225.8,55c0-4.9,4-8.8,8.9-8.8c4.9,0,8.9,3.9,8.9,8.8s-4,8.8-8.9,8.8C229.8,63.7,225.8,59.8,225.8,55z"/>
</g>
</svg>
