<?xml version="1.0" encoding="utf-8"?>
<!-- Generator: Adobe Illustrator 26.0.3, SVG Export Plug-In . SVG Version: 6.00 Build 0)  -->
<svg version="1.0" id="Layer_1" xmlns="http://www.w3.org/2000/svg" xmlns:xlink="http://www.w3.org/1999/xlink" x="0px" y="0px"
	 width="430.4px" height="92px" viewBox="0 0 430.4 92" style="enable-background:new 0 0 430.4 92;" xml:space="preserve">
<style type="text/css">
	.st0{display:none;}
	.st1{display:none;fill:#FFFFFF;}
	.st2{fill:#FFFFFF;}
	
		.st3{clip-path:url(#SVGID_00000075131129012283630660000010336356649804572824_);fill:none;stroke:#5F6368;stroke-width:0.7906;stroke-miterlimit:10;}
	.st4{clip-path:url(#SVGID_00000047738901200440432420000007299531697886519989_);fill:#FFFFFF;}
	.st5{clip-path:url(#SVGID_00000149372789940443548820000012919246390279592840_);fill:#5F6368;}
	.st6{fill:#4284F4;}
	.st7{fill:#34A853;}
	.st8{fill:#FBBC04;}
	.st9{fill:#EA4335;}
	
		.st10{clip-path:url(#SVGID_00000145043606240810633070000017563702892472159628_);fill:none;stroke:#5F6368;stroke-width:0.7896;stroke-miterlimit:10;}
	.st11{fill:#5F6368;}
	.st12{fill:#1C2B33;}
	.st13{clip-path:url(#SVGID_00000042700802962113096860000010936051754810267829_);}
	.st14{clip-path:url(#SVGID_00000036222466119679395620000010577703801695464107_);}
	.st15{fill:url(#SVGID_00000068638138426157036310000003852095306514857662_);}
	.st16{fill:#00ADEF;}
	.st17{fill:#1057A9;}
	.st18{fill:#0D59A7;}
	.st19{fill:#2319DC;}
	.st20{fill:#E10601;}
	.st21{fill:#FF004F;}
	.st22{fill:#00F2EA;}
	.st23{fill:#2DC100;}
	.st24{fill:#5F01D1;}
	.st25{fill:#C20237;}
	.st26{fill:url(#SVGID_00000106128263145523767810000001216695882322259619_);}
	.st27{fill:url(#SVGID_00000000924663158482503740000001911335813236751254_);}
	.st28{fill:#654C9F;}
	.st29{fill:#AAAAAA;}
	.st30{fill:#9B9B9B;}
	.st31{fill:#008272;}
</style>
<g>
	<path class="st16" d="M426.5,66.5c0,4.9,0,9.8,0,14.7c0,2.7-1,4.4-3.8,4.5c-2.6,0.2-4.1-1.5-4.1-4.6c-0.1-8.7,0-17.4,0-26.1
		c0-13.6-10.1-23.8-23.3-23.7c-12.7,0-22.6,10.4-22.7,23.7c-0.1,8.5,0,17,0,25.5c0,3.5-1.4,5.3-4.1,5.2c-2.6-0.1-4-1.7-3.9-5.2
		c0.2-10.6-1-21.3,0.6-31.9c2.3-15.4,17.2-26.8,32.6-25.5c16.3,1.4,28.8,14.5,28.8,30.4C426.5,57.9,426.5,62.2,426.5,66.5z"/>
	<path class="st16" d="M266.7,23.6c8.6-0.1,15.3,3.3,21.3,8.5c1.7,1.5,2.9,3.5,1,5.6c-1.8,2-4,1.8-6,0.2c-5.9-4.7-12.3-7.2-20-5.8
		c-9.6,1.7-16.8,8.9-18.7,18.7c-1.7,8.9,2.5,18.3,10.3,23.3c8.2,5.2,18.5,4.8,26.2-1.1c0.8-0.6,1.6-1.3,2.4-1.9
		c1.9-1.4,3.9-1.5,5.6,0.2c1.8,1.8,1.5,3.9-0.2,5.8c-3.3,3.6-7.4,5.8-12,7.2c-17.8,5.4-35.9-4.5-40-21.9
		c-4.3-18.2,7.3-35.3,25.9-38.4C264.1,23.7,265.7,23.7,266.7,23.6z"/>
	<path class="st17" d="M150.2,36.6c0,9-0.1,18,0,27c0.1,8.5,4.4,13.2,12.9,14.2c2.8,0.3,4.2,1.8,4,4.4c-0.2,2.6-1.8,3.6-4.4,3.7
		c-11.2,0.3-20.6-8.9-20.7-21c-0.2-18.8-0.1-37.7,0-56.5c0-3.2,1.6-4.9,4.3-4.8c2.5,0.1,3.9,1.7,3.9,4.8
		C150.2,17.7,150.2,27.1,150.2,36.6C150.2,36.6,150.2,36.6,150.2,36.6z"/>
	<path class="st18" d="M317,85.2c16.7,6.1,36.6-5.5,40.7-23.5c3.4-15.2-3.9-30.4-17.9-37c-13.9-6.5-30.4-2.3-39.8,10.2
		c-0.4,0.6-0.8,1.1-1.3,1.7c-2.4-1.1-0.8-2.3,0-3.3c9.7-12.7,26.7-17.1,41.3-10.6c13,5.7,21.3,19.2,20.4,33.2
		c-1,15.4-10.1,27.1-24.6,31.4c-13.7,4.1-28.7-0.8-37.2-12.3c-0.4-0.6-0.8-1.2-1.1-1.8c-0.2-0.5-0.1-1.1,0.5-1.3
		c0.3-0.1,0.8,0.1,1.1,0.3c0.5,0.5,0.8,1.1,1.3,1.7C304.7,79.5,310,83.6,317,85.2z"/>
	<path class="st16" d="M299.4,40.4c5.2-8.5,12.3-14.1,22.3-15.6c15.7-2.5,31,8.7,33.7,24.7c2.6,15.4-8.1,30.8-23.5,33.8
		c-1.7,0.3-3.4,0.6-5.2,0.6c-1,0-2.7,0.7-2.7-1c0-1.4,1.6-0.8,2.5-0.9c6.7-0.3,12.6-2.5,17.6-6.9c3.9-3.5,6.7-7.7,8.3-12.7
		c-0.2-0.4-0.2-0.8,0.2-1.2c1.4-3.8,1.7-7.8,0.5-11.7c-1.3-10.4-9.9-19.7-20.6-22.4c-11.1-2.8-23,1.7-29.5,11.1
		c-4.9,7.2-6.3,15-4,23.4c0.2,0.9,1.1,2.3-0.2,2.7c-1.4,0.4-1.3-1.2-1.6-2.1C295.2,54.7,296.3,47.4,299.4,40.4z"/>
	<path class="st18" d="M344.8,66.8c0.3-0.3,0.5-0.6,0.8-0.9c0.8-0.7,0.9-2.9,2.4-1.8c1.2,0.9-0.2,2.2-0.8,3.2
		c-4.8,8-15.8,14.9-30.2,10.1c-10.9-5.2-16.3-13.7-15.3-25.8c0.8-10.3,6.7-17.2,16.3-20.7c9.8-3.5,18.5-1.1,26,6
		c0.7,0.6,1.9,1.5,0.7,2.5c-1.2,0.9-1.8-0.6-2.4-1.2c-9.9-9.4-24.8-8.7-33.5,1.6c-8.4,10-6.4,25.1,4.3,32.8
		C323.5,79.9,338.5,77.2,344.8,66.8z"/>
	<path class="st16" d="M346.5,58.6c-1,2.6-2.2,5.1-3.8,7.5c-3.4,3.6-7.3,6.3-12.4,6.8c-0.9,0.1-2.4,0.8-2.6-0.6
		c-0.2-1.1,1.3-1,2.2-1.1c9.1-1.6,14.9-8.1,14.9-16.8c0-8.7-6-15.5-15-17.1c-0.8-0.2-2.3,0.2-2-1.2c0.2-1.1,1.5-0.7,2.4-0.6
		c9.6,0.9,17.4,10.4,16.5,20C346.6,56.5,346.6,57.6,346.5,58.6z"/>
	<path class="st17" d="M35.1,4C26,2.6,16.7,3.7,7.5,3.5C2.9,3.4,1.9,4.5,1.9,9c0,11.9,0,23.7,0,35.6c0,12.1,0,24.1,0,36.2
		c0,2.5,0.7,4.8,3.5,4.8c9.9,0,19.9,1,29.7-0.5c19.3-2.9,33.9-20.3,34-40C69.2,24.9,54.5,7,35.1,4z M29.5,77.7
		c-5.6,0.2-11.3,0-16.9,0.2c-2.2,0.1-2.8-0.7-2.8-2.8c0.1-10.2,0-20.5,0-30.7c0-9.9,0.1-19.9-0.1-29.8c0-2.4,0.6-3.2,3.1-3.1
		c6.6,0.3,13.3-0.5,19.9,0.5c17.2,2.6,28.9,17.5,28,35.5C60,63.4,45.9,77,29.5,77.7z"/>
	<path class="st17" d="M136.6,54c-0.9-13.1-7.4-22.7-19.4-27.9c-11.4-5-22.2-2.6-31.6,5.1c-9.8,8-13.2,18.9-10.3,31.1
		c5,21.4,28.1,28.3,44.8,20.4c2.9-1.4,5.3-3.5,7.4-5.9c1.5-1.8,1.5-3.9-0.1-5.6c-1.7-1.7-3.6-1.7-5.5-0.3c-1,0.7-1.9,1.6-2.9,2.3
		c-12.9,9.2-31.4,3-35.6-12c-0.6-2.1-0.2-2.6,2-2.6c7.8,0.1,15.6,0,23.3,0s15.6,0,23.3,0C135.4,58.7,136.9,57.2,136.6,54z
		 M125.6,50.8c-6.6-0.1-13.3,0-19.9,0c-6.8,0-13.5-0.1-20.3,0c-2.2,0-2.3-0.7-1.8-2.5c2.6-9.5,11.9-16.5,22-16.5
		c9.9,0,19.5,7.3,22,16.6C128.1,50.4,127.5,50.8,125.6,50.8z"/>
	<path class="st17" d="M228,53.9c0-1.4-0.1-2.9-0.4-4.3c-2.9-15.3-16.2-26.3-31.6-25.9c-15.2,0.4-28.1,12.3-30,27.8
		c-1.5,12.2,4.6,24.3,15.3,30.3c11,6.2,23.3,5.3,33.3-2.6c1.7-1.3,3.2-2.7,4.8-4.1c0.3,0.2,0.4,0.2,0.4,0.3c0.1,1.8,0.1,3.7,0.2,5.5
		c0.1,3.3,1.5,4.9,4.3,4.8c2.6-0.1,3.8-1.6,3.8-4.9C228.1,71.9,228.1,62.9,228,53.9z M196.8,77.7c-12.5,0-22.9-10.5-22.8-22.9
		c0.1-12.6,10.4-22.9,22.9-22.9c12.6,0,23.2,10.3,23.1,22.6C219.9,67.2,209.5,77.7,196.8,77.7z"/>
</g>
</svg>
